<?xml version="1.0" encoding="utf-8"?>
<!-- Generator: Adobe Illustrator 26.4.1, SVG Export Plug-In . SVG Version: 6.00 Build 0)  -->
<svg version="1.1" xmlns="http://www.w3.org/2000/svg" xmlns:xlink="http://www.w3.org/1999/xlink" x="0px" y="0px"
	 viewBox="0 0 750 1472" style="enable-background:new 0 0 750 1472;" xml:space="preserve">
<style type="text/css">
	.st0{fill:#1C3A32;}
	.st1{fill:#A32726;}
	.st2{fill:#F1BBAC;}
	.st3{fill:#6D7130;}
	.st4{fill:#BCC7BC;}
	.st5{fill:#00538C;}
	.st6{fill:none;}
	.st7{fill:#EF4B24;}
	.st8{fill:#C7D6E5;}
	.st9{fill:#6C702B;}
	.st10{fill:#6D2B3C;}
</style>
<g id="Layer_1">
</g>
<g id="Layer_2">
	<rect x="-7" y="-19" class="st0" width="782" height="1496"/>
	<path class="st1" d="M625.9,111c0.2-0.1,0.5-0.1,0.6-0.3c1.9-2,4-3.8,6.1-5.6c0.9-0.8,1.7-1.6,2.4-2.5c0.8-0.9,1.7-1.8,2.7-2.6
		c1.1-0.8,2.1-1.7,3.2-2.5c2.5-1.9,5.3-3.2,8.1-4.4c1.1-0.5,2.3-1,3.4-1.5c0.8-0.3,1.5-0.7,2.3-0.9c1-0.3,2-0.3,3,0
		c1.3,0.4,2.5,0.8,3.7,1.5c0.4,0.2,0.8,0.6,1.2,0.9c0.3,0.3,0.6,0.7,0.4,1.1c-0.4,0.9-0.1,1.8,0.2,2.7c-0.7,1.5-1.3,3.1-1.3,4.8
		c0,0.7-0.3,1.3-0.7,1.8c-1.1,1.2-1.8,2.6-2.8,3.8c-1.7,2.1-3.5,4-5.8,5.5c-1.1,0.7-2.3,1.4-3.5,1.9c-0.9,0.3-1.7,0.7-2.4,1.3
		c-2.4,1.9-5.1,3.2-7.9,4.3c-0.3,0.1-0.6,0.3-0.9,0.5c-0.1,0.1-0.1,0.3-0.2,0.5c0.3,0.2,0.5,0.4,0.8,0.6c0.5,0.2,0.9,0.4,1.4,0.5
		c3,0.5,5.8,1.7,8.6,2.5c1.8,0.5,3.6,1.2,5.4,1.9c1.3,0.5,2.4,1.1,3.5,1.9c0.5,0.4,1,0.8,1.5,1.3c1.2,1.2,2.3,2.4,3.5,3.6
		c0.1,0.1,0.3,0.2,0.4,0.3c1,1.5,1.2,1.6,0.3,3.1c-0.5,0.8-1,1.5-1.5,2.3c-0.6,0.8-1.4,1.4-2.4,1.7c-0.2,0.1-0.5,0.1-0.7,0.2
		c-1.2,0.3-2.4,0.8-3.4,1.5c-0.6,0.4-1.3,0.7-2,1c-1.1,0.5-2.2,0.6-3.4,0.5c-1.8-0.2-3.6-0.6-5.3-1.4c-1.9-0.9-3.8-1.8-5.6-2.7
		c-1.7-0.8-3.3-1.6-5-2.4c-0.3-0.1-0.6-0.2-1-0.1c0,0,0-0.1,0-0.1l0.1,0c0,0.2-0.1,0.4,0,0.5c0.6,1.4,1.5,2.6,2.8,3.5
		c0.6,0.4,1.2,0.9,1.7,1.5c0.5,0.7,1,1.4,1.6,2c0.5,0.5,1.1,1,1.7,1.5c0.1,0.5,0.2,1,0.4,1.5c0.2,0.5,0.6,1,0.9,1.5
		c0.3,0.5,0.6,1,0.9,1.5c0.5,0.9,0.9,1.8,1.2,2.8c0.3,1.1,0.7,2.2,1.1,3.3c0.2,0.6,0.5,1.2,0.6,1.9c0.2,0.9,0.3,1.8,0,2.7
		c-0.2,0.6-0.3,1.1-0.5,1.7c-0.4,1.4-1.3,2.5-2.4,3.5c-1.4,1.1-3,1.5-4.7,1.1c-2.4-0.5-4.6-1.5-6.6-2.9c-1.4-1-2.4-2.3-3.2-3.8
		c-1.1-2-2.2-4.1-3.3-6.2c-0.2-0.3-0.4-0.6-0.6-0.8c-0.1-0.1-0.3,0-0.5,0c-0.3,1.9-0.7,3.8-0.9,5.7c-0.1,0.9,0,1.8,0,2.8
		c0,2.5-0.3,5-0.5,7.5c-0.1,1.5-1.7,3.3-3.7,3.5c-1.4,0.2-2.7,0-3.9-0.5c-0.8-0.3-1.7-0.7-2.5-1.1c-0.8-1.2-1.7-2.5-2.5-3.7
		c-1.2-1.8-2.2-3.8-2.9-5.8c-0.3-0.8-0.6-1.6-0.9-2.3c-0.5-1.2-0.9-2.5-1.3-3.8c-0.3-1.2-0.6-2.4-1-3.6c-0.1-0.2-0.3-0.5-0.5-0.5
		c-0.2,0-0.4,0.3-0.5,0.5c-0.3,1.1-0.9,1.9-1.6,2.8c-3.5,5.2-3.2,4.4-6.9,7.5c-0.8,0.7-1.6,1.4-2.4,2.2c-0.9,0.8-1.9,1.4-3.1,1.5
		c-1.3,0.1-2.6,0.5-4,0.5c-1.8,0-3.4-0.5-5.1-1.1c-0.3-0.1-0.6-0.3-0.8-0.5c-0.4-0.3-0.7-0.7-1-1.1c-0.5-0.5-0.9-1-1-1.7
		c-0.1-0.6-0.4-1.1-0.6-1.6c-0.5-1.4-0.5-2.8,0.2-4.1c0.2-0.4,0.4-0.8,0.5-1.2c0.3-1.7,1.2-3.1,2.4-4.3c1.2-1.2,2.1-2.6,3.1-3.9
		c0.6-0.9,1.2-1.8,2-2.6c0.3-0.4,0.7-0.8,1-1.2c1.1-1.5,2-3.1,3.4-4.3c0.1-0.1,0.1-0.1,0.1-0.2c0-0.2,0.1-0.3,0-0.5
		c-0.1-0.1-0.3-0.3-0.4-0.2c-1.5,0.2-3,0.4-4.4,0.7c-1.3,0.2-2.6,0.4-4,0.6c-1.2,0.2-2.3,0.3-3.5,0.4c-2.2,0.3-4.5,0.2-6.8,0.2
		c-1.4,0-2.6-0.6-3.8-1.1c-0.4-0.2-0.7-0.5-0.9-0.8c-0.5-0.6-0.8-1.2-1-2c-0.1-0.2-0.1-0.5,0-0.7c0.4-1.2,0.9-2.3,1.4-3.5
		c0.1-0.2,0.3-0.4,0.4-0.6c1.1-1.2,2.3-2.4,3.7-3.4c0.8-0.5,1.5-1,2.4-1.2c1.1-0.3,2.2-0.8,3.2-1.3c1.1-0.6,2.3-0.9,3.6-1
		c0.5-0.1,1-0.3,1.2-0.7c0.2-0.4,0.7-0.4,1.1-0.6c0.1-0.1,0.2-0.2,0.3-0.4c0-0.1-0.1-0.3-0.2-0.4c0-0.1-0.1-0.1-0.2-0.1
		c-1.4-0.4-2.9-0.9-4.3-1.3c-1.3-0.4-2.5-0.8-3.8-1.3c-1.2-0.5-2.5-1-3.7-1.6c-0.9-0.4-1.8-0.9-2.5-1.7c-0.8-0.9-1.6-1.7-2.4-2.5
		c-1.4-1.6-2.1-3.4-1.9-5.5c0.1-0.7,0.1-1.3,0.2-2c0.3-0.5,0.7-0.9,1-1.4c0.4-0.9,1.2-1.4,2.1-1.6c1.8-0.3,3.5-1,5.4-1
		c0.9,0,1.8,0,2.7,0.3c1.1,0.3,2.3,0.6,3.4,0.8c0.2,0.1,0.5,0.1,0.7,0.2c2.8,1.1,5.6,2.2,8.2,3.8c1.3,0.8,2.6,1.6,3.8,2.4
		c0.9,0.5,1.8,0.9,2.7,1.2c0.1,0,0.2-0.1,0.2-0.1c0-0.1,0-0.3-0.1-0.4c-0.2-0.2-0.5-0.5-0.7-0.7c-2.6-2.1-4.9-4.5-7.1-7.1
		c-0.9-1.1-1.9-2.1-2.8-3.2c-1.8-2-3.3-4.2-4.2-6.7c-0.4-0.9-0.8-1.9-1.1-2.8c-0.1-0.4-0.2-0.8-0.1-1.2c0.3-1.4,0.7-2.8,1.4-4
		c0.5-0.8,1.1-1.4,2.1-1.6c0.6-0.1,1.1-0.3,1.7-0.4c1.3-0.1,2.7-0.1,3.9,0.4c0.3,0.1,0.6,0.4,0.9,0.4c1.2,0,2,0.7,2.9,1.4
		c1.3,1.1,2.4,2.3,3.4,3.7c0.1,0.1,0.2,0.3,0.3,0.4c0.1,0.1,0.3,0.2,0.4,0.1c0.1,0,0.3-0.2,0.3-0.3c-0.1-0.6-0.1-1.2-0.2-1.7
		c-0.3-1.9-0.3-3.8,0.3-5.7c0.5-1.4,0.7-2.9,1-4.4c0.3-1.2,0.8-2.2,1.6-3.1c0.9-1,2.2-1.6,3.5-1.8c0.5-0.1,1,0,1.5,0.2
		c0.9,0.3,1.8,0.8,2.7,1.2c0.5,0.3,0.9,0.7,1.2,1.2c0.5,0.9,1,1.7,1.7,2.5c0.3,0.3,0.5,0.7,0.6,1.1c0.8,2.4,1.9,4.6,2.6,7
		c0.3,1,0.7,2.1,1,3.1c0.5,1.9,1,3.9,1.6,5.8c0.6,2.2,0.6,4.5,0.6,6.7c0,1.3,0,2.7,0,4c0,0.1,0.2,0.2,0.3,0.3c0.2,0.1,0.3,0,0.4-0.1
		c0.1-0.1,0.2-0.3,0.2-0.5c1-4,2.1-7.9,3.4-11.8c0.3-0.9,0.6-1.7,1-2.6c0.4-0.9,0.8-1.8,1.2-2.8c0.2-0.5,0.4-0.9,0.7-1.3
		c1.1-2,2.2-3.9,3.3-5.9c0.8-1.5,1.7-2.9,2.8-4.2c0.5-0.6,1.2-1,1.9-1c0.6,0,1.2-0.1,1.7,0.1c1.7,0.4,2.8,1.6,3.5,3.3
		c1,2.5,1.4,5.1,1.8,7.8c0.3,1.9,0.2,3.8,0.2,5.7c0,0.4-0.2,0.8-0.5,1.1c-0.6,0.5-0.9,1.1-1.2,1.9c-0.8,2.2-1.7,4.4-2.8,6.4
		c-0.3,0.5-0.6,1-0.9,1.5c-0.7,0.8-1.2,1.6-1.7,2.5c-0.8,1.5-1.7,2.9-2.5,4.3C626.1,110.4,625.9,110.7,625.9,111
		c-0.8,0.3-1.2,1-1.5,1.7c0,0.1,0,0.2,0,0.2c0.1,0.2,0.2,0.2,0.4,0.1C625.4,112.5,625.9,111.9,625.9,111"/>
	<path class="st2" d="M612.2,23.8c0.3,0,0.6-0.2,0.8-0.4c0.5-0.4,1.1-0.7,1.7-0.9c0.7-0.3,1.4-0.1,1.9,0.4c0.1,0.1,0.2,0.2,0.2,0.3
		c0.1,0.2,0.1,0.5,0.2,0.8c0.1,0.8,0.2,1.5,0.5,2.3c0.3,0.6,0.2,1.3-0.1,1.9c-0.2,0.4-0.4,0.8-0.7,1.3c-0.2,0.3-0.1,0.5,0.3,0.5
		c0.9,0.2,1.7,0.3,2.6,0.2c0.4,0,0.8,0,1.1,0.2c1.3,0.4,2.5,0.9,3.6,1.8c0.4,0.3,0.8,0.4,1.1,0.6c0.2,0.1,0.3,0.4,0.3,0.7
		c-0.1,0.4-0.3,0.8-0.7,1c-0.5,0.2-0.9,0.6-1.2,1c-0.8,0.9-1.8,1.4-3.1,1.6c-0.2,0-0.4,0.1-0.6,0.2c-0.1,0-0.1,0.1-0.1,0.2
		c0.1,0.1,0.1,0.2,0.2,0.3c0.2,0.2,0.4,0.4,0.5,0.6c0.2,0.3,0.5,0.6,0.9,0.8c0.5,0.2,0.8,0.7,0.9,1.2c0,0.2,0.1,0.4,0.2,0.6
		c0.4,0.8,0.3,1.6,0.4,2.4c0,0.2-0.1,0.4-0.1,0.5c-0.4,0.7-1,1.1-1.8,1.1c-0.5,0-1,0-1.4-0.1c-0.6,0-1.2-0.1-1.8-0.1
		c-0.7,0-1.4-0.2-2-0.3c-0.2-0.1-0.4,0.2-0.3,0.4c0.4,0.8,0.5,1.7,0.7,2.5c0.2,0.7,0.2,1.4-0.1,2c-0.1,0.2-0.1,0.3-0.1,0.5
		c-0.1,0.6-0.6,0.9-0.9,1.4c-0.1,0.1-0.3,0.2-0.5,0.2c-0.3,0.1-0.7,0.1-1,0.1c-0.9-0.1-1.7-0.1-2.5-0.6c-0.3-0.2-0.6-0.3-1-0.4
		c-1.2-0.4-2.1-1.3-2.8-2.2c-0.3-0.3-0.5-0.7-0.8-1.1c-0.2-0.3-0.4-0.6-0.6-0.9c-0.1-0.2-0.3-0.5-0.4-0.7c-0.5-0.6-0.9-1.2-1.2-1.8
		c0,0-0.2,0-0.2,0c0,0-0.1,0-0.1,0.1c-0.2,0.6-0.5,1.2-0.7,1.8c-0.2,0.8-0.4,1.5-0.7,2.2c-0.3,0.9-0.7,1.8-1,2.7
		c-0.3,0.9-0.9,1.6-1.7,2c-0.6,0.3-1.1,0.7-1.7,0.9c-0.9,0.3-1.9,0.3-2.8-0.1c-0.3-0.1-0.5-0.4-0.6-0.7c-0.1-0.7-0.3-1.4-0.3-2.1
		c0-1.8,0-1.8,0.4-3.6c0.3-1,0.6-2,1.1-2.9c0.3-0.6,0.6-1.2,0.8-1.9c0,0,0-0.1,0-0.1c0,0-0.1,0-0.1,0c-0.3,0.2-0.6,0.4-0.8,0.6
		c-0.6,0.7-1.5,1-2.4,1.2c-0.9,0.2-1.9,0.4-2.8,0.6c-0.6,0.1-1.3,0.3-1.9,0.5c-0.6,0.2-1.2,0.2-1.8,0c-0.5-0.2-1.1-0.3-1.6-0.5
		c-1.6-0.6-1.7-1-2-2.3c-0.1-0.3-0.1-0.5,0-0.8c0.1-0.6,0.2-1.2,0.4-1.8c0.1-0.3,0.2-0.6,0.4-0.8c0.2-0.3,0.5-0.5,0.8-0.6
		c0.2,0,0.3-0.1,0.5-0.1c0.6-0.1,1.1-0.3,1.5-0.7c0.3-0.2,0.6-0.4,0.9-0.5c-0.1-0.1-0.1-0.3-0.2-0.3c-0.2-0.1-0.5-0.2-0.7-0.3
		c-0.3-0.1-0.6-0.3-1-0.4c-2-1-3.2-1.9-4.6-3.7c-0.1-0.1-0.2-0.2-0.2-0.3c-0.1-0.2-0.2-0.5-0.1-0.7c0.3-0.6,0.7-1.2,1.2-1.7
		c0.4-0.4,0.8-0.6,1.4-0.7c0.4,0,0.9-0.1,1.3-0.2c0.6-0.1,1.2-0.1,1.8,0.1c0.4,0.2,0.8,0.3,1.2,0.4c0.2,0,0.3,0.1,0.5,0.1
		c0.3,0,0.5-0.2,0.4-0.5c-0.2-0.4-0.3-0.7-0.5-1c-0.1-0.2-0.3-0.4-0.4-0.7c-0.6-1-1.2-1.9-2.1-2.6c-0.2-0.1-0.3-0.3-0.4-0.5
		c0-0.1,0-0.2,0.1-0.3c0.5-1,1.2-1.9,2-2.7c0.4-0.4,0.9-0.6,1.4-0.5c0.2,0,0.4,0.1,0.6,0.1c0.4,0.1,0.8,0.2,1.1,0.2
		c0.5,0,0.8,0.2,1.1,0.6c0.4,0.5,1,0.8,1.6,1c0.5,0.1,0.8,0.4,1.1,0.8c0.6,0.8,1.2,1.5,1.9,2.2c0.4,0.5,0.8,0.9,1.2,1.4
		c0.1,0.2,0.3,0.3,0.5,0.5c0.1-0.2,0.1-0.3,0.1-0.4c0-0.7,0-1.5-0.1-2.2c-0.1-0.5-0.2-0.9-0.4-1.4c-0.4-1.1-0.6-2.3-0.5-3.5
		c0-0.6,0.1-1.1,0.1-1.7c0-0.5,0.1-0.9,0.3-1.4c0.2-0.5,0.5-0.9,1-1.1c0.1-0.1,0.2-0.1,0.4-0.1c0.7-0.2,1.3-0.1,1.6,0.6
		c0.5,1,1.1,1.9,1.5,2.9c0.4,0.9,0.7,1.9,0.9,2.9c0.2,1,0.5,2,1.1,3c0.1-0.1,0.2-0.1,0.3-0.2c0.2-0.4,0.3-0.8,0.5-1.2
		c0.1-0.3,0.2-0.6,0.4-0.8c0.1-0.3,0.3-0.6,0.5-0.8c0.7-0.7,1-1.6,1.7-2.3c0.2-0.2,0.4-0.4,0.7-0.6c0.7-0.4,1.4-0.7,2.1-1
		c0.3-0.1,0.6,0,0.7,0.2c0.5,0.8,0.9,1.7,1.4,2.5c0.3,0.5,0.3,1,0,1.5c-0.2,0.4-0.3,0.8-0.5,1.2C612.2,23.7,612.2,23.8,612.2,23.8
		C612.2,23.9,612.2,23.8,612.2,23.8"/>
	<path class="st3" d="M722.8,84.7c0.3-0.1,0.6,0,0.7-0.2c1.5-1.3,3.4-1.7,5.2-2.3c0.3-0.1,0.6-0.1,0.9-0.1c1.2-0.1,2.1,0.5,2.6,1.7
		c0.3,0.7,0.4,1.4,0.2,2.1c-0.1,0.6-0.2,1.3-0.3,1.9c0.5,0.6,1.4,0.6,1.9,1c0.8,0.1,1.5,0.4,2,1.1c0.2,0.3,0.5,0.4,0.8,0.4
		c0.5,0.1,0.9,0.3,1,0.9c0.2,0.6,0.5,1.2,1.1,1.5c0.7,0.4,1,1,1.4,1.6c1.3,1.8,0.9,3.6,0.1,5.5c-0.4,0.8-1.1,1.4-1.9,1.7
		c-0.6,0.2-1.2,0.4-1.8,0.7c-0.5,0.2-0.6,0.8-0.3,1.2c0.3,0.5,0.7,0.9,1,1.4c0.7,0.9,1,2,1,3.2c0,1.8-0.3,3.5-0.5,5.3
		c-0.1,0.8-0.5,1.5-1.1,2.1c-0.7,0.7-1.5,1.2-2.5,1.4c-0.6,0.1-1.2,0.3-1.9,0.4c-1.3,0.2-2.5,0.5-3.8,0.7c-0.3,0.1-0.6,0.4-0.6,0.7
		c0.1,1.8-0.3,3.5-0.7,5.2c-0.5,2.3-1.9,3.8-4,4.7c-0.8,0.4-1.7,0.3-2.6,0c-0.9-0.3-1.8-0.7-2.7-1c-0.3-0.1-0.6,0-0.8,0.3
		c-0.2,0.3-0.4,0.5-0.6,0.8c-0.3,0.4-0.7,0.9-1,1.3c-0.7,1-1.8,1.3-2.9,1.6c-0.3,0.1-0.6,0-0.9-0.1c-1.4-0.3-2.5-0.9-3.4-2.1
		c-0.2-0.3-0.4-0.5-0.6-0.8c-0.1-0.2-0.5-0.2-0.7-0.1c-0.5,0.3-0.9,0.6-1.4,0.9c-1.1,0.6-2.2,0.9-3.5,0.4c-0.7-0.3-1.5-0.6-2.2-1
		c-0.6-0.3-1.1-0.9-1.5-1.5c-0.4-0.6-0.5-1.2-0.3-1.8c0.2-0.7,0.4-1.4,0.6-2.1c0-0.2-0.1-0.3-0.2-0.3c-0.3,0-0.6-0.1-0.9-0.1
		c-1.4,0-2.9,0.1-4.3,0.1c-1.5,0-2.8-0.5-3.8-1.7c-0.2-0.2-0.4-0.5-0.5-0.8c-0.3-1.4-0.6-2.8-0.1-4.3c0.3-0.9,0.7-1.6,1.3-2.3
		c0.4-0.4,0.8-0.8,1.2-1.2c0.1-0.1,0.1-0.3,0.1-0.4c0-0.2-0.3-0.4-0.5-0.4c-0.2,0-0.5,0-0.7,0.1c-0.4,0.1-0.8,0.2-1.2,0.2
		c-0.6,0.1-1.1-0.1-1.6-0.3c-1.6-0.8-2.6-2.1-3.1-3.8c-0.1-0.4-0.1-0.8,0-1.2c0.1-0.7,0.3-1.4,0.5-2.1c0.6-1.8,1.8-3,3.6-3.5
		c0.6-0.2,1.2-0.3,1.9-0.5c0.2-0.1,0.3-0.4,0.2-0.6c-0.5-0.7-0.9-1.5-1.1-2.4c-0.1-0.4-0.4-0.8-0.7-1.2c-0.5-0.8-0.9-1.7-1.1-2.6
		c-0.2-1.2,0.1-2.2,1-3.1c0.7-0.7,1.6-1.1,2.5-1.4c0.5-0.2,1.1-0.2,1.6-0.5c1.2-0.6,2.4-0.8,3.7-0.7c0.3,0,0.6-0.3,0.6-0.6
		c0-1,0.1-2.1,0.1-3.1c0-0.8,0-1.6,0.1-2.4c0.1-1,0.6-1.8,1.6-2.2c0.7-0.3,1.4-0.7,2.2-1c0.3-0.1,0.6-0.2,0.9-0.3
		c1-0.2,2.1-0.2,3.1,0.1c0.7,0.2,1.4,0.5,1.8,1c0.4,0.4,0.7,0.8,1.1,1.3c0.7,0.7,0.9,0.7,1.5,0c0-0.1,0.1-0.1,0.1-0.2
		c1.8-2.4,4.4-3.7,7.2-4.5c0.8-0.2,1.7-0.2,2.6-0.1c0.7,0.1,1.2,0.4,1.6,0.9c0.2,0.2,0.4,0.5,0.6,0.8c0.4,0.5,0.6,1.1,0.6,1.8
		c0,0.6,0,1.3,0,1.9C722.5,82.7,722.7,83.7,722.8,84.7"/>
	<path class="st3" d="M3315.2,380.1C3315.1,380.1,3315.1,380.1,3315.2,380.1C3315.1,380.1,3315.1,380.2,3315.2,380.1L3315.2,380.1z"
		/>
	<path class="st4" d="M115.2,1369.9c1.4,0.6,1.4,0.6,2.3,1.8c0.7,1,1.5,1.6,2.6,2c1.2,0.4,2.1,1.1,2.7,2.1c0.5,0.7,1,1.3,1.7,1.9
		c1.1,1,2.1,2.1,2.9,3.5c0.5,1,1.3,1.8,2,2.6c0.3,0.3,0.6,0.6,0.8,1c0.3,0.5,0.5,1.1,0.4,1.7c-0.1,0.4-0.1,0.9-0.3,1.2
		c-0.9,1.6-2,3-3.5,4c-1.1,0.7-2.2,0.9-3.4,0.6c-1.8-0.5-3.6-1-5.2-2.1c-2.8-1.7-5.3-3.8-7.5-6.2c-0.5-0.6-1-1.2-1.4-1.8
		c-1.3-1.9-3.1-3.2-5.2-4c-1.1-0.4-2.3-0.7-3.4-1.1c-0.5-0.1-0.9,0.1-1,0.5c-0.3,0.6-0.5,1.3-0.5,2c-0.2,3.2-1,7.4-2.2,10.4
		c-0.2,0.5-0.4,0.9-0.6,1.4c-0.4,1.2-0.3,2.6-0.3,3.9c-0.1,5.3-2.8,8-7.5,10.1c-0.5,0.2-1.1,0.4-1.7,0.5c-1.3,0.2-2.4-0.2-3.3-1.1
		c-0.5-0.5-0.9-1-1.2-1.6c-0.8-1.7-1.4-3.5-1.6-5.3c-0.1-0.4,0-0.8,0.1-1.3c0.3-2.1,0.4-4.2,0.3-6.4c-0.1-3.4,0.1-6.8,0.7-10.2
		c0.2-1.3,0.3-2.5,0.5-3.8c0-0.3-0.1-0.6-0.3-0.6c-0.2,0-0.4,0-0.5,0.1c-0.3,0.2-0.5,0.5-0.7,0.7c-0.7,0.8-1.5,1.4-2.5,1.7
		c-1.6,0.5-2.9,1.5-4,2.6c-1.6,1.6-3.4,2.8-5.3,3.9c-0.7,0.4-1.4,0.9-2.1,1.4c-1.5,1-3,1.9-4.7,2.6c-1.7,0.7-3.4,0.9-5.2,0.6
		c-0.8-0.1-1.5-0.4-2.1-0.8c-0.9-0.6-1.8-1.3-2.5-2.2c-0.6-0.7-0.8-1.5-0.5-2.4c0.5-1.4,1.1-2.7,2-3.8c1.4-1.9,2.6-4,3.6-6.2
		c0.6-1.4,1.5-2.7,2.6-3.8c1.3-1.3,2.4-2.9,3.5-4.4c0.2-0.3,0.3-0.6,0.4-0.9c0.1-0.2-0.1-0.6-0.3-0.6c-0.4,0-0.8-0.1-1.3-0.1
		c-1.1,0-2.2,0-3.3,0.1c-2,0-3.9-0.3-5.8-0.8c-2.7-0.6-5-2.1-6.9-4.2c-0.2-0.2-0.3-0.4-0.4-0.6c-0.2-0.5-0.3-1,0-1.5
		c0.2-0.3,0.4-0.5,0.6-0.8c0.4-0.4,0.9-0.8,1.3-1.3c1.5-1.8,3.3-2.9,5.4-3.6c0.4-0.1,0.8-0.3,1.2-0.5c1.4-0.6,2.9-0.9,4.5-1
		c0.9,0,1.9,0,2.8,0c2.5,0.1,4.9-0.3,7.3-1.1c1.2-0.4,2.5-0.6,3.7-0.8c0.1,0,0.2-0.3,0.2-0.4c0-0.1-0.1-0.3-0.3-0.4
		c-1.6-1.1-2.8-2.5-3.8-4.1c-0.6-0.9-1.4-1.7-2.1-2.6c-0.9-1-1.5-2.2-2-3.5c-0.5-1.5-1-3.1-1.5-4.6c-0.5-1.6-0.5-3.2,0.1-4.7
		c0.5-1.3,4.9-2.1,6-2c1.4,0.1,2.7,0.7,3.9,1.5c2.8,1.8,3.8,5.1,6.4,6.8c1.1,0.7,1.8,1.7,2.4,2.9c0.5,1.1,1,2.1,1.6,3.2
		c0.5,0.9,1.1,1.7,2,2.3c0.3,0.2,0.6,0.3,1.1,0.2c0.2-0.6,0.5-1.4,0.7-2.1c0.6-2.1,1.1-4.3,1.5-6.5c0.5-3,1.8-5.7,3.6-8.1
		c0.7-0.9,1.5-1.9,2.2-2.8c1-1.3,2-2.6,2.9-3.9c1.4-1.9,3-3.5,4.9-4.8c0.8-0.5,1.7-0.8,2.6-0.8c1.3-0.1,4.2,0.1,5.2,1.2
		c2.1,2.4,0.4,7.2-0.6,9.7c-0.6,1.5-0.8,3.1-1,4.7c-0.1,1.2-0.4,2.3-0.8,3.5c-0.5,1.6-1.1,3.2-1.4,4.9c-0.2,0.9-0.5,1.8-1,2.6
		c-0.7,1.3-1.1,2.7-1.5,4.1c-0.1,0.2-0.1,0.5-0.1,0.8c0,0.2,0.1,0.4,0.2,0.5c0.1,0.1,0.4,0.1,0.5,0.1c1.8-1.2,3.8-2.2,5.5-3.7
		c1.1-1,2.3-1.8,3.6-2.4c0.6-0.3,1.2-0.6,1.7-1.1c0.5-0.5,1.2-1,1.7-1.5c0.5-0.5,1.1-0.8,1.8-1c0.7-0.1,1.3-0.5,1.9-0.8
		c0.7-0.4,1.5-0.8,2.2-1.2c2.3-1.2,4.9-1.5,7.4-1.2c1,0.1,2,0.5,2.8,1.1c0.5,0.4,0.8,0.8,0.8,1.5c-0.1,1.8-0.2,3.6-0.9,5.3
		c-0.2,0.6-0.5,1.3-0.9,1.8c-1.3,2.1-2.6,4.2-4.2,6.1c0,0.1,0.1,0.3,0.2,0.4c0.1,0.1,0.3,0.1,0.5,0.1c0.7,0,1.4-0.1,2-0.2
		c0.8-0.1,1.7-0.1,2.5-0.2c1-0.1,2-0.1,3.1-0.1c0.8,0,1.7-0.1,2.5-0.1c1,0,2,0.2,2.8,0.9c0.6,0.5,1.3,0.8,2,1.1
		c0.9,0.5,1.4,1.2,1.6,2.2c0.4,1.6,0.5,3.2,0.4,4.8c0,0.4-0.2,0.7-0.4,0.9c-0.6,0.5-1.2,0.9-1.9,1.3c-0.9,0.5-1.8,0.9-2.8,1.3
		c-1.2,0.5-2.5,1-3.8,1.5c-2,0.8-4,1.5-6.1,1.7c-1.1,0.1-2.1,0.5-3.2,1c-2.1,1-4.3,1.6-6.5,2.1c-1.9,0.4-3.7,1.1-5.6,1.7
		C115.5,1369.3,115.2,1369.5,115.2,1369.9z M100.9,1356.3c-0.2-0.2-0.4-0.5-0.6-0.7c-0.6-0.6-1.2-0.8-1.6-1.6
		c-0.1-0.3-0.3-0.6-0.5-0.9c-0.1-0.1-0.3-0.2-0.4-0.3c-0.1-0.1-0.6-0.1-0.7,0c-0.4,0.4-0.6,1-1.3,1.2c-1,0.3-2,0.3-2.9-0.3
		c-0.4-0.3-0.8-0.7-1.2-1c-0.6-0.4-1.6-0.3-2.1,0.2c-0.5,0.6-1,1.2-1.8,1.3c-0.2,0-0.3,0.1-0.5,0.2c-0.5,0.2-0.9,0.5-1.1,1
		c-1.1,1.8-1.6,3.7-1.2,5.8c0.3,1.5,0.8,2.8,2.5,3.2c0.2,0,0.4,0.1,0.5,0.2c0.2,0.2,0.3,0.4,0.3,0.7c0,0.2,0,0.5-0.1,0.8
		c-0.2,0.8,0,1.5,0.6,2.1c0.6,0.6,0.9,1,2,0.4c0.4-0.2,0.8-0.3,1.2-0.4c0.9-0.2,1.7-0.3,2.2,0.7c0.2,0.4,0.7,0.5,1.1,0.5
		c0.6,0,1.2-0.1,1.8-0.2c0.8-0.1,1.7-0.3,2.5-0.5c0.7-0.1,1.2-0.6,1.6-1.2c0.9-1.4,1.4-2.9,1.4-4.5c0-0.8,0.1-1.5,0.3-2.3
		c0.2-0.5,0-1-0.4-1.4c-0.6-0.5-0.7-1.1-0.9-1.8C101.4,1357.1,101.2,1356.7,100.9,1356.3z"/>
	<path class="st5" d="M170.9,105.1c-0.8,0-1.7-0.1-2.5-0.1c-0.5,0-1,0-1.5,0.1c-0.6,0.2-1.2,0.2-1.8,0.1c-1.8-0.1-3.7-0.1-5.5-0.2
		c-0.7,0-1.5-0.1-2.2-0.3c-0.5-0.1-1-0.2-1.5-0.1c-1.1,0.2-2.2,0.1-3.2-0.3c-0.3-0.1-0.7-0.3-1.1-0.1c0.1,0.2,0.1,0.5,0.3,0.7
		c0.4,0.6,0.9,1.2,1.5,1.6c0.3,0.2,0.6,0.4,0.9,0.6c1.8,1.2,3.3,2.7,4.9,4.1c0.2,0.2,0.5,0.4,0.6,0.7c0.3,0.6,0.7,1.1,1.1,1.7
		c0.4,0.5,0.6,1.2,0.5,1.9c-0.1,0.4-0.1,0.9-0.1,1.3c-0.1,1.7-1.4,2.7-2.9,2.6c-0.7-0.1-1.4-0.2-2.1-0.6c-1-0.7-2.1-1.3-3.1-1.9
		c-1-0.7-2-1.2-3.1-1.5c-0.8-0.3-1.6-0.6-2.4-0.9c-0.4-0.2-0.9-0.4-1.3-0.7c-1.1-0.8-2.3-1.4-3.5-1.9c-1.5-0.6-2.6-1.6-3.4-3
		c-0.2-0.4-0.5-0.8-0.8-1.2c-0.3-0.5-0.7-0.8-1.1-1.2c-0.4-0.3-0.7-0.2-0.9,0.1c-0.4,0.7-0.8,1.4-1,2.2c-0.1,0.5-0.3,0.9-0.7,1.3
		c-0.5,0.6-0.9,1.1-1.4,1.7c-0.4,0.5-0.8,0.9-1.2,1.4c-0.8,1.1-1.8,2-2.9,2.8c-0.4,0.3-0.8,0.6-1.2,0.9c-0.6,0.5-1.4,0.8-2.2,0.8
		c-1,0-2,0-2.9-0.4c-0.7-0.3-1.3-0.7-1.5-1.5c-0.2-0.5-0.4-1-0.6-1.5c-0.5-1.5-0.5-2.9,0.4-4.2c0.6-1,1.3-2.1,1.9-3.2
		c0.4-0.6,0.7-1.3,1-2c0.5-1.3,1.3-2.5,2.2-3.6c0.3-0.4,0.6-0.9,0.9-1.3c0,0,0.1-0.1,0-0.2c-0.1-0.1-0.2-0.2-0.3-0.2
		c-0.2,0-0.4,0-0.5,0c-0.4,0.1-0.7,0.2-1.1,0.3c-1.5,0.6-3,0.8-4.6,0.9c-1.6,0.1-3.2,0.2-4.7,0.2c-1.1,0-2.2,0.1-3.2,0.5
		c-0.6,0.2-1.3,0.3-2,0.3c-0.9,0.1-1.7,0.2-2.5,0.5c-0.3,0.1-0.7,0.2-1.1,0.2c-1.3-0.1-2.5-0.5-3.6-1.2c-0.4-0.3-0.7-0.7-0.8-1.2
		c-0.2-0.9-0.2-1.8,0.3-2.6c0.7-1.2,1.7-2.1,2.9-2.6c1.8-0.8,3.5-1.6,5.2-2.6c1.2-0.7,2.5-1.4,3.8-1.8c0.5-0.1,0.9-0.4,1.3-0.6
		c0.8-0.4,1.6-0.5,2.5-0.6c1.3,0,2.5-0.4,3.7-0.8c0.1,0,0.1-0.2,0.1-0.3c0,0-0.1-0.1-0.1-0.2c-1-0.9-2.1-1.7-3.3-2.3
		c-0.8-0.4-1.7-0.8-2.5-1.2c-2.2-1.2-3.7-3.2-4.6-5.5c-0.2-0.4-0.2-0.8-0.3-1.3c0-0.2,0-0.4,0.1-0.5c0.5-0.8,1-1.6,2.1-1.6
		c2.1,0,4.1,0.3,6.1,0.9c1.2,0.3,2.3,0.8,3.5,1.2c0.8,0.3,1.6,0.6,2.3,1.1c1.1,0.8,2.4,1.3,3.6,1.7c0.6,0.2,1.3,0.4,1.9,0.6
		c0.2,0.1,0.5,0,0.5-0.1c0-0.1,0-0.3,0-0.4c-1.1-1.8-1.3-3.9-1.4-6c0-0.4,0-0.9,0-1.3c0-1,0.1-2.1,0.1-3.1c0-1.4,0.3-2.7,0.7-4
		c0.2-0.5,0.4-0.9,0.9-1.2c0.3-0.2,0.6-0.4,0.9-0.7c0.5-0.4,1.1-0.6,1.7-0.2c0.5,0.3,1.1,0.5,1.6,0.8c1.2,0.7,2.3,1.6,3,2.9
		c0,0.1,0.1,0.1,0.1,0.1c1.6,1.9,2.6,4.1,3.2,6.5c0.1,0.5,0.3,0.9,0.4,1.4c0.1,0.4,0.2,0.8,0.2,1.3c0.1,0.7,0.1,1.5,0.2,2.2
		c0,0.8,0.1,1.6-0.1,2.4c-0.2,0.9-0.2,1.8,0,2.7c0,0.3,0.4,0.5,0.7,0.3c0.1-0.1,0.2-0.1,0.3-0.2c1.2-0.8,2.4-1.6,3.7-2.4
		c1.5-1,3.1-1.8,4.7-2.4c0.3-0.1,0.7-0.3,1-0.4c2.3-0.8,4.7-1.2,7.1-1.7c0.9-0.2,1.8-0.2,2.7-0.1c1.1,0.1,2.2,0.2,3.3,0.4
		c0.5,0.1,0.9,0.3,1.4,0.4c0.6,0.1,1,0.4,1.3,0.9c0.1,0.1,0.1,0.2,0.2,0.3c0.7,0.6,0.8,1.5,0.6,2.4c-0.1,0.7-0.3,1.3-0.5,1.9
		c-0.4,1-0.9,1.8-1.9,2.4c-1.2,0.6-2.3,1.4-3.3,2.3c-1.5,1.3-3.2,1.9-5.1,2.4c-0.6,0.2-1.2,0.4-1.8,0.4c-1.1,0.1-2,0.6-2.9,1.1
		c-0.1,0-0.1,0.2-0.1,0.3c0,0.1,0.2,0.2,0.3,0.2c1.4,0.2,2.8,0.4,4.2,0.2c1.3-0.2,2.5,0,3.8,0.4c1.5,0.5,2.8,1.1,4.2,1.9
		c0.7,0.4,1.3,0.9,1.9,1.5c0.6,0.7,1.3,1.3,1.9,2c0.7,0.8,1,1.8,1.3,2.8c0.2,0.7-0.1,1.3-0.4,1.9c-0.1,0.2-0.2,0.3-0.4,0.4
		C171.7,104.6,171.3,104.9,170.9,105.1z M144.9,98.3c0-0.1,0.1-0.2,0.2-0.2c0.8-0.7,1.1-1.6,1.4-2.5c0.2-0.6,0.2-1.2,0.2-1.8
		c0-0.7-0.3-1.3-0.9-1.7c-0.8-0.5-1.6-1.1-2.2-1.9c-0.5-0.7-1.2-1-2-1.1c-0.4-0.1-0.8-0.1-1.3-0.1c-0.3,0-0.6-0.1-0.9-0.2
		c-0.5-0.3-0.9-0.3-1.4-0.1c-0.4,0.1-0.8,0.2-1.2,0.4c-0.6,0.2-1.2,0.3-1.8,0.2c-0.3-0.1-0.6,0.1-0.8,0.3c-0.2,0.2-0.4,0.5-0.5,0.8
		c-0.1,0.6-0.4,1-0.8,1.4c-0.6,0.6-1,1.2-1.3,1.9c-0.4,0.7-0.5,1.4-0.1,2.1c0.2,0.4,0.3,0.8,0.6,1.1c0.4,0.5,0.8,0.9,1.2,1.4
		c0.9,1.2,2.1,1.6,3.5,1.4c0.9-0.2,1.8,0.1,2.7,0.4c0.3,0.1,0.6,0.2,0.8,0.4c0.6,0.3,1.3,0.3,2,0.1c0.8-0.2,1.4-0.6,2-1.3
		C144.5,98.9,144.7,98.6,144.9,98.3z"/>
	<path class="st1" d="M231.2,138.6c0.5,0.1,1,0,1.4-0.3c1.4-1.1,2.7-2.2,4.1-3.2c1.3-1,2.6-1.9,4.1-2.7c2.6-1.5,5.1-3,7.4-4.8
		c1.5-1.1,3.1-1.9,4.9-2.4c1.3-0.4,2.5-0.9,3.7-1.3c0.7-0.2,1.3-0.6,2-0.8c1.3-0.5,2.6-0.4,3.8,0.3c0.6,0.3,1.2,0.8,1.9,1.1
		c1.9,0.8,2.7,2.4,3.2,4.2c0.1,0.4,0,0.8-0.2,1.2c-0.4,0.6-0.9,1.1-1.4,1.6c-0.5,0.5-1.1,0.9-1.6,1.5c-2.6,3.1-5.5,5.7-8.4,8.4
		c-1.3,1.2-2.5,2.4-3.9,3.4c-0.7,0.5-1.3,0.9-2,1.4c-0.9,0.7-1.8,1.2-3,1.4c-1.1,0.2-2.1,0.7-3,1.4c-1.1,0.9-2.1,1.9-3.5,2.4
		c-1,0.4-1.1,0.7-1,1c0.2,0.4,0.6,0.5,1,0.6c1,0.2,2,0.5,3,0.7c1.7,0.3,3.4,0.8,4.9,1.7c2.3,1.3,4.7,2,7.3,2.1
		c1.5,0.1,3,0.4,4.6,0.5c1.2,0.1,2.4,0.5,3.5,1c1.2,0.6,2.4,1.1,3.6,1.6c2.5,1,4.8,2.3,6.5,4.4c0.4,0.6,1,1,1.4,1.6
		c0.4,0.5,0.5,1.5,0.2,2c-1.2,1.8-2.2,3.7-4.1,4.9c-0.4,0.3-0.9,0.6-1.3,0.7c-0.9,0.3-1.8,0.5-2.7,0.6c-1.5,0.2-3.1,0.1-4.5,0.5
		c-1.4-0.2-2.9-0.2-4.2-0.5c-1.5-0.3-3-0.5-4.5-0.8c-1.9-0.4-3.8-0.9-5.6-1.4c-0.8-0.2-1.6-0.3-2.4-0.5c-0.3-0.1-0.4,0.1-0.4,0.3
		c0,0.1,0,0.2,0.1,0.3c0.5,0.4,0.9,0.9,1.4,1.1c2.5,1.4,5,2.8,7.6,4c0.9,0.4,1.9,0.8,2.7,1.4c0.8,0.5,1.5,1.1,2.1,1.7
		c0.9,1,1.7,2,2.7,2.9c0.3,0.3,0.5,0.7,0.7,1c0.4,0.8,0.2,1.7-0.5,2.2c-0.5,0.4-1,0.7-1.6,0.9c-0.8,0.4-1.7,0.6-2.6,0.9
		c-3.8,1.4-7.6,1.2-11.3-0.4c-0.7-0.3-1.3-0.6-2-0.8c-2.2-0.6-4.2-1.6-6.2-2.6c-1.5-0.7-2.9-1.6-4.2-2.5c-0.6-0.4-1.2-0.9-1.8-1.2
		c-2.3-1.3-3.8-3.3-5.1-5.5c-0.4-0.7-0.7-1.5-1.1-2.2c-0.5-1-1.1-1.9-1.9-2.7c-0.5-0.5-1.1-0.9-1.8-0.7c-1.4,1.4-2.7,2.6-4,3.9
		c-1.3,1.3-2.6,2.6-3.7,4c-1.4,1.7-3,3-4.8,4.2c-1.8,1.2-3.7,1.6-5.8,1.6c-1.8,0-3.7-0.2-5.5,0.1c-0.5,0.1-1,0-1.5-0.1
		c-1.4-0.4-2.8-0.5-4.2-0.7c-1.5-0.2-3-0.5-4.5-0.8c-1.3-0.3-2.1-1.2-2.6-2.3c-0.3-0.7-0.1-1.4,0.4-2c2-2.3,3.9-4.7,6.5-6.5
		c0.2-0.2,0.4-0.4,0.6-0.7c0.1-0.1-0.1-0.4-0.2-0.5c-0.3-0.1-0.6-0.3-0.9-0.3c-1.4,0-2.9,0-4.3,0c-1.4,0-2.9,0.1-4.3,0.1
		c-1,0-2-0.1-3-0.4c-2-0.5-3.7-1.5-5-3.2c-1.4-1.9-1.7-3.9-0.8-6c0.4-0.9,1-1.6,1.8-2c0.5-0.2,0.9-0.4,1.4-0.6
		c1.4-0.6,2.7-1.3,4.1-2.1c3-1.8,6.1-3.3,9.5-4c3-0.5,5.9-1.5,9-1.8c1.2-0.1,2.4-0.6,3.5-1c0.1,0,0.3-0.3,0.3-0.4
		c0-0.2-0.1-0.4-0.2-0.5c-0.2-0.2-0.5-0.4-0.7-0.6c-2-1.2-3.8-2.7-5.5-4.4c-1.2-1.1-2.4-2.2-3.7-3.2c-1.9-1.6-3.3-3.6-4.3-5.9
		c-0.7-1.6-1.3-3.2-1.9-4.8c-0.8-2.2-0.7-4.4-0.1-6.6c0.3-1.2,1.4-2.1,2.7-2.1c1.8,0,3.7,0.1,5.4,0.7c1.9,0.7,3.8,1.6,5.4,2.8
		c2.1,1.6,4.2,3.2,6.4,4.7c1,0.7,2.1,1.3,3.1,1.9c1.4,0.8,2.9,1.5,4.4,2.2c0.1,0.1,0.4-0.1,0.5-0.2c0.1-0.1,0.1-0.4,0.1-0.6
		c0-2.4,0.4-4.7,1.2-6.9c0.1-0.4,0.3-0.8,0.4-1.2c0.6-3.5,2.2-6.6,3.7-9.7c1.2-2.5,3-4.3,5.6-5.3c0.7-0.3,1.4-0.2,2,0.4
		c1.2,1.3,2.4,2.5,3.5,3.9c0.4,0.5,0.8,1.2,1,1.9c0.9,2.1,1.4,4.3,1.9,6.4c0.2,0.7,0.2,1.4,0.1,2.1c-0.5,2.9-1,5.8-1.5,8.7
		c-0.2,1.1-0.6,2.2-1.3,3C232.4,136.6,232.1,137.8,231.2,138.6c0,0.1,0.1,0.1,0.1,0.1L231.2,138.6z M231,161.6
		c0.2-0.1,0.4-0.1,0.6-0.2c1-0.5,1.6-1.2,1.5-2.4c0-0.5-0.1-1.1,0.1-1.5c0.4-1.2,0.3-2.4,0.4-3.6c0.1-1.1-0.2-2-0.8-2.9
		c-0.6-0.8-1.3-1.6-2.1-2.1c-1.2-0.7-2.1-1.6-2.9-2.7c-0.3-0.3-0.5-0.7-0.8-0.9c-0.6-0.6-1.3-1-2.2-0.9c-1,0.1-2,0-3,0.2
		c-0.6,0.1-1.2,0.3-1.7,0.6c-1.1,0.7-2.1,1.6-2.7,2.8c-0.6,1.1-1.2,2.1-1.8,3.2c-0.2,0.4-0.3,0.8-0.1,1.2c0.2,0.6,0.2,1.2,0,1.8
		c-0.1,0.3-0.1,0.6-0.1,0.9c0.2,1.3,0.4,2.6,0.6,3.9c0.3,1.7,1.2,3,2.8,3.7c0.8,0.4,1.6,0.8,2.6,0.9c1.3,0.2,2.6,0.4,3.9,0.7
		c0.8,0.2,1.4,0,2.1-0.3c0.6-0.4,1.2-0.8,1.7-1.2C229.6,162.3,230.2,161.7,231,161.6z"/>
	<path class="st6" d="M670.5,1494.6c0,0.8,0.2,0.9,1.2,1.1c0.1-0.2,0.2-0.5,0.2-0.7c0.2-4,1.3-7.7,2.6-11.4h-3.5
		c-0.1,0.9-0.2,1.7-0.3,2.6C670.4,1489,670.4,1491.8,670.5,1494.6z"/>
	<path class="st6" d="M678.8,1490.4c0,0.3,0.1,0.5,0.1,0.8c0,0.2,0.1,0.3,0.2,0.6c0.2-0.2,0.3-0.3,0.4-0.4c1.5-2.8,3.3-5.3,5.2-7.8
		h-4.6c-0.1,0.2-0.2,0.4-0.3,0.6C679.1,1486.2,678.6,1488.3,678.8,1490.4z"/>
	<path class="st0" d="M453.6,0.1h-3.7c0.8,0.2,1.6,0.3,2.5,0.3C452.9,0.4,453.3,0.3,453.6,0.1z"/>
	<path class="st0" d="M451.1,12.7c-0.5-0.3-1-0.2-1.4,0c-0.4,0.2-0.9,0.5-1.3,0.7C449.8,14.2,450.4,14,451.1,12.7z"/>
	<path class="st0" d="M418.7,14.2c1.5-0.5,2.9-1.1,4.4-1.8c0.6-0.2,0.7-1.1,0.3-1.6c-0.3-0.4-0.8-0.5-1.2-0.2
		c-1.3,0.9-2.6,1.8-3.9,2.8c-0.2,0.1-0.3,0.4-0.4,0.7C418.1,14.1,418.4,14.3,418.7,14.2z"/>
	<path class="st0" d="M473.6,11.8c2,0.3,3.9,1.1,5.9,0.4c-2.4-0.8-4.8-1.6-7.2-2.4c-0.8-0.2-1.5-0.4-2.3-0.6c-0.3-0.1-0.6-0.1-0.9,0
		c-0.2,0-0.4,0.3-0.5,0.5c0,0.1,0.1,0.3,0.2,0.4C470.1,11.2,471.9,11.6,473.6,11.8z"/>
	<path class="st0" d="M751.8,1301.7c0.7,1.7,1.3,3.4,2,5.1c0.3,0.8,0.7,1.6,1,2.5c-0.4-1.3-0.8-2.7-1.2-4
		C753.2,1304,752.6,1302.8,751.8,1301.7z"/>
	<path class="st0" d="M659.2,13.1c0.1,0.3,0.3,0.5,0.6,0.5c0.7,0,1.4-0.2,1.9-0.6c0.3-0.2,0.2-0.5,0-0.8c-0.4-0.6-0.2-1.1,0.1-1.6
		c0.1-0.1,0.1-0.2,0.1-0.3c0-0.1,0-0.2,0-0.3c-1.4-3.2-1.7-6.5-1.7-9.9c0-0.1,0-0.1,0-0.2h-4c0.9,3.6,1.7,7.2,2.4,10.8
		C658.9,11.6,659,12.4,659.2,13.1z"/>
	<path class="st0" d="M765.2,1298.1c-1.2,0.9-2.6,1.7-3.9,2.5c-0.6,0.4-1.2,0.6-1.8,1c1,2.4,1.8,4.4,2.7,6.5
		c0.8,1.9,1.6,3.9,2.2,5.8c0.7,2.1,0.4,4.3-0.8,6.2c-0.7,1.1-1.6,1.5-2.5,1.4c1.2,2.1,2.3,4.2,3.5,6.3c0.9,1.6,1.5,3.4,2.4,5.1
		c0.2,0.4,0.5,0.9,0.8,1.3v-38.2C766.9,1296.7,766.1,1297.4,765.2,1298.1z"/>
	<path class="st0" d="M668.6,11.8c-0.1,0.2,0,0.7,0.2,0.8c1.1,0.6,2.3,1,3.4,1.5c0.5,0.2,1,0,1.2-0.5c0.3-0.9,0.7-1.8,0.9-2.8
		c0.9-3.4,2.7-6.4,4.9-9.2c0.4-0.5,0.9-1.1,1.3-1.6h-3.7c-0.8,1.2-1.5,2.3-2.5,3.3C672,5.9,670.2,8.8,668.6,11.8z"/>
	<path class="st0" d="M180.5,1471.8c-0.1-0.8-0.6-1.8-1.1-1.8c-0.7,0-1.1,0.4-1.5,0.9c-1.8,1.8-3.2,3.9-4.7,6h7.2
		c0-1.2,0.1-2.4,0.1-3.6C180.6,1472.7,180.6,1472.2,180.5,1471.8z"/>
	<path class="st3" d="M766.8,1332.8c-0.9-1.6-1.5-3.4-2.4-5.1c-1.1-2.1-2.3-4.2-3.5-6.3c-0.6-0.1-1.2-0.5-1.7-1.3
		c-1.1-1.9-2.1-4-2.9-6.1c-0.6-1.6-1.1-3.2-1.6-4.8c-0.3-0.8-0.7-1.6-1-2.5c-0.7-1.7-1.3-3.4-2-5.1c-0.8-1-1.7-1.9-2.8-2.7
		c-1.1-0.8-1.9-1.8-2.3-3.1c-0.4-1.3-1-2.6-1.6-3.8c-1-1.8-1.1-3.7-1.2-5.7c0-1.4-0.1-2.7-0.2-4.1c-0.1-0.2-0.1-0.3-0.2-0.5
		c-0.4-1.2-0.8-2.3-1.3-3.4c-1.1-2.7-2.4-5.3-3.4-8.1c-1.8-5.2-3.7-10.4-5.2-15.8c-0.9-0.6-1.5-1.3-1.7-2.4
		c-0.1-0.7-0.6-1.3-0.8-1.9c-1.5-3.3-2-6.9-2.2-10.5c-0.2-4-0.3-8-0.4-11.9c0-0.2,0-0.4,0.1-0.5c-0.2-1.3-0.4-2.7-0.6-4
		c-0.7-4.5-0.9-9-1.3-13.6c-0.6,0.1-1.1-0.2-1.6-0.9c0,0,0-0.1-0.1-0.2c-3.4-3-3.1-7.2-3.9-11.1c-0.2-0.9-0.3-1.8-0.6-2.7
		c-0.9-2.6-0.6-5.3,0-7.9c0.3-1.2,0.7-2.4,1.3-3.6c0.6-1.3,1.4-2.2,2.4-2.6c-0.2-1.3-0.3-2.7-0.5-4c-0.7-6-1.4-11.9-2.1-17.9
		c-0.4,0-0.8,0.1-1.2,0.2c-1.8,0.3-4.6-0.2-5.5-2c-0.3-0.6-0.6-1.3-0.8-2c-0.2,0-0.3,0.1-0.5,0.1c-0.7,0.2-1.6,0.8-1.7,1.4
		c-0.4,1.8-0.7,3.7-0.9,5.6c0.8,1,1.6,2,2.5,2.9c2,2,2.4,4.7,2.9,7.3c0.2,0.8-0.3,2-0.8,2.7c-1.4,1.9-2.5,4-3.5,6.1
		c0.1,2.4,0.1,4.8,0.2,7.1c0.1,3.5,0,7,0.2,10.5c0.2,3.7,0.7,7.4,1,11.2c0.1,0.7,0.1,1.3,0.2,2c0.4,0.8,0.8,1.7,1.1,2.5
		c1.1,2.6,2.2,5.2,3.3,7.8c0.3,0.7,0.5,1.4,0.6,2.1c0.3,1.7,0.5,3.4,0.7,5.2c0.2,2-0.4,3.3-2.1,4.1c1,3.5,2.1,7,3.2,10.6
		c1.9,0.5,2.7,2.1,3.3,4c0.5,1.7,1,3.5,1.6,5.1c0.6,1.6,1.5,3.1,2.1,4.7c0.4,0.9,0.4,2,0.6,3c0.1,0.4-0.2,0.9-0.1,1.4
		c0.3,1.2-0.2,1.9-1.1,2.4c-0.4,0.2-0.8,0.4-1.2,0.6c0.9,3.5,2,6.9,3.2,10.2c0.3,0.1,0.6,0.3,0.8,0.6c1.4,1.1,2.2,2.7,3.1,4.1
		c0.6,1,1.2,1.9,2.3,2.7c1,0.7,1.8,2.2,2.2,3.4c0.9,3,1.6,6.1,2.3,9.2c0.1,0.5,0.1,1,0.3,1.5c3.5,8.4,7.1,16.8,10.6,25.3
		c0.3,0.6,0.6,1.2,0.9,1.9c0.3,0.7,0.5,1.4-0.2,2.1c-0.5,0.5-1.4,0.6-2.1,0.3c0.2,0.3,0.3,0.6,0.5,0.9c1.9,3.3,4.1,6.5,6.1,9.7
		c1.3,2.1,2.5,4.2,3.8,6.2c1.5,2.4,3.1,4.8,4.6,7.2c1.2,1.9,2.2,3.9,3.4,5.7v-22.6C767.3,1333.7,767.1,1333.3,766.8,1332.8z"/>
	<path class="st7" d="M740.4,1259.2c2.5,1.5,5,2.8,8,3.1c2.1,0.2,4.2-0.2,6-1.4c0.4-0.3,0.9-0.7,0.9-1.1c0.1-1.4-0.1-2.9-1.5-3.6
		c-1.2-0.6-2.4-1-3.7-1.3c-2.6-0.6-5.3-1.1-8-1.7c-0.5-0.1-1.1-0.2-1.4-0.8c0.3,0,0.5-0.1,0.7-0.1c4.4-0.1,6.9-2.8,9-6.2
		c0.4-0.6,0.4-1.3-0.1-1.9c-0.5-0.6-1.2-0.6-1.9-0.3c-0.7,0.3-1.4,0.7-2.2,1.1c-0.3,0.1-0.7,0.2-1,0.3c0.2-0.6,0.5-1,0.9-1.3
		c1.7-1.4,3-3.2,3.8-5.1c1.2-2.9,2.1-6,3-9c0.3-1.2,0.2-2.6,0.2-4c-0.1-1.7-0.4-3.3-0.6-5c-0.2-1.3-1.6-2-2.7-1.3
		c-0.5,0.3-0.8,0.8-1.2,1.2c-1,1.2-2,2.3-2.9,3.5c-0.2-0.1-0.3-0.1-0.3-0.2c-0.2-0.5-0.4-1.1-0.6-1.6c-0.8-2.7-5.2-5.7-8.2-3.1
		c-0.4,0.4-1,0.6-1.4,1c-1.1,0.8-2,1.7-2.2,3.2c-0.2,1.2-0.6,2.3-1,3.7c-0.5-0.4-0.7-0.7-1.1-0.8c-0.6-0.1-1.3-0.3-1.8-0.1
		c-0.2,0.1-0.4,0.5-0.5,0.9c1,5.7,2.2,11.3,2.9,17c0.5,3.5,1.3,6.9,2.2,10.3c0,0,0,0,0,0C736,1256.1,738.1,1257.8,740.4,1259.2z"/>
	<path class="st7" d="M728.6,1227.2c0,0.2-0.1,0.4-0.1,0.5c0.1,4,0.2,8,0.4,11.9c0.2,3.6,0.7,7.1,2.2,10.5c0.3,0.6,0.7,1.2,0.8,1.9
		c0.2,1.1,0.9,1.8,1.7,2.4c-0.9-3.4-1.7-6.8-2.2-10.3C730.7,1238.5,729.5,1232.9,728.6,1227.2z"/>
	<path class="st7" d="M724.8,1277.1c-0.9,1.4-1.5,3-1.7,4.7c-0.1,0.7-0.2,1.3-0.4,2.2c-0.4-0.3-0.6-0.6-0.9-0.8
		c-1-0.9-2-1.9-3.1-2.7c-1-0.8-2.3-0.7-3.1,0.3c-0.6,0.6-1,1.4-1.2,2.2c-0.4,1.5-0.5,3.1,0,4.6c0.1,0.5,0.2,1,0.2,1.3
		c-1.1,0.3-2.2,0.3-3.1,0.8c-1.1,0.6-0.7,1.8-0.5,2.9c-0.5,0.1-0.8,0.1-1.1,0.2c-1.5,0.3-1.9,0.8-2,2.3c0,0.3,0.1,0.7,0.1,1
		c0.4,2.6,1.8,4.6,3.8,6.2c1.3,1.1,2.6,2.1,4,3.2c-0.5,0.4-0.8,0.7-1.1,0.9c-1.1,0.7-2.3,1.4-3.4,2.1c-1.9,1.2-3.2,2.9-3.4,5.2
		c-0.1,1.2,0.1,1.7,1.2,2.2c0.9,0.4,1.8,0.8,2.6,1.3c2.7,1.4,5.6,2,8.6,1.4c2.8-0.5,5.2,0.7,6.2,2.9c0.2,0.4,0.4,0.7,0.6,1
		c1.1,1.8,1.9,2,3.6,0.9c0.3-0.2,0.7-0.4,1-0.7c2.6-2.9,4.2-6.2,4.3-10.1c0-1.2,0.1-2.5,0.1-3.9c0.2,0.2,0.4,0.3,0.5,0.4
		c1.9,3.2,3.7,6.4,5.7,9.5c1.4,2.2,3.1,4.3,4.8,6.4c0.5,0.6,1.1,1.2,1.8,1.6c0.1,0.1,0.2,0.1,0.3,0.2c-1.7-3.1-3.3-6.3-4.8-9.5
		c-3.1-6.5-5.7-13.2-7.5-20.2c-2.2-5.8-4.6-11.7-6.7-17.6c-0.5-1.2-0.9-2.5-1.3-3.7C727.4,1275,725.9,1275.5,724.8,1277.1z"/>
	<path class="st7" d="M736.9,1297.1c1.8,7,4.4,13.7,7.5,20.2c1.5,3.2,3.1,6.4,4.8,9.5c0.7,0.3,1.6,0.2,2.1-0.3
		c0.7-0.6,0.5-1.4,0.2-2.1c-0.3-0.6-0.6-1.2-0.9-1.9c-3.5-8.4-7.1-16.8-10.6-25.3c-0.2-0.5-0.2-1-0.3-1.5c-0.8-3.1-1.4-6.2-2.3-9.2
		c-0.4-1.3-1.1-2.7-2.2-3.4c-1.1-0.7-1.6-1.7-2.3-2.7c-0.9-1.5-1.8-3-3.1-4.1c-0.3-0.2-0.6-0.4-0.8-0.6c0.4,1.2,0.9,2.5,1.3,3.7
		C732.3,1285.5,734.7,1291.3,736.9,1297.1z"/>
	<path class="st7" d="M770.5,1292.1c1.7-2.8,3.1-5.7,4.7-8.5c2-3.4,2.5-7.2,2.6-11c0.1-1.6-0.4-2.2-1.9-2.7
		c-0.6-0.2-1.2-0.3-1.9-0.2c-2.2,0.1-3.7,1.4-5.2,2.9c-0.5,0.5-0.9,1-1.3,1.6v21.7C768.7,1294.8,769.6,1293.5,770.5,1292.1z"/>
	<path class="st7" d="M765.7,1275.6c0-2.6,0.2-5.2,0.1-7.8c-0.1-1.9-0.5-3.8-1-5.6c-0.5-1.7-2.1-2-3.3-0.7c-0.6,0.6-0.9,1.5-1.2,2.3
		c-0.8,1.6-1.3,3.3-2.2,4.9c-1.6,2.9-2.8,5.8-3,9.1c0,0.4-0.2,0.7-0.3,1.3c-0.8-1.2-1.4-2.1-2.1-3.1c-1.3-1.9-2.6-3.8-4-5.7
		c-1-1.4-2.1-2.8-3.2-4.1c-0.5-0.6-1.2-1.3-2.3-0.8c-1,0.5-0.9,1.2-0.8,2.1c0.3,2.8,0.7,5.5,0.9,8.3c0.2,2.1,0.3,4.3,0.4,6.4
		c1.5,4.7,3.5,9.1,5.6,13.5c0.9,1.9,1.7,3.9,2.5,6c0.8,1.1,1.4,2.3,1.8,3.6c0.4,1.3,0.8,2.7,1.2,4c0.6,1.5,1.2,3.1,2,4.5
		c1.3,2.6,2.7,5.1,4.1,7.6c0.9,0.2,1.9-0.3,2.5-1.4c1.2-1.9,1.5-4,0.8-6.2c-0.6-2-1.4-3.9-2.2-5.8c-0.8-2.1-1.7-4.2-2.7-6.5
		c0.6-0.3,1.3-0.6,1.8-1c1.3-0.8,2.7-1.6,3.9-2.5c0.9-0.7,1.6-1.4,2.4-2.2v-21.7c-0.6,0.7-1.2,1.5-1.8,2.3
		C765.7,1276.1,765.7,1275.9,765.7,1275.6z"/>
	<path class="st7" d="M754.8,1309.3c0.5,1.6,1,3.2,1.6,4.8c0.8,2.1,1.7,4.2,2.9,6.1c0.4,0.7,1,1.2,1.7,1.3c-1.4-2.5-2.8-5.1-4.1-7.6
		C756.1,1312.4,755.4,1310.8,754.8,1309.3z"/>
	<path class="st7" d="M743.7,1282.3c0.1,1.4,0.1,2.7,0.2,4.1c0.1,2,0.2,3.9,1.2,5.7c0.7,1.2,1.2,2.5,1.6,3.8
		c0.5,1.3,1.2,2.4,2.3,3.1c1.1,0.8,2.1,1.7,2.8,2.7c-0.8-2-1.6-4-2.5-6C747.2,1291.4,745.1,1287,743.7,1282.3z"/>
	<path class="st7" d="M724.9,1158c1.3-0.9,2.6-2.1,4.3-2.2c2.9-0.1,5.7-1.1,8.5-1.7c1.1-0.2,2.2-0.7,3.1-1.4c1-0.7,1.5-1.8,1.2-3.1
		c-0.2-1.2-1.1-1.9-2.3-2.1c-0.6-0.1-1.3-0.2-1.9-0.2c-1.8,0.1-3.6,0.4-5.3,0.5c-0.3,0-0.6,0-1.2,0c1.2-0.9,2-1.7,2.9-2.4
		c1.6-1.3,3-2.9,4-4.7c1-1.8,0.7-4.1-2.2-4.6c-2.1-0.3-4,0.4-5.8,1.3c-0.9,0.4-1.7,0.9-2.7,1.4c0-0.8,0-1.3-0.1-1.9
		c-0.4-1.5-0.6-3.2-2.3-3.8c-1.7-0.5-3.2-0.1-4.5,1c-0.5,0.4-0.8,0.9-1.3,1.5c-0.3-0.2-0.4-0.3-0.4-0.4c-0.2-0.3-0.4-0.7-0.6-1
		c-1.4-2.2-3.2-4-6-4.3c-2.5-0.3-5,0.8-4.3,4.1c1,4.8,1.9,9.6,3,14.4c0.4,1.8,0.7,3.8,2.5,5c0.2,0.1,0.2,0.5,0.3,0.8
		c0.1,0.2,0.2,0.5,0.3,0.7c1-0.3,2.1-0.4,3.2-0.4c2.3-0.1,4.1,1.6,4.3,3.9c0,0.1,0,0.2,0,0.3c0.1,0,0.2,0,0.3,0
		C723.1,1159.1,724,1158.7,724.9,1158z"/>
	<path class="st7" d="M717.2,1154.6c-1.1,0.1-2.1,0.2-3.2,0.4c0.3,0.7,0.5,1.3,0.8,2c0.9,1.9,3.7,2.4,5.5,2c0.4-0.1,0.8-0.2,1.2-0.2
		c0-0.1,0-0.2,0-0.3C721.3,1156.2,719.5,1154.5,717.2,1154.6z"/>
	<path class="st7" d="M706.5,1203.6c-1.9-1-3.8-1.9-5.7-2.8c-0.4-0.2-0.9-0.4-1.3-0.5c-1.3-0.2-2.3,0.7-2.1,2
		c0.1,0.8,0.4,1.6,0.6,2.4c0.3,1.2,0.7,2.4,0.6,3.8c-0.7-0.2-1.2-0.4-1.7-0.5c-1.5-0.3-2.9-0.6-4.4-0.9c-2.2-0.4-4.8,1.6-4.3,4.7
		c0.1,0.6,0.2,1.2,0.3,2.1c-1.3,0.2-2.3,0.3-3.3,0.6c-1.8,0.5-3.8,1-4.9,2.7c-1,1.6-2.2,2.7-4,3.3c-1.2,0.4-1.4,1-1.2,2.3
		c0.7,3.3,1.5,6.6,3.7,9.4c1.1,1.4,2.3,2.6,3.9,3.3c1,0.4,1.9,1.1,2.9,1.5c2,0.8,4.1,1.6,6.2,2.1c1.7,0.4,3.4,0.4,5.2,0.5
		c0.7,0.1,1.4,0.2,2.1,0c3.5-0.8,7.1-1.3,10.4-2.7c2.4-1,4.8-1.9,7.2-2.9c0.2-0.1,0.3-0.2,0.5-0.2c0-0.1-0.1-0.2-0.1-0.4
		c-1.9-7-2.8-14.2-3.5-21.4c-1.1-2.3-2.5-4.4-4.3-6.2C708.5,1205,707.6,1204.2,706.5,1203.6z"/>
	<path class="st7" d="M717.3,1233.8c1.7-0.8,2.3-2,2.1-4.1c-0.2-1.7-0.4-3.4-0.7-5.2c-0.1-0.7-0.3-1.5-0.6-2.1
		c-1.1-2.6-2.2-5.2-3.3-7.8c-0.3-0.9-0.7-1.7-1.1-2.5c0.7,7.2,1.6,14.4,3.5,21.4C717.2,1233.6,717.3,1233.7,717.3,1233.8z"/>
	<path class="st7" d="M704.1,1155.2c-0.9-0.8-1.6-0.6-2.2,0.5c-0.3,0.6-0.6,1.2-0.9,1.8c-2.3,0.1-3.5,1.8-2.6,3.8
		c0.4,0.9,1,1.8,1.6,2.6c0.7,0.9,1.5,1.6,2.4,2.7c-1.1,0-2,0-2.8,0c-0.7,0-1.5-0.1-2.2-0.1c-1.6,0.1-3.2,1.7-3.4,3.5
		c-0.2,1.6,0.4,2.7,2.1,3.5c0.1,0.1,0.2,0.2,0.4,0.3c-0.7,1-1.5,2-2.1,3c-1,1.8-2.1,3.5-2.3,5.6c-0.1,1.5,0.7,2.1,2.2,1.6
		c0.8-0.3,1.5-0.6,2.6-1c-0.2,0.7-0.2,1-0.3,1.2c-1,2.2-2,4.3-3,6.4c-0.7,1.6-0.5,2.9,0.7,4.1c0.7,0.7,1.5,1.3,2.3,1.8
		c1.7,1.2,2.5,1.1,4.2-0.2c3-2.4,5-5.8,7.7-8.4c0.2-0.2,0.3-0.6,0.5-0.9c1.2-1.9,2.2-3.9,3.2-5.8c-0.1-2.3-0.2-4.7-0.4-7
		c-0.3-3.3-1-6.6-0.8-10c0-0.7,0.1-1.4,0.2-2.1c-0.2-0.3-0.4-0.5-0.6-0.8C708.8,1158.8,706.3,1157.1,704.1,1155.2z"/>
	<path class="st7" d="M711.6,1174.3c0.2,2.3,0.4,4.7,0.4,7c1.1-2.1,2.2-4.2,3.5-6.1c0.5-0.8,1-1.9,0.8-2.7c-0.6-2.6-0.9-5.3-2.9-7.3
		c-0.9-0.9-1.7-1.9-2.5-2.9c-0.1,0.7-0.1,1.4-0.2,2.1C710.6,1167.6,711.3,1170.9,711.6,1174.3z"/>
	<path class="st7" d="M728.6,1209c2.6-0.7,5.2-1.3,7.7-1.9c5.5-1.4,10.9-2.9,16.4-4.4c1.6-0.4,2.9-1.4,4.1-2.5
		c0.6-0.6,0.8-1.3,0.5-1.9c-0.6-1.4-1.3-2.7-2.8-3.3c-2.3-1-4.6-1-7-0.7c-0.6,0.1-1.3,0.2-2.3,0.4c0.7-1.1,1.2-1.9,1.7-2.6
		c1-1.4,1-2.9,0.4-4.4c-1.1-2.9-4.6-3.8-7-1.9c-0.5,0.4-0.9,0.8-1.6,1.3c-0.1-0.7-0.1-1.3-0.3-1.8c-0.3-0.7-0.5-1.7-1-2.1
		c-2-1.6-4.3-2.3-6.8-1.4c-0.5,0.2-1.1,0.4-1.7,0.6c-0.3-0.3-0.6-0.5-0.8-0.6c-1.5-1.1-2.9-1.4-4.1-0.9c0.6,5.4,1.3,10.7,1.8,16.1
		c0.4,4,0.4,8,0.7,11.9c0,0.2,0,0.5,0.1,0.7c0.2,0,0.4-0.1,0.6-0.1C727.7,1209.3,728.1,1209.1,728.6,1209z"/>
	<path class="st7" d="M725.9,1196.9c-0.5-5.4-1.2-10.8-1.8-16.1c-0.9,0.4-1.8,1.2-2.4,2.6c-0.5,1.2-1,2.4-1.3,3.6
		c-0.7,2.6-0.9,5.2,0,7.9c0.3,0.9,0.4,1.8,0.6,2.7c0.8,3.9,0.6,8.1,3.9,11.1c0,0,0.1,0.1,0.1,0.2c0.5,0.7,0.9,1,1.6,0.9
		c0-0.2,0-0.5-0.1-0.7C726.3,1204.9,726.3,1200.9,725.9,1196.9z"/>
	<path class="st7" d="M718.4,1244c-1.7-0.4-3.3-0.2-4.7,0.7c-1.2,0.7-2.3,1.6-3.2,2.6c-0.8,0.8-1.6,1.1-2.6,0.8
		c-1-0.3-1.9-0.8-2.8-1.3c-1.3-0.7-2.6-0.3-2.9,1.2c-0.3,1.1-0.4,2.3-0.3,3.4c0.2,1.8,0.7,3.6,1.1,5.6c-0.6,0-1.1-0.1-1.5,0
		c-2.5,0.4-3.6,1.5-3,3.3c0.8,2.4-0.2,3.6-2.2,4.3c-0.1,0-0.2,0.1-0.3,0.2c-2.6,1.6-3.3,5.1-1.3,7.3c0.9,1,2.2,1.9,3.5,2.4
		c2.4,1,5,0.7,7.5,0.1c7.2-1.9,13.6-5.5,20.1-8.9c-0.7-2.7-1.2-5.4-1.6-8.2c-0.4-3-1.5-6-2.4-9c-0.4-1.4-0.8-2.7-1.2-4.1
		c-0.3-0.1-0.7-0.1-1.1-0.1C719,1244.2,718.7,1244.1,718.4,1244z"/>
	<path class="st7" d="M724.1,1257.4c0.3,2.8,0.9,5.5,1.6,8.2c0.4-0.2,0.8-0.4,1.2-0.6c0.9-0.5,1.5-1.2,1.1-2.4
		c-0.1-0.4,0.1-0.9,0.1-1.4c-0.1-1-0.2-2.1-0.6-3c-0.6-1.6-1.5-3.1-2.1-4.7c-0.6-1.7-1.1-3.4-1.6-5.1c-0.6-1.9-1.4-3.5-3.3-4
		c0.4,1.4,0.8,2.7,1.2,4.1C722.6,1251.4,723.7,1254.4,724.1,1257.4z"/>
	<path class="st8" d="M664.5,11.4c1.7,1.6,3.3,3.5,5.2,5c0.2,0.1,0.3,0.4,0.4,0.6c-0.3,0.7-0.7,1.3-1.2,1.8c-0.2,0.2-0.4,0.2-0.6,0
		c-0.4-0.4-0.8-0.7-1.4-0.8c-0.3-0.1-0.6-0.1-0.9-0.2c-1.1-0.1-2.1-0.6-3.1-1.2c-1.8-1.2-3.6-2.3-5.4-3.6c-1.2-0.9-2.5-1.7-3.8-2.5
		c-1.4-0.9-2.9-1.3-4.5-1.5c-3.4-0.5-6.7,0.2-10,0.9c-0.5,0.1-0.8,0.4-1.1,0.9c-0.7,1-0.9,2.1-0.8,3.2c0,0.7,0.2,1.4,0.3,2.1
		c0.1,0.6,0.3,1.1,0.7,1.5c1.8,2.3,4,4,6.7,5.3c2.1,1,4.3,1.7,6.5,2.4c0.6,0.2,1.2,0.3,1.9,0.4c1.1,0.2,2.2,0.3,3.3,0.5
		c1.3,0.2,2.5,0.2,3.8,0c0.4-0.1,0.8-0.2,1.2-0.1c0.4,0.1,0.8,0,1.2-0.1c0.3-0.1,0.6-0.2,0.9-0.3c0.7-0.1,1.4-0.3,2.1-0.4
		c0.8-0.1,1.4-0.8,2.1-1.1c0.2-0.1,0.5,0.1,0.6,0.3c0.2,0.3,0.2,0.7-0.1,0.9c-0.2,0.2-0.5,0.4-0.7,0.6c-2.3,1.2-4.7,2.5-7.1,3.6
		c-2.3,1-4.4,2.2-6.3,3.9c-0.9,0.8-1.8,1.6-2.7,2.4c-1.2,1-2.4,2.1-3.4,3.4c-1.1,1.3-2.2,2.5-3.5,3.6c-0.8,0.6-1.5,1.4-2.1,2.3
		c-1,1.5-0.9,3.1,0.1,4.5c0.5,0.7,1.1,1.4,1.8,1.9c1.2,1.1,2.6,1.6,4.2,1.4c0.8-0.1,1.6-0.2,2.3-0.6c1.1-0.5,2.2-0.8,3.4-1
		c0.5-0.1,0.9-0.2,1.4-0.2c1.3-0.3,2.4-0.8,3.3-1.7c0.7-0.7,1.6-1.4,2.4-2c1.8-1.4,3.4-2.9,4.7-4.7c0.4-0.7,1-1.2,1.6-1.8
		c1-1,2-2.1,2.8-3.3c0.1-0.1,0.2-0.3,0.3-0.4c0-0.1,0.1-0.1,0.2-0.2c0.1,0,0.2-0.1,0.2,0c0.1,0.1,0.2,0.2,0.2,0.3
		c-0.4,2.5-1.1,4.8-1.8,7.2c-1,3-1.5,6-1.8,9.1c-0.1,1.1,0,2.2,0,3.3c0.1,1.8,0.9,3.2,2.1,4.5c0.4,0.4,0.8,0.8,1.2,1.1
		c2,1.6,4.2,1.6,6.3,0.5c0.7-0.4,1.3-1,1.7-1.6c2.1-2.6,3.3-5.6,3.8-8.9c0.4-2.4,0.8-4.7,1.3-7.1c0.2-0.7,0.5-1.4,0-2.1
		c-0.1-0.1-0.1-0.3,0-0.5c0.2-1.1,0.3-2.2,0.5-3.3c0-0.1,0.1-0.2,0.1-0.2c0.1,0,0.4-0.1,0.4,0c0.7,0.7,1,1.6,1.4,2.5
		c1.1,2.4,2.3,4.7,3.5,7.1c1.2,2.4,2.8,4.4,4.8,6.2c0.5,0.5,1.1,0.9,1.8,1.1c1.9,0.6,3.9,0.8,5.9,0.5c0.9-0.2,1.9-0.4,2.8-0.8
		c0.6-0.2,1-0.7,1.2-1.4c0.3-1.2,0.5-2.3,0.4-3.6c-0.2-2.3-0.6-4.6-1.1-6.9c0-0.2-0.1-0.5-0.2-0.7c-1-2.6-2.6-4.9-4-7.3
		c-0.1-0.2-0.3-0.4-0.5-0.6c-1.5-1.5-2.9-3-4.5-4.3c-1.5-1.3-3-2.6-4.7-3.7c-0.2-0.1-0.4-0.3-0.5-0.5c-0.2-0.2-0.2-0.5,0-0.6
		c0.1-0.1,0.3-0.1,0.4-0.2c0.1,0,0.2,0,0.2,0c2.1,0.7,4.2,1,6.4,1c0.2,0,0.5,0.1,0.7,0.1c1.4,0.1,2.7,0.2,4.1,0.2c3,0,5.9,0,8.9,0.1
		c2.6,0.1,5.1-0.6,7.3-2c2.9-1.8,5.4-4,7.7-6.4c0.9-1,1.3-2.2,1.5-3.5c0.1-0.6-0.1-1.1-0.3-1.6c-0.3-0.6-0.7-1.1-1.2-1.4
		c-0.8-0.5-1.6-1-2.5-1.3c-2.9-0.9-5.8-1.3-8.7-1c-1.3,0.2-2.5,0.3-3.8,0.6c-3.2,0.6-6.4,1.5-9.3,3c-3.3,1.7-6.6,3.2-9.8,5.1
		c-0.2,0.1-0.4,0.2-0.7,0.2c-0.1,0-0.4-0.1-0.4-0.2c-0.2-0.5-0.4-1-0.6-1.5c-0.1-0.3,0-0.7,0.3-0.8c0.8-0.4,1.6-0.7,2.4-1.1
		c0.7-0.3,1.5-0.5,2.2-0.9c2-1.1,4.1-2.2,5.8-3.8c0.4-0.3,0.7-0.6,1.1-0.9c3-2.2,5.3-5,7.4-8.1c0.2-0.3,0.5-0.7,0.7-1.1h-18.6
		c-0.4,0.4-0.7,0.9-1.1,1.3c-1.8,2.3-3.3,4.7-4,7.6c-0.2,0.8-0.5,1.5-0.8,2.3c-0.1,0.4-0.6,0.6-1,0.4c-1-0.4-1.9-0.8-2.8-1.3
		c-0.1-0.1-0.2-0.5-0.1-0.6c1.3-2.5,2.8-4.9,4.7-6.9C688.3,3,689,2,689.6,1H676c0,0,0,0.1,0,0.1c-0.1,2.8,0.2,5.6,1.4,8.2
		c0,0.1,0,0.2,0,0.2c0,0.1,0,0.2-0.1,0.2c-0.3,0.4-0.4,0.8-0.1,1.3c0.1,0.2,0.2,0.5,0,0.6c-0.5,0.3-1,0.4-1.6,0.5
		c-0.3,0-0.5-0.2-0.5-0.4c-0.2-0.6-0.3-1.2-0.4-1.9c-0.6-3-1.2-6-2-8.9h-16.1C658.7,4.9,661.3,8.3,664.5,11.4z"/>
	<path class="st4" d="M418.9,4.9c-0.1,1-0.2,2.1-0.2,3.1c0,0.5,0.1,1.1,0.4,1.5c1,1.6,2.3,3,4.1,3.6c3.4,1.1,6.6,2.5,10.2,2.8
		c1.4,0.1,2.8,0.4,4.2,1c1.5,0.7,3,0.9,4.6,1c2.2,0.1,4.5,0.2,6.7,0.1c1.7,0,3.5,0,5.1-0.4c3.6-0.9,7.2-1.1,10.9-1.4
		c1.2-0.1,2.3-0.3,3.5-0.6c0.4-0.1,0.7-0.3,1-0.5c0.6,0.1,1.3,0.1,1.9,0.2c-0.6,0.2-1.3-0.1-1.9-0.2c0.2,0.5,0.3,1.1-0.2,1.4
		c-2.2,1.2-4.3,2.5-6.5,3.6c-2.9,1.5-5.8,3-8.4,5c-0.5,0.4-1.1,0.8-1.6,1.1c-4.4,2.4-8.1,5.7-12.4,8.3c-0.8,0.5-1.4,1.2-2.1,1.7
		c-0.7,0.6-1.2,1.3-1.6,2.2c-1,2.3-0.6,4.6-0.3,7c0,0.3,0.2,0.5,0.3,0.7c1.6,2.7,3.7,4.8,6.8,5.6c1,0.3,2,0.5,3.1,0.6
		c2.1,0.1,4.2,0.1,6.3,0.2c1.9,0.1,3.7-0.3,5.4-0.9c2.2-0.9,4.3-1.8,6.5-2.7c2.2-0.8,4.2-2,6-3.6c1.9-1.8,4.2-3.2,6.5-4.4
		c0.3-0.2,0.7-0.2,1.1-0.3c0.3-0.1,0.9,0.4,0.8,0.7c-1,2.8-1.9,5.7-2.8,8.6c-0.5,1.6-1.3,3.1-1.8,4.8c-1.2,4-2.1,8.1-1.4,12.4
		c0.3,1.9,1,3.5,2.2,4.9c1.1,1.4,2.5,2.1,4.3,2.5c2.8,0.6,5.4,0.3,8-1c1.6-0.8,3.3-1.6,4.6-2.9c0.5-0.6,1.2-1,1.9-1.4
		c1.7-1.2,2.8-2.7,3.6-4.6c0.8-1.9,1.7-3.8,2.4-5.8c1.8-5,3.6-10.1,4.1-15.5c0-0.1,0.2-0.3,0.3-0.3c0.2,0.1,0.6,0.1,0.7,0.3
		c0.5,0.9,1,1.9,1.4,2.8c1.1,2.5,2.4,5,3.9,7.3c1.5,2.2,3,4.3,4.5,6.4c1.1,1.5,2.4,2.8,4,3.8c2.5,1.5,5,2.9,7.7,3.8
		c0.4,0.1,0.8,0.2,1.1,0.2c1,0,2.1-0.2,3.1-0.6c1.3-0.5,2.2-1.4,2.7-2.6c0.3-0.7,0.5-1.5,0.6-2.3c0.3-1.8,0.7-3.6,0.9-5.4
		c0.1-0.6,0-1.4-0.2-1.9c-1-2-1.5-4.2-2.1-6.3c-0.5-1.9-1.3-3.7-2.9-5c-1.7-1.5-2.8-3.5-3.8-5.5c-2.4-4.7-5-9.2-8.5-13.2
		c-1.7-1.9-3.3-3.7-5.7-4.6c-0.1,0-0.2-0.2-0.3-0.3c0-0.2-0.1-0.6,0-0.7c0.6-0.8,1.4-1.1,2.5-0.9c0.9,1,1.9,2.1,2.9,3.1
		c4,3.8,7.9,7.6,11.9,11.4c1,1,2.2,1.8,3.5,2.5c0.8,0.4,1.6,0.8,2.5,1.2c0.9,0.4,1.6,0.9,2.3,1.5c1.9,2.1,4.3,3.4,6.7,4.7
		c1.9,1,3.9,1.5,5.8,2.3c2.1,0.9,4.3,1.1,6.5,1.2c1.4,0.1,2.6-0.5,3.6-1.4c1.8-1.7,2.8-3.8,3.2-6.2c0.2-1,0.3-2.1,0.6-3.1
		c0.4-0.9,0.1-1.8-0.3-2.6c-1.2-2.1-2.6-4-4.4-5.5c-0.8-0.7-1.6-1.3-2.2-2.2c-0.6-1.1-1.5-1.8-2.6-2.3c-0.7-0.4-1.3-0.9-1.9-1.4
		c-0.5-0.4-1-0.8-1.6-1.1c-3.1-1.4-6.3-2.6-9.4-4.1c-1.9-0.9-3.9-1.5-6-1.8c-2.6-0.4-5.1-1.3-7.5-2.2c-0.6-0.2-0.6-0.7-0.6-1.3
		c0.5,0,1.1-0.1,1.5,0.1c4.3,1.6,8.6,2.2,13.1,1.4c2.1-0.4,4.2-0.8,6.2-0.7c2.1,0,4.1,0.5,6.2,0.9c2,0.3,3.9,0.1,5.8-0.5
		c2.7-0.9,5.4-1.9,8.2-2.9c1.6-0.6,3.1-1.4,4.5-2.4c1.9-1.6,3.9-3.1,5.8-4.7c0.4-0.3,0.7-0.7,1-1.1H478.1c-0.3,0.2-0.6,0.3-1.1,0.3
		c-0.8,0-1.5-0.1-2.3-0.3h-54.1c-0.5,0.9-1,1.8-1.4,2.7C419,4.1,418.9,4.5,418.9,4.9z M517.7,8.9c0.1-0.2,0.3-0.3,0.4-0.4
		c0.2-0.1,0.5,0,0.8,0c0.6,0.1,1.3,0.3,1.9,0.5c2,0.7,3.9,1.3,5.9,2c-1.7,0.6-3.3-0.1-4.9-0.3c-1.4-0.2-2.9-0.5-4-1.5
		C517.8,9.1,517.7,8.9,517.7,8.9z M476.2,12c1-0.8,2.1-1.5,3.2-2.3c0.3-0.2,0.7-0.2,1,0.2c0.3,0.4,0.3,1.1-0.2,1.3
		c-1.2,0.5-2.4,1-3.6,1.4c-0.2,0.1-0.4-0.1-0.7-0.1C476,12.4,476.1,12.1,476.2,12z M474.5,12.6c0.4-0.2,0.9-0.3,1.3,0
		c-0.7,1.2-1.3,1.3-2.5,0.7C473.7,13.1,474.1,12.8,474.5,12.6z"/>
	<path class="st1" d="M747.8,138.3c-0.4,1-0.6,2-0.9,3.1c-0.1,0.3-0.1,0.6,0,0.9c0,0.7,0.1,1.4,0.2,2.1c0,0.3,0.2,0.6-0.2,0.8
		c-0.2,0.1-0.4-0.1-0.6-0.3c-0.2-0.2-0.4-0.3-0.6-0.4c-0.2-0.2-0.5-0.4-0.8-0.4c-1-0.1-1.9-0.6-2.6-1.3c-0.2-0.2-0.4-0.3-0.6-0.4
		c-0.2-0.1-0.3-0.2-0.5-0.2c-0.6-0.1-1.2-0.2-1.7,0c-0.5,0.2-0.9,0.2-1.4,0.2c-0.4,0-0.7,0.1-0.9,0.4c-0.8,0.9-1.6,1.7-2.4,2.6
		c-0.5,0.6-0.7,1.3-0.9,2.1c0,0.2,0,0.4,0,0.5c0.1,0.5,0.3,1,0.7,1.4c0.4,0.4,0.9,0.6,1.1,1.1c0.5,0.9,1.3,1.5,2.2,2
		c0.8,0.4,1.4,1,2,1.7c0.1,0.1,0.1,0.2,0,0.3c-0.1,0.1-0.2,0.1-0.3,0.1c-0.7-0.2-1.4-0.4-2-0.7c-0.3-0.2-0.7-0.3-1-0.3
		c-1.5-0.2-2.8,0.3-4.1,0.8c-0.7,0.3-1,1-1.4,1.5c-0.2,0.2-0.4,0.4-0.5,0.7c-0.2,0.5-0.8,0.7-0.9,1.3c-0.1,0.6,0.2,1,0.2,1.6
		c0.1,0.9,0.6,1.5,1.3,2c0.8,0.6,1.6,1.1,2.5,1.7c0.5,0.3,0.5,0.5,0.1,0.9c-0.4,0.4-0.8,0.7-1.2,1.1c-0.3,0.3-0.6,0.7-0.9,1.1
		c-0.3,0.4-0.3,0.9-0.1,1.4c0.2,0.6,0.5,1.2,1.2,1.5c0.4,0.2,0.8,0.6,1.1,0.9c0.7,0.7,1.6,1.2,2.6,1.4c0.6,0.2,1.3,0.3,1.9,0.5
		c0.6,0.2,1.3,0.2,1.9,0.1c1.2-0.2,2.5,0,3.7,0.1c0.1,0,0.2,0.1,0.2,0.2c0,0.1,0,0.2-0.1,0.3c-0.7,0.7-1.4,1.4-2.4,1.8
		c-0.6,0.2-1,0.6-1.3,1.1c-0.2,0.3-0.3,0.6-0.3,1c0,0.4,0.1,0.8,0.4,1.1c0.3,0.4,0.7,0.8,1.1,1.2c0.9,0.8,1.9,1.2,3.1,1.1
		c1.1-0.1,2.1-0.2,3.2-0.4c0.7-0.1,1.3-0.1,2-0.2v-42.8C748.9,136.7,748.2,137.3,747.8,138.3z"/>
	<path class="st5" d="M134.5,1484.4c-0.7,1.4-1,2.8-1,4.4c0,1.4-0.1,2.7-0.1,4.1c0,0.9,0,1.8,0,2.7c0.1,1.2,0.7,1.9,1.8,2.4
		c1.7,0.8,3.5,0.9,5.3,0.4c4.3-1,8.3-2.6,12-5.1c4.4-2.9,8.8-5.9,13.2-8.8c2.7-1.8,4.9-3.9,6.8-6.6c0.3-0.4,0.6-0.8,0.8-1.2h-34.7
		C137.2,1479.3,135.8,1481.9,134.5,1484.4z"/>
	<path class="st5" d="M180.3,1485.8c0,2.1-0.2,4.2,0.2,6.3c0.2,1.2,0.2,2.4,0.1,3.6c-0.1,1.5,0.2,3,0.6,4.5c0.5,1.6,0.9,3.2,1.1,4.8
		c0.4,3,1.6,5.8,3,8.5c1.5,3,3.9,5.4,6.1,7.8c1.7,1.9,4.3,2.3,6.7,1.6c3.7-1.2,6.8-3.2,8.5-6.9c1.2-2.6,2.1-5.3,3-8
		c1-3,1.7-6.1,1.6-9.3c-0.1-3.6,0.3-7.2,1.3-10.7c1-3.6,1.6-7.4,1.1-11.1h-33.1C180.4,1479.8,180.3,1482.8,180.3,1485.8z"/>
	<path class="st5" d="M213.3,1471.3c0.5-4.1,2.2-7.8,3.9-11.5c0.3-0.5,1-0.9,1.5-0.7c0.8,0.4,1.6,0.8,2.5,1.1
		c4.3,1.9,8.5,3.9,13.3,4c0.6,0,1.2,0.2,1.8,0.3c6.1,1.2,12.2,1.6,18.4,1.9c0.3,0,0.6,0,0.9-0.1c1.8-0.4,3.6-0.3,5.4,0
		c2.7,0.5,5.1-0.1,7.5-1.1c7.4-3.2,9.3-7.2,5.4-14.2c-1.8-3.2-4.1-6-7.2-7.9c-1.7-1-3.3-2.1-4.9-3.2c-0.8-0.5-1.6-0.9-2.3-1.5
		c-3.1-2.6-6.7-4.1-10.6-4.8c-1.8-0.3-3.5-0.8-5.3-1.2c-0.1,0-0.2-0.6-0.1-0.8c0.8-1.1,2.1-1.6,3.4-2.1c2.8-1.2,5.6-2.3,8.3-3.6
		c3.7-1.8,7.4-3.3,11.4-4.3c3.2-0.8,6.3-2,9.1-3.9c4.8-3.1,9.6-6.3,14.4-9.4c1.5-1,2.9-2.1,4.1-3.6c-0.1-0.4-0.1-0.9-0.2-1.3
		c-0.7-1.6-1.9-2.7-3.5-3.4c-0.7-0.3-1.5-0.4-2.1-0.8c-2.7-1.8-5.8-2.4-9-2.7c-1-0.1-2.1-0.5-3.1-0.6c-0.9-0.1-1.9-0.3-2.7-0.1
		c-2.4,0.7-4.8,0.5-7.2,0.6c-3.8,0.1-7.5,0.6-11.2,1.6c-1.9,0.5-3.8,0.9-5.7,1.3c-4,0.9-7.9,2-11.6,3.7c-0.7,0.3-1.4,0.6-2.1,0.9
		c-5,2.1-10.1,4-14.9,6.4c-0.7,0.3-1.4,0.6-2.1,0.9c-0.6,0.2-1.2,0.1-1.7-0.3c-1-0.9-2-1.8-2.2-3.3c-0.1-0.8-0.6-1.4-1.2-1.8
		c-2.7-1.6-5.4-3.4-8.8-3c-0.3,0-0.6-0.2-1-0.3c-0.3-0.6-0.7-1.2-0.9-1.9c-0.5-1.7-1.7-2.3-3.4-2.5c-1.2-0.1-2.5-0.3-3.6,0.2
		c-1.3,0.6-2.3,0.3-3.4-0.3c-1.6-0.9-3.2-0.6-4.7,0.4c-1.1,0.8-2.2,1.6-3.1,2.3c-0.5,0-0.8,0-1.1-0.1c-2.7-0.3-5.1,0.4-7.2,2.1
		c-1.2,0.9-2.4,1.8-3.7,2.6c-0.9,0.6-1.8,1.1-2.9,1.2c-2,0.1-3.8,1-5.5,1.9c-0.9,0.5-2.1,1-2.4,2c-0.5,1.4-0.7,2.9-0.1,4.4
		c0.2,0.4,0.4,0.8,0.6,1.2c0.4,1.2-0.1,2.5-1,3.2c-1.3,1-2.8,1.7-4.5,2.1c-2.3,0.5-4.7,1.1-6.9,2.2c-1.2,0.6-2.6,0.8-3.9,1
		c-3,0.3-5.9,1.1-8.9,1.9c-0.7,0.2-1.4,0.5-2.1,0.7c-2.4,0.9-4.7,2-7.2,2.8c-1.9,0.6-3.7,1.4-5.3,2.6c-2.2,1.6-4.5,3-7,4.2
		c-1.9,0.9-3.6,2.3-4.8,4c-1.4,2-3.1,3.7-5.1,5.1c-1.4,1-2.6,2.1-3.9,3.2c-2.9,2.4-4.1,4.4-3.9,6.1c0.3,1.9,2.4,3.5,5.8,5.1
		c6.2,2.9,13.1,4,19.9,2.9c10.6-1.7,19.6-7.3,29.9-10.1c0.4-0.1,1.2,0.1,1.2,0.4c0,0.3,0.1,0.7-0.1,0.9c-0.9,1.2-1.7,2.5-2.7,3.6
		c-3.4,3.8-6.6,7.9-9.5,12.1c-1.6,2.2-2.9,4.5-4.3,6.9h34.7c1.4-2.1,2.9-4.1,4.7-6c0.4-0.4,0.8-0.9,1.5-0.9c0.4,0,1,1,1.1,1.8
		c0,0.5,0.1,0.9,0.1,1.4c0,1.2-0.1,2.4-0.1,3.6h33.1c-0.1-0.6-0.2-1.2-0.3-1.8C213.1,1473.8,213.2,1472.5,213.3,1471.3z"/>
	<path class="st9" d="M34.9,1472.5c-0.4-0.3-0.4-0.9-0.1-1.3c0.4-0.3,0.7-0.8,1.1-0.9c3.4-1.5,6.8-2.9,10.3-4.3
		c1.6-0.7,3.3-1.2,5-1.8c1.8-0.7,3.6-1.5,5.4-2.2c4.7-1.8,9.2-3.9,13.2-7c2.4-1.9,5.2-3.2,6.9-6c0.2-0.4,0.8-0.6,1.1-0.9
		c0.9-0.7,1.5-1.6,1.8-2.8c0.6-2.2,1.3-4.3,1.8-6.5c0.2-0.8,0.2-1.6,0.2-2.4c0-0.4-0.3-1-0.6-1.3c-0.9-1-2-1.6-3.4-1.5
		c-1.6,0.1-3.2,0-4.8,0.3c-1.1,0.2-2.1,0.8-3.1,1.3c-0.3,0.1-0.6,0.2-0.9,0.3c-5.7,1.7-11.2,4-16.3,7.3c-2.7,1.8-5.6,3.3-8.7,4.3
		c-2.1,0.7-4.2,1.6-6.4,2.3c-1.1,0.4-2.1,0.8-3.2,1c-2.5,0.5-5.1,0.8-7.6,1.2c-0.1,0-0.3,0-0.5-0.1c-0.1-0.1-0.3-0.2-0.4-0.2
		c-0.3-0.2-0.4-0.6-0.1-0.9c1.5-1.4,3.2-2.7,4.6-4.3c1.9-2.1,4.1-3.6,6.5-5.1c0.9-0.6,1.9-1.2,2.8-1.8c2.5-1.5,4.9-3.2,7.4-4.6
		c1.5-0.8,2.7-1.8,3.7-3c1-1.3,1.9-2.7,3.1-3.7c1.7-1.5,3.4-3,4.4-5.1c0.3-0.5,0.9-0.9,1.4-1.3c0.7-0.5,1-1.3,1.1-2.1
		c0.3-2.1-0.5-3.8-2.2-5c-0.5-0.4-1.2-0.6-1.7-1c-1.3-0.9-2.7-1.2-4.1-0.7c-5.4,1.6-10.9,2.8-16.3,4.6c-5,1.6-9.2,4.6-13.6,7.4
		c-1.6,1-3.1,2.3-4.4,3.8c-1.6,1.8-3.2,3.6-4.9,5.4c-1.4,1.4-2.8,2.6-4.3,3.9c-0.3,0.3-0.6,0.2-0.8-0.1c-0.1-0.1-0.2-0.3-0.2-0.4
		c0.3-4.4,1-8.6,2.8-12.7c1.4-3.1,2.3-6.3,2.6-9.8c0.2-2.1,0.7-4.1,1.2-6.2c0.3-1.4,0.6-2.9,0.3-4.3c-0.8-3.4-0.5-6.7-0.4-10.1
		c0-0.5,0-1,0-1.5c-0.1-2.4-1-3.5-3.3-4c-0.3-0.1-0.6-0.1-0.9-0.2c-2-0.5-3.8-0.6-4.8,1.8c-0.2,0.4-0.6,0.7-1,1
		c-1.1,0.7-1.8,1.9-2.3,3c-0.7,1.6-1.5,3.2-2.2,4.8c-0.3,0.7-0.8,1.4-1,2.2c-0.6,2.4-1.6,4.6-2.6,6.8c-0.7,1.5-1.3,3-1.6,4.6
		c-0.5,3.2-1.4,6.3-2,9.5c-0.6,3.6-1.9,6.8-3.2,10.1c-0.3,0.7-1.1,0.9-1.6,0.4c-0.4-0.4-0.9-0.9-1.3-1.3v45.1h55.9
		c-2.2-0.8-4.3-1.7-6.1-3.3C36,1473.1,35.4,1472.8,34.9,1472.5z"/>
	<path class="st0" d="M631.5,1436.4c-0.1-0.2-0.3-0.4-0.4-0.7c0.1,0.3,0.1,0.5,0.2,0.8C631.3,1436.5,631.4,1436.5,631.5,1436.4z"/>
	<path class="st10" d="M702.2,1401.6c0.8,0,1.6,0.5,2.1,1.2c0,0.1,0.1,0.2,0.1,0.2c0.1-0.1,0.1-0.2,0.2-0.2c0.4,0.7,0.7,1.4,1.2,2
		c2.2,2.6,4.9,4.5,8.1,5.6c1.7,0.6,3.5,1,5.3,1.6c1.4,0.4,2,0,2.1-1.4c0.1-1.5,0.2-3.1,0.3-4.6c0.2-2.5,0.3-4.9-0.3-7.4
		c-0.6-2.4-1.3-4.8-3.3-6.5c-0.1-0.1-0.2-0.2-0.3-0.4c-1.3-1.8-2.6-3.5-4.3-4.9c-0.9-0.8-1.8-1.8-2.8-2.9c0.5,0.1,0.7,0.1,0.9,0.2
		c1.4,0.3,2.8,0.8,4.3,0.9c3.7,0.4,7.1-0.7,10.4-2.3c0.6-0.3,1.2-0.6,1.8-0.9c2.2-1.5,3.6-3.6,4.8-5.9c0.6-1.2,0.7-2.5,0.2-3.8
		c-0.1-0.2-0.1-0.4-0.2-0.7c-0.3-1.4-0.6-2.9-0.9-4.3c-0.2-1-0.7-1.4-1.7-1.4c-0.6,0-1.3,0.1-1.8,0.4c-1.2,0.9-2.4,1.8-3.5,2.8
		c-1.6,1.6-3.4,2.8-5.6,3.3c-0.4,0.1-0.8,0.1-1.2,0.1c0-0.3,0-0.4,0-0.6c0.2-1.4,0.4-2.8,0.6-4.2c0.3-2.2,0.5-4.4-0.6-6.5
		c-0.2-0.5-0.2-1.2-0.2-1.8c0-0.5,0.1-1,0.2-1.6c0.7-3.3,0.4-6.6-0.5-9.8c-0.3-1-0.8-2-1.8-2.4c-1-0.4-2.1-0.7-3.2-1.1
		c-1.2-0.5-2.1-0.1-3,0.7c-0.9,0.8-1.9,1.7-2.9,2.5c-1.2,1.1-2.3,2.2-3.2,3.6c-1.6,2.4-3.2,4.8-4.9,7.1c-0.1,0.2-0.3,0.4-0.4,0.7
		c-0.2,1.1-0.4,2.1-0.6,3.2c-0.3,1.8-0.6,3.5-0.9,5.3c0,0.2-0.2,0.5-0.3,0.7c-0.8,0.9-1.9,0.9-2.7,0c-0.7-0.9-1.2-1.8-1.9-2.6
		c-1-1.2-1.9-2.5-2.7-3.9c-0.7-1.4-1.7-2.7-1.7-4.5c0-0.1,0-0.2,0-0.3c-0.3-1.2-1.6-1.7-2.7-1.1c-0.4,0.3-0.8,0.7-1.1,1.1
		c-0.8,0.9-1.6,2-2.5,2.9c-1.6,1.4-2.1,3.1-1.9,5.1c0.2,1.4,0.4,2.8,0.4,4.1c0,1.4,0.4,2.7,1,4c0.8,1.9,2,3.4,3.4,4.9
		c0.4,0.4,0.7,0.8,1.1,1.3c-0.4,0.2-0.6,0.3-0.8,0.4c-1,0.6-2,1.1-2.9,1.7c-1.1,0.7-2.1,1.6-3.2,2.3c-1.5,0.9-2.8,2.1-3.9,3.5
		c-1,1.3-1.9,2.8-2.4,4.4c-0.6,2,0.2,3.3,2.1,4c0.5,0.2,1,0.3,1.5,0.3c2.3-0.1,4.5-0.7,6.6-1.6c0.2-0.1,0.4-0.1,0.8-0.2
		c-0.2,0.5-0.4,0.8-0.5,1.2c-1.8,3.4-2.4,7-2.3,10.8c0,1.2,0.3,2.2,0.7,3.3c0.6,1.5,1.2,1.9,2.8,1.9c1.9,0,3.6-0.7,5.3-1.5
		c3.1-1.3,5.9-3.2,8.6-5.3c0.2-0.1,0.4-0.2,0.8-0.4c0,0.1,0,0.2,0,0.3C699.8,1403.8,700.5,1401.6,702.2,1401.6z"/>
	<path class="st10" d="M634.7,1397.9c0.3,0.2,0.6,0.4,0.9,0.5c1.2,0.5,2.2,1.2,3,2.3c0.2,0.3,0.7,0.5,1.1,0.6c1,0.2,1.9,0,2.7-0.6
		c1.2-0.8,2.1-2,2.7-3.3c0.7-1.8,1.8-3.4,3.2-4.7c0.9-0.8,1.5-1.8,1.8-3c0.3-1.1,0.8-2.2,1.2-3.2c0.6-1.3,1.2-2.5,1.4-3.9
		c0.1-0.6,0.2-1.2,0.4-1.8c0.8-2.5,1.1-5,0.7-7.6c-0.1-0.6-0.1-1.2-0.2-2.1c0.8,0.7,1.5,1.2,2.1,1.9c0.6,0.7,1.4,1.2,2.3,1.5
		c0.5,0.2,1.1,0.3,1.6,0.6c1.5,0.8,3,1.7,3.6,3.5c0.2,0.5,0.6,1,1,1.5c0.9,1,2.2,1.5,3.5,1.9c0.4,0.1,0.6,0.1,0.8,0.5
		c0.5,1.1,2.1,0.7,2.5-0.1c0.2-0.3,0.3-0.7,0.4-1.1c0.5-2.4,0.7-4.8,0.7-7.1c-0.1-3-0.8-5.9-2.1-8.7c-1-2-2.5-3.5-4.1-5
		c-0.2-0.2-0.4-0.4-0.7-0.7c1.6-0.2,2.6-1.1,3.7-2c2.6-2.3,4.7-4.9,6-8.1c0.3-0.7,0.6-1.3,0.7-2c0.1-1,0.1-1.9,0-2.9
		c-0.1-0.9-0.6-1.1-1.5-0.8c-0.4,0.1-0.8,0.4-1.1,0.6c-0.4,0.2-0.9,0.6-1.3,0.6c-1.6-0.1-2.9,0.5-4.2,1.4c-1.6,1-3.3,1.7-5.1,2.3
		c-0.7,0.2-1.4,0.6-2.2,0.1c0.1-0.3,0.1-0.7,0.2-1c0.8-1.9,1.5-3.9,2-5.9c0.2-0.9,0.4-1.9,0.5-2.8c0.2-1.8-0.1-3.6-0.5-5.4
		c-0.7-3.4-1.5-6.7-2.2-10.1c-0.2-0.9-0.8-1.4-1.6-1.6c-0.5-0.1-1-0.2-1.4-0.2c-1.8,0.2-3.4,0.8-4.9,1.9c-3.7,2.9-6.8,6.3-9.1,10.5
		c-0.2,0.4-0.5,0.8-1,1c-1.7,0.7-2.7,2.1-3.4,3.7c-0.1,0.3-0.3,0.7-0.4,1c-2.3-0.6-3.3-2.3-4-4.3c-0.8,0.1-1.6,0.2-2.5,0.3
		c-0.8-0.8-1.7-1.9-2.7-2.9c-1.5-1.5-3.8-1.5-5.2-0.2c-3.3,2.9-4.6,6.6-4,10.9c0.3,2.5,1.6,4.5,3.2,6.4c0.9,1.1,1.9,2.2,2.7,3.3
		c0.6,0.7,1,1.6,1.5,2.4c-0.2,0.1-0.3,0.3-0.5,0.3c-1.3,0.2-2.5,0.4-3.8,0.6c-0.3,0-0.6-0.1-0.9-0.2c-1.4-0.5-2.8-0.6-4.2-0.3
		c-1.6,0.3-3.2,0.8-4.4,2c-0.3,0.3-0.6,0.7-0.9,1c-2.3,1.9-3.2,4.5-3.9,7.2c-0.4,1.7-0.9,3.3-1.8,4.8c-0.2,0.4-0.4,0.7-0.6,1.1
		c-0.4,0.5-0.3,1.1-0.2,1.7c0.4,1.7,1.5,2.8,3,3.6c2,1.1,4,1,5.8-0.3c1.5-1.1,3-2.2,4.7-3.1c0.4-0.2,0.9-0.4,1.4-0.3
		c1.1,0.2,2.3,0.4,3.4,0.6c0.1,1.1,0.3,2.3,0.2,3.5c-0.1,1.2,0.4,2,1.4,2.6c0.8,0.5,0.8,0.6,0.6,1.6c-0.2,0.8-0.4,1.7-0.2,2.4
		c0.5,2.1,1.2,4.1,2.4,5.9c0.1,0.1,0.2,0.3,0.3,0.5c0.2,0.3,0.4,0.7,0.6,1C631.1,1394.3,633.8,1395.7,634.7,1397.9z"/>
	<path class="st3" d="M671.1,1482.2c0-2.6-0.6-5.2-1.4-7.7c-1.4-4.5-2.6-9.1-3.5-13.8c-0.4-2.3-0.7-4.7-1.1-7
		c-0.3-1.9-0.7-3.8-0.9-5.8c-0.5-3.3-0.9-6.7-1.4-10c-0.7-4.2-1-8.5-1-12.8c0-0.8,0-1.5,0-2.3c0-2.4,0.1-4.7,0.1-7.1
		c0-0.3-0.2-0.7-0.4-0.9c-0.7-0.6-1.6-0.4-1.9,0.6c-0.7,1.9-1.3,3.8-2,5.6c-1.2,3.4-2.2,6.8-2.6,10.3c-0.4,3.4-1.3,6.7-2,10
		c-0.5,2.2-1.1,4.4-1.4,6.6c-0.3,2.1-0.5,4.2-0.7,6.3c-0.1,1.3-0.3,2.6-0.4,3.9c-0.1,3.9,0.4,7.7,1.6,11.4c0.3,0.8,0.5,1.6,0.7,2.4
		c-0.5-0.3-0.9-0.7-1.3-1.1c-1.3-1.2-2.2-2.7-2.7-4.4c-0.3-1.1-0.7-2.2-1.1-3.3c-0.8-2.4-1.7-4.8-2.5-7.2c-0.6-1.7-1.3-3.3-2.3-4.7
		c-0.3-0.4-0.6-0.9-0.7-1.4c-0.9-2.6-1.7-5.1-2.5-7.7c-0.5-1.6-0.9-3.2-1.4-4.9c-0.5-1.8-1.2-3.5-1.7-5.2c-0.9-3.9-1.7-7.8-2.4-11.7
		c-0.7-3.7-0.9-7.4-0.8-11.1c0.1-3.3,0.3-6.5,0.5-9.8c0-0.7,0.2-1.4,0.3-2.1c0.3,0.1,0.5,0.3,0.7,0.4c-0.9-2.3-3.6-3.6-5-5.8
		c-0.2-0.3-0.4-0.7-0.6-1c0.1,0.2,0.1,0.4,0.1,0.5c-0.1,1.5-0.4,3-0.5,4.5c-0.1,3.2-0.2,6.4-0.3,9.6c0,3.2,0.2,6.4,0,9.6
		c-0.2,3.4,0,6.7,0.3,10c0.2,2.8,1,5.6,1.8,8.3c0.2,0.7,0.3,1.3,0.4,2c0,0,0,0,0,0c0,0,0,0.1,0,0.1c0.1,0.2,0.3,0.4,0.4,0.7
		c-0.1,0-0.2,0.1-0.2,0.1c-0.1-0.3-0.1-0.5-0.2-0.8c0,0,0,0,0-0.1c0,0,0,0,0-0.1c-0.2-0.3-0.5-0.5-0.6-0.8c-1-2.1-2-4.1-2.9-6.2
		c-2.1-5.1-4.6-10.1-7.5-14.8c-1.7-2.6-3.7-5-6-7.1c-2.3-2.1-4.4-4.2-6.6-6.4c-3.1-3.1-5.9-6.5-9.2-9.5c-1.3-1.2-2.4-2.5-3.4-3.9
		c-0.8-1-1.3-2.2-1.9-3.3c-0.8-1.3-1.4-1.4-2.6-0.4c0,0-0.1,0.1-0.1,0.2c0,0.1,0.1,0.2,0.1,0.3c1.7,1.8,2.1,4.2,2.5,6.5
		c0.4,2,0.7,4,1.5,5.9c1.3,3.1,2.4,6.2,3.1,9.5c0.5,2.2,1,4.4,1.5,6.6c0.3,1.5,0.7,3.1,1.1,4.6c0.2,0.7,0.7,1.3,0.9,1.9
		c0.4,1.2,0.6,2.5,1.1,3.8c0.6,1.6,1.2,3.1,1.9,4.7c1,2.4,2.4,4.4,4.2,6.2c1.6,1.6,3.2,3.2,4.8,4.7c1.4,1.2,2.9,2.4,4.4,3.5
		c2,1.6,4.1,3.1,6,4.7c1.4,1.2,2.6,2.5,3.9,3.7c2.4,2.2,4.9,4.5,7.3,6.7c0.6,0.5,1.2,1.1,1.7,1.7c1.1,1.2,2,2.5,3.2,3.6
		c1.6,1.5,2.6,3.3,3.1,5.3c0.7,2.4,1.7,4.5,3,6.6c1.3,2.1,2.7,4.2,4.1,6.2c0.8,1.2,1.6,2.3,2.4,3.5h19.1
		C671.1,1483.1,671.1,1482.6,671.1,1482.2z"/>
	<path class="st3" d="M724,1461.1c1.4-1.9,2.9-3.8,4.3-5.8c1.2-1.7,2.5-3.4,3.6-5.1c1.4-2.1,2.8-4.3,4.1-6.4c1-1.6,2-3.2,3-4.9
		c1.9-3.5,3.4-7.2,4.7-10.9c1-2.6,1.9-5.3,2.8-7.9c1.2-3.5,2.2-7,3.3-10.5c0.8-2.5,1.9-4.9,3.2-7.1c0.4-0.7,0.3-1.4-0.4-1.8
		c-0.7-0.4-1.6-0.1-2.1,0.5c-0.3,0.4-0.6,0.7-0.8,1c-1,1.1-2.1,2.2-3.1,3.4c-2.3,3-4.4,6.1-6.6,9.1c-1.5,2-3.1,3.9-4.6,5.8
		c-2.2,2.8-4.5,5.5-6.7,8.3c-1.7,2-3.3,4.1-4.9,6.2c-1,1.3-2,2.6-2.9,4c-1.4,2.1-2.8,4.2-4.5,6.2c-2.7,3.2-5.5,6.4-8.1,9.7
		c-3.6,4.6-7.3,9.1-11.2,13.3c-1.3,1.4-2.4,2.9-3.6,4.3c-1.9,2.4-3.7,4.8-5.6,7.2c-1.1,1.3-2.1,2.6-3.2,4h19.9
		c3.2-3.2,6.3-6.6,9.3-10C717.5,1469.6,720.8,1465.4,724,1461.1z"/>
	<path class="st3" d="M681.3,1481c1.4-3.8,2.7-7.7,4.1-11.5c0.9-2.3,1.9-4.5,2.9-6.7c1.3-2.8,2.7-5.6,3.9-8.5c2-5.1,4-10.1,6-15.1
		c0.8-1.9,1.4-3.9,2-5.8c0.6-2,1.2-4,1.6-6c0.5-2.7,0.9-5.4,1.1-8.1c0.3-3.3,0.1-6.6-0.1-9.9c-0.1-1.4,0.3-2.9,0.6-4.3
		c0.2-0.7,0.5-1.4,1-2c0-0.1-0.1-0.2-0.1-0.2c-0.4-0.7-1.2-1.3-2.1-1.2c-1.6,0.1-2.4,2.2-3.9,2.8c-0.1,0.5-0.1,1-0.1,1.4
		c-0.2,1.7-0.2,3.3,0,5c0.2,1.6,0.5,3.3,0.4,4.9c-0.2,3.8-0.7,7.5-0.9,11.3c-0.1,2.3-0.6,4.6-1.2,6.9c-0.6,2.5-1.5,4.9-2.1,7.5
		c-1,3.9-2.7,7.6-4.2,11.4c-0.6,1.6-1.4,3.2-1.9,4.8c-1,3-2.1,5.8-3.9,8.4c-1.5,2-2.8,4.2-4.1,6.3c-0.9,1.4-1.7,2.8-2.4,4.2
		c-1.1,2-1.9,4.1-2.7,6.2c-0.1,0.3-0.2,0.7-0.4,1h5.7C680.6,1482.7,681,1481.9,681.3,1481z"/>
	<path class="st10" d="M631.1,1435.8C631,1435.7,631,1435.7,631.1,1435.8c0-0.1,0-0.1-0.1-0.1C631,1435.6,631,1435.7,631.1,1435.8
		C631,1435.7,631,1435.7,631.1,1435.8z"/>
	<path class="st2" d="M147.7,167c-0.2,0.7-0.5,1.4-0.6,2c-0.1,0.4-0.1,0.9-0.2,1.3c-0.1,0.4-0.1,0.9-0.4,1.2
		c0.2,0.4,0.2,0.8,0.2,1.2c0,0.6-0.1,1.2-0.2,1.7c0,0.1,0,0.2-0.1,0.3c-0.4,0.8-0.3,1.8-0.3,2.6c0,0.1,0,0.2,0,0.2
		c-0.2,0.7-0.3,1.4-0.6,2c-0.5,1.1-1.1,2.1-1.6,3.2c-0.6,1.3-1.5,2.5-2.5,3.5c-0.6,0.5-1.1,1.2-1.5,1.9c-0.3,0.5-0.6,1.1-0.9,1.6
		c-0.5,0.9-1.2,1.8-1.9,2.6c-0.2,0.2-0.3,0.5-0.3,0.8c0,0.3,0.1,0.5,0.1,0.8c0,0.2,0.1,0.3,0.2,0.4c0.2,0.4,0.5,0.7,0.8,1
		c0.3,0.4,0.7,0.7,1.3,1c1.1,0.5,2.2,1,3.4,1.5c0.6,0.3,1.1,0.6,1.6,1c1.3,1.1,2.7,2.1,4.1,3.2c0.7,0.6,1.5,1.2,2.2,1.9
		c0.1,0.1,0.2,0.2,0.3,0.4c0.2,0.4,0.4,0.7,0.5,1.1c0.2,0.6,0.6,1,1,1.4c0.5,0.5,1,1.1,1.5,1.6c0,0,0.1,0.1,0.1,0.1
		c0.5,0.3,0.8,0.8,1,1.3c0.3,0.6,0.6,1.1,0.9,1.7c0.3,0.7,0.3,1.4,0.3,2.2c0,0.5,0,1,0,1.5c0,0.4-0.1,0.8-0.2,1.3
		c-0.2,0.7-0.5,1.5-0.6,2.2c-0.3,1.4-1,2.4-2.1,3.2c-0.5,0.4-1.1,0.7-1.7,1.1c-0.4,0.3-0.8,0.5-1.3,0.5c-0.3,0-0.5,0.2-0.7,0.4
		c-0.3,0.4-0.7,0.7-1.1,1.1c-0.6,0.7-1.4,1.1-2.1,1.6c-0.6,0.4-1.2,0.8-1.8,1.2c-0.6,0.4-1.1,0.7-1.6,1.1c-0.8,0.6-1.7,1.1-2.6,1.5
		c-1,0.5-2,1-2.8,1.6c-0.2,0.2-0.4,0.3-0.7,0.4c-0.7,0.3-1.3,0.7-1.9,1.1c-1.1,0.8-2.3,1.1-3.6,1.1c-0.7,0-1.4,0-2.1,0.2
		c-0.5,0.1-1.1,0-1.6-0.3c-1.3-0.7-2.6-1.4-3.7-2.4c-0.6-0.6-1.2-1.2-1.8-1.8c-0.4-0.4-0.9-0.9-1.3-1.3c-0.4-0.4-0.9-0.8-1.5-1.3
		c0.3,0.7,0.6,1.2,1,1.6c0.2,0.2,0.4,0.4,0.5,0.7c0.2,0.4,0.4,0.8,0.7,1.2c0.1,0.1,0.2,0.3,0.3,0.4c0.3,0.2,0.5,0.4,0.4,0.9
		c0,0.1,0.1,0.3,0.1,0.4c0.3,0.6,0.4,1.2,0.5,1.8c0.1,0.5,0.2,1,0.2,1.5c0,0,0,0.1,0,0.1c-0.1,1.1-0.1,2.2-0.8,3.2
		c-0.2,0.3-0.3,0.5-0.5,0.8c-0.2,0.2-0.3,0.5-0.7,0.6c-0.3,0.1-0.4,0.4-0.7,0.6c-0.5,0.4-1,0.7-1.4,1c-0.8,0.6-1.6,1-2.5,1.5
		c-1.2,0.6-2.4,1.3-3.6,1.9c-1.4,0.8-2.8,1.8-4.3,2.5c-1.2,0.5-2.4,0.8-3.6,0.9c-0.2,0-0.5,0-0.7,0c-0.8-0.1-1.6-0.2-2.4-0.5
		c-0.6-0.3-1.2-0.5-1.8-0.7c-0.5-0.2-1-0.5-1.4-0.9c-0.4-0.3-0.8-0.6-1.3-0.9c-0.8-0.4-1.5-0.9-2.1-1.5c-0.4-0.4-0.9-0.8-1.4-1.2
		c-0.8-0.8-1.7-1.4-2.4-2.3c-0.3-0.4-0.7-0.8-1-1.1c-0.7-0.6-1.3-1.3-1.9-2.1c-0.2-0.3-0.5-0.6-0.8-0.9c-0.3-0.5-0.8-0.9-1-1.5
		c-0.1-0.4-0.4-0.7-0.6-1c-0.6-0.7-1-1.5-1.4-2.2c-0.2-0.3-0.3-0.6-0.4-1c-0.4-1.1-0.7-2.1-1.1-3.2c-0.2-0.7-0.3-1.4-0.2-2.2
		c0.1-0.4,0-0.9-0.1-1.3c-0.1-0.9-0.3-1.7-0.4-2.6c-0.1-0.5-0.1-1,0.2-1.5c0.2-0.3,0.2-0.7,0.1-1.1c-0.1-0.3,0-0.6,0-0.9
		c0.2-0.9,0.3-1.7,0.5-2.6c0-0.1,0-0.3,0-0.5c-0.2,0.1-0.4,0.1-0.5,0.2c-0.5,0.3-1,0.6-1.5,0.9c-0.7,0.4-1.4,0.7-2,1.1
		c-0.2,0.1-0.5,0.2-0.7,0.4c-1.3,0.9-2.8,1.4-4.4,1.6c-0.4,0.1-0.9,0.2-1.3,0.3c-1.2,0.3-2.4,0.1-3.5-0.3c-1.4-0.5-2.7-1.1-3.8-1.9
		c-1.2-0.9-2.5-1.6-3.9-2.2c-0.9-0.5-1.9-1-2.7-1.7c-0.3-0.3-0.6-0.5-1-0.7c-1.8-1.2-3.4-2.7-4.8-4.4c-0.3-0.3-0.6-0.6-0.9-0.9
		c-0.7-0.7-1.3-1.5-1.8-2.4c-0.4-0.6-0.8-1.3-1.1-1.9c-0.2-0.4-0.5-0.8-0.7-1.2c-0.6-1.3-1.4-2.4-2.3-3.4c-0.4-0.4-0.7-0.8-1-1.2
		c-0.3-0.4-0.2-1-0.3-1.5c-0.1-0.5-0.1-0.9-0.2-1.4c-0.1-1-0.4-1.9-0.6-2.9c-0.2-0.6-0.3-1.3-0.1-2c0.1-0.6,0.2-1.3,0.3-1.9
		c0.1-0.5,0.1-1,0.2-1.5c0.1-1.2,0.3-2.4,0.6-3.6c0.1-0.4,0.3-0.7,0.5-1.1c0.4-0.9,0.9-1.8,1.3-2.8c0.1-0.3,0.3-0.7,0.5-1
		c0.1-0.1,0.2-0.3,0.3-0.3c0.2-0.1,0.4-0.2,0.5-0.3c0.5-0.3,0.9-0.7,1.2-1.2c0.1-0.1,0.1-0.2,0.2-0.3c0.5-0.9,1.3-1.4,2.3-1.6
		c0.2,0,0.4,0,0.5-0.1c0.4-0.3,0.9-0.3,1.4-0.3c0.3,0,0.6,0,0.9,0c0.8,0.1,1.6-0.1,2.4-0.4c0.1,0,0.2-0.1,0.3-0.1
		c0.6-0.5,1.3-0.6,1.9-0.6c1-0.1,1.9-0.2,2.9-0.2c0.9,0,1.7,0.1,2.6,0.2c0.7,0.1,1.4,0.2,2.1,0.4c0.2,0,0.3,0.1,0.5,0.1
		c0.6,0,1.2,0.1,1.8,0.1c0.8,0.1,1.5,0.1,2.3,0.2c1.3,0.1,2.5,0,3.8-0.1c0.3,0,0.7,0,1,0c0.7-0.1,1.4-0.2,2.1-0.2
		c0.6-0.1,1.3-0.1,1.8,0.3c0.2,0.1,0.5,0.2,0.7,0.2c0.6,0,1.2,0.1,1.7,0.3c1.9,0.7,3.9,1.1,5.9,1.1c1,0,2,0.1,3,0.3
		c0.1,0,0.3,0.1,0.4,0.1c0.2,0,0.3-0.1,0.4-0.3c0.1-0.2,0.1-0.4,0.1-0.5c0.2-1.2,0.6-2.3,1-3.4c0.2-0.5,0.4-1,0.6-1.6
		c0.2-0.5,0.5-0.8,1-1c0.3-0.1,0.5-0.3,0.7-0.5c0.4-0.3,0.9-0.4,1.4-0.4c1,0.1,2,0.4,2.8,1c0.5,0.3,0.9,0.6,1.4,0.9
		c0.1,0,0.2,0,0.2,0.1c0.5-0.3,0.7-0.9,1-1.3c0.5-0.8,0.8-1.7,1.3-2.5c0.5-0.8,1-1.6,1.5-2.4c1.1-1.6,2.2-3.1,3.4-4.6
		c0.5-0.7,1.1-1.4,1.7-2.1c0.4-0.5,0.7-1,1.1-1.5c0.6-0.7,1.3-1.4,1.9-2.1c0.7-0.7,1.4-1.5,2.1-2.2c0.8-0.9,1.7-1.6,2.7-2.2
		c1.1-0.7,2.2-1.3,3.3-1.9c0.5-0.3,1.1-0.5,1.7-0.8c2.5-1,5.1-1.7,7.8-2.1c1-0.1,2-0.3,3-0.4c1.4-0.3,2.8,0,4.1,0.4
		c0.2,0.1,0.5,0.3,0.7,0.4c0.2,0.1,0.7,0.2,1.1,0.5c1,0.7,1,0.9,1.7,1.4c0.5,0.4,1,0.8,1.4,1.3c0.4,0.4,0.7,0.8,0.9,1.3
		c0.4,0.8,0.7,1.5,0.9,2.4c0,0.1,0,0.2,0.1,0.3c0.3,0.7,0.6,1.3,0.5,2.1c0.2,0.5,0.3,1.1,0.4,1.6c0.1,0.7,0.2,1.4,0.4,2
		c0.2,0.9,0.5,1.8,0.8,2.7c0,0.5,0.3,0.8,0.4,1.2c0.2,0.4,0.3,0.9,0.4,1.4c0,0.3,0,0.5-0.2,0.7c-0.1,0.1-0.1,0.2-0.1,0.4
		c0.1,0.4-0.1,0.7-0.2,1.1c-0.1,0.2-0.1,0.5-0.1,0.7c0,0.6,0,1.1,0,1.7C147.7,166.8,147.7,166.9,147.7,167z"/>
	<path class="st9" d="M51.9,111c0.1,0,0.3-0.1,0.4-0.1c0.5-0.3,1.1-0.3,1.6-0.3c0.9,0,1.8,0.1,2.6,0.4c0.4,0.1,0.8,0.3,1.1,0.5
		c0.2,0.1,0.4,0.2,0.6,0.2c0.2,0,0.3,0,0.4-0.2c0.1-0.1,0.1-0.2,0.1-0.3c0.1-0.5,0-1.1-0.3-1.5c-0.3-0.3-0.5-0.6-0.7-0.9
		c-0.2-0.3-0.4-0.6-0.6-0.9c-0.1-0.2-0.3-0.4-0.4-0.6c-0.5-0.5-0.7-1.1-0.5-1.8c-0.2-0.2-0.3-0.4-0.5-0.6c-0.2-0.2-0.1-0.4,0.1-0.6
		c0.2-0.2,0.4-0.3,0.5-0.5c0.2-0.2,0.5-0.3,0.8-0.3c0.6,0,1.3-0.1,1.9,0.1c0.4,0.1,0.8,0.2,1.2,0.2c0.3,0,0.5,0.1,0.8,0.2
		c0.5,0.2,0.9,0.3,1.4,0.7c0.3,0.2,0.5,0.4,0.7,0.7c0.5,0.6,0.9,1.3,1.3,1.9c0.2,0.3,0.5,0.7,0.7,1c0.1,0,0.1-0.1,0.1-0.2
		c-0.1-0.9-0.1-1.7-0.2-2.6c0-0.2-0.1-0.4-0.2-0.6c-0.4-0.4-0.5-0.9-0.2-1.4c0.3-0.4,0.4-0.8,0.7-1.2c0.1-0.2,0.3-0.4,0.5-0.6
		c0.7-0.8,1.6-1,2.6-0.7c0.6,0.2,1.1,0.5,1.7,0.7c0.1,0,0.1,0.1,0.2,0.1c0.5,0.5,0.9,1,0.9,1.7c0,0.5,0.2,0.9,0.4,1.4
		c0.1,0.2,0.2,0.3,0.3,0.5c0.2,0.4,0.4,0.7,0.6,1.1c0.1,0.1,0.1,0.2,0.2,0.3c0.1,0.3,0.2,0.5,0.2,0.9c0,0.3,0.1,0.5,0.1,0.8
		c0.1,0,0.2,0,0.2-0.1c0.2-0.5,0.5-0.9,0.7-1.4c0-0.1,0.1-0.2,0.2-0.3c0.2-0.2,0.2-0.5,0.2-0.7c0-0.4,0-0.4,0.4-0.3c0,0,0.1,0,0.1,0
		c0,0,0,0,0.1,0c0.2-0.2,0.5-0.3,0.6-0.6c0.1-0.2,0.3-0.3,0.5-0.2c0.3,0.1,0.5,0.1,0.8,0c0.1,0,0.3,0,0.4,0.1
		c0.3,0.1,0.5,0.2,0.5,0.6c0,0.2,0.1,0.4,0.2,0.6c0.1,0.1,0.2,0.3,0.2,0.4c0.2,0.3,0.3,0.7,0.2,1c0,0.8-0.1,1.5-0.1,2.3
		c0,0.3-0.1,0.5-0.2,0.8c-0.2,0.3-0.3,0.7-0.5,1c0.1,0.1,0.2,0,0.3,0c0.6-0.3,1.2-0.6,1.8-0.8c0.4-0.1,0.8-0.2,1.1-0.3
		c0.5-0.1,1.1-0.1,1.6,0.1c0.2,0.1,0.4,0.1,0.6,0.2c0.6,0.2,0.9,0.6,0.9,1.2c0,0.7,0,1.4-0.1,2.1c-0.2,0.7-0.5,1.2-1,1.7
		c-0.4,0.3-0.9,0.6-1.3,0.9c-0.2,0.2-0.5,0.3-0.8,0.4c-0.4,0.2-0.8,0.5-1.1,0.8c-0.3,0.3-0.6,0.6-0.9,0.9c-0.1,0.1-0.1,0.2-0.2,0.3
		c0,0.1,0.1,0.1,0.1,0.1c1,0.4,1.9,1,2.7,1.7c0.2,0.1,0.3,0.2,0.5,0.3c0.4,0.1,0.8,0.3,1,0.6c0.2,0.2,0.3,0.3,0.5,0.5
		c0.2,0.2,0.2,0.4,0.1,0.7c-0.1,0.1-0.1,0.3-0.2,0.4c0,0.2-0.1,0.3-0.2,0.4c-0.2,0.2-0.4,0.5-0.5,0.8c-0.1,0.2-0.2,0.3-0.3,0.3
		c-0.5,0.1-0.9,0.3-1.4,0.2c-0.4,0-0.8,0-1.2-0.2c-0.1,0-0.2,0-0.3,0c0,0.1,0,0.1,0,0.1c0.2,0.2,0.4,0.4,0.5,0.7
		c0,0.1,0.1,0.1,0.1,0.2c0.5,0.5,0.7,1.1,1,1.7c0.1,0.4-0.2,0.7-0.2,1c0,0.2-0.1,0.4-0.3,0.6c-0.3,0.4-0.7,0.6-1.2,0.7
		c-0.4,0.1-0.9,0.1-1.3,0.1c-0.2,0-0.4,0-0.5-0.1c-0.4-0.2-0.8-0.4-1-0.8c-0.4-0.6-1.1-0.9-1.8-1.2c-0.2-0.1-0.3-0.1-0.5-0.1
		c-0.1,0-0.2,0-0.3,0c0,0.1,0,0.1,0,0.1c0.3,0.6,0.5,1.2,0.6,1.8c0,0.1,0.1,0.2,0.1,0.3c0,0.1,0.1,0.2,0.1,0.2
		c0,0.2,0.1,0.4,0.1,0.7c0,0.2,0.2,0.4,0.2,0.6c0,0.5,0,1,0,1.5c0,0.2-0.1,0.4-0.1,0.5c-0.1,0.3-0.2,0.6-0.3,0.9
		c-0.2,0.5-0.5,0.8-0.9,0.9c-0.1,0-0.3,0.1-0.4,0.1c-0.6,0.1-1.2,0.1-1.7-0.4c-0.6-0.5-1.2-1-1.6-1.7c-0.1-0.2-0.2-0.4-0.4-0.6
		c-0.1-0.2-0.3-0.4-0.4-0.7c-0.2-0.3-0.3-0.6-0.4-0.8c-0.1-0.2-0.2-0.3-0.4-0.4c-0.1,0.1-0.1,0.2-0.1,0.3c0,0.1,0,0.3,0,0.4
		c0.1,0.7-0.2,1.4-0.3,2.2c0,0.1-0.1,0.2-0.1,0.3c-0.1,0.2-0.2,0.5-0.3,0.7c-0.1,0.3-0.2,0.6-0.4,0.8c-0.2,0.3-0.5,0.5-0.8,0.5
		c-0.3,0-0.5,0.1-0.8,0.2c-0.4,0.1-0.8,0.1-1.1-0.1c-0.1,0-0.2-0.1-0.4-0.2c-0.5-0.2-0.9-0.6-1-1.2c-0.1-0.3-0.2-0.5-0.2-0.7
		c-0.2-0.5-0.3-1-0.3-1.5c0-0.4-0.1-0.8-0.2-1.2c-0.1-0.4-0.1-0.9-0.2-1.3c0-0.1,0-0.1-0.1-0.2c-0.1,0.1-0.2,0.1-0.3,0.2
		c-0.6,0.7-1.3,1.4-1.8,2.2c-0.4,0.6-0.8,0.9-1.6,1.1c-0.4,0.1-0.8,0.2-1.1,0.3c-0.4,0.1-0.8,0.2-1.3,0.2c-0.8,0.1-1.5-0.2-1.9-1
		c-0.2-0.4-0.4-0.8-0.5-1.2c-0.1-0.5-0.1-0.9,0.1-1.4c0.4-0.8,0.6-1.7,1.1-2.4c0-0.1,0.1-0.1,0.1-0.2c0-0.2,0.2-0.4,0.4-0.5
		c0.1-0.1,0.2-0.2,0.4-0.3c0.1-0.1,0.2-0.2,0.4-0.2c0.1-0.1,0.3-0.2,0.4-0.3c0.4-0.4,0.8-0.9,1.2-1.3c0,0,0-0.1,0.1-0.2
		c-0.1,0-0.2-0.1-0.3-0.1c-0.4,0-0.7,0-1.1,0c-0.1,0-0.1,0-0.2,0.1c-0.7,0.3-1.4,0.3-2.1,0.5c0,0-0.1,0-0.1,0c-0.5-0.1-0.9,0-1.4,0
		c-0.3,0-0.5-0.1-0.8-0.2c-0.1-0.1-0.3-0.1-0.4-0.2c-0.6-0.2-1.2-0.5-1.7-0.9c-0.4-0.3-0.5-0.7-0.7-1c-0.2-0.2-0.1-0.5-0.1-0.8
		c0-0.1,0-0.3,0-0.4c0-0.3,0.1-0.5,0.2-0.7c0.2-0.4,0.5-0.7,0.8-0.9c0.9-0.7,2.1-1.1,3.1-1.5c0.2-0.1,0.5-0.1,0.8-0.1
		c0,0,0.1,0,0.1,0.1c0.1,0.2,0.3,0.1,0.5,0.1c0.3,0,0.6-0.2,1-0.3c-0.1-0.1-0.2-0.2-0.3-0.3c-0.4-0.4-0.9-0.7-1.3-1.1
		c-0.2-0.1-0.4-0.3-0.6-0.3c-0.5-0.2-0.9-0.3-1.5-0.3c-0.4,0-0.7,0-1.1-0.1c-0.4,0-0.8-0.1-1.2-0.2c-0.2-0.1-0.5-0.2-0.7-0.3
		c-0.7-0.1-1-0.7-1.1-1.3c0-0.2,0-0.5,0-0.7c0-0.2,0.2-0.4,0.4-0.6c0.4-0.2,0.7-0.5,1.1-0.7c0.3-0.2,0.6-0.4,0.9-0.6
		c0.2-0.1,0.4-0.3,0.6-0.4c0.3-0.2,0.7-0.2,1-0.2C51.6,110.9,51.7,111,51.9,111z"/>
	<path class="st4" d="M69,46c0.3-0.2,0.5-0.3,0.7-0.4c0.4-0.2,0.7-0.6,0.8-1c0.1-0.4,0.3-0.8,0.6-1.1c0.5-0.4,1.1-0.7,1.8-0.6
		c0.4,0.1,0.8,0,1.2-0.2c0.4-0.1,0.8-0.3,1.2-0.4c0.3-0.1,0.6-0.2,0.9-0.2c0.7-0.1,1.3,0,1.8,0.3c0.5,0.4,1.1,0.5,1.7,0.5
		c0.6,0,1.2,0,1.8,0.1c0.4,0,0.7,0.1,1.1,0.2c0.5,0.2,1,0.5,1.3,0.9c0.2,0.3,0.4,0.5,0.5,0.8c0.2,0.2,0.4,0.4,0.6,0.5
		c0.5,0.2,1,0.5,1.5,0.7c0.8,0.4,1.3,1.1,1.6,2c0.2,0.7,0.5,1.5,0.6,2.2c0.1,0.5,0.3,0.9,0.6,1.4c0.2,0.4,0.5,0.8,0.7,1.2
		c0.3,0.5,0.5,1,0.7,1.5c0.1,0.4,0.3,0.8,0.5,1.1c0.3,0.5,0.4,1.1,0.5,1.7c0.1,0.8,0.3,1.6,0.4,2.4c0.2,1,0.2,2,0.1,3
		c0,0.4-0.2,0.8-0.3,1.2c-0.4,0.8-0.7,1.6-0.8,2.5c0,0.5-0.2,0.9-0.4,1.3c-0.3,0.6-0.5,1.2-0.6,1.9c-0.1,0.6-0.3,1.1-0.6,1.5
		c-0.4,0.7-0.9,1.2-1.7,1.3c-0.7,0.1-1.2,0.5-1.5,1.1c-0.1,0.1-0.2,0.2-0.3,0.3c-0.4,0.6-0.9,0.9-1.6,0.9c-0.4,0-0.7,0.2-1,0.4
		c-0.5,0.3-1,0.4-1.6,0.4c-0.4,0-0.8,0-1.2,0.3c-0.3,0.2-0.6,0.3-0.9,0.3c-1.4,0.2-2.9,0.4-4.3,0c-0.3-0.1-0.5-0.1-0.8-0.1
		c-0.3-0.1-0.6-0.1-0.9-0.2c0,0-0.1,0-0.1,0c-0.6-0.1-1.2-0.2-1.7-0.4c-0.6-0.2-1.1-0.5-1.6-0.8c-0.2-0.1-0.5-0.2-0.8-0.2
		c-0.8-0.2-1.5-0.6-2-1.3c-0.4-0.5-0.8-0.7-1.3-1c-0.4-0.2-0.8-0.3-1.1-0.5c-2-0.9-3.2-2.5-3.9-4.5c-0.2-0.6-0.4-1.1-0.7-1.6
		c-0.4-0.5-0.6-1.1-0.6-1.8c0-0.5-0.2-1-0.4-1.4c-0.6-1.6-0.7-3.2-0.3-4.8c0.1-0.6,0.3-1.2,0.4-1.9c0.2-0.8,0.4-1.5,0.8-2.2
		c0.2-0.4,0.4-0.7,0.7-1c0.6-0.5,1.1-0.9,1.8-1.2c0.2-0.1,0.3-0.3,0.3-0.4c0-0.4,0-0.7,0-1.1c0-0.8,0.3-1.5,0.7-2.2
		c0.4-0.7,1.1-1.1,1.9-1.2C66.6,46.2,67.8,46,69,46z"/>
</g>
</svg>
