<?xml version="1.0" encoding="utf-8"?>
<!-- Generator: Adobe Illustrator 26.4.1, SVG Export Plug-In . SVG Version: 6.00 Build 0)  -->
<svg version="1.1" id="Layer_1" xmlns="http://www.w3.org/2000/svg" xmlns:xlink="http://www.w3.org/1999/xlink" x="0px" y="0px"
	 viewBox="0 0 254 127" style="enable-background:new 0 0 254 127;" xml:space="preserve">
<style type="text/css">
	.st0{fill:#BBC6BB;}
	.st1{fill:#A2C7E2;}
	.st2{fill:#6D7130;}
	.st3{fill:#FBF2E1;}
	.st4{fill:#1A3C34;}
	.st5{fill:#F3ECD9;}
	.st6{fill:#E73E1B;}
	.st7{fill:#F3EBD8;}
</style>
<g>
	<path class="st0" d="M163.9,47.3c0-0.1,0-0.1,0-0.2c0-0.1-0.1-0.3-0.1-0.4c0-0.1-0.1-0.2-0.1-0.3c-0.1-0.1-0.3-0.2-0.4-0.2
		c0,0,0,0-0.1,0c0,0,0,0,0,0c0,0,0,0-0.1,0c0,0,0,0-0.1,0c0,0,0,0-0.1,0c0,0-0.1,0-0.1,0c0,0,0,0-0.1,0c0,0,0,0-0.1,0
		c0,0-0.1,0-0.1,0.1c0,0,0,0,0,0c0,0,0,0,0,0c0,0,0,0,0,0c0,0,0,0,0,0c0,0,0,0,0,0c-0.1,0.1-0.1,0.2-0.2,0.3
		c-0.1,0.1-0.1,0.3-0.1,0.5c0,0.1,0.1,0.1,0.1,0.2c0,0.1,0,0.1,0.1,0.1c0,0,0,0,0,0c0,0,0,0,0,0c0,0,0,0,0,0c0,0,0.1,0,0.1,0.1
		c0,0,0,0,0,0c0,0,0,0,0,0c0,0,0,0,0,0c0,0,0,0,0,0c0,0,0,0,0,0c0,0,0,0,0.1,0c0,0,0,0,0.1,0c0,0,0.1,0,0.1,0c0,0,0,0,0,0
		c0,0,0,0,0.1,0c0,0,0.1,0,0.1,0c0,0,0,0,0,0c0,0,0,0,0.1,0c0,0,0,0,0.1,0c0,0,0,0,0.1,0c0,0,0,0,0,0c0,0,0,0,0,0c0,0,0,0,0,0
		c0,0,0,0,0,0c0,0,0,0,0,0c0,0,0,0,0,0c0,0,0,0,0.1,0c0,0,0,0,0,0c0,0,0,0,0,0c0,0,0,0,0,0c0,0,0,0,0,0c0,0,0,0,0,0c0,0,0,0,0,0
		c0,0,0.1-0.1,0.1-0.1C163.8,47.5,163.8,47.4,163.9,47.3C163.9,47.3,163.9,47.3,163.9,47.3z"/>
	<path class="st0" d="M163.6,48.9C163.6,48.9,163.5,48.9,163.6,48.9c-0.1-0.1-0.1-0.1-0.2-0.1c0,0-0.1,0-0.1-0.1c0,0-0.1,0-0.1,0
		c0,0-0.1,0-0.1,0c0,0-0.1,0-0.1,0c0,0,0,0,0,0c0,0-0.1,0-0.1,0c0,0-0.1,0-0.1,0c0,0-0.1,0-0.1,0.1c0,0,0,0,0,0c0,0-0.1,0.1-0.1,0.1
		c0,0.1-0.1,0.1-0.1,0.2c0,0,0,0.1,0,0.1c0,0.1,0,0.1,0,0.2c0,0,0,0.1,0,0.1c0,0,0,0.1,0,0.1c0,0.1,0,0.1,0,0.2c0,0,0,0,0,0
		c0,0,0,0,0,0c0,0,0,0,0,0c0,0,0,0,0,0c0,0,0,0,0,0c0,0,0,0.1,0,0.1c0,0,0,0.1,0.1,0.1c0,0,0.1,0.1,0.1,0.1c0,0,0.1,0.1,0.1,0.1
		c0,0,0.1,0,0.1,0c0,0,0,0,0,0c0,0,0,0,0.1,0c0,0,0,0,0.1,0c0,0,0,0,0.1,0c0,0,0,0,0.1,0c0,0,0.1,0,0.1,0c0,0,0,0,0.1,0
		c0,0,0,0,0.1,0c0,0,0,0,0,0c0,0,0,0,0,0c0,0,0,0,0,0c0,0,0,0,0,0c0,0,0,0,0,0c0,0,0,0,0,0c0,0,0,0,0.1,0c0,0,0,0,0,0c0,0,0,0,0,0
		c0,0,0,0,0,0c0,0,0,0,0,0c0,0,0.1,0,0.1-0.1c0,0,0,0,0,0c0,0,0,0,0,0c0,0,0,0,0,0c0,0,0,0,0-0.1c0,0,0,0,0,0c0,0,0,0,0,0
		c0,0,0-0.1,0.1-0.1c0-0.1,0.1-0.1,0.1-0.2c0,0,0-0.1,0-0.1c0,0,0,0,0,0c0,0,0,0,0,0c0,0,0,0,0,0c0,0,0,0,0,0c0,0,0-0.1,0-0.1
		c0-0.1,0-0.1,0-0.2c0,0,0-0.1-0.1-0.1c0,0,0,0,0-0.1c0,0,0,0,0-0.1c0,0,0,0,0-0.1c0,0,0,0,0-0.1c0,0,0,0,0,0c0,0,0,0,0-0.1
		C163.7,49,163.6,48.9,163.6,48.9z"/>
	<path class="st0" d="M165.5,50C165.5,50,165.5,50,165.5,50c0.1,0,0.1,0,0.2,0c0,0,0,0,0.1,0c0,0,0,0,0,0c0,0,0,0,0,0c0,0,0,0,0,0
		c0,0,0,0,0.1-0.1c0,0,0,0,0-0.1c0,0,0-0.1,0-0.1c0,0,0,0,0-0.1c0,0,0,0,0-0.1c0,0,0-0.1,0-0.1c0,0,0,0,0,0c0,0,0,0,0,0
		c0,0,0-0.1,0-0.1c0,0,0,0,0-0.1c0,0,0-0.1-0.1-0.1c0,0,0-0.1-0.1-0.1c0,0,0,0,0,0c0,0,0,0,0,0c0,0,0,0,0,0c0,0,0,0,0,0
		c0,0,0,0-0.1,0c0,0-0.1,0-0.1-0.1c0,0,0,0-0.1,0c0,0,0,0,0,0c0,0,0,0,0,0c0,0,0,0,0,0c0,0-0.1,0-0.1,0c0,0,0,0,0,0c0,0,0,0,0,0
		c0,0,0,0,0,0c0,0,0,0,0,0c0,0,0,0,0,0c0,0,0,0,0,0c0,0,0,0,0,0c0,0,0,0,0,0c0,0,0,0,0,0c0,0,0,0,0,0c0,0,0,0,0,0c0,0,0,0,0,0
		c0,0,0,0,0,0c0,0,0,0,0,0c0,0,0,0,0,0.1c0,0,0,0,0,0c0,0,0,0,0,0.1c0,0,0,0,0,0c0,0,0,0,0,0c0,0,0,0.1,0,0.1c0,0,0,0,0,0
		c0,0,0,0,0,0c0,0,0,0,0,0.1c0,0,0,0,0,0c0,0,0,0,0,0c0,0,0,0,0,0c0,0,0,0,0,0c0,0,0,0,0,0c0,0,0,0,0,0c0,0,0,0,0,0c0,0,0,0,0,0
		c0,0,0,0,0,0c0,0,0,0,0,0c0,0,0,0,0,0.1c0,0,0,0,0,0c0,0,0,0,0,0c0,0,0.1,0,0.1,0.1c0,0,0.1,0,0.1,0.1c0,0,0,0,0,0
		C165.3,50,165.4,50,165.5,50C165.4,50,165.4,50,165.5,50C165.5,50,165.5,50,165.5,50L165.5,50z"/>
	<g>
		<g>
			<path class="st1" d="M153.9,77.1c0-0.1-0.1-0.1-0.2-0.1c-0.1,0-0.3,0-0.4,0c-0.4,0-0.9-0.1-1.3-0.1c-0.4,0-0.8,0-1.2-0.1
				c-0.2-0.1-0.5-0.1-0.8-0.2c-0.3-0.1-0.6-0.2-0.9-0.3c-0.2,0-0.4-0.1-0.7-0.2c-0.2-0.1-0.4-0.1-0.5-0.1c-0.2-0.1-0.4-0.2-0.6-0.2
				c-0.2-0.1-0.3-0.2-0.5-0.2c-0.2,0-0.2-0.3-0.4-0.2c0,0,0,0,0,0c-0.2-0.3-0.6-0.3-0.9-0.5c-0.1-0.1-0.3-0.2-0.4-0.3
				c-0.4-0.1-0.7-0.4-1-0.6c-0.4-0.3-0.7-0.6-1-0.9c-0.3-0.2-0.5-0.6-0.8-0.8c0.1-0.1-0.1-0.1-0.1-0.2c0-0.1-0.1-0.2,0-0.4
				c-0.3,0-0.2-0.3-0.2-0.5c-0.1-0.3-0.2-0.7-0.3-1.1c-0.1-0.5-0.1-0.9-0.2-1.4c0-0.6-0.2-1.1-0.3-1.7c0-0.2,0-0.3-0.1-0.5
				c-0.1-0.5-0.2-1-0.2-1.5c0-0.2-0.1-0.3,0-0.5c0-0.3-0.1-0.7-0.1-1c0-0.3-0.1-0.7-0.2-1c-0.1-0.6-0.2-1.2-0.2-1.8
				c0-0.3-0.1-0.6-0.1-0.9c0-0.5,0-1,0-1.4c0-0.3-0.1-0.7,0.1-1c0,0,0-0.1,0-0.1c-0.2-0.1-0.3-0.2-0.5-0.3c-0.4-0.2-0.8-0.5-1.2-0.7
				c-0.3-0.2-0.6-0.5-0.9-0.7c-0.3-0.2-0.6-0.4-0.9-0.6c-0.2-0.1-0.4-0.2-0.6-0.4c-0.2-0.2-0.4-0.3-0.6-0.5c-0.3-0.2-0.7-0.4-1-0.6
				c-0.4-0.2-0.8-0.6-1.2-0.7c-0.2-0.1-0.2-0.3-0.4-0.3c-0.2-0.1-0.4-0.3-0.6-0.4c-0.3-0.2-0.6-0.5-0.9-0.7
				c-0.1-0.1-0.3-0.2-0.4-0.3c-0.1-0.1-0.2-0.2-0.4-0.3c-0.3-0.1-0.6-0.3-0.9-0.5c-0.4-0.2-0.8-0.4-1.1-0.6
				c-0.3-0.2-0.6-0.3-0.9-0.5c-0.1-0.1-0.3-0.2-0.4-0.2c-0.3-0.2-0.7-0.2-1-0.5c-0.3-0.3-0.7-0.5-1.1-0.7c-0.4-0.3-0.9-0.4-1.3-0.7
				c-0.2-0.1-0.3-0.2-0.4-0.5c0-0.1,0.1-0.2,0.1-0.3c0-0.1,0.2-0.1,0.2-0.2c-0.1-0.3,0.2-0.4,0.3-0.5c0.2-0.3,0.5-0.4,0.7-0.7
				c0.1-0.2,0.2-0.3,0.4-0.4c0.2-0.1,0.3-0.3,0.4-0.5c0.1-0.1,0.3-0.2,0.4-0.4c0.1-0.2,0.5-0.3,0.6-0.5c0-0.1,0.1-0.1,0.1-0.1
				c0.1-0.1,0.2-0.2,0.4-0.2c0.2,0,0.2,0.2,0.4,0.2c0.3,0,0.6,0.2,0.8,0.3c0.2,0.1,0.3,0.1,0.5,0.2c0.2,0.2,0.5,0.3,0.8,0.4
				c0.2,0.1,0.5,0.3,0.7,0.4c0.2,0.1,0.4,0.2,0.5,0.2c0.3,0.1,0.5,0.2,0.8,0.4c0.1,0.1,0.2,0.2,0.3,0.1c0,0,0.1,0,0.1,0
				c0,0.2,0.2,0.1,0.3,0.2c0.1,0.1,0.2,0.1,0.3,0.2c0.2,0,0.4,0.2,0.5,0.3c0,0,0,0,0,0c0,0,0,0,0.1,0c0,0,0.1,0,0.1,0
				c0.2,0.3,0.5,0.2,0.7,0.4c0.1,0.1,0.3-0.1,0.3,0.2c0,0,0,0,0,0c0.3,0.1,0.6,0.2,0.8,0.4c0.2,0.1,0.5,0.2,0.7,0.3
				c0.2,0.1,0.3,0.1,0.3,0.2c0,0,0.1,0,0.1,0c0.3,0.1,0.6,0.3,0.8,0.4c0.3,0.1,0.5,0.3,0.8,0.4c0.2,0.1,0.4,0.2,0.7,0.3
				c0.2,0.1,0.3,0.3,0.5,0.4c0.2,0,0.3,0.1,0.4,0.2c0.3,0.3,0.8,0.4,1.1,0.7c0.2,0.2,0.6,0.3,0.8,0.5c0,0,0,0,0.1,0
				c0.2,0.1,0.4,0.1,0.5,0.2c0.2,0.1,0.5,0.3,0.7,0.4c0.2,0.1,0.5,0.3,0.7,0.4c0.2,0.1,0.3,0.2,0.5,0.3c0.2,0.1,0.3,0.2,0.5,0.3
				c0.1,0,0.2,0,0.2,0c0.2-0.2,0.4-0.3,0.7-0.4c0.3-0.2,0.6-0.3,0.9-0.4c0.2-0.1,0.4-0.1,0.6-0.3c0.1-0.1,0.2,0,0.3-0.2
				c0.1,0.1,0.3-0.1,0.3-0.1c0.3-0.2,0.7-0.3,1-0.3c0.3,0,0.6-0.2,0.9-0.2c0.4,0,0.7-0.1,1.1-0.1c0.3,0,0.6-0.1,0.9-0.1
				c0.3,0,0.6-0.1,0.9-0.1c0.3,0,0.5,0,0.8,0c0.3,0,0.7,0.1,1,0.1c0.2,0,0.4,0.1,0.6,0.1c0.1,0,0.2,0.1,0.3,0.1c0.3,0,0.5,0,0.8,0.1
				c0.1,0.1,0.3,0,0.4,0.1c0.2,0.1,0.4,0,0.6,0.1c0.1,0.1,0.3,0.1,0.5,0.1c0.3-0.1,0.4,0.1,0.7,0.2c0.3,0.1,0.6,0.3,0.9,0.4
				c0.1,0,0.2,0,0.2,0.2c0,0,0.1,0.2,0.1,0c0-0.1,0,0,0.1,0c0.1,0,0.3,0.1,0.4,0.2c0.1,0.1,0.4,0.1,0.4,0.3c0.1-0.1,0-0.1,0-0.1
				c0,0,0.1,0,0.1,0c0.1,0.1,0.2,0.2,0.3,0.1c0,0.1,0.4,0,0.2,0.3c0.2-0.1,0.2-0.1,0.3,0.1c0,0.1,0.1,0,0.1,0c0,0,0.1-0.1,0.1,0
				c0.2,0.1,0.4,0.2,0.5,0.4c0.3,0.2,0.6,0.4,0.9,0.6c0.2,0.2,0.4,0.4,0.6,0.5c0.1,0.1,0.2,0.1,0.3,0.2c0.2,0.4,0.2,0.4,0.6,0.6
				c0,0,0,0.1,0,0.1c-0.2,0.1,0,0.2,0,0.2c0.2,0.3,0.3,0.5,0.5,0.7c0.1,0.1,0.1,0.2,0.1,0.3c0.2,0.1,0.3,0.3,0.3,0.5
				c0,0.1,0,0.1,0.1,0c0.1-0.1,0.2,0.1,0.2,0.1c0,0.1,0.1,0.2,0.1,0.3c0.1,0.2,0.3,0.4,0.3,0.7c0.1,0.4,0.2,0.9,0.4,1.3
				c0.1,0.2,0.2,0.4,0.1,0.6c0,0.3,0,0.5,0,0.7c0.1,0.3,0,0.6,0,0.9c0,0.1,0,0.2,0,0.3c0,0.4-0.4,0.7-0.4,1.2c0,0.3-0.2,0.5-0.2,0.8
				c0,0.4-0.2,0.7-0.4,1c-0.1,0.3-0.3,0.5-0.3,0.8c-0.1,0.4-0.1,0.9-0.3,1.3c-0.1,0.1,0,0.3-0.1,0.4c-0.2,0.3-0.3,0.6-0.4,1
				c-0.1,0.2-0.1,0.5-0.2,0.7c-0.3,0.5-0.4,1-0.5,1.6c-0.1,0.5-0.2,1-0.3,1.4c-0.2,0.6-0.4,1.2-0.6,1.7c-0.1,0.3-0.3,0.5-0.5,0.7
				c-0.1,0.1-0.2,0.1-0.3,0.2c-0.2,0.2-0.3,0.4-0.5,0.5c-0.4,0.3-0.9,0.6-1.4,0.9c-0.1,0.1-0.2-0.1-0.3,0c-0.2,0.2-0.4,0.2-0.6,0.4
				c-0.2,0.2-0.5,0.3-0.7,0.4c-0.3,0.1-0.6,0.2-0.9,0.3c-0.2,0.1-0.5,0.2-0.8,0.1c-0.2,0-0.5,0-0.6,0.1c-0.2,0.2-0.5,0.2-0.8,0.2
				c-0.2,0.1-0.4-0.1-0.6,0.1c0,0-0.1,0-0.1,0c-0.1-0.1-0.2,0-0.3-0.1c-0.1,0.2-0.2,0.1-0.4,0.1C154.1,77,154,76.9,153.9,77.1
				C154,77.1,153.9,77.1,153.9,77.1z M142.4,58.3c0,0.1,0,0.2,0,0.3c0.1,0.3,0,0.5,0,0.8c0,0.1,0.1,0.3,0,0.4
				c-0.1,0.2-0.1,0.4-0.2,0.7c-0.1,0.2-0.1,0.4-0.1,0.6c0.1,0.3,0,0.6,0,0.8c0,0.3,0,0.5,0,0.7c0,0.3,0.2,0.5,0.3,0.7
				c0.3,0.5,0.5,0.9,0.8,1.4c0.1,0.1,0.2,0.2,0.2,0.3c0.3,0.5,0.8,1,1.3,1.3c0.3,0.2,0.5,0.4,0.7,0.6c0.2,0.2,0.5,0.2,0.7,0.4
				c0.3,0.3,0.7,0.4,1,0.7c0.1,0.1,0.1,0,0.2,0c0.6,0.3,1.2,0.5,1.8,0.7c0.3,0.1,0.5,0.1,0.8,0.1c0.2,0,0.5,0,0.7-0.2
				c0.1-0.1,0.2,0,0.2,0c0.4,0,0.8,0,1.2,0.1c0.2,0.1,0.4,0.3,0.7,0.1c0,0,0,0,0,0c0.2,0.3,0.5,0.2,0.8,0.3c0.1,0.1,0.2,0.1,0.3,0.1
				c0.8,0.3,1.5,0.2,2.2-0.2c0.2-0.1,0.3-0.2,0.6-0.2c0.2,0,0.4-0.1,0.6-0.2c0.3-0.1,0.6-0.3,0.8-0.5c0.3-0.2,0.5-0.2,0.9-0.2
				c0.5,0,0.9-0.1,1.3-0.5c0.2-0.2,0.5-0.2,0.7-0.4c0.3-0.1,0.5-0.3,0.7-0.5c0.4-0.4,0.7-0.9,1-1.4c0.1-0.3,0.4-0.4,0.6-0.5
				c0.4-0.1,0.7-0.4,1-0.7c0.4-0.4,0.6-1,0.8-1.4c0.1-0.3,0.1-0.6,0.1-0.8c0.1-0.3,0-0.7,0.2-1c-0.2-0.1,0-0.3-0.1-0.4
				c-0.1-0.2-0.2-0.5-0.3-0.8c-0.1-0.2-0.1-0.4-0.2-0.6c-0.1-0.2-0.2-0.4-0.2-0.6c0-0.2-0.1-0.3-0.1-0.5c0-0.1-0.1-0.3-0.1-0.4
				c0-0.1,0-0.3-0.2-0.3c-0.1,0,0,0,0-0.1c0-0.3-0.1-0.5-0.3-0.7c-0.2-0.3-0.4-0.7-0.7-1c-0.3-0.4-0.6-0.7-0.9-1.1
				c-0.2-0.2-0.5-0.3-0.7-0.6c-0.2-0.2-0.5-0.3-0.7-0.4c-0.5-0.2-1-0.3-1.5-0.5c-0.2-0.1-0.5-0.1-0.7-0.2c-0.4-0.1-0.8-0.3-1.1-0.5
				c-0.2-0.1-0.4-0.1-0.6-0.2c-0.2-0.1-0.5,0-0.7-0.1c-0.2-0.1-0.4-0.2-0.6-0.4c-0.2-0.1-0.3-0.2-0.5-0.2c-0.3-0.1-0.7-0.2-1-0.3
				c-0.3-0.1-0.6-0.1-0.9-0.1c-0.4,0-0.9-0.1-1.3-0.1c-0.1,0-0.2-0.1-0.3,0.1c-0.1-0.1-0.2,0-0.3,0c0,0-0.1,0-0.1,0
				c-0.2,0.2-0.5,0.1-0.8,0.3c-0.1,0-0.2,0.1-0.3,0.1c-0.5,0-1,0.2-1.4,0.4c-0.2,0.1-0.5,0.1-0.7,0.2c-0.2,0.1-0.4,0.2-0.5,0.4
				c-0.1,0.1-0.1,0-0.2,0.1c-0.1,0.1-0.1,0.3-0.3,0.3c-0.3,0.1-0.5,0.5-0.8,0.8c-0.1,0.2-0.4,0.3-0.6,0.4c-0.2,0.1-0.5,0.2-0.6,0.4
				c-0.3,0.2-0.6,0.2-0.8,0.3c-0.2,0.1-0.5,0.3-0.6,0.6c-0.2,0.3-0.4,0.6-0.5,1c-0.1,0.3-0.2,0.5-0.2,0.8c-0.1,0.2-0.2,0.5-0.2,0.7
				c0,0-0.1,0.1,0,0.2C142.6,58,142.5,58.1,142.4,58.3z M128.1,45.4c-0.2,0-0.5,0-0.7,0.2c-0.1,0.1-0.1,0.1-0.2,0.1
				c-0.3,0.4-0.1,1.1,0.5,1.2c0.1,0,0.3,0.1,0.4,0.2c0.3,0,0.6,0.1,0.8,0c0.2,0,0.3-0.1,0.4-0.4c0-0.1,0.1-0.3,0-0.4
				c-0.2-0.3-0.3-0.5-0.5-0.8c0,0-0.1,0-0.1-0.1C128.5,45.5,128.3,45.4,128.1,45.4z M157.8,50.6C157.8,50.6,157.8,50.6,157.8,50.6
				C157.8,50.6,157.8,50.6,157.8,50.6C157.8,50.6,157.8,50.6,157.8,50.6C157.8,50.6,157.8,50.6,157.8,50.6z"/>
			<path class="st2" d="M133.7,45.6C133.6,45.6,133.6,45.6,133.7,45.6C133.6,45.7,133.7,45.7,133.7,45.6
				C133.7,45.7,133.7,45.6,133.7,45.6z"/>
			<path class="st2" d="M157.8,50.6C157.8,50.6,157.8,50.6,157.8,50.6C157.8,50.6,157.8,50.6,157.8,50.6
				C157.8,50.6,157.8,50.6,157.8,50.6C157.8,50.6,157.8,50.6,157.8,50.6z"/>
		</g>
	</g>
</g>
<g>
	<g>
		<path class="st3" d="M193.3,16.3c0.6-0.2,1.2-0.4,1.7-0.6c0.3,0,0.5-0.1,0.7-0.1c0.4-0.1,0.8-0.3,1.3-0.4c0.4-0.1,0.8-0.3,1.2-0.3
			c0.3-0.1,0.7-0.1,1-0.2c0.4-0.1,0.8-0.3,1.2-0.4c0.2-0.1,0.5-0.1,0.7-0.2c0.7-0.3,1.5-0.2,2.2-0.6c0,0,0,0,0,0
			c0.3,0.1,0.6-0.1,0.9-0.1c0.3-0.1,0.6-0.1,0.9-0.1c0.3,0,0.6,0,0.9-0.1c0.8-0.2,1.7-0.3,2.5-0.3c0.2,0,0.4,0,0.6,0
			c0.3,0,0.7-0.1,1-0.1c0.7,0.1,1.5,0.3,2.1,0.6c0.2,0.1,0.4,0.2,0.6,0.4c0.2,0.2,0.5,0.4,0.7,0.6c0.3,0.3,0.5,0.6,0.7,0.9
			c0.1,0.3,0.3,0.5,0.4,0.8c0.2,0.3,0.4,0.6,0.9,0.6c0.5-0.1,0.9-0.2,1.4-0.4c0.4-0.1,0.7-0.5,1-0.6c1-0.2,1.8-0.8,2.7-1.2
			c0.6-0.2,1.3-0.4,1.9-0.7c0.2-0.1,0.5-0.1,0.8-0.1c0.1,0,0.2,0,0.3,0c0.2-0.1,0.4-0.1,0.7-0.1c0.2,0,0.3,0.1,0.5,0.1
			c0.2,0,0.4,0.2,0.7,0.2c0.2,0,0.4,0.1,0.6,0.2c0.1,0.1,0.1,0.2,0.3,0.2c0.2,0,0.3,0.1,0.4,0.2c0.1,0.1,0.1,0.2,0.2,0.2
			c0.2,0,0.3,0.2,0.4,0.3c0.5,0.4,0.7,1,1.1,1.6c0.2,0.4,0.3,0.9,0.6,1.2c0.1,0.2,0.2,0.4,0.2,0.6c0,0.6,0.3,1.1,0.4,1.6
			c0,0.3,0.2,0.6,0.1,0.9c-0.1,0.3,0,0.7,0.1,1c0,0.1,0.1,0.2,0.1,0.3c-0.2,0.3,0,0.5,0,0.7c0,0.2,0.1,0.4,0,0.6c0,0.2,0,0.3,0,0.5
			c0.1,0.4,0.1,0.7,0.2,1.1c0.1,0.3,0.1,0.7,0.3,1c0,0,0,0.1,0,0.1c-0.1,0.4,0.1,0.8,0.1,1.2c0,0.3,0.2,0.5,0.2,0.8
			c0,0.5,0.2,0.9,0.2,1.4c0.1,0.4,0.1,0.7,0.2,1.1c0,0.3,0.1,0.6,0.2,0.9c0.1,0.8,0.1,1.6,0.2,2.3c0,0.3,0.1,0.6,0,1
			c-0.1,0.3-0.1,0.6-0.1,1c0,0.2,0.1,0.3,0.1,0.5c0,0.5-0.3,0.9-0.5,1.4c-0.1,0.2-0.3,0.4-0.4,0.7c-0.1,0.3-0.3,0.5-0.5,0.8
			c-0.2,0.2-0.4,0.5-0.6,0.7c-0.3,0.2-0.5,0.4-0.8,0.6c-0.3,0.2-0.5,0.4-0.8,0.6c-0.3,0.1-0.5,0.3-0.8,0.5c-0.3,0.1-0.6,0.3-0.9,0.5
			c-0.2,0.2-0.4,0.3-0.7,0.4c-0.2,0.1-0.5,0.2-0.7,0.3c-0.5,0.4-1,0.7-1.6,0.8c-0.5,0.1-0.7,0.4-1,0.7c-0.4,0.4-0.6,0.9-0.6,1.5
			c0,0.4,0,0.8,0,1.2c0,0.3,0,0.6,0,0.9c0,0.2,0.1,0.4,0.1,0.5c0,0.2,0,0.4-0.1,0.5c-0.1,0.3,0,0.7,0,1c0,0.4,0,0.8-0.2,1.2
			c-0.1,0.1-0.1,0.2,0,0.4c0.1,0.2,0,0.4-0.1,0.6c-0.1,0.4-0.2,0.7-0.3,1.1c-0.2,0.5-0.2,1.1-0.5,1.6c-0.1,0.2-0.2,0.3-0.4,0.5
			c-0.1,0.1-0.1,0.4-0.5,0.3c-0.1,0.3-0.4,0.3-0.6,0.6c-0.2,0.2-0.4,0.3-0.6,0.4c-0.1,0.1-0.2,0.2-0.3,0.3c-0.1,0.1-0.2,0.3-0.3,0.4
			c-0.1,0.1-0.2,0.1-0.2,0.3c0,0.3-0.2,0.3-0.4,0.3c-0.1,0-0.3,0-0.3,0.2c0,0.1-0.1,0.2-0.3,0.2c-0.2-0.1-0.6-0.1-0.7,0.1
			c-0.1,0.2-0.4,0.2-0.5,0.5c0,0-0.1,0.1-0.1,0.1c-0.2,0.1-0.3,0.1-0.5,0.3c-0.3,0.3-0.6,0.4-0.9,0.7c-0.1,0.1-0.2,0.3-0.4,0.3
			c0,0,0,0,0,0c-0.2,0.3-0.6,0.4-0.9,0.5c-0.4,0.1-0.5,0.6-0.9,0.5c0,0,0,0,0,0c-0.1,0.1-0.2,0.3-0.5,0.2c0,0-0.1,0-0.1,0
			c-0.5,0.3-1,0.3-1.5,0.5c-0.3,0.1-0.7,0.2-1,0.4c-0.2,0.1-0.3,0.3-0.6,0.2c0,0-0.1,0-0.1,0c-0.2,0.2-0.5,0.4-0.8,0.3c0,0,0,0,0,0
			c-0.6,0.1-1.2,0.4-1.8,0.5c-0.1,0-0.1,0-0.2,0.1c-0.3,0.2-0.6,0.2-0.9,0.3c-0.4,0.1-0.9,0.2-1.3,0.2c-0.2,0-0.4,0.1-0.5,0.2
			c-0.4,0.1-0.7,0.2-1.1,0.3c-0.1,0-0.3,0.1-0.4,0.1c-0.4-0.1-0.7,0.1-1.1,0c-0.4-0.1-0.9,0.2-1.3,0.2c-0.2,0-0.4,0.2-0.7,0.1
			c-0.2,0-0.3,0-0.5,0.1c-0.2,0.1-0.5,0.1-0.7,0c-0.2-0.2-0.5-0.2-0.8-0.3c-0.4-0.1-0.8-0.3-1.2-0.4c-0.1,0-0.2-0.2-0.3-0.2
			c-0.3,0-0.5-0.3-0.7-0.4c-0.1,0-0.2-0.1-0.2-0.2c-0.3-0.5-0.8-0.9-1.2-1.3c-0.2-0.3-0.5-0.4-0.7-0.7c-0.1-0.1-0.3-0.1-0.3-0.2
			c0-0.3-0.3-0.4-0.5-0.6c-0.2-0.3-0.4-0.6-0.7-0.8c-0.3-0.3-0.5-0.7-0.8-1c-0.3-0.3-0.5-0.7-0.7-1.1c-0.1-0.2-0.2-0.4-0.3-0.5
			c-0.2-0.2-0.3-0.4-0.4-0.7c-0.1-0.3-0.3-0.6-0.5-0.9c-0.2-0.2-0.4-0.4-0.5-0.7c-0.1-0.3-0.3-0.5-0.4-0.7c-0.3-0.5-0.7-1-1-1.5
			c-0.2-0.3-0.3-0.6-0.5-0.9c-0.2-0.3-0.4-0.6-0.5-0.9c-0.2-0.4-0.5-0.8-0.7-1.2c-0.2-0.3-0.4-0.6-0.5-0.9c-0.1-0.1-0.2-0.2-0.3-0.4
			c-0.1-0.2-0.4-0.3-0.3-0.6c0,0,0-0.1,0-0.1c-0.2-0.1-0.2-0.3-0.2-0.5c-0.1-0.3-0.1-0.5-0.3-0.8c-0.3-0.5-0.5-1.1-0.8-1.6
			c-0.1-0.2-0.1-0.4-0.2-0.5c-0.2-0.2-0.3-0.4-0.4-0.6c0-0.1,0.1-0.1,0-0.1c-0.3-0.3-0.4-0.7-0.7-1c-0.2-0.3-0.4-0.7-0.6-1
			c-0.1-0.2-0.3-0.4-0.3-0.6c-0.1-0.2-0.2-0.4-0.3-0.6c0-0.1-0.1-0.3-0.2-0.4c-0.2-0.1-0.1-0.2-0.2-0.4c-0.1-0.3-0.2-0.7-0.4-0.9
			c-0.2-0.3-0.3-0.6-0.5-0.8c-0.3-0.4-0.6-0.9-1-1.2c-0.4-0.3-0.8-0.6-1.3-0.6c-0.2,0-0.4,0.1-0.7,0.1c-0.2,0-0.4,0.1-0.6,0.1
			c-0.8,0.2-1.6,0.5-2.4,0.7c-0.4,0.1-0.7,0.1-1.1-0.2c0-0.1-0.1-0.2-0.1-0.2c0.1-0.3,0-0.5,0-0.8c0.1-0.7,0.2-1.4,0.4-2
			c0.1-0.5,0.4-0.9,0.6-1.3c0.4-0.8,0.8-1.5,1.1-2.3c0.3-0.7,0.8-1.3,1.1-2c0.3-0.8,0.9-1.4,1.5-2c0.2-0.2,0.5-0.4,0.7-0.7
			c0.7-0.7,1.5-1.2,2.3-1.8c0.7-0.5,1.5-1,2.3-1.4c0.5-0.2,0.8-0.6,1.3-0.8c0.4-0.1,0.8-0.3,1.2-0.5c0.8-0.5,1.7-0.8,2.6-1.2
			c0.4-0.2,0.8-0.4,1.2-0.6c0.3-0.2,0.6-0.3,0.9-0.4c0.2-0.1,0.4-0.2,0.6-0.3c0.4-0.2,0.8-0.4,1.2-0.5c0.4-0.1,0.9-0.3,1.3-0.5
			c0.6-0.2,1.1-0.5,1.7-0.7C192.8,16.6,193.1,16.5,193.3,16.3z M193.5,26L193.5,26C193.5,26,193.5,26,193.5,26
			c-0.8,0.3-1.6,0.6-2.4,0.8c-0.6,0.2-1.3,0.5-1.9,0.7c-0.8,0.2-1.6,0.6-2.5,0.8c-0.8,0.2-1.6,0.4-2.4,0.7c-0.9,0.3-1.7,0.5-2.6,0.6
			c-0.7,0.1-1.4,0.3-2,0.5c-0.5,0.2-1.1,0.3-1.6,0.2c-0.6,0-1-0.4-1.1-1c-0.1-0.7,0.2-1.3,0.5-1.9c0-0.1,0.1-0.2,0.2-0.2
			c0.3-0.2,0.5-0.5,0.7-0.8c0.1-0.2-0.1-0.8-0.4-0.8c-0.4,0-0.8,0.1-1.1,0.4c-0.5,0.5-1.1,0.9-1.5,1.4c-0.3,0.4-0.6,0.8-1,1.2
			c-0.2,0.3-0.4,0.7-0.6,1c-0.1,0.1,0,0.2-0.1,0.4c-0.3,0.4-0.6,0.9-0.8,1.4c-0.1,0.3-0.3,0.6-0.4,0.9c-0.1,0.2-0.1,0.5-0.2,0.7
			c-0.1,0.2-0.2,0.3-0.2,0.5c0,0.2-0.1,0.4-0.1,0.7c0,0.4-0.2,0.7-0.1,1.1c0.1,0.4,0.4,0.8,0.9,0.6c0.3-0.1,0.5-0.3,0.8-0.5
			c0.5-0.4,1-0.9,1.5-1.3c0.2-0.1,0.4-0.2,0.6-0.4c0.4-0.3,0.9-0.5,1.4-0.6c0.3-0.1,0.6-0.2,0.9-0.3c0.3-0.1,0.6-0.3,0.9-0.4
			c0.6-0.2,1.2-0.2,1.8-0.2c0.3,0,0.5,0,0.8-0.1c0.6-0.2,1.2-0.2,1.9-0.4c0.4-0.1,0.8-0.2,1.3-0.3c0.9-0.2,1.8-0.5,2.6-0.7
			c0.4-0.1,0.8-0.2,1.2-0.4c0.4-0.2,0.9-0.3,1.3-0.5c0.4-0.1,0.8-0.3,1.2-0.4c0.4-0.1,0.9-0.3,1.3-0.4c0.4-0.1,0.8-0.3,1.3-0.4
			c0.6-0.2,1.1-0.4,1.6-0.6c0.4-0.2,0.8-0.3,1.2-0.5c0.5-0.3,1.1-0.5,1.6-0.7c0.7-0.3,1.4-0.5,2-0.9c0.3-0.2,0.7-0.3,1-0.5
			c0.6-0.2,1.3-0.5,1.9-0.8c0.6-0.3,1.2-0.6,1.7-0.9c0.7-0.4,1.4-0.8,2.2-1.1c0.4-0.2,0.7-0.4,1-0.6c0.1-0.1,0.2-0.2,0.1-0.3
			c-0.4-0.5-0.7-1-1.1-1.4c-0.1-0.1-0.1-0.1-0.2-0.1c-0.1,0.1-0.2,0.1-0.4,0.2c-0.5,0.3-1,0.5-1.5,0.8c-0.3,0.2-0.6,0.3-0.9,0.5
			c-0.5,0.3-1.1,0.6-1.6,0.9c-0.5,0.3-1,0.5-1.5,0.8c-0.5,0.2-1,0.5-1.6,0.8c-0.8,0.3-1.6,0.6-2.4,0.9c-0.7,0.2-1.3,0.5-2,0.8
			C194.5,25.7,194,25.9,193.5,26z M216.8,30.1c0.1-0.2,0.1-0.4,0-0.6c-0.1-0.1-0.1-0.2-0.1-0.3c-0.2-0.5-0.5-1-1.1-1
			c-0.4,0-0.7-0.1-1.1-0.1c-0.5-0.1-0.9-0.1-1.4,0c-0.3,0-0.5,0-0.8,0c-0.4,0.1-0.8,0-1.3,0c-0.3,0-0.6,0.2-1,0.2
			c-0.9,0-1.8,0.3-2.7,0.4c-0.6,0.1-1.2,0.2-1.8,0.4c-0.3,0.1-0.7,0.2-1,0.2c-0.5,0-0.9,0.2-1.3,0.3c-0.7,0.2-1.3,0.4-2,0.6
			c-0.5,0.2-1,0.4-1.6,0.5c-0.8,0.2-1.5,0.5-2.2,0.8c-0.2,0.1-0.4,0.2-0.6,0.3c-0.5,0.1-0.9,0.3-1.4,0.5c-0.3,0.1-0.6,0.2-0.9,0.3
			c-0.4,0.1-0.8,0.2-1.2,0.3c-0.4,0.2-0.9,0.4-1.3,0.6c-0.5,0.2-0.9,0.4-1.4,0.6c-0.5,0.2-0.9,0.5-1.3,0.7c-0.4,0.2-0.8,0.5-1.2,0.8
			c-0.6,0.4-1.2,0.8-1.8,1.3c-0.2,0.1-0.3,0.2-0.5,0.2c-0.4,0-0.6,0.2-0.9,0.4c-0.4,0.4-0.9,0.8-1.2,1.2c-0.2,0.2-0.3,0.4-0.5,0.7
			c-0.2,0.3-0.4,0.6-0.7,0.8c-0.1,0.1-0.2,0.2-0.3,0.3c-0.2,0.3-0.4,0.6-0.6,0.9c-0.1,0.1-0.2,0.3-0.2,0.5c0,0.2,0,0.5,0.1,0.7
			c0.2,0.3,0.2,0.7,0.6,1c0.2,0.1,0.5,0.2,0.7,0.4c0.1,0.1,0.2,0.2,0.2,0.3c0.2,0.6,0.7,1.1,1,1.7c0.1,0.3,0.3,0.6,0.5,0.9
			c0.1,0.2,0.2,0.4,0.3,0.6c0.2,0.2,0.3,0.6,0.5,0.8c0.2,0.2,0.3,0.4,0.4,0.6c0.3,0.4,0.6,0.8,0.9,1.3c0.2,0.3,0.4,0.7,0.6,1
			c0.1,0.1,0,0.2,0.2,0.2c-0.1,0.2,0.1,0.3,0.2,0.4c0.1,0.3,0.4,0.5,0.5,0.7c0.1,0.2,0.2,0.4,0.4,0.7c0.2,0.3,0.4,0.7,0.7,1
			c0.2,0.2,0.3,0.5,0.4,0.7c0.1,0.3,0.4,0.4,0.5,0.7c0.1,0.2,0.3,0.4,0.4,0.5c0.2,0.1,0.3,0.3,0.4,0.5c0.2,0.2,0.2,0.5,0.4,0.8
			c0.2,0.2,0.3,0.5,0.5,0.7c0.2,0.3,0.4,0.6,0.6,0.8c0.3,0.3,0.4,0.6,0.8,0.8c0.1,0.1,0.3,0.1,0.4,0.2c0.4,0.3,0.8,0.7,1.2,0.9
			c0.1,0,0.1-0.1,0.2,0c0.1,0.2,0.4,0.2,0.5,0.2c0.3,0,0.5,0,0.7,0.1c0.4,0.1,0.9,0.2,1.3,0.1c0.3-0.1,0.6-0.1,1-0.1
			c0.3,0,0.7,0,1,0c0.3,0,0.5-0.1,0.8,0c0.2,0.1,0.5,0.1,0.7,0c0.3-0.1,0.5-0.1,0.8-0.2c0.1-0.1,0.3-0.1,0.5-0.1
			c0.3,0.1,0.6-0.2,0.9-0.1c0.1-0.2,0.3-0.1,0.5-0.1c0.1-0.1,0.2-0.2,0.3-0.2c0.1,0,0.2,0,0.2,0c0.2-0.1,0.4-0.2,0.7-0.3
			c0.4-0.1,0.9-0.3,1.3-0.4c0.4-0.1,0.7-0.3,1-0.4c0.3-0.1,0.6-0.2,0.9-0.4c0.2-0.2,0.5-0.2,0.7-0.3c0.1,0,0-0.2,0.1-0.1
			c0.1,0,0.2-0.1,0.4-0.1c0.4-0.2,0.8-0.6,1.3-0.8c0.3-0.1,0.5-0.2,0.7-0.4c0.2-0.1,0.4-0.2,0.6-0.3c0.3-0.1,0.5-0.2,0.8-0.3
			c0.1,0,0.1-0.2,0.2-0.2c0.3-0.1,0.6-0.3,0.9-0.5c0.4-0.3,0.8-0.5,1.2-0.8c0.4-0.2,0.7-0.4,1-0.7c0.3-0.2,0.5-0.5,0.8-0.7
			c0,0,0-0.1,0.1-0.1c0.1-0.1,0.2-0.2,0.2-0.3c0.2,0.2,0.3-0.2,0.5-0.1c0.2-0.2,0.5-0.4,0.8-0.5c0.2-0.1,0.3-0.3,0.5-0.4
			c0.5-0.4,0.7-0.9,0.9-1.4c0.1-0.2,0-0.5,0-0.7c0-0.3,0-0.6,0-0.9c-0.1-0.4-0.1-0.8-0.1-1.3c0-0.4-0.2-0.8-0.2-1.2
			c0-0.4-0.2-0.7-0.3-1.1c0-0.1,0-0.3,0-0.4c-0.2-0.4-0.1-0.9-0.2-1.3c-0.1-0.3-0.1-0.7,0-1c0-0.4-0.2-0.8-0.3-1.2
			c0-0.4-0.2-0.7-0.1-1.1c0-0.3,0-0.5,0-0.8c0-0.3-0.1-0.6-0.1-0.9c0-0.3,0.1-0.6-0.1-0.9c-0.1-0.3-0.1-0.6-0.3-0.9
			c-0.1-0.3-0.1-0.7-0.2-1c0-0.1,0.1-0.1,0-0.2c-0.1-0.2-0.1-0.3-0.1-0.5c0-0.4,0-0.7,0-1.1c0-0.1,0-0.2,0-0.4
			c-0.1-0.3,0-0.6-0.1-0.9c-0.1-0.3-0.1-0.6-0.2-0.8c0-0.2-0.2-0.5-0.2-0.7C217,30.8,216.8,30.5,216.8,30.1z M225.5,20.3
			c0-0.1,0-0.1-0.1-0.2c-0.2-0.7-0.6-1.2-1.2-1.4c-0.3-0.1-0.5-0.1-0.8-0.1c-0.3,0-0.6,0.3-0.9,0.3c-0.1,0-0.3,0-0.4,0.1
			c-0.4,0.3-0.8,0.3-1.2,0.5c-0.2,0.2-0.5,0.2-0.8,0.3c-0.3,0.2-0.6,0.3-0.9,0.5c-0.3,0.2-0.8,0.2-1.1,0.5c-0.1,0.1-0.2,0.2-0.3,0.3
			c-0.6,0.5-0.7,1.2-0.7,1.8c0,0.5,0.2,0.9,0.4,1.4c0,0.1,0,0.3,0,0.4c0.2,0.4,0.3,0.8,0.3,1.2c0.1,0.5,0.2,0.9,0.2,1.3
			c0,0.4,0.3,0.8,0.3,1.2c0.1,0.4,0.2,0.7,0.3,1.1c0.1,0.4,0.1,0.7,0.2,1.1c0,0.1,0,0.3,0,0.4c0.1,0.2,0.2,0.4,0.1,0.7
			c0,0.2,0.1,0.5,0.1,0.7c0,0.2,0,0.3,0,0.4c0.1,0.3,0.2,0.6,0.2,1c0,0.4,0.1,0.8,0.2,1.2c0.1,0.6,0.4,1.2,0.5,1.8
			c0,0.3,0.2,0.7,0.3,1c0.2,0.4,0.4,0.7,0.7,1c0.1,0.1,0.3,0.2,0.4,0.2c0.4,0,0.8-0.3,1.1-0.4c0.4-0.1,0.8-0.5,1.2-0.6
			c0.3-0.1,0.6-0.3,0.7-0.5c0.4-0.5,1-0.7,1.5-0.9c0.5-0.2,0.9-0.6,1.4-0.8c0,0,0.1-0.1,0.1-0.1c0.3-0.5,0.2-1.1,0.1-1.7
			c0-0.1-0.1-0.3-0.1-0.4c0-0.2,0-0.5-0.1-0.7c0-0.1-0.1-0.2-0.1-0.4c0-0.2,0-0.5-0.1-0.7c0-0.3,0-0.5-0.1-0.8c0-0.3,0.1-0.7,0-1
			c-0.1-0.5-0.3-0.9-0.4-1.5c0-0.5-0.2-1-0.2-1.5c0-0.3-0.1-0.5-0.1-0.8c0-0.4-0.1-0.7-0.2-1.1c0-0.1,0.1-0.2-0.1-0.2
			c0.2-0.3,0-0.7-0.1-1c0-0.4-0.2-0.8-0.2-1.2c-0.1-0.4-0.1-0.7-0.2-1.1C225.8,21.1,225.7,20.7,225.5,20.3z M208.8,60.4
			c0.1,0.4,0.4,0.5,0.7,0.4c0.2-0.1,0.3-0.2,0.5-0.2c0.5-0.1,1.1-0.2,1.5-0.6c0.2-0.1,0.3-0.1,0.5-0.1c0.5-0.1,0.9-0.5,1.4-0.7
			c0.4-0.2,0.8-0.4,1.2-0.6c0.3-0.2,0.7-0.3,1-0.6c0.6-0.5,1.2-1,1.8-1.5c0.4-0.3,0.8-0.6,1.1-1c0.2-0.2,0.3-0.4,0.5-0.6
			c0.6-0.4,0.7-0.9,0.5-1.5c-0.2-0.6-0.6-0.6-1.1-0.4c-0.1,0.1-0.2,0.1-0.4,0.2c-0.4,0.1-0.8,0.3-1.1,0.6c-0.2,0.2-0.4,0.3-0.6,0.5
			c-0.6,0.4-1.1,0.9-1.6,1.4c-0.1,0.1-0.2,0.2-0.3,0.2c-0.4,0.1-0.7,0.3-1,0.5c-1.1,0.6-2.1,1.3-3.1,2c-0.2,0.2-0.5,0.3-0.6,0.5
			c-0.1,0.1-0.2,0.2-0.3,0.3C208.8,59.6,208.7,59.9,208.8,60.4z M219.7,18.7c0.2-0.1,0.4-0.1,0.6-0.2c1.2-0.6,2.4-1.3,3.6-1.9
			c0.2-0.1,0.4-0.2,0.5-0.3c0.1,0,0.1,0,0.1-0.1c0.3-0.6-0.3-1.5-1-1.5c-0.6,0-1.2,0.2-1.8,0.4c-0.6,0.2-1.3,0.4-1.9,0.7
			c-0.5,0.2-0.9,0.6-1.4,0.8c-0.8,0.3-1.5,0.7-2.3,1c-0.1,0.1-0.2,0.1-0.2,0.3c-0.1,0.7,0,1.4,0.3,2c0.1,0.1,0.1,0.1,0.2,0.1
			C217.6,19.4,218.7,19.2,219.7,18.7z M195.9,63.2c0.1,0.4,0.3,0.6,0.6,0.7c0.6,0.1,1.3,0,1.9-0.2c0.1,0,0.3-0.1,0.4,0
			c0.1,0.1,0.2,0.1,0.3,0.1c0.4,0,0.9,0,1.3-0.2c0.6-0.2,1.2-0.2,1.7-0.6c0.3-0.2,0.4-0.5,0.3-0.9c-0.1-0.2-0.4-0.4-0.7-0.3
			c-0.2,0.1-0.4,0.1-0.6,0c-0.5-0.1-1-0.1-1.5,0c-0.3,0-0.5,0-0.8,0c-0.7-0.1-1.3-0.1-2,0.2c-0.2,0.1-0.4,0.2-0.5,0.2
			c-0.3,0.1-0.5,0.2-0.5,0.5C195.8,62.9,195.9,63.1,195.9,63.2z M186,21.3c-0.1-0.4-0.3-0.5-0.6-0.4c-0.4,0.1-0.9,0.2-1.3,0.4
			c-0.2,0.1-0.4,0.2-0.6,0.2c-0.2,0-0.4,0.1-0.6,0.2c-0.2,0.1-0.3,0.2-0.5,0.3c-0.7,0.2-1.2,0.8-2,1.1c-0.3,0.1-0.6,0.3-0.7,0.7
			c-0.1,0.3,0,0.8,0.2,1c0.3,0.3,0.9,0.2,1.2-0.1c0.3-0.2,0.5-0.4,0.8-0.6c0.7-0.4,1.5-0.9,2.2-1.3c0.2-0.1,0.5-0.3,0.7-0.4
			c0.3-0.1,0.6-0.2,0.8-0.5C186.1,21.8,186.1,21.7,186,21.3z"/>
		<path class="st1" d="M216.8,30.1c0.1,0.4,0.2,0.8,0.2,1.2c0,0.2,0.1,0.5,0.2,0.7c0.1,0.3,0.1,0.6,0.2,0.8c0.1,0.3,0,0.6,0.1,0.9
			c0,0.1,0,0.2,0,0.4c0.1,0.4,0,0.7,0,1.1c0,0.2,0,0.4,0.1,0.5c0,0,0,0.1,0,0.2c0.1,0.3,0.1,0.7,0.2,1c0.1,0.3,0.1,0.6,0.3,0.9
			c0.1,0.3,0.1,0.6,0.1,0.9c0,0.3,0,0.6,0.1,0.9c0,0.3,0,0.5,0,0.8c0,0.4,0.1,0.7,0.1,1.1c0,0.4,0.3,0.8,0.3,1.2c0,0.3,0,0.7,0,1
			c0.1,0.4,0,0.9,0.2,1.3c0.1,0.1,0,0.3,0,0.4c0.1,0.4,0.3,0.7,0.3,1.1c0,0.4,0.1,0.8,0.2,1.2c0,0.4,0.1,0.8,0.1,1.3
			c0,0.3,0,0.6,0,0.9c0,0.2,0,0.5,0,0.7c-0.2,0.6-0.5,1.1-0.9,1.4c-0.2,0.1-0.3,0.3-0.5,0.4c-0.3,0.1-0.6,0.3-0.8,0.5
			c-0.2-0.1-0.3,0.3-0.5,0.1c-0.1,0.1-0.2,0.2-0.2,0.3c0,0,0,0.1-0.1,0.1c-0.3,0.2-0.5,0.5-0.8,0.7c-0.3,0.3-0.7,0.5-1,0.7
			c-0.4,0.2-0.8,0.5-1.2,0.8c-0.3,0.2-0.5,0.4-0.9,0.5c-0.1,0-0.1,0.2-0.2,0.2c-0.3,0.1-0.5,0.3-0.8,0.3c-0.2,0-0.4,0.1-0.6,0.3
			c-0.2,0.2-0.5,0.3-0.7,0.4c-0.5,0.1-0.8,0.5-1.3,0.8c-0.1,0.1-0.2,0.2-0.4,0.1c-0.2,0,0,0.1-0.1,0.1c-0.2,0.1-0.5,0.1-0.7,0.3
			c-0.3,0.2-0.6,0.3-0.9,0.4c-0.3,0.2-0.7,0.3-1,0.4c-0.4,0.1-0.9,0.2-1.3,0.4c-0.2,0.1-0.5,0.1-0.7,0.3c-0.1,0-0.1,0-0.2,0
			c-0.1,0-0.2,0.1-0.3,0.2c-0.1,0.1-0.4-0.1-0.5,0.1c-0.3-0.1-0.6,0.2-0.9,0.1c-0.1,0-0.3,0.1-0.5,0.1c-0.3,0.1-0.5,0.1-0.8,0.2
			c-0.2,0.1-0.5,0.1-0.7,0c-0.3-0.1-0.6,0-0.8,0c-0.3,0-0.7,0.1-1,0c-0.3,0-0.7,0-1,0.1c-0.5,0.1-0.9,0-1.3-0.1
			c-0.2-0.1-0.5-0.1-0.7-0.1c-0.2,0-0.4,0-0.5-0.2c-0.1-0.1-0.1,0-0.2,0c-0.5-0.2-0.8-0.6-1.2-0.9c-0.1-0.1-0.3-0.1-0.4-0.2
			c-0.4-0.2-0.5-0.5-0.8-0.8c-0.2-0.2-0.4-0.5-0.6-0.8c-0.1-0.2-0.3-0.5-0.5-0.7c-0.2-0.3-0.2-0.6-0.4-0.8c-0.1-0.2-0.2-0.3-0.4-0.5
			c-0.2-0.1-0.3-0.3-0.4-0.5c-0.1-0.3-0.4-0.4-0.5-0.7c-0.1-0.3-0.3-0.5-0.4-0.7c-0.2-0.3-0.5-0.7-0.7-1c-0.1-0.2-0.3-0.4-0.4-0.7
			c-0.1-0.3-0.3-0.5-0.5-0.7c-0.1-0.1-0.3-0.2-0.2-0.4c-0.2,0-0.1-0.1-0.2-0.2c-0.2-0.3-0.4-0.6-0.6-1c-0.3-0.5-0.6-0.8-0.9-1.3
			c-0.1-0.2-0.2-0.5-0.4-0.6c-0.2-0.2-0.3-0.6-0.5-0.8c-0.1-0.2-0.2-0.4-0.3-0.6c-0.2-0.3-0.3-0.6-0.5-0.9c-0.3-0.6-0.7-1.1-1-1.7
			c0-0.1-0.1-0.2-0.2-0.3c0.1,0,0.2,0.1,0.4,0.1c0.2-0.1,0.5-0.1,0.7-0.1c0.4,0,0.7,0.1,1.1,0.1c0.2,0,0.3,0,0.4,0
			c0.3,0.1,0.6,0.1,0.9,0.1c0.2,0,0.5,0,0.7,0c0.3,0,0.6,0,0.9,0c0.3,0,0.6-0.1,0.9-0.2c0.4-0.1,0.9-0.2,1.4-0.3
			c0.4,0,0.8,0,1.2-0.1c0.2,0,0.3,0,0.5,0c0.2,0,0.4-0.1,0.6-0.1c0.6-0.2,1.3-0.3,1.9-0.4c0.3,0,0.6-0.1,0.8-0.2
			c0.3-0.1,0.5-0.2,0.8-0.3c0.5-0.1,1.1-0.2,1.5-0.4c0.3-0.1,0.6-0.3,0.9-0.4c0.3-0.1,0.7-0.2,1-0.4c0.3-0.1,0.6-0.2,0.9-0.4
			c0.3-0.2,0.7-0.2,1-0.4c0.3-0.1,0.7-0.3,1-0.4c0.2-0.1,0.5-0.2,0.7-0.3c0.3-0.1,0.5-0.2,0.7-0.2c0.5-0.1,1-0.2,1.4-0.5
			c0.3-0.1,0.6-0.3,0.9-0.4c0.2-0.1,0.4-0.4,0.7-0.4c0.3-0.1,0.5-0.4,0.8-0.5c0.3-0.1,0.5-0.3,0.7-0.4c0.2-0.1,0.5-0.2,0.7-0.4
			c0.4-0.3,0.9-0.5,1.3-0.8c0.3-0.3,0.7-0.4,1.1-0.7c0.3-0.2,0.6-0.4,0.9-0.7c0.1-0.1,0.3-0.2,0.4-0.3c0.3-0.3,0.6-0.5,0.9-0.8
			c0.3-0.4,0.8-0.7,1.2-0.9c0.3-0.2,0.5-0.3,0.8-0.5c0.3-0.2,0.4-0.6,0.7-0.8c0.1-0.1,0.2-0.3,0.3-0.4
			C216.5,30.7,216.6,30.4,216.8,30.1z"/>
		<path class="st0" d="M216.8,30.1c-0.2,0.3-0.3,0.7-0.5,0.9c-0.1,0.1-0.2,0.3-0.3,0.4c-0.2,0.3-0.4,0.6-0.7,0.8
			c-0.3,0.2-0.5,0.3-0.8,0.5c-0.4,0.3-0.9,0.5-1.2,0.9c-0.3,0.3-0.6,0.5-0.9,0.8c-0.1,0.1-0.3,0.2-0.4,0.3c-0.3,0.3-0.6,0.4-0.9,0.7
			c-0.4,0.3-0.8,0.4-1.1,0.7c-0.4,0.3-0.9,0.5-1.3,0.8c-0.2,0.2-0.5,0.2-0.7,0.4c-0.2,0.1-0.5,0.3-0.7,0.4c-0.3,0.1-0.5,0.4-0.8,0.5
			c-0.2,0.1-0.4,0.3-0.7,0.4c-0.3,0.1-0.6,0.3-0.9,0.4c-0.5,0.2-1,0.3-1.4,0.5c-0.2,0.1-0.5,0.2-0.7,0.2c-0.2,0-0.4,0.2-0.7,0.3
			c-0.3,0.2-0.7,0.3-1,0.4c-0.3,0.1-0.7,0.2-1,0.4c-0.3,0.1-0.6,0.2-0.9,0.4c-0.3,0.2-0.7,0.2-1,0.4c-0.3,0.1-0.6,0.2-0.9,0.4
			c-0.5,0.2-1,0.3-1.5,0.4c-0.3,0.1-0.5,0.2-0.8,0.3c-0.3,0.1-0.6,0.1-0.8,0.2c-0.7,0.1-1.3,0.2-1.9,0.4c-0.2,0-0.4,0.1-0.6,0.1
			c-0.1,0-0.3,0-0.5,0c-0.4,0.1-0.8,0-1.2,0.1c-0.5,0-0.9,0.1-1.4,0.3c-0.3,0.1-0.6,0.2-0.9,0.2c-0.3,0-0.6,0-0.9,0
			c-0.2,0-0.5,0-0.7,0c-0.3,0-0.6,0-0.9-0.1c-0.2,0-0.3,0-0.4,0c-0.4,0-0.7-0.1-1.1-0.1c-0.2,0-0.5,0-0.7,0.1
			c-0.2,0-0.3-0.1-0.4-0.1c-0.2-0.2-0.5-0.2-0.7-0.4c-0.3-0.2-0.4-0.6-0.6-1c-0.1-0.2-0.1-0.5-0.1-0.7c0-0.2,0.1-0.3,0.2-0.5
			c0.2-0.3,0.4-0.6,0.6-0.9c0.1-0.1,0.2-0.2,0.3-0.3c0.3-0.2,0.5-0.5,0.7-0.8c0.1-0.2,0.3-0.5,0.5-0.7c0.4-0.4,0.8-0.8,1.2-1.2
			c0.2-0.2,0.5-0.4,0.9-0.4c0.2,0,0.4-0.1,0.5-0.2c0.6-0.4,1.2-0.9,1.8-1.3c0.4-0.3,0.8-0.6,1.2-0.8c0.4-0.2,0.9-0.5,1.3-0.7
			c0.5-0.2,0.9-0.4,1.4-0.6c0.5-0.1,0.9-0.4,1.3-0.6c0.4-0.2,0.8-0.3,1.2-0.3c0.3-0.1,0.6-0.2,0.9-0.3c0.5-0.1,0.9-0.4,1.4-0.5
			c0.2,0,0.4-0.2,0.6-0.3c0.7-0.3,1.5-0.6,2.2-0.8c0.5-0.1,1.1-0.3,1.6-0.5c0.7-0.3,1.3-0.4,2-0.6c0.4-0.1,0.9-0.3,1.3-0.3
			c0.3,0,0.7-0.1,1-0.2c0.6-0.2,1.2-0.4,1.8-0.4c0.9-0.1,1.8-0.3,2.7-0.4c0.3,0,0.6-0.2,1-0.2c0.4,0,0.8,0.1,1.3,0
			c0.3,0,0.5,0,0.8,0c0.5-0.1,0.9-0.1,1.4,0c0.4,0.1,0.7,0.1,1.1,0.1c0.7,0,0.9,0.5,1.1,1c0,0.1,0.1,0.2,0.1,0.3
			C216.9,29.6,216.8,29.9,216.8,30.1z"/>
		<path class="st0" d="M193.5,26c0.5-0.2,1-0.3,1.4-0.5c0.7-0.3,1.3-0.5,2-0.8c0.8-0.3,1.6-0.5,2.4-0.9c0.5-0.2,1-0.5,1.6-0.8
			c0.5-0.2,1-0.5,1.5-0.8c0.5-0.3,1.1-0.5,1.6-0.9c0.3-0.2,0.6-0.3,0.9-0.5c0.5-0.3,1-0.5,1.5-0.8c0.1-0.1,0.2-0.1,0.4-0.2
			c0.1-0.1,0.2,0,0.2,0.1c0.4,0.5,0.7,1,1.1,1.4c0.1,0.1,0,0.2-0.1,0.3c-0.3,0.2-0.7,0.4-1,0.6c-0.7,0.4-1.4,0.8-2.2,1.1
			c-0.6,0.3-1.2,0.6-1.7,0.9c-0.6,0.3-1.2,0.6-1.9,0.8c-0.4,0.1-0.7,0.3-1,0.5c-0.6,0.4-1.4,0.6-2,0.9c-0.5,0.2-1.1,0.4-1.6,0.7
			c-0.4,0.2-0.8,0.4-1.2,0.5c-0.5,0.2-1.1,0.4-1.6,0.6c-0.4,0.1-0.8,0.3-1.3,0.4c-0.4,0.1-0.9,0.3-1.3,0.4c-0.4,0.1-0.8,0.3-1.2,0.4
			c-0.4,0.2-0.9,0.3-1.3,0.5c-0.4,0.1-0.8,0.2-1.2,0.4c-0.9,0.2-1.8,0.5-2.6,0.7c-0.4,0.1-0.8,0.2-1.3,0.3c-0.6,0.2-1.2,0.3-1.9,0.4
			c-0.3,0.1-0.5,0.1-0.8,0.1c-0.6,0-1.2,0.1-1.8,0.2c-0.3,0.1-0.6,0.3-0.9,0.4c-0.3,0.1-0.6,0.2-0.9,0.3c-0.5,0.2-1,0.4-1.4,0.6
			c-0.2,0.1-0.4,0.2-0.6,0.4c-0.6,0.3-1,0.8-1.5,1.3c-0.2,0.2-0.4,0.4-0.8,0.5c-0.5,0.2-0.9-0.2-0.9-0.6c-0.1-0.4,0.1-0.7,0.1-1.1
			c0-0.2,0.1-0.4,0.1-0.7c0-0.2,0.1-0.4,0.2-0.5c0.2-0.2,0.2-0.4,0.2-0.7c0.1-0.3,0.3-0.6,0.4-0.9c0.2-0.5,0.5-0.9,0.8-1.4
			c0.1-0.1,0-0.2,0.1-0.4c0.2-0.3,0.4-0.7,0.6-1c0.3-0.4,0.6-0.8,1-1.2c0.5-0.5,1-1,1.5-1.4c0.3-0.3,0.7-0.4,1.1-0.4
			c0.3,0,0.6,0.6,0.4,0.8c-0.2,0.3-0.4,0.6-0.7,0.8c-0.1,0.1-0.1,0.2-0.2,0.2c-0.3,0.6-0.6,1.2-0.5,1.9c0.1,0.6,0.4,1,1.1,1
			c0.6,0,1.1-0.1,1.6-0.2c0.7-0.2,1.3-0.4,2-0.5c0.9-0.1,1.8-0.3,2.6-0.6c0.8-0.3,1.6-0.5,2.4-0.7c0.8-0.2,1.6-0.6,2.5-0.8
			c0.7-0.2,1.3-0.5,1.9-0.7C191.9,26.6,192.7,26.4,193.5,26C193.5,26,193.5,26,193.5,26C193.5,26,193.5,26.1,193.5,26
			C193.5,26.1,193.5,26,193.5,26z"/>
		<path class="st0" d="M208.8,60.4c-0.2-0.5,0-0.8,0.6-1.1c0.1-0.1,0.2-0.2,0.3-0.3c0.2-0.2,0.4-0.3,0.6-0.5c1-0.7,2.1-1.4,3.1-2
			c0.3-0.2,0.7-0.4,1-0.5c0.1,0,0.2-0.2,0.3-0.2c0.5-0.5,1-1,1.6-1.4c0.2-0.1,0.4-0.3,0.6-0.5c0.3-0.3,0.7-0.4,1.1-0.6
			c0.1,0,0.3-0.1,0.4-0.2c0.4-0.2,0.9-0.2,1.1,0.4c0.2,0.6,0.1,1.1-0.5,1.5c-0.2,0.2-0.3,0.4-0.5,0.6c-0.4,0.3-0.8,0.6-1.1,1
			c-0.6,0.5-1.2,0.9-1.8,1.5c-0.3,0.3-0.6,0.4-1,0.6c-0.4,0.2-0.8,0.4-1.2,0.6c-0.5,0.2-0.9,0.6-1.4,0.7c-0.2,0-0.4,0-0.5,0.1
			c-0.4,0.4-1,0.4-1.5,0.6c-0.2,0-0.3,0.1-0.5,0.2C209.2,60.9,208.9,60.8,208.8,60.4z"/>
		<path class="st0" d="M219.7,18.7c-1,0.5-2.1,0.7-3.1,1.2c-0.1,0.1-0.2,0-0.2-0.1c-0.4-0.6-0.5-1.3-0.3-2c0-0.1,0.1-0.2,0.2-0.3
			c0.8-0.3,1.5-0.7,2.3-1c0.5-0.2,0.9-0.5,1.4-0.8c0.6-0.3,1.2-0.5,1.9-0.7c0.6-0.2,1.1-0.4,1.8-0.4c0.7,0,1.2,0.9,1,1.5
			c0,0.1-0.1,0.1-0.1,0.1c-0.2,0.1-0.4,0.2-0.5,0.3c-1.2,0.6-2.4,1.3-3.6,1.9C220.1,18.5,219.9,18.6,219.7,18.7z"/>
		<path class="st0" d="M195.9,63.2c-0.1-0.1-0.1-0.3-0.1-0.4c0-0.3,0.1-0.5,0.5-0.5c0.2,0,0.4-0.1,0.5-0.2c0.6-0.3,1.3-0.3,2-0.2
			c0.3,0,0.6,0,0.8,0c0.5,0,1,0,1.5,0c0.2,0,0.4,0,0.6,0c0.3-0.1,0.6,0.1,0.7,0.3c0.2,0.5,0.1,0.7-0.3,0.9c-0.5,0.4-1.1,0.4-1.7,0.6
			c-0.4,0.1-0.9,0.2-1.3,0.2c-0.1,0-0.2,0-0.3-0.1c-0.1-0.1-0.3,0-0.4,0c-0.6,0.2-1.2,0.3-1.9,0.2C196.3,63.8,196.1,63.6,195.9,63.2
			z"/>
		<path class="st0" d="M186,21.3c0.1,0.4,0.1,0.5-0.2,0.8c-0.2,0.2-0.5,0.3-0.8,0.5c-0.3,0.1-0.5,0.2-0.7,0.4
			c-0.7,0.4-1.4,0.9-2.2,1.3c-0.3,0.2-0.6,0.4-0.8,0.6c-0.4,0.3-0.9,0.3-1.2,0.1c-0.2-0.2-0.3-0.8-0.2-1c0.1-0.4,0.3-0.6,0.7-0.7
			c0.7-0.3,1.2-0.9,2-1.1c0.2-0.1,0.4-0.2,0.5-0.3c0.2-0.1,0.4-0.2,0.6-0.2c0.2,0,0.4-0.1,0.6-0.2c0.4-0.2,0.8-0.4,1.3-0.4
			C185.7,20.8,185.9,20.9,186,21.3z"/>
		<path class="st4" d="M193.5,26C193.5,26,193.5,26.1,193.5,26C193.5,26.1,193.5,26,193.5,26C193.5,26,193.5,26,193.5,26z"/>
	</g>
</g>
<g>
	<path class="st1" d="M252.3,59.7c-0.2,0.1-0.5,0.3-0.7,0.4c-0.4,0.3-0.9,0.6-1.4,0.9c-1,0.5-2,1-3.1,1.5c-0.5,0.2-1,0.5-1.5,0.7
		c-0.4,0.2-0.8,0.5-1.3,0.7c-0.9,0.5-1.8,0.9-2.7,1.4c-0.4,0.2-0.8,0.5-1.2,0.6c-0.3,0.1-0.5,0.2-0.8,0.3c-0.6,0.3-1.2,0.7-1.8,1
		c-0.7,0.4-1.4,1-2.2,1.3c-0.7,0.3-1.4,0.7-2,1c-0.4,0.2-0.9,0.4-1.3,0.7c-1,0.6-2,1.2-3,1.9c-0.3,0.2-0.7,0.4-1,0.6
		c-0.8,0.6-1.6,1.1-2.4,1.7c-0.3,0.2-0.6,0.4-0.9,0.5c-0.2,0.1-0.4,0.2-0.6,0.3c-0.4,0.2-0.8,0.5-1.1,0.8c-0.4,0.3-0.8,0.5-1.2,0.8
		c-0.5,0.5-1.1,0.8-1.7,1.2c-0.2,0.1-0.4,0.2-0.6,0.3c-0.5,0.3-1.1,0.7-1.6,1c-0.2,0.1-0.5,0.2-0.7,0.4c-0.7,0.4-1.4,0.7-2.2,1
		c-0.7,0.2-1.3,0.4-2,0.6c-0.6,0.2-1.2,0.3-1.8,0.3c-1.1,0.1-2.3,0.2-3.4,0.2c0.4,0.2,0.9,0.4,1.3,0.7c0.1,0,0.1,0.1,0.2,0.1
		c0.5,0.4,1,0.7,1.6,0.9c0.4,0.2,0.7,0.4,1,0.7c0.5,0.6,1.1,1.2,1.5,1.8c0.3,0.4,0.5,0.9,0.5,1.4c0.1,0.4,0.1,0.8,0.1,1.3
		c0,0.3,0,0.6-0.1,0.8c-0.3,1.6-1,2.9-2.1,4c-0.3,0.3-0.5,0.5-0.7,0.8c-0.4,0.5-0.9,0.9-1.5,1.3c-0.7,0.4-1.3,0.9-1.9,1.5
		c-0.2,0.2-0.5,0.4-0.7,0.5c-0.7,0.4-1.4,0.8-2,1.2c-0.2,0.2-0.5,0.3-0.7,0.5c-0.4,0.3-0.9,0.4-1.4,0.6c-0.5,0.2-0.9,0.5-1.4,0.7
		c-0.6,0.3-1.2,0.7-1.9,0.9c-0.7,0.2-1.3,0.5-1.9,0.8c-0.6,0.3-1.2,0.6-1.8,0.8c-0.3,0.1-0.5,0.2-0.8,0.3c-0.7,0.4-1.4,0.6-2.1,0.8
		c-1.2,0.3-2.4,0.7-3.6,1c-0.4,0.1-0.8,0.2-1.2,0.2c-0.3,0-0.5,0.1-0.8,0.2c-0.7,0.2-1.4,0.3-2.2,0.3c-0.4,0-0.8,0.1-1.2,0.1
		c-0.5,0-0.9,0.1-1.4,0c-0.2,0-0.4,0-0.6,0c-1,0-2,0-2.9-0.4c-0.9-0.3-1.9-0.7-2.6-1.4c-0.2-0.2-0.3-0.4-0.4-0.6
		c-0.3-0.6-0.5-1.2-0.7-1.8c0-0.1,0-0.2,0-0.3c0-0.8,0-1.5,0.1-2.3c0-0.1,0.1-0.2-0.1-0.3c-0.2,0.5-0.4,0.9-0.6,1.4
		c-0.3,1-0.4,2,0,3c0.3,0.8,0.6,1.6,1.1,2.3c0.3,0.5,0.6,1,1,1.4c0.6,0.6,1.2,1.1,1.9,1.6c0.4,0.3,0.8,0.5,1.3,0.7
		c0.1,0,0.1,0.1,0.2,0.1c0.6,0.4,1.2,0.7,1.9,0.9c0.5,0.1,0.9,0.2,1.4,0.4c0.1,0,0.2,0.1,0.3,0c0.3-0.1,0.7-0.1,1-0.1
		c0.9,0.1,1.8,0,2.7-0.1c0.1,0,0.2,0,0.3,0c0.4,0.1,0.8,0,1.2-0.1c0.7-0.2,1.5-0.3,2.3-0.4c0.6-0.1,1.1-0.2,1.7-0.4
		c1.2-0.4,2.4-0.9,3.5-1.4c0.7-0.3,1.4-0.6,2.1-0.9c0.5-0.1,1-0.3,1.4-0.6c0.1-0.1,0.2-0.1,0.3-0.1c0.3,0,0.5-0.1,0.7-0.3
		c0.2-0.1,0.3-0.2,0.5-0.2c0.3-0.2,0.7-0.3,1-0.5c0.7-0.4,1.3-0.7,2-1.2c0.3-0.2,0.6-0.3,0.8-0.5c0.5-0.3,1-0.6,1.4-1
		c0.5-0.3,0.9-0.7,1.4-1c0.2-0.1,0.4-0.3,0.6-0.5c0.4-0.5,0.9-0.9,1.4-1.2c0.2-0.2,0.4-0.3,0.6-0.5c0.6-0.7,1.2-1.3,1.9-2
		c0.6-0.5,1-1.2,1.7-1.6c0.1-0.1,0.2-0.2,0.3-0.3c0.3-0.4,0.6-0.8,0.8-1.2c0.6-1.1,1.4-2,2.2-3c0.1-0.2,0.3-0.3,0.4-0.5
		c0.2-0.6,0.5-1.1,0.6-1.6c0.2-0.6,0.4-1.1,0.8-1.5c0.4-0.4,0.6-0.9,1-1.3c0.5-0.4,1-0.6,1.5-1c0,0,0,0,0.1,0
		c0.5-0.1,0.8-0.4,1.2-0.7c0.3-0.2,0.6-0.5,0.9-0.6c0.1-0.1,0.3-0.1,0.4-0.2c0.8-0.5,1.6-0.9,2.4-1.3c0.8-0.5,1.7-0.9,2.6-1.4
		c1-0.6,2.1-1.2,3.1-1.7c0.6-0.3,1.1-0.6,1.7-0.9c1.1-0.8,2.3-1.4,3.5-2.1c0.7-0.5,1.6-0.8,2.3-1.2c0.8-0.4,1.6-0.8,2.3-1.3
		c0.8-0.5,1.7-0.9,2.5-1.3c0.2-0.1,0.4-0.2,0.6-0.3c0.3-0.2,0.7-0.4,1.1-0.5c0.4-0.1,0.8-0.3,1.2-0.5c0.8-0.4,1.7-0.8,2.5-1.1
		c0.8-0.3,1.5-0.7,2.2-1.1c0.3-0.2,0.6-0.3,0.9-0.5c0,0,0.1,0,0.1,0V58.8C253.5,59.1,252.9,59.4,252.3,59.7z"/>
	<path class="st3" d="M175.9,99.5c-0.1,0.8-0.1,1.5-0.1,2.3c0,0.1,0,0.2,0,0.3c0.2,0.6,0.4,1.2,0.7,1.8c0.1,0.2,0.3,0.4,0.4,0.6
		c0.8,0.7,1.7,1.1,2.6,1.4c0.9,0.3,1.9,0.3,2.9,0.4c0.2,0,0.4,0,0.6,0c0.5,0.1,0.9,0,1.4,0c0.4,0,0.8-0.1,1.2-0.1
		c0.7,0,1.5-0.1,2.2-0.3c0.3-0.1,0.5-0.2,0.8-0.2c0.4,0,0.8-0.1,1.2-0.2c1.2-0.3,2.4-0.6,3.6-1c0.7-0.2,1.5-0.5,2.1-0.8
		c0.2-0.1,0.5-0.3,0.8-0.3c0.6-0.2,1.2-0.5,1.8-0.8c0.6-0.3,1.3-0.7,1.9-0.8c0.7-0.2,1.3-0.6,1.9-0.9c0.5-0.2,0.9-0.5,1.4-0.7
		c0.5-0.2,0.9-0.3,1.4-0.6c0.3-0.1,0.5-0.3,0.7-0.5c0.6-0.4,1.3-0.8,2-1.2c0.3-0.2,0.5-0.3,0.7-0.5c0.6-0.6,1.2-1,1.9-1.5
		c0.5-0.4,1.1-0.8,1.5-1.3c0.2-0.3,0.5-0.5,0.7-0.8c1.1-1.1,1.8-2.5,2.1-4c0-0.3,0.1-0.6,0.1-0.8c0-0.4,0-0.8-0.1-1.3
		c-0.1-0.5-0.3-1-0.5-1.4c-0.4-0.7-1-1.2-1.5-1.8c-0.3-0.3-0.6-0.6-1-0.7c-0.6-0.2-1.1-0.5-1.6-0.9c0,0-0.1-0.1-0.2-0.1
		c-0.4-0.3-0.9-0.4-1.3-0.7c-0.5-0.2-1-0.3-1.6-0.5c-0.4-0.1-0.8-0.2-1.3-0.1c-0.1,0-0.2,0-0.3,0c-0.1,0-0.2,0-0.3,0
		c-0.6,0.2-1.3,0.1-1.9,0.1c-0.6-0.1-1.1-0.1-1.7-0.1c-0.4,0-0.9-0.1-1.3-0.1c-0.4,0-0.7-0.1-1.1,0c-0.3,0-0.6,0.1-0.9,0.1
		c-0.4,0-0.8,0.1-1.3,0.2c-0.3,0.1-0.6,0.1-0.9,0.2c-0.9,0.3-1.8,0.2-2.7,0c-0.3-0.1-0.7-0.2-1.1-0.3c-0.5-0.1-0.9,0-1.3,0.1
		c-0.5,0.1-1,0.2-1.4,0.3c-0.7,0.2-1.5,0.5-2.2,0.7c-0.5,0.1-1,0.1-1.6,0.1c-0.4,0-0.8-0.1-1.2,0c-0.1,0-0.2,0-0.3,0
		c-0.3-0.1-0.4-0.1-0.5,0.3c-0.1,0.3,0,0.5,0,0.8c0,0.5-0.1,1-0.3,1.4c-0.4,0.9-1,1.7-1.7,2.4c-0.6,0.7-1.3,1.3-1.8,2
		c-0.3,0.3-0.5,0.7-0.8,1.1c-0.4,0.7-0.6,1.4-0.5,2.2c0,0.4,0.1,0.8,0.1,1.2c0,0.1,0,0.2-0.1,0.3c-0.4,0.6-0.9,1.2-1.3,1.8
		c-0.6,0.8-1,1.7-1.2,2.7c0,0.2-0.1,0.5-0.1,0.7C176,99.3,175.9,99.4,175.9,99.5z M196.6,98.4c0.3-0.2,0.7-0.4,1.1-0.6
		c1.2-0.8,2.5-1.6,3.7-2.4c0.5-0.3,1-0.6,1.4-1c0.4-0.4,0.9-0.8,1.2-1.3c0.1-0.1,0.2-0.3,0.3-0.4c0.6-0.7,1.1-1.3,1.7-2
		c0.3-0.4,0.6-0.8,0.8-1.2c0.2-0.3,0.3-0.7,0.3-1.1c0.1-0.6,0.3-1.1,0.2-1.7c0-0.2-0.1-0.5-0.3-0.6c-0.2-0.2-0.5-0.5-0.8-0.7
		c-0.8-0.6-2-0.2-2.5,0.6c-0.1,0.2-0.2,0.3-0.3,0.4c-0.3,0.3-0.6,0.7-0.9,1.1c-0.7,0.7-1.4,1.3-2.3,1.8c-0.5,0.3-1,0.3-1.6,0.2
		c-0.3,0-0.4-0.4-0.2-0.6c0.1-0.1,0.2-0.3,0.4-0.5c1-1.2,1.9-2.6,2.7-3.9c0.3-0.6,0.5-1.2,0.6-1.8c0.1-0.3,0.1-0.3,0.4-0.4
		c0.4-0.1,0.8-0.2,1.1-0.2c0.3,0,0.5-0.1,0.8-0.1c0.5,0,1.1-0.1,1.7,0.1c0.7,0.2,1.4,0.4,2,0.7c1,0.6,2,1.2,3,1.8
		c0.1,0.1,0.2,0.1,0.2,0.2c0.5,0.4,1,0.9,1.4,1.5c0.3,0.5,0.5,1,0.6,1.6c0.1,0.7,0,1.3-0.2,1.9c-0.1,0.2-0.2,0.5-0.3,0.8
		c-0.3,0.8-0.9,1.5-1.5,2c-1.1,0.9-2.3,1.7-3.6,2.3c-0.2,0.1-0.4,0.3-0.7,0.4c-1,0.6-2.1,1.2-3.2,1.8c-0.5,0.3-1,0.6-1.5,0.9
		c-1.4,0.6-2.6,1.4-3.9,2c-0.6,0.3-1.2,0.5-1.8,0.7c-0.7,0.3-1.3,0.6-2,0.8c-0.7,0.2-1.3,0.5-2,0.5c-0.3,0-0.6-0.1-0.7-0.3
		c-0.2-0.3-0.1-0.5,0.1-0.8c0.3-0.3,0.6-0.5,0.9-0.8c0.5-0.3,1.1-0.6,1.7-0.8C195.3,99.1,196,98.8,196.6,98.4z M179.8,91.2
		c0.1-0.2,0.1-0.4,0.2-0.5c0.1-0.3,0.4-0.6,0.7-0.8c0.4-0.3,0.9-0.4,1.3-0.5c0.4,0,0.9,0,1.3,0c0.4,0,0.7,0.1,1.1,0.2
		c0.1,0,0.2,0,0.4,0c0.3,0,0.4-0.2,0.4-0.5c0-0.2,0-0.4-0.1-0.5c-0.1-0.4,0.1-0.8,0.5-1c0.2-0.1,0.4-0.1,0.6-0.1
		c0.5,0,1-0.1,1.4-0.1c0.2,0,0.5,0,0.7,0c0.7,0,1.4-0.1,2.1-0.3c0.8-0.2,1.5-0.6,2.2-1.2c0.1-0.1,0.2-0.2,0.3-0.3
		c0.4-0.3,0.7-0.7,0.9-1.1c0.1-0.1,0.2-0.2,0.3-0.3c0.2-0.2,0.5-0.2,0.6,0.1c0.3,0.5,0.4,1.1,0.3,1.7c0,0.3-0.1,0.5-0.2,0.8
		c-0.2,1-0.8,1.7-1.7,2.2c-0.2,0.1-0.4,0.2-0.6,0.3c-0.4,0.2-0.9,0.4-1.3,0.5c-0.6,0.1-0.9,0.4-1.3,0.8c-0.2,0.1-0.3,0.3-0.4,0.5
		c-0.1,0.2-0.2,0.5-0.1,0.7c0.2,0.3,0.5,0.4,0.8,0.3c0.3,0,0.5-0.1,0.8-0.1c0.4,0,0.7-0.1,1-0.2c0.4,0,0.7,0.2,0.9,0.5
		c0.1,0.1,0.1,0.3,0.1,0.5c-0.1,0.3-0.2,0.5-0.4,0.8c-0.5,0.4-1,0.8-1.5,1.2c-0.3,0.2-0.6,0.4-0.9,0.5c-0.2,0.1-0.5,0.2-0.7,0.4
		c-0.1,0.1-0.2,0.1-0.3,0.1c-0.4,0.1-0.9,0.2-1.3,0.2c-0.4,0-0.7,0-1.1,0.1c0,0,0,0,0,0c-0.3,0-0.7,0-1,0.1c-0.6,0.1-1.1,0-1.6-0.2
		c-0.7-0.2-1.5-0.4-2.2-0.7c-0.3-0.1-0.5-0.2-0.7-0.4c-0.3-0.3-0.7-0.5-0.9-0.8C179.7,93.2,179.4,92.3,179.8,91.2z M178.8,100.3
		c0.1-0.4,0.8-0.7,1.2-0.6c0.2,0,0.4,0.1,0.6,0.2c0.4,0.1,0.7-0.1,0.6-0.5c0-0.4,0-0.7,0.3-1c0,0,0.1-0.1,0.1-0.1
		c0.5-0.2,0.9-0.4,1.4-0.2c0.7,0.2,1.4,0.4,2.2,0.4c0.5,0,1.1,0.1,1.6,0c0.6,0,1.3-0.1,1.9-0.2c0.4-0.1,0.9,0,1.2,0.3
		c0.4,0.3,0.4,1,0.1,1.4c-0.3,0.4-0.6,0.6-1.1,0.6c-0.2,0-0.4,0.1-0.6,0.1c-0.1,0-0.2,0.1-0.3,0.2c-0.2,0.2-0.2,0.5,0,0.7
		c0.1,0.1,0.2,0.2,0.3,0.3c0.2,0.4,0.2,0.7-0.2,1c-0.4,0.3-0.8,0.5-1.3,0.6c-0.2,0-0.4,0.1-0.5,0.1c-0.8,0.1-1.6,0.1-2.4,0
		c-0.5,0-1-0.1-1.5-0.1c-0.4,0-0.8-0.1-1.2-0.3c-0.8-0.3-1.5-0.7-2.1-1.1c-0.2-0.2-0.4-0.5-0.4-0.9
		C178.7,100.8,178.8,100.5,178.8,100.3z"/>
	<path class="st0" d="M193.1,100.2c-0.4,0.2-0.7,0.4-0.9,0.8c-0.3,0.3-0.3,0.5-0.1,0.8c0.2,0.3,0.4,0.4,0.7,0.3c0.7,0,1.4-0.3,2-0.5
		c0.7-0.2,1.3-0.5,2-0.8c0.6-0.2,1.2-0.4,1.8-0.7c1.3-0.6,2.6-1.5,3.9-2c0.5-0.2,1-0.6,1.5-0.9c1.1-0.6,2.1-1.2,3.2-1.8
		c0.2-0.1,0.4-0.3,0.7-0.4c1.3-0.6,2.5-1.4,3.6-2.3c0.7-0.6,1.2-1.2,1.5-2c0.1-0.3,0.2-0.5,0.3-0.8c0.3-0.6,0.3-1.3,0.2-1.9
		c-0.1-0.6-0.2-1.1-0.6-1.6c-0.4-0.6-0.9-1.1-1.4-1.5c-0.1-0.1-0.2-0.1-0.2-0.2c-1-0.6-2-1.2-3-1.8c-0.6-0.4-1.3-0.5-2-0.7
		c-0.6-0.2-1.2,0-1.7-0.1c-0.3,0.1-0.5,0.1-0.8,0.1c-0.4,0.1-0.8,0.2-1.1,0.2c-0.3,0.1-0.3,0.1-0.4,0.4c-0.1,0.6-0.3,1.2-0.6,1.8
		c-0.8,1.4-1.7,2.7-2.7,3.9c-0.1,0.1-0.2,0.3-0.4,0.5c-0.2,0.2-0.1,0.6,0.2,0.6c0.5,0,1.1,0,1.6-0.2c0.8-0.5,1.6-1.1,2.3-1.8
		c0.3-0.3,0.5-0.7,0.9-1.1c0.1-0.1,0.2-0.3,0.3-0.4c0.5-0.8,1.7-1.2,2.5-0.6c0.3,0.2,0.5,0.4,0.8,0.7c0.2,0.2,0.3,0.4,0.3,0.6
		c0,0.6-0.1,1.2-0.2,1.7c-0.1,0.4-0.2,0.7-0.3,1.1c-0.2,0.4-0.5,0.8-0.8,1.2c-0.5,0.7-1.1,1.4-1.7,2c-0.1,0.1-0.2,0.2-0.3,0.4
		c-0.3,0.5-0.8,0.9-1.2,1.3c-0.4,0.4-0.9,0.7-1.4,1c-1.2,0.8-2.5,1.6-3.7,2.4c-0.4,0.2-0.8,0.4-1.1,0.6c-0.6,0.4-1.2,0.6-1.9,0.9
		C194.1,99.6,193.6,99.9,193.1,100.2z"/>
	<path class="st0" d="M181.4,94.8c0.2,0.2,0.4,0.3,0.7,0.4c0.7,0.3,1.5,0.5,2.2,0.7c0.5,0.2,1.1,0.3,1.6,0.2c0.3,0,0.7,0,1-0.1
		c0,0,0,0,0,0c0.4,0,0.7-0.1,1.1-0.1c0.5,0,0.9-0.1,1.3-0.2c0.1,0,0.2-0.1,0.3-0.1c0.2-0.2,0.5-0.3,0.7-0.4c0.3-0.1,0.6-0.3,0.9-0.5
		c0.5-0.4,1-0.7,1.5-1.2c0.2-0.2,0.3-0.5,0.4-0.8c0-0.1,0-0.3-0.1-0.5c-0.2-0.3-0.5-0.5-0.9-0.5c-0.4,0-0.7,0.2-1,0.2
		c-0.3,0-0.5,0-0.8,0.1c-0.3,0.1-0.6,0-0.8-0.3c-0.1-0.2-0.1-0.5,0.1-0.7c0.1-0.2,0.2-0.3,0.4-0.5c0.4-0.4,0.7-0.7,1.3-0.8
		c0.5-0.1,0.9-0.2,1.3-0.5c0.2-0.1,0.4-0.2,0.6-0.3c0.9-0.5,1.5-1.2,1.7-2.2c0-0.3,0.1-0.5,0.2-0.8c0.1-0.6,0-1.2-0.3-1.7
		c-0.1-0.3-0.4-0.3-0.6-0.1c-0.1,0.1-0.2,0.2-0.3,0.3c-0.3,0.4-0.5,0.8-0.9,1.1c-0.1,0.1-0.2,0.2-0.3,0.3c-0.6,0.5-1.3,1-2.2,1.2
		c-0.7,0.2-1.4,0.2-2.1,0.3c-0.2,0-0.5,0-0.7,0c-0.5,0-0.9,0.1-1.4,0.1c-0.2,0-0.4,0.1-0.6,0.1c-0.4,0.1-0.6,0.6-0.5,1
		c0.1,0.2,0.1,0.4,0.1,0.5c0,0.3-0.1,0.5-0.4,0.5c-0.1,0-0.2,0-0.4,0c-0.4-0.1-0.7-0.1-1.1-0.2c-0.4,0-0.9,0-1.3,0
		c-0.5,0-0.9,0.2-1.3,0.5c-0.3,0.2-0.5,0.4-0.7,0.8c-0.1,0.2-0.1,0.3-0.2,0.5c-0.4,1.1-0.1,2,0.7,2.8
		C180.8,94.3,181.2,94.5,181.4,94.8z"/>
	<path class="st0" d="M179.1,102c0.7,0.5,1.4,0.9,2.1,1.1c0.4,0.1,0.8,0.3,1.2,0.3c0.5,0,1,0,1.5,0.1c0.8,0.1,1.6,0,2.4,0
		c0.2,0,0.4-0.1,0.5-0.1c0.5-0.1,0.9-0.3,1.3-0.6c0.3-0.3,0.4-0.6,0.2-1c-0.1-0.1-0.2-0.2-0.3-0.3c-0.2-0.2-0.2-0.5,0-0.7
		c0.1-0.1,0.2-0.2,0.3-0.2c0.2,0,0.4-0.1,0.6-0.1c0.5,0,0.8-0.3,1.1-0.6c0.3-0.4,0.3-1.1-0.1-1.4c-0.4-0.3-0.8-0.4-1.2-0.3
		c-0.6,0.2-1.2,0.2-1.9,0.2c-0.5,0-1.1,0-1.6,0c-0.8,0-1.5-0.1-2.2-0.4c-0.5-0.2-1,0-1.4,0.2c0,0-0.1,0.1-0.1,0.1
		c-0.3,0.3-0.3,0.6-0.3,1c0,0.4-0.3,0.6-0.6,0.5c-0.2-0.1-0.4-0.1-0.6-0.2c-0.4-0.1-1.1,0.2-1.2,0.6c-0.1,0.3-0.2,0.6-0.1,0.9
		C178.7,101.6,178.9,101.9,179.1,102z"/>
</g>
<g>
	<g>
		<path class="st1" d="M134.3,81.2c0.3,0.1,0.5,0.2,0.8,0.4c0.2,0.2,0.5,0.4,0.8,0.7c0.2,0.2,0.3,0.3,0.5,0.5
			c0.4,0.4,0.8,0.9,1.2,1.3c0.2,0.2,0.4,0.4,0.6,0.7c0,0.2,0,0.3,0,0.5c0,0.2-0.1,0.3-0.3,0.5c-0.4,0.4-0.8,0.8-1.1,1.2
			c-0.3,0.4-0.7,0.7-1.1,1.1c-0.1,0.1-0.3,0.3-0.4,0.4c-0.1,0.2-0.3,0.3-0.5,0.5c-0.2,0.2-0.4,0.4-0.5,0.6c-0.2,0.3-0.4,0.6-0.4,0.9
			c0,0.5-0.1,0.9-0.3,1.3c-0.1,0.2-0.1,0.5-0.2,0.7c-0.1,0.7-0.3,1.4-0.4,2.1c-0.1,0.6-0.2,1.1-0.3,1.7c-0.1,0.4-0.2,0.8-0.4,1.2
			c-0.1,0.1-0.2,0.3-0.3,0.5c-0.1,0.3-0.3,0.5-0.5,0.7c-0.1,0.1-0.2,0.3-0.3,0.4c-0.2,0.2-0.4,0.4-0.7,0.6c-0.3,0.2-0.6,0.5-0.9,0.7
			c-0.2,0.2-0.5,0.4-0.7,0.5c-0.4,0.3-0.9,0.5-1.3,0.8c-0.3,0.2-0.6,0.3-0.9,0.4c-0.3,0.1-0.6,0.2-0.9,0.3c-0.6,0.2-1.2,0.5-1.9,0.4
			c-0.1,0-0.1,0-0.2,0c-0.4,0.1-0.9,0-1.3,0c-0.3,0-0.6,0-0.8-0.1c-0.3-0.1-0.6-0.1-1-0.1c-0.4,0-0.7-0.1-1.1-0.1
			c-0.1,0-0.2,0-0.3,0c-0.3,0.1-0.6,0.2-0.9,0.3c-0.2,0.1-0.3,0.2-0.4,0.4c-0.2,0.3-0.4,0.6-0.6,0.9c-0.1,0.1-0.1,0.2-0.1,0.3
			c-0.1,0.4-0.3,0.7-0.4,1.1c-0.2,0.5-0.4,1-0.6,1.5c-0.2,0.4-0.4,0.9-0.7,1.3c-0.2,0.3-0.4,0.6-0.7,0.8c-0.3,0.2-0.5,0.5-0.7,0.7
			c-0.5,0.4-1,0.7-1.6,1c-0.5,0.2-1.1,0.4-1.6,0.7c-0.2,0.1-0.5,0.1-0.7,0.2c-1,0.3-2,0.5-3,0.6c-0.3,0.1-0.6,0-0.9,0
			c-0.3,0-0.5,0-0.8,0.1c-0.5,0-0.9,0.1-1.4,0c0,0,0,0,0,0c-0.4,0.1-0.9-0.1-1.3-0.2c-0.3-0.1-0.6-0.1-0.9-0.1c-0.1,0-0.2,0-0.3,0
			c-0.2,0-0.4,0.1-0.5,0.1c-0.2,0.1-0.4,0.3-0.6,0.4c-0.2,0.1-0.4,0.2-0.4,0.5c0,0.1,0,0.1-0.1,0.2c-0.2,0.1-0.2,0.3-0.3,0.5
			c-0.2,0.4-0.4,0.8-0.5,1.3c-0.2,0.4-0.3,0.7-0.6,1c0,0,0,0,0,0c-0.1,0.5-0.5,0.8-0.7,1.2c-0.2,0.4-0.4,0.7-0.7,1
			c-0.2,0.2-0.4,0.5-0.6,0.7c-0.1,0.2-0.3,0.2-0.5,0.4c-0.3,0.3-0.6,0.4-0.9,0.6c-0.3,0.1-0.6,0.3-0.9,0.4c-0.5,0.2-1,0.3-1.5,0.4
			c-0.6,0.1-1.2,0.2-1.7,0.3c-0.3,0-0.7,0.1-1,0.1c-0.3,0-0.6-0.1-0.9-0.1c-0.6-0.1-1.2-0.1-1.7-0.3c-0.4-0.1-0.7-0.2-1.1-0.3
			c-0.2,0-0.4-0.1-0.6-0.2c-0.5-0.2-1-0.5-1.5-0.7c-0.1,0-0.1-0.1-0.2-0.1c-0.1-0.1-0.2-0.1-0.3-0.2c-0.6-0.2-1-0.6-1.5-1
			c-0.3-0.2-0.5-0.5-0.8-0.7c-0.1-0.1-0.3-0.3-0.5-0.4c0,0-0.1-0.1-0.1-0.1c-0.2-0.2-0.3-0.5-0.6-0.7c-0.3-0.3-0.5-0.7-0.6-1.1
			c-0.1-0.2-0.1-0.4-0.2-0.5c0,0,0-0.1,0-0.1c-0.2-0.4-0.2-0.8-0.4-1.2c-0.1-0.3-0.2-0.7-0.3-1c-0.1-0.2-0.1-0.4-0.2-0.6
			c-0.1-0.4-0.4-0.8-0.6-1.2c-0.2-0.3-0.5-0.3-0.8-0.4c-0.3,0-0.5,0-0.8,0.1c-0.5,0.1-1,0.2-1.5,0.2c-0.5,0-0.9,0-1.4,0.1
			c-0.2,0.1-0.5,0.1-0.7,0.1c-0.1,0-0.2,0-0.3,0c-0.3,0-0.5,0-0.8,0c-0.5,0-1.1-0.1-1.6-0.2c-0.2,0-0.4,0-0.6-0.1
			c-0.4-0.2-0.8-0.4-1.1-0.6c-0.3-0.2-0.6-0.3-0.8-0.5c-0.3-0.3-0.8-0.5-1.2-0.8c-0.4-0.3-0.7-0.6-0.9-1c-0.1-0.2-0.3-0.4-0.4-0.5
			c-0.2-0.3-0.4-0.5-0.6-0.8c-0.2-0.4-0.5-0.9-0.7-1.3c-0.2-0.4-0.3-0.7-0.6-1c-0.3-0.4-0.4-0.8-0.5-1.2c-0.1-0.4-0.2-0.8-0.5-1.2
			c-0.2-0.2-0.3-0.5-0.4-0.8c0-0.1,0-0.1-0.1-0.1c-0.4-0.3-0.8-0.6-1.2-0.9c-0.2-0.2-0.4-0.3-0.6-0.5c-0.3-0.2-0.6-0.5-0.8-0.9
			c0-0.1-0.1-0.1-0.1-0.2c-0.3-0.2-0.3-0.6-0.3-0.9c0-0.2,0-0.3-0.2-0.4c-0.2-0.1-0.3-0.2-0.3-0.4c-0.1-0.2-0.2-0.4-0.2-0.6
			c0-0.1-0.1-0.2-0.1-0.3c-0.3-0.4-0.6-0.8-0.8-1.2c-0.1-0.1-0.1-0.3-0.2-0.5c0-0.2,0-0.5,0-0.7c0.2-0.1,0.2-0.3,0.3-0.5
			c0-0.1,0.1-0.2,0.1-0.3c0-0.1,0.1-0.1,0.1-0.2c0-0.3,0.1-0.6,0.2-0.8c0.1-0.2,0.1-0.3,0.1-0.5c0.1-0.4,0.1-0.7,0.3-1.1
			c0.1-0.3,0.3-0.5,0.5-0.7c0.2-0.3,0.4-0.5,0.6-0.7c0.1-0.1,0.2-0.3,0.4-0.5c0.1-0.1,0.1-0.1,0.2-0.2c0.1,0,0.1-0.1,0.1-0.2
			c0-0.4,0.2-0.5,0.5-0.5c0,0,0,0.1,0,0.1C60,87.7,60,88,60,88.4c0,0,0,0.1,0,0.1c-0.1,0.3-0.1,0.6-0.1,1c0,0.2,0,0.5,0,0.7
			c0,0.4-0.1,0.7-0.2,1.1c0,0.2,0,0.3,0,0.5c0,0.4,0.1,0.7,0.1,1.1c0,0.1,0,0.3,0,0.4c0,0.2,0,0.5,0.1,0.6c0.1,0.3,0.2,0.6,0.3,1
			c0.1,0.2,0.2,0.5,0.4,0.6c0.1,0,0.1,0.1,0.2,0.2c0,0.1,0.1,0.2,0.2,0.2c0.3,0.5,0.7,0.8,1.2,1c0.5,0.2,1,0.5,1.5,0.7
			c0.1,0,0.3,0.1,0.4,0.1c0.6,0.2,1.2,0.3,1.8,0.5c0.6,0.2,1.2,0.3,1.8,0.3c0.3,0,0.6,0,1,0c0.4,0,0.9-0.1,1.3-0.1
			c0.7,0,1.4,0,2.1,0c0.4,0,0.9,0,1.3,0c0.6,0,1.3,0,1.9,0c0.4,0,0.8,0.1,1.1,0.1c0.2,0.1,0.5,0.1,0.7,0.1c0.2,0,0.4,0,0.5,0.1
			c0,0.1,0.1,0.2,0,0.3c-0.1,0.4-0.2,0.7-0.2,1.1c-0.1,0.6-0.1,1.1-0.1,1.7c0,0.4,0,0.8,0.1,1.1c0,0.3,0.1,0.6,0.2,0.9
			c0,0.3,0.1,0.5,0.3,0.8c0.1,0.2,0.3,0.4,0.4,0.7c0.3,0.5,0.6,1,1,1.5c0.2,0.2,0.4,0.3,0.5,0.4c0.4,0.3,0.8,0.5,1.2,0.8
			c0.3,0.1,0.6,0.3,0.9,0.4c0.4,0.2,0.8,0.3,1.2,0.4c0.2,0,0.3,0,0.5,0.1c0.2,0.1,0.5,0.1,0.7,0.1c0.1,0,0.3,0,0.4,0
			c0.4,0.1,0.8,0,1.2,0.1c0.5,0.1,1.1,0.1,1.6,0.3c0.4,0.1,0.8,0.1,1.1,0.2c0.2,0,0.4,0.1,0.6,0.1c0.5,0,1,0.1,1.5,0.1
			c0.5,0,1,0,1.4,0c0.2,0,0.4,0,0.6,0c0.7-0.1,1.3-0.3,2-0.4c0.2,0,0.4-0.1,0.6-0.2c0.4-0.2,0.8-0.5,1.1-0.7
			c0.1-0.1,0.2-0.1,0.3-0.2c0.1-0.2,0.3-0.3,0.5-0.4c0.2-0.2,0.5-0.4,0.7-0.6c0.3-0.2,0.5-0.4,0.8-0.7c0.1-0.1,0.3-0.2,0.4-0.4
			c0.2-0.2,0.4-0.5,0.6-0.7c0.3-0.3,0.5-0.6,0.8-0.9c0.1-0.1,0.2-0.2,0.2-0.4c0.2-0.4,0.4-0.7,0.5-1.1c0.1-0.2,0.1-0.3,0.2-0.5
			c0-0.2,0.1-0.4,0.1-0.6c0.1-0.1,0.2-0.1,0.2,0c0.2,0.1,0.4,0.1,0.7,0.2c0.1,0,0.3,0.1,0.4,0.1c0.4,0.1,0.7,0.1,1.1,0.1
			c0.2,0,0.4,0,0.6-0.1c0.1,0,0.2,0,0.3-0.1c0.2,0,0.5,0,0.7-0.1c0.5-0.2,1-0.5,1.3-0.9c0-0.1,0.1-0.1,0.1-0.1
			c0.2-0.2,0.5-0.4,0.7-0.6c0.3-0.3,0.6-0.6,1.1-0.8c0.2-0.1,0.3-0.2,0.5-0.3c0.4-0.1,0.8-0.3,1.2-0.4c0.2,0,0.4-0.1,0.6-0.1
			c0.1,0,0.2-0.1,0.3-0.1c0.3-0.1,0.7-0.2,1-0.3c0.5-0.2,1-0.4,1.5-0.6c0.3-0.2,0.6-0.2,0.9-0.3c0.3-0.1,0.7-0.2,1-0.4
			c0.3-0.1,0.5-0.3,0.8-0.4c0.2-0.1,0.4-0.2,0.5-0.3c0.3-0.2,0.6-0.4,0.8-0.6c0.1-0.1,0.3-0.2,0.4-0.3c0.1-0.1,0.2-0.2,0.3-0.3
			c0.4-0.4,0.8-0.8,1.2-1.2c0.1-0.1,0.3-0.2,0.4-0.4c0.1-0.1,0.2-0.2,0.3-0.2c0.4-0.2,0.9-0.4,1.3-0.6c0,0,0.1,0,0.1,0
			c0.3-0.1,0.5-0.3,0.8-0.4c0.5-0.2,1-0.5,1.5-0.8c0.1-0.1,0.2-0.2,0.3-0.2c0.3-0.1,0.5-0.4,0.8-0.5c0.4-0.3,0.9-0.5,1.4-0.7
			c0.5-0.2,1-0.3,1.5-0.4c0.3-0.1,0.7-0.1,1-0.2c0.1,0,0.2-0.1,0.3-0.1c0.6-0.1,1.2-0.3,1.8-0.6c0.2-0.1,0.3-0.3,0.5-0.4
			c0.2-0.2,0.4-0.3,0.6-0.5c0.5-0.4,0.9-0.9,1.2-1.5c0.2-0.4,0.4-0.8,0.5-1.2c0.1-0.4,0.2-0.9,0.2-1.3c0,0,0-0.1,0-0.1
			c0.1-0.1,0.1-0.3,0-0.4c0-0.3,0.1-0.6,0.1-0.9c0-0.1,0-0.3,0-0.4c0-0.2,0-0.4,0.1-0.5C134.5,81.6,134.3,81.4,134.3,81.2
			C134.3,81.2,134.3,81.2,134.3,81.2z"/>
		<path class="st5" d="M138.2,85.2c0-0.2,0-0.3,0-0.5c0,0,0,0,0,0C138.2,84.8,138.2,85,138.2,85.2L138.2,85.2L138.2,85.2z"/>
		<path class="st3" d="M104.3,102.4c-0.2,0.1-0.4,0.1-0.6,0.1c-0.4,0-0.7,0-1.1-0.1c-0.1,0-0.3-0.1-0.4-0.1
			c-0.2-0.1-0.5-0.1-0.7-0.2c-0.1-0.1-0.2,0-0.2,0c0,0,0,0,0-0.1c0-0.4,0-0.9,0.1-1.3c0-0.3,0-0.5,0-0.8c-0.1-0.3-0.3-0.6-0.5-0.9
			c-0.2-0.2-0.4-0.4-0.7-0.4c-0.3,0-0.5,0.1-0.7,0.1c-0.4,0.1-0.8,0.4-1,0.7c-0.2,0.3-0.5,0.5-0.7,0.8c-0.2,0.3-0.5,0.5-0.6,0.9
			c0,0.1-0.1,0.2-0.2,0.3c-0.1,0.1-0.2,0.2-0.3,0.3c-0.3,0.3-0.5,0.7-0.8,1c-0.1,0.1-0.2,0.3-0.3,0.4c-0.3,0.5-0.7,0.8-1.1,1.1
			c-0.1,0.1-0.3,0.2-0.4,0.2c-0.3,0.2-0.6,0.3-0.8,0.5c-0.4,0.2-0.8,0.4-1.2,0.6c-0.4,0.2-0.9,0.3-1.3,0.5c-0.2,0.1-0.4,0.1-0.5,0.2
			c-0.2,0.1-0.3,0.1-0.5,0.1c-0.4,0-0.8,0-1.3-0.1c-0.4,0-0.8,0-1.2,0c-0.2,0-0.5,0.1-0.7,0.1c-0.5,0.1-0.9,0-1.4,0
			c-0.1,0-0.2,0-0.3,0c-0.3,0-0.5-0.1-0.7-0.2c-0.4-0.1-0.8-0.1-1.1-0.3c-0.1,0-0.2-0.1-0.3-0.1c-0.5-0.1-1-0.2-1.5-0.2
			c-0.5,0-1,0-1.5,0.1c-0.3,0.1-0.5,0.3-0.4,0.6c0,0.1,0,0.3,0,0.4c-0.4-0.5-0.7-1-1-1.5c-0.1-0.2-0.3-0.4-0.4-0.7
			c-0.1-0.2-0.2-0.5-0.3-0.8c0-0.3-0.1-0.6-0.2-0.9c-0.1-0.4-0.1-0.8-0.1-1.1c0.1-0.6,0.1-1.1,0.1-1.7c0-0.4,0.2-0.8,0.2-1.1
			c0-0.1,0-0.2,0-0.3c0-0.1,0.1-0.2,0.1-0.3c0.1-0.3,0.3-0.6,0.3-0.9c0-0.2,0.1-0.4,0.1-0.5c0.2-0.5,0.3-1,0.5-1.5
			c0.1-0.2,0.3-0.5,0.3-0.7c0.1-0.4,0.3-0.8,0.5-1.2c0.2-0.3,0.4-0.7,0.6-1c0.1-0.2,0.3-0.3,0.4-0.5c0.1-0.2,0.2-0.4,0.3-0.5
			c0.2-0.2,0.4-0.5,0.5-0.8c0.2-0.3,0.4-0.6,0.7-0.9c0.2-0.2,0.4-0.3,0.6-0.5c0.3-0.3,0.3-0.6,0.2-0.9c-0.1-0.3-0.2-0.6-0.3-0.9
			c0-0.2,0-0.3-0.1-0.5c-0.1-0.4-0.2-0.8-0.3-1.1c-0.1-0.3-0.2-0.6-0.3-1c-0.1-0.4-0.3-0.8-0.4-1.2c-0.1-0.5-0.3-0.9-0.6-1.4
			c-0.2-0.3-0.3-0.3-0.6-0.1c-0.3,0.2-0.5,0.4-0.7,0.7c-0.3,0.4-0.7,0.8-1.1,1.2c-0.4,0.5-0.9,1.1-1.2,1.7c0,0.1-0.1,0.1-0.1,0.2
			c-0.2,0.2-0.3,0.4-0.5,0.6c-0.3,0.5-0.6,1.1-0.9,1.6c-0.2,0.3-0.4,0.7-0.4,1c-0.1,0.5-0.2,1-0.5,1.5c-0.1,0.2-0.2,0.4-0.3,0.5
			c-0.2,0.3-0.3,0.7-0.5,1c-0.1,0.1-0.1,0.2-0.2,0.3c0,0.2-0.2,0.4-0.3,0.4c-0.1,0-0.1,0.1-0.2,0.1c-0.2,0.1-0.5,0.2-0.7,0.3
			c-0.3,0.1-0.5,0.2-0.8,0.3c-0.8,0.2-1.6,0.3-2.4,0.5c-0.4,0.1-0.7,0.2-1.1,0.1c-0.4-0.1-0.7-0.2-1.1-0.5c-0.2-0.2-0.5-0.3-0.8-0.4
			c-0.2-0.1-0.5,0-0.7,0c-0.5,0-0.9,0.1-1.4,0.1c-0.5,0-0.9,0.1-1.4,0.1c0,0-0.1,0-0.1,0c-0.3,0.1-0.6,0.2-0.9,0.2
			c-0.4,0.1-0.8,0.3-1,0.6c-0.1,0.2-0.2,0.3-0.2,0.5c0,0.3,0.1,0.6,0.1,0.9c-0.1,0-0.1-0.1-0.2-0.2c-0.1-0.1-0.1-0.1-0.2-0.2
			c-0.2-0.1-0.3-0.4-0.4-0.6c-0.1-0.3-0.1-0.7-0.3-1c-0.1-0.2-0.1-0.4-0.1-0.6c0-0.1,0-0.3,0-0.4c0-0.4-0.1-0.8-0.1-1.1
			c0-0.2,0-0.3,0-0.5c0.1-0.4,0.1-0.7,0.2-1.1c0-0.2,0-0.5,0-0.7c0-0.3,0-0.6,0.1-1c0,0,0-0.1,0-0.1c0-0.3,0-0.7,0.1-1
			c0,0,0-0.1,0-0.1c0.1-0.5,0.3-1,0.4-1.5c0.1-0.3,0.1-0.7,0.2-1c0.1-0.5,0.3-1,0.6-1.5c0,0,0-0.1,0.1-0.1c0.2-0.4,0.4-0.8,0.7-1.1
			c0.1-0.1,0.2-0.3,0.3-0.5c0.1-0.3,0.3-0.5,0.5-0.7c0.2-0.2,0.3-0.4,0.5-0.7c0.4-0.6,0.9-1.1,1.4-1.6c0.2-0.1,0.3-0.3,0.5-0.4
			c0.4-0.2,0.8-0.5,1.1-0.8c0.2-0.1,0.4-0.2,0.6-0.3c0.3-0.1,0.6-0.2,0.9-0.4c0.5-0.2,1-0.3,1.5-0.4c0,0,0.1,0,0.1,0
			c0.5-0.2,1-0.1,1.5-0.1c0.2,0,0.4,0,0.6,0.1c0.1,0,0.1,0,0.2,0c0.5,0,1.1,0.1,1.6,0c0.2,0,0.4,0,0.5,0.1c0.6,0.2,1.1,0.3,1.7,0.5
			c0.3,0.1,0.6,0.2,0.9,0.3c0.2,0.1,0.5,0.2,0.7,0.4c0,0.1,0.1,0.1,0.1,0.1c0.4,0.3,0.7,0.6,0.9,0.9c0,0.1,0.1,0.1,0.2,0.2
			c0.1,0.1,0.2,0.2,0.3,0.3c0,0,0.1,0.1,0.1,0.1c0-0.1,0-0.1,0-0.2c0-0.3,0.1-0.5,0.2-0.8c0.1-0.3,0.3-0.7,0.3-1
			c0-0.1,0.1-0.2,0.1-0.3c0.1-0.2,0.2-0.4,0.2-0.6c0.1-0.3,0.2-0.6,0.3-0.9c0.2-0.5,0.4-1,0.6-1.5c0.1-0.3,0.3-0.5,0.4-0.7
			c0.2-0.2,0.3-0.5,0.5-0.7c0,0,0-0.1,0.1-0.1c0.4-0.4,0.8-0.9,1.2-1.2c0.2-0.2,0.5-0.4,0.7-0.6c0.2-0.2,0.4-0.4,0.6-0.6
			c0.3-0.2,0.5-0.4,0.9-0.5c0.1,0,0.1-0.1,0.2-0.1c0.3-0.3,0.7-0.4,1.1-0.6c0.5-0.2,1-0.3,1.4-0.5c0.4-0.1,0.8,0,1.2-0.1
			c0.4-0.1,0.8-0.1,1.2-0.1c0.4,0,0.7,0.1,1.1,0.1c0.4,0,0.7,0.1,1.1,0.1c0.2,0,0.4,0,0.6,0.1c0.2,0.1,0.4,0,0.5,0.1
			c0.2,0,0.4,0.1,0.5,0.2c0.1,0,0.2,0.1,0.3,0.1c0.1,0,0.2,0.1,0.3,0.2c0.1,0.2,0.3,0.2,0.5,0.3c0.1,0,0.2,0,0.2,0
			c0.2,0.1,0.4,0.3,0.6,0.4c0.1,0.1,0.2,0.1,0.4,0.2c0.2,0.2,0.4,0.4,0.7,0.5c0.1,0,0.1,0.1,0.2,0.2c0.4,0.5,0.8,0.9,1.1,1.4
			c0.2,0.4,0.5,0.7,0.7,1c0.3,0.4,0.6,0.8,0.8,1.2c0.1,0.2,0.3,0.4,0.4,0.7c0.2,0.2,0.3,0.5,0.4,0.8c0.2,0.6,0.5,1.1,0.7,1.7
			c0.2,0.4,0.4,0.9,0.5,1.3c0.1,0.2,0.1,0.4,0.2,0.5c0.3-0.2,0.5-0.3,0.7-0.5c0.1-0.1,0.3-0.3,0.4-0.4c0.4-0.2,0.8-0.4,1.2-0.5
			c0.5-0.1,0.9-0.2,1.3-0.4c0.2-0.1,0.4-0.1,0.6-0.1c0.8,0,1.6,0,2.3,0c0.2,0,0.4,0.1,0.6,0.2c0.4,0.2,0.7,0.4,1.1,0.5
			c0.1,0,0.3,0.1,0.4,0.2c0.7,0.6,1.4,1.1,2,1.7c0.2,0.2,0.4,0.3,0.7,0.4c0.1,0.1,0.2,0,0.3,0c0.2-0.1,0.3-0.3,0.3-0.5
			c0-0.5,0.2-1,0.3-1.5c0.1-0.4,0.3-0.7,0.4-1.1c0.2-0.6,0.5-1.1,0.9-1.7c0.3-0.4,0.6-0.9,0.8-1.4c0.2-0.5,0.5-0.8,0.7-1.3
			c0.1-0.2,0.2-0.3,0.4-0.4c0.1-0.1,0.2-0.1,0.3-0.2c0.3-0.2,0.5-0.5,0.8-0.7c0.1-0.1,0.2-0.1,0.1-0.2c0.1,0,0.2-0.2,0.4-0.3
			c0.4-0.2,0.8-0.4,1.2-0.5c0.4-0.2,0.8-0.3,1.2-0.5c0.4-0.2,0.9-0.3,1.3-0.3c0.4,0,0.7,0,1.1,0c0.5,0,0.9,0.1,1.3,0.2
			c0.4,0.1,0.8,0.2,1.2,0.3c0.3,0,0.5,0.1,0.8,0.1c0.1,0,0.3,0.1,0.4,0.2c0.6,0.3,1.2,0.6,1.7,0.9c0.1,0.1,0.3,0.2,0.4,0.3
			c0.4,0.4,0.9,0.7,1.3,1.2c0.1,0.2,0.2,0.3,0.3,0.5c0.1,0.1,0.2,0.3,0.3,0.4c0.4,0.5,0.7,0.9,1,1.4c0.2,0.3,0.3,0.5,0.4,0.8
			c0.3,0.7,0.5,1.4,0.8,2.1c0.3,0.7,0.5,1.3,0.7,2c0.1,0.3,0.1,0.5,0.2,0.8c0,0.1,0,0.2,0,0.3c0,0,0,0,0,0c-0.1,0.2,0.2,0.4,0,0.6
			c-0.1,0.2-0.1,0.4-0.1,0.5c0,0.1,0,0.3,0,0.4c0,0.3-0.1,0.6-0.1,0.9c-0.1,0-0.1,0-0.1-0.1c-0.1-0.2,0-0.3-0.1-0.5
			c-0.1-0.2-0.1-0.5-0.1-0.8c0-0.2,0-0.5-0.1-0.7c-0.2-0.6-0.3-1.2-0.4-1.8c-0.1-0.6-0.3-1.1-0.5-1.7c-0.2-0.4-0.3-0.8-0.5-1.1
			c-0.2-0.4-0.5-0.8-0.8-1.2c-0.1-0.2-0.2-0.3-0.4-0.5c-0.2-0.1-0.3-0.3-0.4-0.5c0-0.1-0.1-0.1-0.2-0.2c-0.2-0.2-0.5-0.3-0.8-0.4
			c-0.5-0.2-1-0.1-1.5,0.1c-0.5,0.3-0.5,0.4-0.3,0.9c0.1,0.4,0.3,0.7,0.3,1.1c0,0.5,0,0.9,0.1,1.4c0,0.4-0.1,0.8,0,1.1
			c0,0.5,0,1.1-0.1,1.6c-0.1,0.4-0.2,0.9-0.3,1.3c-0.1,0.3-0.3,0.7-0.5,1c-0.2,0.3-0.4,0.7-0.7,1c-0.5,0.5-1.1,1-1.7,1.5
			c-0.5,0.4-1,0.8-1.4,1.2c-0.4,0.4-0.7,0.8-1,1.3c-0.2,0.4-0.4,0.8-0.5,1.2c-0.1,0.4-0.1,0.7-0.2,1.1c0,0.2,0,0.3-0.1,0.5
			c-0.1,0.2-0.1,0.4-0.2,0.6c-0.1,0.3-0.1,0.7,0,1c0,0.3,0.1,0.6,0.2,0.8c-0.4,0.2-0.9,0.4-1.3,0.6c-0.1,0.1-0.2,0.1-0.3,0.2
			c-0.1,0.2-0.3,0.2-0.4,0.4c-0.4,0.4-0.8,0.8-1.2,1.2c-0.1,0.1-0.2,0.2-0.3,0.3c0-0.1,0-0.1,0-0.2c0.2-0.6,0.3-1.3,0.3-2
			c0-0.6,0-1.2,0-1.8c0-0.3,0-0.5-0.1-0.8c-0.1-0.5-0.1-1.1-0.2-1.6c0-0.3-0.1-0.7-0.1-1c0-0.1,0-0.2-0.1-0.3
			c-0.1-0.4-0.1-0.9-0.3-1.3c0-0.1-0.1-0.1-0.1-0.2c0-0.3-0.5-0.7-0.8-0.7c-0.3,0-0.5,0.1-0.6,0.3c-0.1,0.2-0.1,0.4-0.1,0.6
			c-0.1,0.3,0,0.6-0.1,0.9c0,0.3-0.1,0.5-0.1,0.8c0,0.2-0.1,0.5-0.1,0.7c-0.1,0.3-0.2,0.7-0.4,1c-0.2,0.4-0.3,0.8-0.5,1.2
			c-0.5,0.8-1.1,1.6-1.7,2.3c-0.3,0.3-0.6,0.5-0.9,0.8c-0.3,0.2-0.5,0.5-0.8,0.6c-0.3,0.2-0.7,0.3-1.1,0.5c-0.9,0.3-1.8,0.5-2.8,0.6
			c-0.5,0.1-1,0.3-1.4,0.5c-0.3,0.1-0.6,0.3-0.9,0.4c-0.2,0-0.3,0-0.5,0c-0.2,0-0.3,0.1-0.4,0.2c-0.2,0.3-0.4,0.6-0.5,1
			c-0.2,0.6-0.1,1.2-0.1,1.8c0,0.3,0.1,0.7,0.1,1c0,0.3,0,0.6,0.2,0.9c0,0,0,0.1,0,0.1C104.1,102,104.2,102.2,104.3,102.4z M95,87.6
			C95,87.6,95,87.7,95,87.6C95,87.7,95,87.7,95,87.6c0.4,0.3,0.8,0.5,1.1,0.9c0.3-0.5,0.5-0.9,0.6-1.4c0-0.1,0-0.2,0.1-0.2
			c0.2-0.4,0.4-0.9,0.5-1.4c0.2-0.5,0.5-1,0.7-1.5c0,0,0,0,0,0c0.3-0.3,0.4-0.8,0.7-1.1c0.1-0.2,0.2-0.3,0.3-0.5
			c0.3-0.5,0.7-1,1.1-1.5c0.1-0.1,0.2-0.2,0.1-0.3c0,0,0-0.1,0-0.1c0-0.6-0.1-1.2-0.4-1.8c-0.1-0.4-0.3-0.7-0.6-1
			c-0.2-0.2-0.3-0.5-0.4-0.7c-0.1-0.3-0.2-0.6-0.4-0.9c-0.1-0.2-0.3-0.4-0.3-0.7c-0.2-0.5-0.6-1-1-1.4c-0.1-0.1-0.2-0.1-0.3,0
			c-0.1,0.2-0.2,0.5-0.3,0.8c0,0.1,0,0.2,0,0.2c-0.2,0.3-0.2,0.7-0.4,1c-0.2,0.3-0.3,0.6-0.4,0.9c-0.1,0.2-0.2,0.3-0.3,0.5
			c-0.1,0.1-0.2,0.3-0.3,0.4c-0.2,0.5-0.6,0.8-1,1.2c-0.3,0.3-0.7,0.6-1,0.9c-0.1,0.1-0.2,0.1-0.3,0.1c-0.2-0.3-0.3-0.7-0.4-1.1
			c-0.1-0.7-0.4-1.3-0.8-1.8c-0.1-0.2-0.2-0.3-0.4-0.4c-0.2-0.2-0.5-0.3-0.8-0.4c-0.1,0-0.2-0.1-0.3,0c-0.3,0.1-0.6,0.1-0.9,0.2
			c-0.4,0-0.8,0-1.2,0.1c-0.4,0-0.9,0.1-1.3,0.1c-0.2,0-0.5,0.3-0.4,0.5c0.1,0.2,0,0.4-0.1,0.6c-0.2,0.3-0.2,0.7-0.3,1.1
			c-0.1,0.4-0.1,0.7-0.2,1.1c0,0.3-0.2,0.6-0.3,0.8c-0.3,1-0.6,1.9-0.8,2.9c-0.1,0.4-0.2,0.9-0.2,1.4c0,0.4-0.1,0.9-0.3,1.3
			c-0.1,0.3-0.2,0.7-0.3,1c0,0,0,0,0,0.1c0.1,0,0.1,0,0.2,0c0.5-0.1,1-0.4,1.6-0.5c0.6-0.2,1.3-0.2,2-0.3c0.2,0,0.5,0,0.7-0.1
			c0.3,0,0.5-0.1,0.8-0.1c0,0,0.1,0,0.1,0c0.2-0.1,0.3-0.1,0.5-0.1c0.3,0,0.5,0,0.8,0.1c0.3,0.1,0.7,0,1,0.2
			c0.2,0.1,0.3,0.1,0.5,0.1c0.6,0.1,1.1,0.3,1.6,0.6C94.2,87.3,94.6,87.4,95,87.6C95,87.7,95,87.7,95,87.6L95,87.6z M107.4,80.2
			c0-0.1,0-0.2,0-0.2c0-0.3-0.2-0.6-0.4-0.8c-0.3-0.2-0.6-0.3-0.9-0.4c-0.2-0.1-0.5-0.1-0.6,0.2c0,0-0.1,0.1-0.1,0.1
			c-0.5,0.1-0.9,0.3-1.4,0.5c-0.4,0.1-0.8,0.4-1.1,0.7c-0.1,0.1-0.1,0.1-0.2,0.1c-0.3,0.2-0.7,0.4-0.9,0.7c-0.4,0.4-0.7,0.9-1.2,1.2
			c0,0-0.1,0.1-0.1,0.1c-0.3,0.4-0.6,0.9-0.7,1.3c0,0.2-0.1,0.3-0.1,0.5c-0.1,0.3-0.1,0.7,0,1c0.1,0.2,0.2,0.4,0.4,0.5
			c0.3,0.2,0.7,0.3,1.1,0.3c0.1,0,0.2,0,0.3-0.1c0.2-0.1,0.3-0.3,0.5-0.4c0.5-0.5,0.9-1,1.4-1.5c0.1-0.1,0.2-0.2,0.3-0.3
			c0.2-0.2,0.4-0.3,0.7-0.5c0.2-0.2,0.5-0.4,0.7-0.5c0.3-0.1,0.6-0.2,0.8-0.4c0.2-0.1,0.4-0.3,0.6-0.4
			C107.1,81.5,107.4,80.9,107.4,80.2z M74.1,78.3c0,0,0-0.1,0-0.2c0.1-0.4-0.4-1.1-0.9-1.2c-0.2,0-0.3-0.1-0.4-0.1
			c-0.5-0.2-1.1-0.2-1.6-0.1c-0.4,0.1-0.7,0.1-1.1,0.1c-0.3,0.1-0.6,0.1-0.9,0.3c-0.1,0.1-0.3,0.1-0.5,0.2c-0.3,0.1-0.5,0.2-0.8,0.4
			c-0.2,0.1-0.3,0.3-0.5,0.4c-0.2,0.2-0.4,0.4-0.6,0.6c-0.2,0.3-0.4,0.7-0.6,1.1c-0.2,0.4-0.3,0.9-0.2,1.4c0.1,0.6,0.4,0.9,1,1
			c0.6,0.1,1.1,0,1.6-0.3c0.2-0.1,0.4-0.3,0.4-0.6c0,0,0-0.1,0-0.1c0.1-0.1,0.2-0.2,0.3-0.3c0.4-0.2,0.8-0.4,1.2-0.6
			c0.3-0.2,0.6-0.2,0.9-0.2c0.4,0,0.7-0.1,1.1-0.2c0.3-0.1,0.5-0.1,0.7-0.3C73.8,79.2,74.1,78.9,74.1,78.3z M83.6,93.9
			c0.1,0,0.2,0,0.3,0c0.2,0,0.4,0,0.6-0.2c0.2-0.1,0.4-0.3,0.5-0.4c0.5-0.3,1-0.6,1.4-1c0.5-0.3,1-0.6,1.5-0.8
			c0.2-0.1,0.5-0.1,0.7-0.1c0.3-0.1,0.6-0.2,0.9-0.3c0.2,0,0.3-0.1,0.4-0.3c0.1-0.2,0.2-0.4,0.3-0.6c0.1-0.4,0.1-0.8-0.3-1.1
			c-0.2-0.2-0.4-0.3-0.6-0.4c-0.2-0.1-0.5-0.2-0.8-0.3c-0.4-0.1-0.8-0.1-1.1,0c-0.2,0.1-0.3,0.1-0.5,0.1c-0.3,0-0.5,0-0.8,0.2
			c0,0-0.1,0.1-0.2,0.1c-0.1,0.1-0.3,0.1-0.4,0.2c-0.5,0.2-0.9,0.6-1.3,0.8c-0.1,0.1-0.2,0.2-0.4,0.3c-0.2,0.2-0.4,0.4-0.6,0.6
			c-0.4,0.3-0.7,0.6-0.9,1c-0.1,0.1-0.2,0.3-0.2,0.5c0,0.3,0,0.5,0,0.8c0,0.5,0.4,0.9,1,0.9C83.4,93.9,83.5,93.9,83.6,93.9z
			 M123.1,73.1c0-0.1,0-0.2,0-0.2c0-0.2-0.1-0.4-0.3-0.5c-0.2-0.1-0.4-0.2-0.7-0.3c-0.2,0-0.4-0.1-0.6-0.1c-0.5-0.2-1,0-1.4,0.2
			c-0.5,0.3-1.1,0.6-1.6,1c-0.2,0.1-0.3,0.3-0.5,0.4c-0.5,0.4-1,0.8-1.3,1.5c-0.1,0.2-0.1,0.3-0.2,0.5c-0.2,0.3-0.3,0.6-0.2,1
			c0,0.3,0.1,0.6,0.3,0.8c0.2,0.3,0.4,0.5,0.7,0.7c0.2,0.1,0.4,0.1,0.6,0c0.1-0.1,0.3-0.1,0.4-0.2c0.1,0,0.1,0,0.2-0.1
			c0.4-0.2,0.8-0.5,1.1-0.8c0.2-0.2,0.3-0.4,0.5-0.6c0.4-0.4,0.8-0.9,1.1-1.3c0.1-0.1,0.2-0.2,0.3-0.3c0.4-0.4,0.9-0.7,1.3-1.1
			C123,73.6,123.1,73.4,123.1,73.1z M84.9,75.3c0.3,0.1,0.6-0.1,0.8-0.3c0.2-0.2,0.4-0.5,0.7-0.7c0.1-0.1,0.2-0.2,0.2-0.3
			c0.2-0.3,0.4-0.5,0.6-0.8c0.4-0.4,0.9-0.8,1.5-1c0.1,0,0.2-0.1,0.3-0.2c0.2-0.1,0.3-0.2,0.5-0.3c0.3-0.2,0.5-0.4,0.7-0.6
			c0.2-0.3,0.3-0.8,0.1-1c-0.3-0.4-0.7-0.6-1.2-0.6c-0.2,0-0.5,0-0.7,0c-0.4,0-0.9,0.1-1.3,0.2c-0.5,0.1-1,0.4-1.4,0.7
			c-0.1,0.1-0.3,0.1-0.4,0.2c-0.3,0.2-0.6,0.5-0.9,0.9c-0.2,0.2-0.3,0.4-0.4,0.6c-0.2,0.4-0.1,0.8-0.2,1.3c0,0.1,0,0.2,0,0.3
			c0,0.1,0,0.2,0,0.3c0.1,0.2,0.1,0.5,0.2,0.7C84.1,75.3,84.4,75.3,84.9,75.3z"/>
		<path class="st1" d="M118.4,71.2c0.1,0.1-0.1,0.2-0.1,0.2c-0.2,0.3-0.5,0.5-0.8,0.7c-0.1,0.1-0.2,0.2-0.3,0.2
			c-0.2,0.1-0.3,0.2-0.4,0.4c-0.2,0.5-0.5,0.8-0.7,1.3c-0.2,0.5-0.5,0.9-0.8,1.4c-0.3,0.5-0.6,1.1-0.9,1.7c-0.1,0.4-0.3,0.7-0.4,1.1
			c-0.1,0.5-0.3,1-0.3,1.5c0,0.3-0.2,0.4-0.3,0.5c-0.1,0.1-0.2,0.1-0.3,0c-0.2-0.1-0.5-0.2-0.7-0.4c-0.7-0.6-1.3-1.2-2-1.7
			c-0.1-0.1-0.2-0.2-0.4-0.2c-0.4-0.1-0.7-0.3-1.1-0.5c-0.2-0.1-0.4-0.2-0.6-0.2c-0.8,0-1.6,0-2.3,0c-0.2,0-0.4,0-0.6,0.1
			c-0.4,0.2-0.9,0.3-1.3,0.4c-0.4,0.1-0.8,0.3-1.2,0.5c-0.2,0.1-0.3,0.3-0.4,0.4c-0.2,0.2-0.5,0.4-0.7,0.5c-0.2-0.1-0.2-0.4-0.2-0.5
			c-0.1-0.5-0.3-0.9-0.5-1.3c-0.2-0.6-0.5-1.1-0.7-1.7c-0.1-0.3-0.2-0.5-0.4-0.8c-0.1-0.2-0.3-0.4-0.4-0.7c-0.2-0.4-0.6-0.8-0.8-1.2
			c-0.2-0.3-0.5-0.6-0.7-1c-0.2-0.6-0.7-1-1.1-1.4c-0.1-0.1-0.1-0.1-0.2-0.2c-0.3-0.1-0.5-0.3-0.7-0.5c-0.1-0.1-0.2-0.1-0.4-0.2
			c-0.2-0.1-0.4-0.3-0.6-0.4c0.7,0,1.3-0.3,1.8-0.7c0.1-0.1,0.2-0.2,0.3-0.3c0.1-0.1,0.2-0.2,0.3-0.2c0.1,0,0.2-0.1,0.3-0.2
			c0.6-0.5,1.3-0.9,1.9-1.3c0.1-0.1,0.3-0.2,0.4-0.3c0.1,0,0.1-0.1,0.2-0.1c0.3-0.2,0.6-0.3,0.9-0.5c0.2-0.1,0.4-0.2,0.6-0.3
			c0.4-0.2,0.8-0.4,1.2-0.7c0.5-0.3,1-0.5,1.5-0.7c0.3-0.1,0.6-0.2,0.9-0.2c0.5-0.1,1.1-0.1,1.6-0.1c0.3,0,0.6,0.1,0.9,0.2
			c0.3,0.1,0.6,0.1,0.8,0.3c0.3,0.2,0.6,0.2,0.9,0.3c0.2,0,0.3,0.1,0.5,0.2c0.2,0.1,0.4,0.2,0.7,0.3c0.3,0.1,0.6,0.3,0.9,0.5
			c0.4,0.2,0.7,0.5,1,0.8c0,0,0.1,0.1,0.1,0.1c0.4,0.1,0.7,0.4,1,0.7c0.2,0.2,0.3,0.4,0.5,0.5c0.2,0.2,0.3,0.3,0.5,0.4
			c0.3,0.1,0.6,0.4,0.9,0.6c0,0,0.1,0.1,0.1,0.1c0.2,0.3,0.5,0.5,0.7,0.7c0.2,0.1,0.3,0.3,0.4,0.4c0.1,0.1,0.2,0.2,0.4,0.3
			c0.1,0,0.1,0,0.2,0.1c0.1,0.1,0.2,0.1,0.3,0.2c0.2,0.1,0.3,0.3,0.4,0.6C118.4,71.1,118.4,71.2,118.4,71.2z"/>
		<path class="st1" d="M79.6,76.4c0,0.2-0.1,0.4-0.2,0.6c0,0.1-0.1,0.2-0.1,0.3c-0.1,0.4-0.2,0.7-0.3,1c-0.1,0.3-0.1,0.5-0.2,0.8
			c0,0.1,0,0.1,0,0.2c-0.1,0-0.1,0-0.1-0.1c-0.1-0.1-0.2-0.2-0.3-0.3c-0.1,0-0.1-0.1-0.2-0.2c-0.3-0.4-0.6-0.7-0.9-0.9
			c0,0-0.1-0.1-0.1-0.1c0.2-0.1,0.3-0.2,0.5-0.3c0.4-0.2,0.8-0.3,1.1-0.5c0.2-0.1,0.5-0.3,0.7-0.4C79.5,76.4,79.5,76.4,79.6,76.4z"
			/>
		<path class="st0" d="M60.9,95.9c0-0.3-0.1-0.6-0.1-0.9c0-0.2,0.1-0.4,0.2-0.5c0.3-0.3,0.6-0.5,1-0.6c0.3-0.1,0.6-0.1,0.9-0.2
			c0,0,0.1,0,0.1,0c0.5,0,0.9-0.1,1.4-0.1c0.5,0,0.9-0.1,1.4-0.1c0.2,0,0.5-0.1,0.7,0c0.3,0.1,0.5,0.2,0.8,0.4
			c0.3,0.3,0.7,0.4,1.1,0.5c0.4,0.1,0.7,0,1.1-0.1c0.8-0.1,1.6-0.3,2.4-0.5c0.3-0.1,0.6-0.1,0.8-0.3c0.2-0.1,0.5-0.2,0.7-0.3
			c0.1,0,0.1-0.1,0.2-0.1c0.2-0.1,0.3-0.2,0.3-0.4c0-0.1,0.1-0.2,0.2-0.3c0.3-0.3,0.4-0.7,0.5-1c0.1-0.2,0.2-0.4,0.3-0.5
			c0.2-0.5,0.4-0.9,0.5-1.5c0-0.4,0.2-0.7,0.4-1c0.3-0.5,0.6-1,0.9-1.6c0.1-0.2,0.3-0.4,0.5-0.6c0-0.1,0.1-0.1,0.1-0.2
			c0.3-0.6,0.7-1.2,1.2-1.7c0.3-0.4,0.7-0.8,1.1-1.2c0.2-0.3,0.5-0.5,0.7-0.7c0.2-0.2,0.4-0.2,0.6,0.1c0.2,0.4,0.4,0.9,0.6,1.4
			c0.1,0.4,0.3,0.8,0.4,1.2c0.1,0.3,0.2,0.6,0.3,1c0.1,0.4,0.2,0.8,0.3,1.1c0,0.2,0,0.3,0.1,0.5c0.1,0.3,0.2,0.6,0.3,0.9
			c0.1,0.3,0.1,0.6-0.2,0.9c-0.2,0.2-0.3,0.4-0.6,0.5c-0.3,0.2-0.5,0.6-0.7,0.9c-0.2,0.3-0.3,0.5-0.5,0.8c-0.1,0.2-0.2,0.4-0.3,0.5
			c-0.1,0.2-0.3,0.3-0.4,0.5c-0.2,0.3-0.4,0.6-0.6,1c-0.2,0.4-0.3,0.8-0.5,1.2c-0.1,0.2-0.2,0.5-0.3,0.7c-0.2,0.5-0.3,1-0.5,1.5
			c-0.1,0.2-0.1,0.4-0.1,0.5c-0.1,0.3-0.2,0.6-0.3,0.9c0,0.1-0.1,0.2-0.1,0.3c-0.2-0.1-0.4-0.1-0.5-0.1c-0.2,0-0.5-0.1-0.7-0.1
			c-0.4-0.1-0.8-0.2-1.1-0.1c-0.7,0-1.3,0-1.9,0c-0.4,0-0.9,0-1.3,0c-0.7,0.1-1.4,0-2.1,0c-0.4,0-0.9,0.1-1.3,0.1c-0.3,0-0.6,0-1,0
			c-0.6,0-1.2-0.1-1.8-0.3c-0.6-0.1-1.2-0.3-1.8-0.5c-0.1,0-0.3-0.1-0.4-0.1c-0.5-0.2-1-0.4-1.5-0.7C61.6,96.7,61.2,96.4,60.9,95.9z
			"/>
		<path class="st0" d="M121.7,93c-0.1-0.3-0.1-0.6-0.2-0.8c-0.1-0.3,0-0.7,0-1c0.1-0.2,0.1-0.4,0.2-0.6c0.1-0.2,0-0.3,0.1-0.5
			c0.1-0.3,0.2-0.7,0.2-1.1c0.1-0.4,0.3-0.8,0.5-1.2c0.3-0.5,0.6-0.9,1-1.3c0.5-0.4,0.9-0.8,1.4-1.2c0.6-0.5,1.2-1,1.7-1.5
			c0.3-0.3,0.5-0.6,0.7-1c0.2-0.3,0.3-0.7,0.5-1c0.2-0.4,0.2-0.9,0.3-1.3c0.1-0.5,0.2-1.1,0.1-1.6c0-0.4,0.1-0.8,0-1.1
			c-0.1-0.5,0-0.9-0.1-1.4c0-0.4-0.2-0.8-0.3-1.1c-0.2-0.5-0.2-0.6,0.3-0.9c0.4-0.2,0.9-0.3,1.5-0.1c0.3,0.1,0.5,0.2,0.8,0.4
			c0.1,0.1,0.2,0.1,0.2,0.2c0.1,0.2,0.3,0.3,0.4,0.5c0.2,0.1,0.3,0.3,0.4,0.5c0.3,0.4,0.6,0.8,0.8,1.2c0.2,0.4,0.4,0.7,0.5,1.1
			c0.2,0.5,0.4,1.1,0.5,1.7c0.1,0.6,0.3,1.2,0.4,1.8c0.1,0.2,0.1,0.5,0.1,0.7c0,0.3,0,0.5,0.1,0.8c0,0.2,0,0.3,0.1,0.5
			c0,0.1,0,0.1,0.1,0.1c0,0.1,0,0.3,0,0.4c0,0,0,0.1,0,0.1c0,0.4-0.1,0.9-0.2,1.3c-0.1,0.4-0.3,0.9-0.5,1.2c-0.3,0.5-0.7,1-1.2,1.5
			c-0.2,0.2-0.4,0.3-0.6,0.5c-0.2,0.1-0.3,0.3-0.5,0.4c-0.6,0.3-1.1,0.5-1.8,0.6c-0.1,0-0.2,0.1-0.3,0.1c-0.3,0.1-0.7,0.1-1,0.2
			c-0.5,0.1-1,0.2-1.5,0.4c-0.5,0.2-0.9,0.4-1.4,0.7c-0.3,0.2-0.5,0.4-0.8,0.5c-0.1,0-0.2,0.1-0.3,0.2c-0.5,0.3-1,0.6-1.5,0.8
			c-0.3,0.1-0.5,0.3-0.8,0.4C121.8,93,121.7,93,121.7,93z"/>
		<path class="st0" d="M79.1,106.9c0.1-0.1,0.1-0.3,0-0.4c0-0.3,0.1-0.5,0.4-0.6c0.5-0.1,1-0.1,1.5-0.1c0.5,0.1,1,0.2,1.5,0.2
			c0.1,0,0.2,0,0.3,0.1c0.4,0.1,0.7,0.2,1.1,0.3c0.3,0,0.5,0.1,0.7,0.2c0.1,0,0.2,0,0.3,0c0.5,0,0.9,0,1.4,0c0.2,0,0.5-0.1,0.7-0.1
			c0.4,0,0.8,0,1.2,0c0.4,0,0.8,0.1,1.3,0.1c0.2,0,0.4-0.1,0.5-0.1c0.2-0.1,0.4-0.1,0.5-0.2c0.4-0.2,0.9-0.4,1.3-0.5
			c0.4-0.2,0.8-0.4,1.2-0.6c0.3-0.1,0.6-0.3,0.8-0.5c0.1-0.1,0.3-0.2,0.4-0.2c0.5-0.3,0.8-0.7,1.1-1.1c0.1-0.1,0.2-0.3,0.3-0.4
			c0.3-0.3,0.6-0.7,0.8-1c0.1-0.1,0.2-0.2,0.3-0.3c0.1-0.1,0.1-0.2,0.2-0.3c0.1-0.3,0.3-0.6,0.6-0.9c0.2-0.3,0.5-0.5,0.7-0.8
			c0.3-0.3,0.6-0.6,1-0.7c0.2-0.1,0.5-0.1,0.7-0.1c0.3,0,0.5,0.2,0.7,0.4c0.2,0.3,0.3,0.6,0.5,0.9c0.1,0.3,0.1,0.5,0,0.8
			c-0.1,0.4-0.1,0.9-0.1,1.3c0,0,0,0.1,0,0.1c-0.1,0.2-0.1,0.4-0.1,0.6c0,0.2-0.1,0.3-0.2,0.5c-0.2,0.4-0.4,0.7-0.5,1.1
			c-0.1,0.1-0.1,0.2-0.2,0.4c-0.2,0.3-0.5,0.6-0.8,0.9c-0.2,0.2-0.4,0.5-0.6,0.7c-0.1,0.1-0.2,0.3-0.4,0.4c-0.3,0.2-0.5,0.4-0.8,0.7
			c-0.2,0.2-0.5,0.3-0.7,0.6c-0.2,0.1-0.3,0.2-0.5,0.4c-0.1,0.1-0.2,0.1-0.3,0.2c-0.4,0.2-0.8,0.5-1.1,0.7c-0.2,0.1-0.4,0.1-0.6,0.2
			c-0.7,0.1-1.3,0.3-2,0.4c-0.2,0-0.4,0-0.6,0c-0.5,0-1,0-1.4,0c-0.5,0-1-0.1-1.5-0.1c-0.2,0-0.4-0.1-0.6-0.1
			c-0.4-0.1-0.8,0-1.1-0.2c-0.5-0.1-1.1-0.1-1.6-0.3c-0.4-0.1-0.8-0.1-1.2-0.1c-0.1,0-0.3,0-0.4,0c-0.2,0-0.5,0-0.7-0.1
			c-0.2-0.1-0.3-0.1-0.5-0.1c-0.4,0-0.8-0.2-1.2-0.4c-0.3-0.1-0.6-0.3-0.9-0.4c-0.4-0.2-0.8-0.5-1.2-0.8
			C79.5,107.2,79.3,107,79.1,106.9z"/>
		<path class="st0" d="M104.3,102.4c-0.1-0.2-0.2-0.3-0.2-0.5c0,0,0-0.1,0-0.1c-0.2-0.3-0.2-0.6-0.2-0.9c0-0.3-0.1-0.7-0.1-1
			c0-0.6-0.1-1.2,0.1-1.8c0.1-0.4,0.3-0.7,0.5-1c0.1-0.1,0.2-0.2,0.4-0.2c0.2,0,0.3,0,0.5,0c0.3,0,0.6-0.2,0.9-0.4
			c0.5-0.2,1-0.4,1.4-0.5c0.9-0.2,1.9-0.3,2.8-0.6c0.4-0.1,0.7-0.3,1.1-0.5c0.3-0.2,0.6-0.4,0.8-0.6c0.3-0.3,0.6-0.5,0.9-0.8
			c0.7-0.7,1.2-1.4,1.7-2.3c0.2-0.4,0.4-0.8,0.5-1.2c0.1-0.3,0.2-0.7,0.4-1c0.1-0.2,0.1-0.4,0.1-0.7c0-0.3,0.1-0.5,0.1-0.8
			c0-0.3,0-0.6,0.1-0.9c0.1-0.2,0-0.4,0.1-0.6c0.1-0.2,0.3-0.3,0.6-0.3c0.3,0,0.8,0.3,0.8,0.7c0,0.1,0,0.1,0.1,0.2
			c0.2,0.4,0.3,0.9,0.3,1.3c0,0.1,0,0.2,0.1,0.3c0.1,0.3,0.1,0.7,0.1,1c0.1,0.5,0.1,1.1,0.2,1.6c0,0.2,0.1,0.5,0.1,0.8
			c0,0.6,0.1,1.2,0,1.8c0,0.7-0.1,1.3-0.3,2c0,0.1,0,0.1,0,0.2c-0.1,0.1-0.3,0.2-0.4,0.3c-0.3,0.2-0.5,0.5-0.8,0.6
			c-0.2,0.1-0.4,0.2-0.5,0.3c-0.3,0.1-0.5,0.3-0.8,0.4c-0.3,0.1-0.7,0.2-1,0.4c-0.3,0.1-0.6,0.2-0.9,0.3c-0.5,0.2-1,0.4-1.5,0.6
			c-0.3,0.1-0.7,0.2-1,0.3c-0.1,0-0.2,0.1-0.3,0.1c-0.2,0.1-0.4,0.1-0.6,0.1c-0.4,0.1-0.8,0.3-1.2,0.4c-0.2,0-0.3,0.2-0.5,0.3
			c-0.4,0.2-0.7,0.5-1.1,0.8c-0.2,0.2-0.5,0.4-0.7,0.6c-0.1,0-0.1,0.1-0.1,0.1c-0.3,0.4-0.8,0.7-1.3,0.9c-0.2,0.1-0.5,0.1-0.7,0.1
			C104.4,102.3,104.4,102.4,104.3,102.4z"/>
		<path class="st1" d="M95,87.6C95,87.7,95,87.7,95,87.6c-0.4-0.2-0.8-0.4-1.2-0.6c-0.5-0.3-1.1-0.5-1.6-0.6c-0.2,0-0.3-0.1-0.5-0.1
			c-0.3-0.1-0.7-0.1-1-0.2c-0.2-0.1-0.5-0.1-0.8-0.1c-0.2,0-0.3,0-0.5,0.1c0,0-0.1,0-0.1,0c-0.3,0-0.6,0.1-0.8,0.1
			c-0.2,0-0.5,0-0.7,0.1c-0.7,0.1-1.3,0.1-2,0.3c-0.5,0.1-1,0.4-1.6,0.5c-0.1,0-0.1,0.1-0.2,0c0,0,0-0.1,0-0.1
			c0.1-0.3,0.2-0.6,0.3-1c0.2-0.4,0.2-0.8,0.3-1.3c0-0.5,0.1-0.9,0.2-1.4c0.3-1,0.5-1.9,0.8-2.9c0.1-0.3,0.2-0.6,0.3-0.8
			c0.1-0.4,0.1-0.7,0.2-1.1c0.1-0.4,0.1-0.7,0.3-1.1c0.1-0.2,0.2-0.4,0.1-0.6c-0.1-0.2,0.2-0.5,0.4-0.5c0.4,0,0.9-0.1,1.3-0.1
			c0.4,0,0.8,0,1.2-0.1c0.3,0,0.6-0.1,0.9-0.2c0.1,0,0.2,0,0.3,0c0.3,0.1,0.5,0.2,0.8,0.4c0.2,0.1,0.3,0.2,0.4,0.4
			c0.3,0.6,0.6,1.2,0.8,1.8c0.1,0.4,0.2,0.8,0.4,1.1c0.1,0.3,0.2,0.6,0.3,0.9c0.1,0.2,0.1,0.5,0.1,0.7c0.1,0.5,0.4,1,0.6,1.6
			c0.1,0.2,0.2,0.4,0.2,0.7c0,0.2,0,0.3,0.1,0.5c0.1,0.2,0.1,0.4,0.2,0.5c0.1,0.4,0.1,0.8,0.3,1.1c0,0.1,0.1,0.2,0.1,0.3
			c0.1,0.4,0.1,0.8,0.3,1.1C95,87.4,95.1,87.5,95,87.6z"/>
		<path class="st0" d="M95,87.6c0-0.1,0-0.2-0.1-0.4c-0.2-0.3-0.2-0.7-0.3-1.1c0-0.1,0-0.2-0.1-0.3c-0.1-0.4-0.2-0.7-0.3-1.1
			c0-0.2-0.1-0.4-0.2-0.5c0-0.2-0.1-0.3-0.1-0.5c0-0.2-0.1-0.5-0.2-0.7c-0.2-0.5-0.5-1-0.6-1.6c-0.1-0.2-0.1-0.5-0.1-0.7
			c-0.1-0.3-0.2-0.6-0.3-0.9c0.1,0,0.2,0,0.3-0.1c0.4-0.3,0.7-0.6,1-0.9c0.4-0.4,0.7-0.7,1-1.2c0.1-0.1,0.2-0.3,0.3-0.4
			c0.1-0.2,0.2-0.3,0.3-0.5c0.1-0.3,0.3-0.6,0.4-0.9c0.2-0.3,0.3-0.7,0.4-1c0-0.1,0-0.1,0-0.2c0-0.3,0.1-0.5,0.3-0.8
			c0.1-0.2,0.1-0.2,0.3,0c0.4,0.4,0.7,0.9,1,1.4c0.1,0.2,0.2,0.4,0.3,0.7c0.2,0.3,0.2,0.6,0.4,0.9c0.1,0.3,0.2,0.5,0.4,0.7
			c0.3,0.3,0.4,0.7,0.6,1c0.2,0.6,0.4,1.2,0.4,1.8c0,0,0,0.1,0,0.1c0.1,0.1,0,0.2-0.1,0.3c-0.4,0.4-0.8,0.9-1.1,1.5
			c-0.1,0.2-0.2,0.3-0.3,0.5c-0.2,0.4-0.4,0.8-0.7,1.1c0,0,0,0,0,0c-0.2,0.5-0.5,1-0.7,1.5c-0.2,0.5-0.3,0.9-0.5,1.4
			c0,0.1-0.1,0.2-0.1,0.2c-0.1,0.5-0.3,0.9-0.6,1.4C95.8,88.2,95.5,87.9,95,87.6C95.1,87.7,95.1,87.7,95,87.6L95,87.6z"/>
		<path class="st0" d="M107.4,80.2c0,0.7-0.4,1.3-1,1.7c-0.2,0.1-0.4,0.2-0.6,0.4c-0.3,0.2-0.5,0.3-0.8,0.4
			c-0.3,0.1-0.5,0.3-0.7,0.5c-0.2,0.2-0.4,0.3-0.7,0.5c-0.1,0.1-0.2,0.2-0.3,0.3c-0.5,0.5-0.9,1-1.4,1.5c-0.1,0.2-0.3,0.3-0.5,0.4
			c-0.1,0.1-0.2,0.1-0.3,0.1c-0.4,0-0.8-0.1-1.1-0.3c-0.2-0.1-0.3-0.3-0.4-0.5c-0.1-0.3-0.1-0.7,0-1c0.1-0.2,0.1-0.3,0.1-0.5
			c0.2-0.5,0.4-0.9,0.7-1.3c0,0,0.1-0.1,0.1-0.1c0.5-0.3,0.8-0.8,1.2-1.2c0.3-0.3,0.6-0.5,0.9-0.7c0.1,0,0.1-0.1,0.2-0.1
			c0.3-0.3,0.7-0.5,1.1-0.7c0.5-0.2,0.9-0.4,1.4-0.5c0.1,0,0.1,0,0.1-0.1c0.1-0.3,0.4-0.3,0.6-0.2c0.3,0.1,0.6,0.2,0.9,0.4
			c0.3,0.2,0.4,0.5,0.4,0.8C107.4,80,107.4,80.1,107.4,80.2z"/>
		<path class="st0" d="M74.1,78.3c0,0.6-0.3,1-0.7,1.3c-0.2,0.1-0.5,0.2-0.7,0.3c-0.4,0.1-0.7,0.2-1.1,0.2c-0.3,0-0.6,0.1-0.9,0.2
			c-0.4,0.2-0.8,0.4-1.2,0.6c-0.1,0.1-0.2,0.2-0.3,0.3c0,0-0.1,0.1,0,0.1c0,0.3-0.2,0.4-0.4,0.6c-0.5,0.3-1,0.4-1.6,0.3
			c-0.6-0.1-0.9-0.4-1-1c-0.1-0.5,0-1,0.2-1.4c0.2-0.4,0.4-0.7,0.6-1.1c0.1-0.2,0.3-0.4,0.6-0.6c0.2-0.1,0.3-0.3,0.5-0.4
			c0.2-0.2,0.5-0.3,0.8-0.4c0.2,0,0.3-0.1,0.5-0.2c0.3-0.1,0.6-0.2,0.9-0.3c0.4-0.1,0.7-0.1,1.1-0.1c0.5-0.1,1.1,0,1.6,0.1
			c0.1,0,0.3,0.1,0.4,0.1c0.5,0.1,1,0.8,0.9,1.2C74.1,78.2,74.1,78.2,74.1,78.3z"/>
		<path class="st0" d="M83.6,93.9c-0.1,0-0.2,0-0.3,0c-0.6,0-0.9-0.5-1-0.9c0-0.3,0-0.5,0-0.8c0-0.2,0.1-0.3,0.2-0.5
			c0.2-0.4,0.5-0.7,0.9-1c0.2-0.2,0.4-0.4,0.6-0.6c0.1-0.1,0.2-0.2,0.4-0.3c0.4-0.3,0.9-0.6,1.3-0.8c0.1-0.1,0.3-0.1,0.4-0.2
			c0.1,0,0.1,0,0.2-0.1c0.2-0.2,0.5-0.2,0.8-0.2c0.2,0,0.4,0,0.5-0.1c0.4-0.1,0.8-0.1,1.1,0c0.3,0.1,0.5,0.1,0.8,0.3
			c0.2,0.1,0.4,0.3,0.6,0.4c0.4,0.3,0.4,0.7,0.3,1.1c-0.1,0.2-0.2,0.4-0.3,0.6c-0.1,0.2-0.3,0.2-0.4,0.3c-0.3,0.1-0.6,0.2-0.9,0.3
			c-0.2,0.1-0.5,0-0.7,0.1c-0.5,0.2-1,0.4-1.5,0.8c-0.5,0.3-0.9,0.6-1.4,1c-0.2,0.1-0.4,0.3-0.5,0.4c-0.2,0.1-0.4,0.2-0.6,0.2
			C83.8,93.9,83.7,93.9,83.6,93.9z"/>
		<path class="st0" d="M123.1,73.1c0,0.3-0.1,0.5-0.3,0.7c-0.4,0.4-0.8,0.8-1.3,1.1c-0.1,0.1-0.2,0.2-0.3,0.3
			c-0.4,0.4-0.7,0.9-1.1,1.3c-0.2,0.2-0.3,0.5-0.5,0.6c-0.3,0.3-0.7,0.6-1.1,0.8c-0.1,0-0.1,0-0.2,0.1c-0.1,0.1-0.3,0.1-0.4,0.2
			c-0.2,0.1-0.4,0.1-0.6,0c-0.3-0.2-0.5-0.4-0.7-0.7c-0.2-0.3-0.2-0.5-0.3-0.8c0-0.4,0-0.7,0.2-1c0.1-0.1,0.2-0.3,0.2-0.5
			c0.3-0.6,0.8-1.1,1.3-1.5c0.2-0.1,0.3-0.3,0.5-0.4c0.5-0.4,1-0.7,1.6-1c0.4-0.2,0.9-0.4,1.4-0.2c0.2,0.1,0.4,0.1,0.6,0.1
			c0.3,0,0.5,0.2,0.7,0.3c0.2,0.1,0.3,0.3,0.3,0.5C123.1,73,123.1,73,123.1,73.1z"/>
		<path class="st0" d="M84.9,75.3c-0.5,0-0.8,0-1-0.7c-0.1-0.2-0.1-0.5-0.2-0.7c0-0.1,0-0.2,0-0.3c0-0.1,0-0.2,0-0.3
			c0.1-0.4,0-0.9,0.2-1.3c0.1-0.2,0.2-0.4,0.4-0.6c0.3-0.3,0.5-0.6,0.9-0.9c0.1-0.1,0.3-0.1,0.4-0.2c0.5-0.2,0.9-0.6,1.4-0.7
			c0.4-0.1,0.8-0.2,1.3-0.2c0.2,0,0.5,0,0.7,0c0.5,0,0.9,0.2,1.2,0.6c0.2,0.2,0.1,0.7-0.1,1c-0.2,0.2-0.4,0.4-0.7,0.6
			c-0.2,0.1-0.3,0.2-0.5,0.3c-0.1,0.1-0.2,0.1-0.3,0.2c-0.6,0.2-1,0.5-1.5,1c-0.2,0.2-0.4,0.5-0.6,0.8c-0.1,0.1-0.2,0.2-0.2,0.3
			c-0.2,0.2-0.4,0.5-0.7,0.7C85.4,75.2,85.2,75.4,84.9,75.3z"/>
		<path class="st6" d="M95,87.6C95.1,87.7,95.1,87.7,95,87.6C95,87.7,95,87.7,95,87.6C95,87.7,95,87.6,95,87.6z"/>
	</g>
</g>
<g>
	<path class="st1" d="M90.1,41.8c-0.8,1-1.6,2-2.5,2.9c-0.1,0.1-0.2,0.2-0.4,0.3c-0.3,0.3-0.7,0.6-1,0.8c-0.6,0.4-1.2,0.9-1.9,1.3
		c-1.8,1-3.4,2.1-5.1,3.2c-1.4,0.9-2.7,1.8-4.1,2.6c-0.1,0-0.2,0.1-0.2,0.1c-0.4,0.3-0.8,0.6-1.3,0.8c-1.3,0.8-2.5,1.6-3.8,2.4
		c-0.7,0.5-1.5,0.9-2.3,1.4c-1.2,0.7-2.4,1.3-3.6,2c-0.6,0.4-1.2,0.8-1.9,1.1c-0.4,0.2-0.8,0.4-1.1,0.7c-0.8,0.5-1.6,1-2.4,1.4
		c-0.9,0.5-1.8,1-2.7,1.5c-0.4,0.2-0.8,0.5-1.2,0.7c-0.1,0-0.1,0.1-0.2,0.1c-0.1,0.1-0.1,0.1,0,0.2c0.2,0.2,0.4,0.5,0.6,0.7
		c0.2,0.1,0.3,0.3,0.4,0.4c0.2,0.2,0.2,0.4,0,0.6c-0.1,0.2-0.4,0.3-0.6,0.1c-0.3-0.2-0.7-0.5-0.9-0.8c-0.1-0.2-0.3-0.3-0.4-0.4
		c-0.1-0.1-0.2-0.1-0.4,0c-0.2,0.1-0.5,0.3-0.7,0.5c-0.6,0.4-1.2,0.8-1.8,1.2c-0.3,0.2-0.6,0.4-0.8,0.6c-0.5,0.4-1.1,0.9-1.6,1.2
		c-0.4,0.2-0.7,0.6-1,0.8c0,0-0.1,0.1-0.1,0.1c-0.2,0.3-0.5,0.5-0.8,0.7c-0.6,0.4-1.1,0.8-1.7,1.3c-0.4,0.4-0.9,0.7-1.3,1.2
		c0,0.2,0.2,0.2,0.3,0.4c0.4,0.4,0.4,0.8,0,1.2c-0.2,0.3-0.5,0.5-0.7,0.8c-0.3,0.4-0.7,0.8-1.1,1.2c-0.5,0.6-1.1,1.1-1.6,1.7
		c-0.3,0.4-0.7,0.7-1,1.1c-0.4,0.5-0.8,1-1.3,1.4c-0.4,0.5-0.9,1-1.3,1.4c-0.3,0.3-0.6,0.7-0.9,1.1c-0.2,0.3-0.4,0.6-0.7,0.8
		c-0.4,0.4-0.7,0.7-1.1,1.1c-0.3,0.4-0.6,0.8-1,1.2c-0.4,0.4-0.7,0.9-1.1,1.3c-1,1.2-2.1,2.4-3.1,3.6c-0.8,1-1.7,1.9-2.5,2.9
		c-0.5,0.6-1,1.1-1.6,1.6c-0.4,0.4-0.9,0.8-1.3,1.3c-0.5,0.6-1,1.1-1.6,1.7c0,0-0.1,0.1-0.1,0.1c-0.9,1-1.9,1.9-2.8,2.8
		c-0.5,0.5-0.9,1-1.4,1.5c-0.5,0.6-1,0.9-1.8,0.8c-0.2,0-0.3,0-0.4-0.1c-0.3-0.1-0.7-0.2-1-0.4c-0.3-0.1-0.6-0.2-0.8-0.6
		c-0.1-0.2-0.3-0.3-0.4-0.4c-0.2-0.2-0.4-0.5-0.5-0.7c-0.2-0.3-0.3-0.6-0.5-1c-0.2-0.3-0.1-0.6-0.1-1c0-0.1,0.1-0.2,0.1-0.3
		c0.2-0.3,0.5-0.5,0.7-0.8c0.1-0.1,0.2-0.2,0.3-0.3c0.4-0.2,0.6-0.6,0.8-0.9c0.2-0.3,0.4-0.5,0.6-0.7c0.2-0.2,0.5-0.4,0.6-0.7
		c0.2-0.3,0.4-0.6,0.7-0.8c0.1-0.1,0.2-0.2,0.3-0.3c0.1-0.1,0.2-0.2,0.3-0.3c0.1-0.1,0.2-0.2,0.3-0.3c0-0.1,0.1-0.2,0.2-0.2
		c0.4-0.5,0.9-1,1.4-1.5c0.2-0.3,0.5-0.5,0.8-0.7c0.2-0.2,0.4-0.4,0.6-0.7c0.1-0.2,0.3-0.3,0.4-0.5c0.3-0.3,0.6-0.7,0.9-1
		c0.6-0.6,1.2-1.3,1.8-1.9c0.1-0.1,0.3-0.3,0.5-0.4c0.2-0.1,0.4-0.3,0.5-0.5c0.5-0.6,1.1-1.2,1.6-1.8c0.5-0.5,1-1,1.3-1.6
		c0.3-0.4,0.6-0.7,0.9-1.1c0.2-0.3,0.5-0.6,0.8-0.8c0.1,0,0.1-0.1,0.2-0.2c0.4-0.6,0.9-1.1,1.4-1.6c0.3-0.1,0.4-0.4,0.7-0.6
		c0.2-0.2,0.4-0.4,0.5-0.6c0.1-0.2,0.2-0.3,0.4-0.5c0.3-0.3,0.5-0.6,0.7-0.9c0.1-0.2,0.3-0.4,0.5-0.6c1-1.1,2-2.2,2.9-3.2
		c0.3-0.3,0.6-0.6,0.8-1c0.2-0.3,0.4-0.5,0.7-0.7c0.3-0.3,0.5-0.6,0.8-0.9c0.1-0.2,0.3-0.4,0.4-0.5c0.2-0.3,0.5-0.4,0.8-0.4
		c0.3,0,0.5,0.2,0.7,0.3c0.1,0.1,0.2,0.1,0.2,0.2c0.2,0.1,0.2,0.1,0.4-0.1c0.3-0.6,0.6-1.1,0.9-1.7c0.4-0.8,0.9-1.5,1.2-2.3
		c0.4-0.9,0.9-1.7,1.4-2.6c0.3-0.5,0.5-1,0.8-1.6c0.5-0.9,0.9-1.9,1.3-2.8c0-0.1,0.1-0.1,0.1-0.2c0.1-0.2,0-0.3-0.1-0.4
		c-0.3-0.2-0.6-0.6-0.9-0.8c-0.1-0.1-0.2-0.1-0.2-0.2c-0.2-0.2-0.1-0.5,0.1-0.7c0.2-0.2,0.4-0.2,0.6,0c0.1,0.1,0.2,0.2,0.3,0.2
		c0.2,0.2,0.4,0.4,0.6,0.5c0.2,0.1,0.3,0.1,0.4-0.1c0.2-0.5,0.4-0.9,0.7-1.4c0.2-0.4,0.5-0.9,0.6-1.3c0.1-0.2,0.2-0.4,0.3-0.5
		c0.7-1.1,1.3-2.2,1.8-3.4c0.3-0.5,0.6-1.1,0.8-1.6c0.2-0.4,0.3-0.7,0.5-1.1c0.4-0.9,0.8-1.7,1.3-2.5c0.1-0.1,0.1-0.3,0.2-0.5
		c0.1-0.3,0.3-0.6,0.4-0.9c0.3-0.6,0.6-1.2,1-1.8c0.6-1,1.1-2.1,1.7-3.1c0.4-0.7,0.7-1.3,1.1-2c0.8-1.5,1.7-3,2.5-4.5
		c0.5-0.9,1.1-1.8,1.6-2.8c0.3-0.6,0.6-1.1,0.9-1.7c0.1-0.3,0.3-0.5,0.4-0.8c0.5-0.8,0.8-1.6,1.4-2.3c0.2-0.3,0.4-0.5,0.5-0.8
		c0-0.1,0.1-0.2,0.2-0.3c0.1-0.1,0.2-0.2,0.2-0.3c0.3-0.6,0.7-1.1,1.1-1.7c0.1-0.1,0.1-0.2,0.2-0.3c0.1-0.2,0.2-0.3,0.4-0.4
		c0.3,0.2,0.5,0.4,0.7,0.6c0,0.1-0.1,0.1-0.1,0.2c-0.2,0.2-0.4,0.5-0.5,0.7c-0.1,0.1-0.1,0.3-0.2,0.5c-0.2,0.3-0.3,0.6-0.5,0.9
		c-0.2,0.4-0.6,0.8-0.8,1.2c-0.2,0.4-0.4,0.8-0.7,1.1c-0.1,0.1-0.1,0.1-0.1,0.2c-0.2,0.3-0.4,0.7-0.6,1.1c-0.3,0.5-0.6,1-0.9,1.6
		c-0.4,0.7-0.9,1.4-1.3,2.1c-0.3,0.5-0.6,1-0.9,1.6c-0.1,0.2-0.3,0.5-0.5,0.7c-0.4,0.6-0.7,1.3-1.1,1.9c-0.5,0.9-1,1.8-1.5,2.7
		c-0.3,0.5-0.5,1-0.8,1.6c-0.5,1-1.1,1.8-1.5,2.8c-0.1,0.2-0.2,0.4-0.3,0.5c-0.1,0.2-0.2,0.4-0.3,0.5c-0.1,0.2-0.3,0.4-0.4,0.7
		c-0.1,0.2-0.2,0.3-0.2,0.4C54,47.1,53.5,48,53,48.9c-0.3,0.5-0.5,1.1-0.7,1.6c0,0,0,0.1,0,0.1c0,0.1,0,0.1,0.1,0.2
		c0.1,0.1,0.1,0,0.2,0c0.1-0.1,0.1-0.2,0.2-0.3c0.3-0.4,0.5-0.9,0.8-1.3c0.3-0.5,0.6-1,0.9-1.5c0.3-0.5,0.5-1,0.7-1.5
		c0.1-0.2,0.1-0.4,0.2-0.6c0.8-1.5,1.8-3,2.7-4.5c0.4-0.7,0.9-1.4,1.4-2.2c0.4-0.6,0.7-1.1,1.1-1.7c0.6-0.9,1.2-1.8,1.7-2.7
		c0.5-0.8,1-1.6,1.4-2.5c0.2-0.4,0.4-0.7,0.6-1.1c0.1-0.2,0.2-0.4,0.4-0.5c0.4-0.6,0.8-1.2,1.2-1.8c0.5-0.7,1-1.5,1.6-2.2
		c0.3-0.4,0.6-0.8,0.9-1.3c0.2-0.4,0.5-0.7,0.8-1.1c0.1,0.1,0.2,0.2,0.3,0.2c0.2,0.1,0.3,0.2,0.5,0.3c-0.2,0.2-0.3,0.4-0.4,0.6
		c-0.2,0.4-0.5,0.7-0.7,1.1c-0.4,0.5-0.8,1-1.1,1.6c-0.6,0.9-1.3,1.8-1.9,2.7c-0.4,0.5-0.7,1.1-1,1.7c-0.5,1-1.2,2-1.7,3
		c-0.5,0.9-1.2,1.8-1.8,2.8c-0.3,0.5-0.7,1.1-1,1.6c-0.1,0.1-0.1,0.2-0.2,0.3c-0.4,0.7-0.9,1.4-1.3,2.1c-0.4,0.5-0.7,1.1-1,1.6
		c-0.1,0.1-0.2,0.2-0.1,0.3c0,0-0.1,0.1-0.1,0.1c0,0-0.1,0.1,0,0.1c0,0,0.1,0,0.1,0c0,0,0.1-0.1,0.1-0.1c0.3-0.5,0.6-1,0.9-1.4
		c0.1-0.1,0.2-0.3,0.2-0.5c0.2-0.2,0.4-0.5,0.6-0.8c0.3-0.5,0.7-1,1-1.5c0.1-0.1,0.2-0.2,0.3-0.4c0.2-0.3,0.4-0.6,0.6-0.9
		c0.3-0.5,0.6-1,1-1.4c0,0,0.1-0.1,0.1-0.1c0.5-0.8,1-1.6,1.5-2.4c0.3-0.5,0.6-0.9,0.9-1.4c0.4-0.7,0.9-1.5,1.4-2.2
		c0.3-0.4,0.6-0.8,0.9-1.2c0.5-0.7,1-1.4,1.5-2c0.1-0.1,0.2-0.3,0.3-0.4c0.4-0.6,0.8-1.1,1.3-1.5c0.1,0,0.1-0.1,0.2-0.2
		c0.2-0.4,0.5-0.6,0.8-0.9c0.3,0.2,0.5,0.5,0.8,0.6c-0.1,0.1-0.3,0.3-0.4,0.4c-0.5,0.5-0.9,1.2-1.4,1.7c0,0-0.1,0.1-0.1,0.2
		c-0.4,0.6-0.8,1.1-1.2,1.6c-0.3,0.4-0.6,0.8-0.8,1.2c-0.2,0.3-0.4,0.6-0.6,0.9c-0.1,0.1-0.1,0.1-0.2,0.2c-0.3,0.4-0.6,0.8-0.9,1.3
		c-0.5,0.7-0.9,1.4-1.4,2c-0.4,0.7-0.8,1.4-1.3,2c-0.3,0.4-0.5,0.7-0.8,1c-0.1,0.1-0.1,0.1-0.2,0.2c-0.4,0.6-0.8,1.2-1.2,1.8
		c-0.7,1.1-1.4,2.1-2.1,3.2c-0.6,1-1.3,2-1.9,3c-0.1,0.1-0.1,0.2-0.2,0.3c-0.4,0.5-0.7,1.1-1.1,1.6c-0.3,0.5-0.6,1-1,1.5
		c-0.3,0.5-0.7,1-1,1.5c0,0,0,0.1-0.1,0.1c-0.1,0.3-0.3,0.5-0.4,0.7c-0.3,0.4-0.5,0.8-0.8,1.1c-0.1,0.1-0.1,0.2-0.2,0.3
		c-0.2,0.4-0.4,0.8-0.7,1.2c-0.1,0.1-0.2,0.3-0.3,0.4c-0.1,0.2-0.2,0.3-0.3,0.5c-0.4,0.7-0.9,1.4-1.3,2c-0.2,0.4-0.4,0.8-0.6,1.1
		c-0.3,0.4-0.5,0.8-0.7,1.2c0,0.1-0.1,0.1-0.1,0.2c0,0.1,0,0.2,0,0.2c0.1,0.1,0.3,0.2,0.4,0.4c0.1,0.1,0.1,0,0.2,0
		c0,0,0.1-0.1,0.1-0.1c0.3-0.5,0.6-1,1-1.4c0.3-0.5,0.6-0.9,0.9-1.4c0.5-0.7,0.8-1.4,1.3-2.1c0-0.1,0.1-0.1,0.1-0.2
		c0.2-0.3,0.3-0.5,0.5-0.8c0.7-1.1,1.4-2.2,2.2-3.3c0.3-0.5,0.7-1,1-1.5c0.5-0.7,0.9-1.4,1.4-2.1c0.4-0.6,0.7-1.1,1.1-1.7
		c0.4-0.6,0.8-1.3,1.3-1.9c0.3-0.4,0.6-0.9,0.9-1.3c0.2-0.3,0.4-0.7,0.7-1c0.4-0.7,0.8-1.4,1.3-2c0.5-0.7,0.9-1.5,1.4-2.3
		c0.2-0.3,0.4-0.6,0.6-0.9c0.4-0.6,0.7-1.1,1.2-1.7c0.5-0.6,0.9-1.3,1.4-2c0.3-0.4,0.7-0.8,0.9-1.2c0.2-0.4,0.5-0.8,0.8-1.2
		c0.2-0.3,0.4-0.6,0.6-0.9c0.4-0.5,0.7-1,1-1.5c0.1-0.1,0.1-0.2,0.2-0.3c0.3-0.4,0.6-0.9,0.9-1.3c0.3-0.5,0.7-0.9,1-1.3
		c0.3,0.2,0.5,0.4,0.7,0.6c-0.2,0.3-0.4,0.5-0.6,0.8c-0.2,0.3-0.4,0.6-0.6,0.8c-0.2,0.4-0.5,0.7-0.7,1.1c-0.3,0.5-0.6,0.9-0.9,1.4
		c-0.4,0.5-0.8,1.1-1.1,1.6c-0.4,0.6-0.8,1.3-1.3,1.9c-0.2,0.3-0.5,0.6-0.7,0.9c-0.5,0.7-1,1.4-1.5,2.1c-0.4,0.6-0.8,1.2-1.1,1.8
		c-0.2,0.4-0.5,0.8-0.7,1.2c-0.4,0.5-0.8,1.1-1.1,1.6c-0.6,0.9-1.2,1.8-1.7,2.7c-0.4,0.6-0.7,1.1-1.1,1.7c-0.3,0.5-0.6,0.9-0.9,1.4
		c-0.3,0.5-0.7,1-1,1.5c-0.5,0.8-1.1,1.6-1.6,2.4c-0.9,1.3-1.7,2.6-2.6,3.9c-0.2,0.2-0.3,0.5-0.5,0.7c0,0.1,0,0.2,0,0.2
		c0.1,0,0.1,0,0.2,0c0,0,0.1-0.1,0.1-0.1c0.9-1,1.8-2,2.7-2.9c0.2-0.2,0.4-0.4,0.6-0.6c0.2-0.3,0.4-0.6,0.7-0.8
		c0.1-0.1,0.1-0.1,0.2-0.2c0.1-0.2,0.3-0.3,0.4-0.5c0.1-0.2,0.3-0.3,0.4-0.5c0.2-0.3,0.5-0.6,0.8-0.9c0.3-0.2,0.5-0.5,0.7-0.8
		c0.2-0.2,0.4-0.5,0.6-0.7c0.3-0.4,0.7-0.7,1-1.1c1-1.1,2-2.2,2.9-3.3c0.6-0.7,1.3-1.4,1.9-2.1c0.5-0.7,1.1-1.3,1.7-1.9
		c0.1-0.1,0.2-0.2,0.2-0.3c0.5-0.8,1.2-1.5,1.8-2.2c0.4-0.5,0.9-1,1.2-1.5c0.1-0.1,0.1-0.1,0.2-0.2c0.1-0.1,0.2-0.2,0.3-0.3
		c0.8-0.9,1.6-1.8,2.5-2.7c0.4-0.4,0.7-0.8,1.1-1.2c0.3,0.2,0.5,0.4,0.7,0.7c-0.3,0.3-0.7,0.7-1,1c-0.8,0.9-1.6,1.7-2.4,2.6
		c-0.1,0.1-0.2,0.2-0.3,0.3c-0.2,0.3-0.5,0.6-0.7,0.9c-0.2,0.2-0.4,0.3-0.5,0.5c-0.2,0.3-0.3,0.6-0.6,0.7c-0.1,0-0.1,0.1-0.1,0.2
		c-0.2,0.3-0.5,0.6-0.7,0.9c-0.5,0.6-1,1.2-1.7,1.8c-0.2,0.2-0.4,0.4-0.6,0.7c-0.1,0.1-0.1,0.2-0.2,0.3c-0.5,0.5-0.9,1-1.4,1.5
		c-0.3,0.4-0.7,0.7-1,1.1c-0.3,0.4-0.6,0.7-0.9,1c-0.3,0.3-0.5,0.5-0.7,0.8c-0.4,0.5-0.8,1-1.3,1.4c-0.3,0.3-0.5,0.6-0.8,0.9
		c0,0,0,0,0,0c-0.5,0.6-1,1.2-1.6,1.7c-0.1,0.1-0.2,0.1-0.2,0.2c-0.1,0.2-0.3,0.4-0.4,0.5c-0.4,0.4-0.8,0.9-1.2,1.3
		c-0.4,0.5-0.9,1-1.4,1.5c-0.3,0.3-0.6,0.6-1,1c-0.9,1-1.7,1.9-2.6,2.9c-1,1.2-2.1,2.4-3.2,3.6c-0.1,0.1-0.3,0.3-0.3,0.5
		c-0.1,0.1-0.1,0.2,0,0.3c0.2,0.2,0.4,0.5,0.7,0.7c0.1,0.1,0.1,0.1,0.2,0.1c0.1,0.1,0.2,0.1,0.3,0c0.1-0.1,0.2-0.1,0.2-0.2
		c0.2-0.3,0.5-0.5,0.7-0.8c1.1-1.3,2.3-2.6,3.4-3.9c0.7-0.8,1.4-1.6,2.1-2.4c0.2-0.3,0.5-0.5,0.8-0.8c0.4-0.4,0.8-0.8,1.2-1.2
		c0.5-0.5,0.8-1.1,1.3-1.6c0.1-0.2,0.3-0.3,0.3-0.5c0-0.1,0.1-0.1,0.2-0.2c0.9-1.1,1.9-2.1,2.8-3.2c0.2-0.2,0.3-0.4,0.5-0.6
		c0.2-0.3,0.5-0.6,0.8-0.9c0.2-0.2,0.5-0.5,0.7-0.7c0.7-0.7,1.3-1.5,2-2.2c0.1-0.1,0.1-0.1,0.2-0.2c0.3-0.5,0.8-0.9,1.2-1.3
		c0.5-0.6,1.1-1.2,1.5-1.9c0.2-0.3,0.4-0.6,0.7-0.8c0.4-0.4,0.7-0.8,1.1-1.2c0.7-0.8,1.3-1.5,2-2.3c0.8-0.9,1.6-1.8,2.5-2.7
		c0.3-0.3,0.6-0.6,0.9-0.9c0.1-0.1,0.2-0.2,0.3-0.2c0.2,0.2,0.4,0.4,0.7,0.6c-0.4,0.4-0.7,0.7-1.1,1.1c-1.5,1.7-3.1,3.3-4.5,5
		c-0.5,0.6-1.1,1.3-1.7,1.9c-0.3,0.3-0.6,0.6-0.8,1c-0.1,0.1-0.2,0.2-0.2,0.3c-1.2,1.3-2.4,2.6-3.5,3.9c-0.6,0.7-1.3,1.4-1.9,2.1
		c-0.1,0.1-0.2,0.3-0.4,0.4c-0.8,0.9-1.7,1.8-2.4,2.8c-0.4,0.5-0.8,1-1.1,1.5c-0.4,0.5-0.7,1-1.2,1.5c-0.2,0.3-0.5,0.5-0.8,0.7
		c-0.9,1-1.8,1.9-2.7,2.9c-0.1,0.1-0.1,0.1-0.1,0.2c0.1,0,0.2-0.1,0.3-0.1c0.5-0.4,0.9-0.7,1.4-1.1c0.5-0.4,1-0.8,1.5-1.1
		c0.5-0.3,0.9-0.6,1.4-0.9c0.7-0.4,1.3-1,1.8-1.6c0.3-0.3,0.5-0.5,0.8-0.7c0.1-0.1,0.2-0.2,0.3-0.3c0.4-0.3,0.8-0.6,1.1-0.9
		c0,0,0,0,0,0c0.4-0.3,0.8-0.6,1.1-0.9c0.7-0.6,1.5-1.3,2.2-1.9c0.9-0.7,1.7-1.4,2.5-2.2c0.5-0.4,1-0.9,1.5-1.3
		c0.4-0.3,0.7-0.5,1-0.8c0.4-0.4,0.8-0.8,1.2-1.1c0.2-0.2,0.4-0.4,0.6-0.6c0.2-0.2,0.5-0.4,0.7-0.7c0.4-0.4,0.9-0.8,1.3-1.2
		c0.5-0.5,1-1,1.5-1.5c0.8-0.8,1.6-1.7,2.4-2.5c0.1-0.1,0.3-0.3,0.4-0.4c0.2,0.2,0.5,0.4,0.7,0.5c-0.1,0.2-0.3,0.4-0.5,0.6
		c-0.7,0.8-1.5,1.5-2.2,2.3c-1,1-1.9,2-3,2.9c-0.6,0.5-1.1,1-1.6,1.5c-0.6,0.6-1.3,1.2-2,1.7c-0.4,0.3-0.7,0.6-1.1,0.9
		c-0.8,0.7-1.6,1.4-2.4,2.1c-0.8,0.6-1.5,1.3-2.3,1.9c-0.7,0.5-1.3,1.1-2,1.6c-0.2,0.1-0.3,0.3-0.5,0.4c-0.8,0.5-1.4,1.1-2.1,1.8
		c-0.5,0.5-1.1,1-1.8,1.4c-0.2,0.1-0.3,0.2-0.5,0.3c-0.7,0.5-1.4,1-2,1.5c-0.6,0.5-1.3,1-1.9,1.4c-0.4,0.3-0.9,0.7-1.3,1
		c-0.4,0.3-0.8,0.7-1.3,1c-0.3,0.2-0.5,0.5-0.8,0.7c-0.4,0.3-0.7,0.6-1.1,0.9c-0.2,0.2-0.5,0.4-0.7,0.5c-0.1,0.1-0.1,0.2,0,0.3
		c0.2,0.2,0.4,0.3,0.6,0.5c0.1,0.1,0.2,0.1,0.3,0c0.1,0,0.1-0.1,0.2-0.1c0.5-0.4,1.1-0.8,1.7-1.2c0.6-0.5,1.3-0.9,1.9-1.4
		c0.4-0.3,0.8-0.6,1.2-0.9c0.6-0.5,1.2-0.9,1.8-1.3c0.7-0.5,1.4-1,2.1-1.5c0.9-0.6,1.8-1.3,2.7-2c0,0,0.1-0.1,0.1-0.1
		c0.4-0.4,0.9-0.8,1.4-1.1c0.2-0.1,0.3-0.2,0.5-0.4c0.4-0.3,0.8-0.7,1.2-1c0.9-0.7,1.7-1.3,2.6-2c1.3-1,2.6-1.9,3.8-3
		c0.6-0.5,1.3-0.9,1.9-1.4c0.7-0.6,1.5-1.1,2.2-1.7c0.6-0.5,1.2-1,1.8-1.5c0.3-0.2,0.5-0.4,0.8-0.7c0.2-0.2,0.4-0.2,0.6-0.4
		c0.3-0.3,0.7-0.5,1-0.8c0.5-0.4,1-0.9,1.6-1.3c0.5-0.4,1.1-0.9,1.6-1.4c0.3-0.3,0.6-0.7,0.9-1.1c0.2,0.2,0.5,0.4,0.7,0.6
		c-0.2,0.3-0.4,0.6-0.7,0.8c-0.7,0.8-1.5,1.4-2.3,2.1c-0.1,0.1-0.2,0.2-0.3,0.3c-0.6,0.5-1.2,1.1-1.8,1.6c-0.7,0.5-1.3,1-2,1.6
		c-0.4,0.3-0.8,0.6-1.2,0.9c-0.2,0.2-0.4,0.4-0.7,0.6c-0.3,0.2-0.7,0.5-1,0.8c-0.3,0.2-0.6,0.5-0.9,0.7c-0.5,0.3-0.9,0.7-1.4,1.1
		c-0.7,0.5-1.3,1.1-2,1.6c-1.4,1.1-2.8,2.1-4.1,3.1c-0.2,0.2-0.5,0.3-0.7,0.6c-0.2,0.2-0.5,0.3-0.6,0.6c0.3-0.1,0.5-0.3,0.7-0.5
		c0.1,0,0.1-0.1,0.2-0.1c2.1-1.4,4.3-2.8,6.4-4.2c0.1-0.1,0.2-0.1,0.3-0.2c0.4-0.2,0.7-0.4,1-0.7c0.2-0.1,0.4-0.2,0.5-0.3
		c0.4-0.3,0.8-0.6,1.2-0.9c0.4-0.3,0.8-0.6,1.2-0.9c0.5-0.3,1-0.6,1.4-0.9c0.9-0.6,1.7-1.2,2.6-1.8c1-0.7,2-1.3,2.9-2.1
		c0.2-0.2,0.4-0.3,0.6-0.5c0.2-0.2,0.4-0.5,0.6-0.7c0.3-0.4,0.7-0.8,1-1.1c0-0.1,0.1-0.1,0.2-0.1c0.2,0.2,0.4,0.4,0.6,0.6
		c0,0.1-0.1,0.2-0.1,0.3c-0.3,0.3-0.5,0.6-0.7,0.9c-0.5,0.6-0.9,1.1-1.5,1.5c-0.8,0.6-1.6,1.3-2.5,1.8c-0.9,0.6-1.7,1.2-2.6,1.8
		c-0.5,0.4-1.1,0.7-1.7,1c-0.3,0.2-0.6,0.4-0.9,0.6c-0.4,0.4-0.9,0.7-1.4,1c-1.1,0.7-2.2,1.4-3.3,2.2c-0.9,0.6-1.7,1.1-2.6,1.7
		c-1.1,0.7-2.2,1.4-3.3,2.1c-1,0.7-2.1,1.4-3.1,2.1c-0.1,0-0.1,0.1-0.2,0.1c-0.1,0.2-0.3,0.3-0.5,0.4c-0.1,0-0.2,0.1-0.3,0.1
		c-0.3,0.2-0.6,0.4-0.8,0.6c-0.5,0.2-1,0.6-1.5,0.9c0,0-0.1,0.1-0.1,0.1c0.1,0,0.2,0,0.2-0.1c0.4-0.3,0.8-0.5,1.2-0.8
		c0.1,0,0.1-0.1,0.2-0.2c0.1,0,0.2-0.1,0.3-0.1c0.3-0.2,0.6-0.4,0.9-0.6c0,0,0.1,0,0.1-0.1c1-0.6,2.1-1.2,3.1-1.8
		c0.9-0.5,1.7-1.1,2.5-1.6c1.6-1,3.2-2,4.8-3c1.2-0.8,2.4-1.5,3.6-2.3c1.6-1.1,3.3-2.1,5-3.1c0.6-0.3,1.1-0.8,1.7-1.1
		c0.4-0.2,0.7-0.5,1-0.8c0.5-0.4,0.9-0.9,1.4-1.4c0.5-0.6,1-1.2,1.5-1.7C89.7,41.3,89.9,41.6,90.1,41.8z M49.9,62.8
		C49.9,62.8,49.9,62.8,49.9,62.8c-0.1-0.1-0.2-0.2-0.3-0.3c-0.1-0.1-0.2-0.1-0.3,0c-0.2,0.3-0.4,0.5-0.6,0.8c-0.3,0.5-0.6,0.9-1,1.4
		c-0.1,0.1-0.2,0.3-0.2,0.4c-0.1,0.1,0,0.2,0.2,0.2c0.1,0,0.2,0,0.3-0.1c0.6-0.4,1.1-0.8,1.7-1.2c0.2-0.2,0.4-0.3,0.6-0.5
		c0.1-0.1,0.1-0.2,0-0.3C50.2,63,50.1,62.9,49.9,62.8z M49.7,65.7c-0.1,0.1-0.2,0.2-0.3,0.3c-0.1,0.1-0.3,0.3-0.3,0.4
		c0,0.1-0.1,0.2,0,0.3c0.1,0.1,0.2,0.1,0.3,0.1c0.1,0,0.1-0.1,0.2-0.1c0.2-0.1,0.4-0.2,0.6-0.4c0.3-0.2,0.5-0.4,0.7-0.5
		c0.4-0.2,0.7-0.5,1.1-0.8c0.2-0.2,0.2-0.2,0-0.4c-0.2-0.2-0.3-0.3-0.5-0.4c-0.2-0.1-0.2-0.1-0.4,0c-0.2,0.2-0.4,0.5-0.7,0.7
		C50.1,65.2,49.9,65.4,49.7,65.7z M47,63.7c0.5-0.6,0.9-1.2,1.4-1.8c0.3-0.3,0.2-0.4-0.1-0.6c0,0-0.1-0.1-0.1-0.1
		c-0.1,0-0.1,0-0.2,0c0,0-0.1,0.1-0.1,0.1c-0.5,0.8-1,1.5-1.5,2.3c0,0.1-0.1,0.2-0.1,0.3c0,0.1,0,0.2,0.1,0.2c0.1,0.1,0.2,0,0.2-0.1
		c0.1,0,0.1-0.1,0.2-0.2C46.9,63.9,47,63.8,47,63.7z"/>
	<path class="st3" d="M77.1,31.5c-0.2-0.2-0.5-0.5-0.7-0.7c0-0.1,0-0.2,0.1-0.2c0.3-0.4,0.5-0.8,0.7-1.2c0.1-0.1,0.1-0.3,0.2-0.4
		c0.1-0.4,0.1-0.8,0.2-1.2c0.1-0.4,0-0.8,0.1-1.2c0,0,0-0.1,0-0.1c-0.1-0.4-0.3-0.7-0.5-1.1c-0.2-0.2-0.3-0.4-0.6-0.5
		c-0.4-0.1-0.8-0.1-1.2,0c-0.3,0.1-0.5,0.2-0.8,0.3c-0.3,0.1-0.5,0.3-0.7,0.5c-0.2-0.2-0.5-0.4-0.7-0.6c0.1-0.1,0.2-0.2,0.2-0.3
		c0.1-0.1,0.1-0.2,0.1-0.3c0-0.1-0.1-0.2-0.2-0.2c-0.2,0-0.3,0.1-0.4,0.2c-0.3,0.3-0.6,0.5-0.8,0.8c0,0-0.1,0.1-0.2,0.1
		c-0.3-0.2-0.5-0.4-0.8-0.6c0-0.2,0.2-0.3,0.2-0.5c0-0.1,0.1-0.2,0-0.2c-0.1-0.1-0.2-0.1-0.3-0.1C71,24,70.9,24,70.8,24
		c-0.2,0.1-0.3,0.2-0.5,0.2c-0.1,0-0.2,0.1-0.2,0.2c-0.1,0.1-0.2,0.2-0.2,0.3c-0.1-0.1-0.3-0.3-0.5-0.3c-0.1-0.1-0.2-0.1-0.3-0.2
		c0-0.1,0-0.2,0.1-0.3c0.2-0.2,0.3-0.6,0.6-0.8c0.2-0.2,0.2-0.4,0.1-0.6c0-0.1-0.1-0.1-0.2-0.1c-0.3,0.1-0.6,0.1-0.9,0.3
		c-0.4,0.2-0.7,0.5-1.1,0.6c-0.2-0.2-0.5-0.4-0.7-0.6c0-0.1,0-0.2,0.1-0.2c0.2-0.3,0.4-0.5,0.6-0.8c0.2-0.3,0.5-0.7,0.7-1
		c0.1-0.2,0.4-0.4,0.5-0.6c0.2-0.3,0.5-0.5,0.8-0.7c0.2-0.1,0.4-0.3,0.5-0.5c0.2-0.4,0.5-0.7,0.9-1c0.3-0.2,0.5-0.5,0.7-0.7
		c0.2-0.2,0.3-0.4,0.5-0.5c0.1,0,0.2-0.1,0.2-0.2c0.2-0.2,0.3-0.4,0.5-0.5c0,0,0.1-0.1,0.1-0.1c0.4-0.5,0.9-0.8,1.4-1.1
		c0.4-0.3,0.8-0.6,1.2-0.9c0.3-0.2,0.6-0.4,0.9-0.6c0.4-0.2,0.7-0.4,1.1-0.6c0.6-0.3,1.3-0.6,1.9-0.8c0.8-0.2,1.7-0.4,2.6-0.6
		c0.1,0,0.1,0,0.2,0c0.5,0,1-0.1,1.5-0.1c0.6-0.1,1.2-0.1,1.8-0.1c0.6,0,1.1,0,1.7,0c0.2,0,0.5,0,0.7-0.1c0.3-0.1,0.6-0.1,0.9-0.2
		c0.1,0,0.2-0.1,0.4-0.1c0.2-0.1,0.5-0.2,0.7-0.2c0.1,0,0.3-0.1,0.4-0.2c0.4-0.2,0.7-0.4,1.1-0.6c0.2-0.1,0.4-0.2,0.5-0.2
		c0.3-0.1,0.5-0.2,0.8-0.4c0.3-0.2,0.6-0.2,0.9-0.3c0.5-0.1,1-0.2,1.5-0.2c0.8-0.1,1.6,0.1,2.4,0.4c0.1,0,0.3,0.1,0.4,0.1
		c0.6,0.2,1.2,0.5,1.7,0.9c0.2,0.1,0.4,0.2,0.6,0.4c0.6,0.6,1,1.3,1.2,2.1c0.1,0.6,0.1,1.2,0.1,1.8c0,0.2,0,0.4-0.2,0.6
		c-0.1,0.1-0.1,0.2-0.1,0.3c0,0.4-0.2,0.9-0.3,1.3c-0.1,0.5-0.3,1-0.5,1.6c0,0,0,0.1-0.1,0.1c-0.2,0.2-0.3,0.6-0.6,0.8
		c-0.1,0.1-0.2,0.2-0.3,0.3c-0.4,0.5-0.9,1-1.5,1.3c-0.3,0.2-0.5,0.5-0.6,0.9c-0.2,0.6-0.3,1.3-0.3,1.9c0,0.1,0,0.2,0,0.4
		c-0.2,0.7,0.1,1.5,0.1,2.2c0,0.1,0,0.2,0,0.3c0.1,0.4,0.1,0.7,0.2,1.1c0,0.4,0.1,0.9,0.2,1.3c0.1,0.5,0.1,0.9,0.1,1.4
		c0,0.3,0,0.7-0.1,1c-0.2,1.1-0.5,2.1-1.1,3.1c-0.2,0.4-0.4,0.7-0.6,1c-0.3,0.5-0.7,1.1-1,1.6c-0.4,0.6-0.8,1.2-1.3,1.7
		c-0.3,0.3-0.6,0.6-0.9,0.9c-0.2,0.2-0.3,0.4-0.6,0.5c-0.1,0-0.1,0.1-0.2,0.2c-0.3,0.4-0.7,0.7-1.1,1c-0.3,0.2-0.6,0.4-0.8,0.6
		c-0.1,0.1-0.1,0.1-0.2,0.1c-0.2-0.2-0.4-0.4-0.7-0.7c0-0.1,0.1-0.2,0.2-0.3c0.1-0.1,0.2-0.3,0.3-0.5c0.1-0.1,0-0.2-0.1-0.3
		c-0.1-0.1-0.2-0.1-0.3,0c-0.2,0.1-0.3,0.3-0.5,0.4c-0.2-0.2-0.4-0.4-0.6-0.6c0-0.1,0-0.2,0.1-0.2c0.2-0.3,0.5-0.6,0.7-0.9
		c0.2-0.3,0.4-0.7,0.6-1c0.2-0.4,0.3-0.9,0.2-1.4c0-0.1-0.1-0.2-0.2-0.2c-0.2-0.1-0.3,0-0.4,0.1c-0.2,0.2-0.4,0.5-0.6,0.7
		c-0.3,0.4-0.8,0.7-1.1,1.1c0,0-0.1,0.1-0.1,0.1c-0.1,0.1-0.2,0.2-0.3,0.3c-0.2-0.2-0.5-0.4-0.7-0.6c0-0.1,0-0.2,0-0.3
		c0.1-0.3,0-0.7,0-1c0-0.3-0.2-0.5-0.4-0.6c-0.2-0.2-0.4-0.1-0.6-0.1c-0.5,0-0.9,0.2-1.4,0.4c-0.3,0.1-0.6,0.3-0.9,0.4
		c-0.1,0-0.1,0.1-0.2,0c-0.2-0.2-0.5-0.3-0.7-0.5c0-0.2,0.1-0.4,0.2-0.5c0.3-0.4,0.6-0.8,0.8-1.2c0.3-0.6,0.6-1.2,0.5-1.9
		c0-0.5-0.2-0.9-0.6-1.2c-0.3-0.2-0.6-0.4-0.9-0.4c-0.1,0-0.2-0.1-0.4,0c-0.6,0.2-1.2,0.5-1.7,1c-0.2,0.2-0.5,0.4-0.7,0.6
		c-0.1,0.1-0.2,0.1-0.3,0.1c-0.2-0.2-0.5-0.3-0.7-0.6c0-0.1,0-0.1,0-0.2c0-0.1,0.1-0.1,0.1-0.2c0.2-0.2,0.4-0.5,0.5-0.7
		c0.1-0.2,0.1-0.4,0.1-0.6c0,0,0-0.1-0.1-0.1c-0.1,0-0.2-0.1-0.2-0.1c-0.3,0-0.7,0.1-0.9,0.3C77.9,30.8,77.5,31.1,77.1,31.5z
		 M90.2,32.6C90.2,32.6,90.2,32.6,90.2,32.6c0.2-0.2,0.4-0.4,0.6-0.6c0.5-0.5,0.9-1,1.1-1.6C92,30.2,92,30,92,29.9
		c0.1-0.4,0-0.6-0.4-0.7c-0.3-0.1-0.4-0.2-0.4-0.4c-0.1-0.4,0-0.8,0.2-1.2c0.3-0.5,0.6-0.9,0.9-1.4c0.1-0.2,0.2-0.3,0.3-0.5
		c0.1-0.3,0.2-0.5,0.3-0.8c0.1-0.4,0.2-0.7,0.4-1.1c0.1-0.4,0.2-0.7,0.3-1.1c0.1-0.5,0.2-1,0.3-1.5c0.1-0.6,0.2-1.2,0.4-1.7
		c0-0.1,0-0.1,0.1-0.2c0,0,0,0,0.1,0c0,0,0.1,0,0.1,0c0,0.1,0.1,0.1,0.1,0.2c0.1,0.6,0.2,1.2,0.2,1.9c0,0.3,0.1,0.7,0.2,1
		c0.1,0.3,0.1,0.6,0.1,0.9c0,0.1,0,0.2,0,0.4c0,0.4,0,0.8-0.2,1.2c0,0.1,0,0.1-0.1,0.2c-0.1,0.7-0.3,1.4-0.5,2
		c-0.1,0.3-0.2,0.7-0.3,1c-0.2,0.4-0.3,0.8-0.5,1.2c-0.2,0.4-0.4,0.9-0.5,1.4c-0.1,0.3-0.1,0.5,0.1,0.8c0.2,0.2,0.2,0.5,0.2,0.8
		c0,0.1,0,0.3,0.1,0.4c0.1,0.2,0.2,0.3,0.4,0.2c0.1,0,0.3-0.1,0.4-0.1c0.3,0,0.5,0.1,0.5,0.3c0,0.1,0,0.2,0,0.2
		c-0.1,0.3-0.2,0.6-0.3,0.8c-0.1,0.1-0.1,0.1-0.1,0.2c-0.1,0.3-0.2,0.5-0.4,0.8c-0.2,0.3-0.2,0.6,0,1c0,0.1,0.1,0.1,0.2,0.2
		c0.3,0.1,0.7,0,0.9-0.3c0.1-0.2,0.2-0.5,0.3-0.7c0.4-0.6,0.7-1.3,1-2c0.4-0.8,0.6-1.6,0.7-2.5c0-0.2,0-0.4,0.1-0.6
		c0-0.6,0.1-1.2,0-1.9c-0.1-0.5-0.1-1-0.1-1.5c0-0.2,0-0.5-0.1-0.7c0-0.2-0.1-0.5-0.1-0.7c0-0.8-0.2-1.6-0.2-2.4c0,0,0-0.1,0-0.1
		c-0.1-0.5-0.1-1-0.2-1.4c0-0.5-0.1-1-0.2-1.4c-0.3-1-0.4-2-0.5-3c0-0.6,0.1-1.2,0-1.7c0-0.1,0-0.1,0-0.2c0.2-0.8,0.3-1.5,0.7-2.2
		c0.2-0.4,0.4-0.7,0.7-0.9c0.2-0.1,0.3-0.2,0.4-0.3c0.2-0.2,0.4-0.3,0.6-0.4c0.2-0.1,0.4-0.1,0.6-0.2c0.3-0.1,0.6-0.2,0.9-0.1
		c0.1,0,0.3,0,0.4,0.1c0,0,0.1,0,0.1-0.1c0-0.1,0-0.1-0.1-0.2c0,0-0.1-0.1-0.1-0.1c-0.5-0.3-1-0.3-1.5-0.1c-0.2,0.1-0.4,0.2-0.6,0.2
		c-0.5,0.2-0.9,0.4-1.2,0.8c-0.1,0.1-0.1,0.1-0.2,0.2c-0.2,0.1-0.4,0.3-0.5,0.5c-0.1,0.1-0.2,0.3-0.3,0.4c-0.3,0.4-0.6,0.9-0.7,1.4
		c-0.1,0.3-0.2,0.6-0.3,0.9c0,0.1-0.1,0.3-0.1,0.4c-0.1,0.5-0.3,0.9-0.5,1.3c-0.1,0.3-0.3,0.7-0.5,0.9c-0.2,0.3-0.4,0.5-0.6,0.8
		c-0.4,0.6-0.7,1.2-1.1,1.8c-0.1,0.1-0.1,0.3-0.2,0.5c-0.3,0.6-0.7,1.1-1,1.7c-0.2,0.3-0.4,0.5-0.6,0.8c-0.4,0.4-0.6,0.9-1,1.3
		c0,0-0.1,0.1-0.1,0.1c-0.1,0.2-0.2,0.4-0.4,0.5c-0.6,0.6-1.1,1.2-1.7,1.9c-0.2,0.3-0.4,0.6-0.6,0.8c-0.1,0.1-0.1,0.2-0.1,0.3
		c-0.1,0.3,0.1,0.4,0.3,0.3c0.1,0,0.3-0.1,0.4-0.1c0.3-0.2,0.6-0.3,0.8-0.6c0.2-0.2,0.4-0.3,0.6-0.4c0.2-0.1,0.4,0,0.5,0.3
		c0,0,0,0.1,0,0.1c0,0.4,0.1,0.8,0.4,1.2c0.2,0.2,0.3,0.6,0.2,0.9c-0.1,0.3-0.2,0.7-0.4,1c-0.2,0.3-0.4,0.7-0.7,0.9
		c-0.1,0.1-0.2,0.2-0.2,0.3c-0.1,0.3-0.3,0.5-0.5,0.7c-0.1,0.2-0.2,0.4-0.3,0.5c-0.2,0.4,0,1,0.3,1.2c0,0,0.1,0.1,0.2,0.1
		c0.3,0.1,0.6,0.1,0.9,0c0.4-0.2,0.8-0.5,1.1-0.8C89.5,33.3,89.8,33,90.2,32.6z M89.2,21.6c0.5-0.6,1.2-1.2,1.6-1.9
		c0.2-0.4,0.5-0.7,0.7-1.1c0.1-0.3,0.3-0.5,0.4-0.8c0.5-0.8,0.8-1.6,0.9-2.5c0-0.3,0.1-0.5,0.2-0.8c0.3-0.7,0.7-1.3,1-2
		c0,0,0-0.1,0.1-0.1c0.4-0.5,0.9-1,1.4-1.4c0.4-0.3,0.9-0.5,1.4-0.6c0.3-0.1,0.5-0.1,0.8-0.2c0.1,0,0.1-0.1,0.1-0.1
		c0-0.1-0.1-0.1-0.1-0.1c-0.1,0-0.3,0-0.5,0c-0.6-0.1-1.2,0.1-1.8,0.3c-0.4,0.2-0.8,0.4-1.2,0.6c-0.6,0.3-1,0.8-1.4,1.4
		c-0.3,0.5-0.5,1-0.7,1.5c-0.1,0.3-0.2,0.6-0.4,0.8c-0.3,0.4-0.5,0.9-0.8,1.3c-0.3,0.4-0.5,0.9-0.7,1.4c-0.2,0.3-0.3,0.6-0.6,0.9
		c-0.2,0.3-0.4,0.5-0.7,0.7c-0.1,0.1-0.3,0.2-0.3,0.3c-0.1,0.2-0.3,0.3-0.4,0.4c-0.4,0.2-0.6,0.5-1,0.7c-0.1,0.1-0.3,0.2-0.4,0.3
		c-0.2,0.2-0.4,0.3-0.6,0.4c-0.1,0-0.2,0.1-0.2,0.1c-0.4,0.2-0.8,0.5-1.2,0.7c-0.5,0.3-0.9,0.6-1.3,0.9c-0.1,0.1-0.2,0.2-0.3,0.2
		c-0.2,0.1-0.5,0.1-0.7,0c-0.3,0-0.5-0.1-0.5-0.4c-0.1-0.5,0-1,0.2-1.5c0.1-0.1,0.2-0.2,0.3-0.3c0.3-0.3,0.6-0.8,1-1
		c0.1-0.1,0.1-0.2,0.2-0.2c0.1-0.2,0.1-0.5,0.1-0.8c0-0.3-0.1-0.5-0.4-0.7c-0.4-0.3-0.9-0.5-1.4-0.2c-0.2,0.1-0.5,0.1-0.7,0.2
		c-0.5,0.2-1.1,0.3-1.5,0.7c-0.1,0.1-0.2,0.2-0.3,0.2c-0.5,0.4-1,0.8-1.4,1.3c-0.2,0.3-0.5,0.6-0.7,0.9c-0.2,0.3-0.3,0.7-0.3,1
		c0,0.3,0.1,0.5,0.3,0.7c0.3,0.3,0.6,0.6,1,0.7c0.2,0.1,0.5,0.1,0.7,0.3c0.2,0.1,0.4,0.3,0.6,0.4c0.2,0.1,0.3,0.2,0.4,0.4
		c0.3,0.4,0.5,0.8,0.7,1.1c0.3,0.4,0.6,0.7,1.2,0.8c0.3,0,0.6,0,0.9,0c0.3,0,0.6-0.1,0.8-0.2c0.4-0.2,0.7-0.4,1.1-0.6
		c0.8-0.4,1.5-1,2.1-1.7c0.1-0.2,0.3-0.3,0.4-0.5c0.3-0.2,0.5-0.4,0.7-0.6C88.4,22.5,88.7,22.1,89.2,21.6z M81.7,12.9
		c0,0-0.1,0.1-0.1,0.1c-0.1,0.1-0.1,0.2-0.1,0.3c0.1,0.2,0.2,0.4,0.5,0.5c0.3,0.1,0.5,0.2,0.8,0.2c0.2,0,0.4,0,0.6,0
		c0.2,0,0.3,0,0.5,0.1c0.2,0.1,0.3,0.2,0.5,0.3c0.2,0.1,0.3,0.2,0.5,0.2c0.3,0.1,0.5,0.1,0.8,0.1c0.3,0,0.5,0,0.7,0.2
		c0.1,0,0.1,0.1,0.1,0.1c0.1,0.3,0.3,0.5,0.4,0.7c0.2,0.4,0.2,0.8-0.1,1.2c-0.1,0.2-0.2,0.3-0.3,0.5c-0.1,0.1-0.2,0.3-0.1,0.5
		c0.1,0.3,0.3,0.5,0.7,0.5c0.4,0,0.7-0.2,1-0.5c0.3-0.3,0.6-0.6,0.8-0.9c0.1-0.1,0.1-0.1,0.1-0.2c0.2-0.4,0.5-0.8,0.7-1.2
		c0.1-0.1,0.1-0.2,0.2-0.3c0.3-0.4,0.6-0.7,0.9-1.1c0.4-0.5,0.7-1,1-1.5c0.2-0.3,0.4-0.7,0.7-1c0,0,0.1-0.1,0.1-0.1
		c0.2-0.4,0.5-0.6,0.7-0.9c0.1-0.1,0.2-0.2,0.3-0.2c0.7-0.4,1.3-0.7,2.1-0.9c0.2,0,0.4-0.1,0.6-0.2c0.1,0,0.1-0.1,0.1-0.1
		c0-0.1,0-0.1-0.1-0.1c-0.1-0.1-0.3-0.1-0.4-0.1c-1.2,0-2.2,0.3-3.2,1c-0.2,0.1-0.4,0.3-0.6,0.5c-0.3,0.2-0.5,0.4-0.8,0.6
		c-0.4,0.2-0.7,0.4-1.1,0.5c-0.6,0.2-1.2,0.2-1.7,0.3c-1,0.1-2,0.1-3,0.2c-0.5,0-1.1,0-1.6,0c-0.5,0.1-1.1,0.2-1.6,0.4
		C81.9,12.7,81.8,12.8,81.7,12.9z M99,18.8c0.2-0.2,0.3-0.3,0.5-0.5c0.2-0.3,0.4-0.5,0.5-0.8c0.2-0.5,0.3-1,0.5-1.5
		c0.2-0.8,0.3-1.6,0.2-2.5c0-0.1-0.1-0.2-0.1-0.3c-0.3-0.4-0.6-0.7-1-1c-0.3-0.2-0.6-0.3-0.9-0.3c-0.2,0-0.3,0-0.4,0.1
		c-0.2,0.2-0.5,0.2-0.6,0.5c-0.1,0.1-0.2,0.2-0.2,0.4c-0.2,0.3-0.4,0.6-0.6,0.9c-0.1,0.3-0.1,0.5-0.2,0.8c-0.2,0.6-0.2,1.1-0.3,1.7
		c0,0.3-0.1,0.6,0,0.8c0.1,0.7,0.1,1.4,0.2,2c0.1,0.4,0.1,0.7,0.1,1.1c0,0.1,0,0.2,0.1,0.3c0,0.1,0.1,0.1,0.2,0
		c0.3-0.4,0.7-0.7,1.1-0.9C98.4,19.4,98.8,19.1,99,18.8z M77.4,19.2c0.1-0.2,0.3-0.3,0.4-0.5c0.2-0.3,0.3-0.6,0.1-0.9
		c-0.2-0.3-0.4-0.5-0.7-0.4c-0.2,0-0.4,0-0.6-0.1c-0.2,0-0.4-0.2-0.3-0.5c0-0.2,0.1-0.4,0.4-0.5c0.1-0.1,0.3-0.1,0.4-0.2
		c0.2-0.2,0.4-0.3,0.6-0.4c0.1-0.1,0.3-0.2,0.4-0.3c0.2-0.1,0.2-0.3,0.2-0.5c0-0.1,0-0.2-0.1-0.2c-0.3-0.2-0.7-0.1-1,0
		c-0.7,0.2-1.4,0.6-2,1c-0.4,0.2-0.7,0.5-1.1,0.8c-0.3,0.2-0.5,0.6-0.7,0.9c-0.1,0.2,0,0.3,0.2,0.4c0.1,0.1,0.2,0.1,0.4,0.2
		c0.1,0.1,0.2,0.2,0.2,0.3c0,0.1,0,0.2-0.1,0.3c-0.2,0.3-0.4,0.6-0.5,0.9c0,0.1-0.1,0.1-0.2,0.2c-0.3,0.2-0.5,0.5-0.7,0.9
		c-0.1,0.1-0.1,0.3,0,0.4c0.1,0.4,0.5,0.6,0.9,0.5c0.8-0.2,1.6-0.4,2.3-0.9C76.4,20,77,19.7,77.4,19.2z"/>
	<path class="st7" d="M57.6,43.9C57.6,43.9,57.7,43.9,57.6,43.9c0,0.1,0,0.1,0,0.2c0,0-0.1,0-0.1,0c0,0,0-0.1,0-0.1
		C57.6,43.9,57.6,43.9,57.6,43.9z"/>
	<path class="st0" d="M90.2,32.6c-0.3,0.4-0.7,0.8-1,1.1c-0.3,0.3-0.7,0.6-1.1,0.8c-0.3,0.2-0.6,0.2-0.9,0c-0.1,0-0.1-0.1-0.2-0.1
		c-0.2-0.2-0.5-0.8-0.3-1.2c0.1-0.2,0.2-0.4,0.3-0.5c0.2-0.2,0.4-0.4,0.5-0.7c0-0.1,0.1-0.2,0.2-0.3c0.3-0.3,0.5-0.6,0.7-0.9
		c0.2-0.3,0.3-0.6,0.4-1c0.1-0.3,0-0.6-0.2-0.9c-0.3-0.3-0.4-0.7-0.4-1.2c0,0,0-0.1,0-0.1c-0.1-0.2-0.3-0.3-0.5-0.3
		c-0.2,0.1-0.4,0.2-0.6,0.4c-0.2,0.2-0.5,0.4-0.8,0.6c-0.1,0.1-0.3,0.1-0.4,0.1c-0.3,0.1-0.4-0.1-0.3-0.3c0-0.1,0-0.2,0.1-0.3
		c0.2-0.3,0.4-0.6,0.6-0.8c0.6-0.6,1.1-1.2,1.7-1.9c0.1-0.2,0.3-0.3,0.4-0.5c0,0,0-0.1,0.1-0.1c0.4-0.4,0.7-0.9,1-1.3
		c0.2-0.2,0.4-0.5,0.6-0.8c0.3-0.5,0.7-1.1,1-1.7c0.1-0.1,0.1-0.3,0.2-0.5c0.4-0.6,0.7-1.2,1.1-1.8c0.2-0.3,0.4-0.5,0.6-0.8
		c0.2-0.3,0.4-0.6,0.5-0.9c0.2-0.4,0.4-0.9,0.5-1.3c0-0.1,0.1-0.3,0.1-0.4c0.1-0.3,0.2-0.6,0.3-0.9c0.2-0.5,0.5-1,0.7-1.4
		c0.1-0.1,0.2-0.3,0.3-0.4c0.1-0.2,0.3-0.4,0.5-0.5c0.1-0.1,0.2-0.1,0.2-0.2c0.3-0.4,0.8-0.6,1.2-0.8c0.2-0.1,0.4-0.2,0.6-0.2
		c0.5-0.2,1-0.1,1.5,0.1c0,0,0.1,0,0.1,0.1c0,0,0.1,0.1,0.1,0.2c0,0-0.1,0.1-0.1,0.1c-0.1,0-0.3,0-0.4-0.1c-0.3-0.1-0.6,0-0.9,0.1
		c-0.2,0.1-0.4,0.1-0.6,0.2c-0.2,0.1-0.4,0.2-0.6,0.4c-0.1,0.1-0.3,0.2-0.4,0.3c-0.4,0.2-0.6,0.5-0.7,0.9c-0.4,0.7-0.5,1.4-0.7,2.2
		c0,0.1,0,0.1,0,0.2c0.1,0.6,0,1.2,0,1.7c0.1,1,0.2,2,0.5,3c0.1,0.5,0.2,0.9,0.2,1.4c0,0.5,0.1,1,0.2,1.4c0,0,0,0.1,0,0.1
		c0,0.8,0.2,1.6,0.2,2.4c0,0.2,0,0.5,0.1,0.7c0,0.2,0.1,0.5,0.1,0.7c0,0.5,0.1,1,0.1,1.5c0.1,0.6,0,1.2,0,1.9c0,0.2,0,0.4-0.1,0.6
		c-0.1,0.9-0.3,1.7-0.7,2.5c-0.3,0.7-0.6,1.4-1,2c-0.1,0.2-0.2,0.5-0.3,0.7c-0.2,0.3-0.5,0.4-0.9,0.3c-0.1,0-0.2-0.1-0.2-0.2
		c-0.2-0.3-0.1-0.6,0-1c0.1-0.3,0.3-0.5,0.4-0.8c0-0.1,0.1-0.2,0.1-0.2c0.2-0.3,0.3-0.5,0.3-0.8c0-0.1,0-0.2,0-0.2
		c0-0.3-0.2-0.4-0.5-0.3c-0.1,0-0.3,0.1-0.4,0.1c-0.2,0-0.3-0.1-0.4-0.2C93,32.4,93,32.3,93,32.2c0-0.3-0.1-0.5-0.2-0.8
		c-0.2-0.2-0.2-0.5-0.1-0.8c0.1-0.5,0.3-0.9,0.5-1.4c0.2-0.4,0.4-0.8,0.5-1.2c0.1-0.3,0.2-0.7,0.3-1c0.2-0.7,0.4-1.3,0.5-2
		c0-0.1,0-0.1,0.1-0.2c0.2-0.4,0.2-0.8,0.2-1.2c0-0.1,0-0.2,0-0.4c0.1-0.3,0-0.6-0.1-0.9c-0.1-0.3-0.1-0.7-0.2-1
		c-0.1-0.6-0.1-1.2-0.2-1.9c0-0.1,0-0.1-0.1-0.2c0,0,0,0-0.1,0c0,0-0.1,0-0.1,0c0,0.1-0.1,0.1-0.1,0.2c-0.2,0.6-0.3,1.2-0.4,1.7
		c-0.1,0.5-0.2,1-0.3,1.5c-0.1,0.4-0.2,0.7-0.3,1.1c-0.1,0.4-0.2,0.7-0.4,1.1c-0.1,0.3-0.2,0.5-0.3,0.8c-0.1,0.2-0.2,0.3-0.3,0.5
		c-0.3,0.5-0.6,0.9-0.9,1.4c-0.2,0.4-0.2,0.8-0.2,1.2c0,0.2,0.2,0.4,0.4,0.4c0.4,0.1,0.5,0.3,0.4,0.7c0,0.2-0.1,0.3-0.1,0.4
		c-0.3,0.6-0.7,1.2-1.1,1.6C90.6,32.2,90.4,32.4,90.2,32.6C90.2,32.6,90.2,32.6,90.2,32.6z"/>
	<path class="st0" d="M89.2,21.6c-0.5,0.5-0.8,0.9-1.2,1.3c-0.2,0.2-0.4,0.5-0.7,0.6c-0.2,0.1-0.3,0.3-0.4,0.5
		c-0.6,0.7-1.3,1.3-2.1,1.7c-0.4,0.2-0.7,0.4-1.1,0.6c-0.3,0.1-0.5,0.2-0.8,0.2c-0.3,0-0.6,0-0.9,0c-0.5-0.1-0.9-0.4-1.2-0.8
		c-0.2-0.4-0.5-0.8-0.7-1.1c-0.1-0.2-0.3-0.3-0.4-0.4c-0.2-0.1-0.4-0.2-0.6-0.4c-0.2-0.1-0.4-0.2-0.7-0.3c-0.4-0.1-0.7-0.4-1-0.7
		c-0.2-0.2-0.3-0.4-0.3-0.7c0-0.4,0.1-0.7,0.3-1c0.2-0.3,0.5-0.6,0.7-0.9c0.4-0.5,0.9-0.9,1.4-1.3c0.1-0.1,0.2-0.2,0.3-0.2
		c0.4-0.4,1-0.5,1.5-0.7c0.2-0.1,0.5-0.1,0.7-0.2c0.5-0.2,1-0.1,1.4,0.2c0.2,0.2,0.4,0.4,0.4,0.7c0,0.3,0,0.5-0.1,0.8
		c-0.1,0.1-0.1,0.2-0.2,0.2c-0.4,0.3-0.7,0.7-1,1c-0.1,0.1-0.2,0.2-0.3,0.3c-0.3,0.5-0.3,1-0.2,1.5c0,0.3,0.2,0.4,0.5,0.4
		c0.2,0,0.5,0.1,0.7,0c0.1-0.1,0.2-0.1,0.3-0.2c0.4-0.4,0.8-0.6,1.3-0.9c0.4-0.2,0.8-0.5,1.2-0.7c0.1,0,0.2-0.1,0.2-0.1
		c0.2-0.1,0.5-0.2,0.6-0.4c0.1-0.1,0.2-0.2,0.4-0.3c0.3-0.2,0.6-0.5,1-0.7c0.2-0.1,0.3-0.2,0.4-0.4c0.1-0.1,0.2-0.2,0.3-0.3
		c0.2-0.2,0.5-0.5,0.7-0.7c0.2-0.3,0.4-0.6,0.6-0.9c0.2-0.5,0.5-0.9,0.7-1.4c0.3-0.4,0.5-0.9,0.8-1.3c0.2-0.3,0.3-0.5,0.4-0.8
		c0.2-0.5,0.4-1,0.7-1.5c0.3-0.6,0.8-1.1,1.4-1.4c0.4-0.2,0.8-0.5,1.2-0.6c0.6-0.2,1.2-0.4,1.8-0.3c0.1,0,0.3,0,0.5,0
		c0.1,0,0.1,0.1,0.1,0.1c0,0.1,0,0.1-0.1,0.1c-0.3,0.1-0.5,0.1-0.8,0.2c-0.5,0.1-0.9,0.4-1.4,0.6c-0.6,0.4-1,0.9-1.4,1.4
		c0,0-0.1,0.1-0.1,0.1c-0.3,0.7-0.7,1.3-1,2c-0.1,0.3-0.2,0.5-0.2,0.8c-0.1,0.9-0.4,1.8-0.9,2.5c-0.2,0.2-0.3,0.5-0.4,0.8
		c-0.2,0.4-0.5,0.8-0.7,1.1C90.3,20.5,89.7,21.1,89.2,21.6z"/>
	<path class="st0" d="M81.7,12.9c0.1-0.2,0.3-0.3,0.4-0.3c0.5-0.2,1-0.3,1.6-0.4c0.5-0.1,1.1,0,1.6,0c1,0,2,0,3-0.2
		c0.6-0.1,1.2-0.1,1.7-0.3c0.4-0.1,0.8-0.3,1.1-0.5c0.3-0.2,0.5-0.4,0.8-0.6c0.2-0.1,0.4-0.3,0.6-0.5c1-0.7,2-1,3.2-1
		c0.1,0,0.3,0,0.4,0.1c0.1,0,0.1,0.1,0.1,0.1c0,0.1,0,0.1-0.1,0.1c-0.2,0.1-0.4,0.1-0.6,0.2c-0.8,0.1-1.4,0.5-2.1,0.9
		c-0.1,0.1-0.2,0.2-0.3,0.2c-0.3,0.3-0.6,0.6-0.7,0.9c0,0-0.1,0.1-0.1,0.1c-0.3,0.3-0.5,0.6-0.7,1c-0.3,0.5-0.6,1-1,1.5
		c-0.3,0.4-0.6,0.7-0.9,1.1c-0.1,0.1-0.1,0.2-0.2,0.3c-0.2,0.4-0.5,0.8-0.7,1.2c0,0.1-0.1,0.1-0.1,0.2c-0.3,0.3-0.5,0.6-0.8,0.9
		c-0.3,0.3-0.6,0.4-1,0.5c-0.3,0-0.6-0.2-0.7-0.5c0-0.2,0-0.4,0.1-0.5c0.1-0.2,0.2-0.3,0.3-0.5c0.3-0.4,0.2-0.8,0.1-1.2
		c-0.1-0.3-0.3-0.5-0.4-0.7c0,0-0.1-0.1-0.1-0.1c-0.2-0.1-0.5-0.2-0.7-0.2c-0.3,0-0.5,0-0.8-0.1c-0.2-0.1-0.3-0.1-0.5-0.2
		c-0.1-0.1-0.3-0.2-0.5-0.3c-0.2-0.1-0.3-0.1-0.5-0.1c-0.2,0-0.4,0-0.6,0c-0.3,0-0.6-0.1-0.8-0.2c-0.2-0.1-0.4-0.3-0.5-0.5
		c-0.1-0.1,0-0.2,0.1-0.3C81.6,13,81.6,13,81.7,12.9z"/>
	<path class="st0" d="M77.4,19.2c-0.4,0.5-1,0.9-1.5,1.2c-0.7,0.5-1.5,0.7-2.3,0.9c-0.4,0.1-0.8-0.1-0.9-0.5c0-0.2,0-0.3,0-0.4
		c0.2-0.3,0.4-0.6,0.7-0.9c0.1,0,0.1-0.1,0.2-0.2c0.1-0.3,0.3-0.6,0.5-0.9c0-0.1,0.1-0.2,0.1-0.3c0-0.2,0-0.3-0.2-0.3
		c-0.1-0.1-0.2-0.1-0.4-0.2c-0.2-0.1-0.2-0.2-0.2-0.4c0.1-0.4,0.3-0.7,0.7-0.9c0.4-0.3,0.7-0.5,1.1-0.8c0.6-0.4,1.3-0.8,2-1
		c0.3-0.1,0.7-0.1,1,0c0.1,0.1,0.1,0.1,0.1,0.2c0,0.2,0,0.4-0.2,0.5c-0.1,0.1-0.3,0.2-0.4,0.3c-0.2,0.1-0.4,0.2-0.6,0.4
		c-0.1,0.1-0.3,0.2-0.4,0.2c-0.2,0.1-0.3,0.3-0.4,0.5c0,0.2,0.1,0.4,0.3,0.5c0.2,0,0.4,0.1,0.6,0.1c0.4-0.1,0.6,0.1,0.7,0.4
		c0.2,0.3,0.1,0.6-0.1,0.9C77.7,18.8,77.5,19,77.4,19.2z"/>
</g>
</svg>
