<svg width="20" height="20" viewBox="0 0 20 20" fill="none" xmlns="http://www.w3.org/2000/svg">
    <g clip-path="url(#clip0_15557_122224)">
        <path fill-rule="evenodd" clip-rule="evenodd"
            d="M20 19.1042C20 19.7138 19.5059 20.2085 18.8962 20.2085H13.7997V12.4633H16.3994L16.789 9.44526H13.7997V7.51782C13.7997 6.64399 14.0427 6.04855 15.2957 6.04855L16.8941 6.048V3.34807C16.6174 3.31157 15.6689 3.22931 14.5651 3.22931C12.2606 3.22931 10.6829 4.63593 10.6829 7.21928V9.44526H8.0766V12.4633H10.6829V20.2085H1.10376C0.49413 20.2085 0 19.7138 0 19.1042V1.31277C0 0.702612 0.49413 0.208496 1.10376 0.208496H18.8962C19.5059 0.208496 20 0.702612 20 1.31277V19.1042Z"
            fill="#EAE8E1"></path>
    </g>
    <defs>
        <clipPath id="clip0_15557_122224">
            <rect width="20" height="20" fill="white"></rect>
        </clipPath>
    </defs>
</svg>