<?xml version="1.0" encoding="utf-8"?>
<!-- Generator: Adobe Illustrator 26.4.1, SVG Export Plug-In . SVG Version: 6.00 Build 0)  -->
<svg version="1.1" id="Layer_1" xmlns="http://www.w3.org/2000/svg" xmlns:xlink="http://www.w3.org/1999/xlink" x="0px" y="0px"
	 viewBox="0 0 110 100" style="enable-background:new 0 0 110 100;" xml:space="preserve">
<style type="text/css">
	.st0{fill:#FBF2E1;}
	.st1{fill:#A2C7E2;}
	.st2{fill:#BBC6BB;}
	.st3{fill:#1A3C34;}
</style>
<g>
	<g>
		<path class="st0" d="M41.1,15c0.9-0.3,1.7-0.6,2.6-0.9c0.4,0.1,0.7-0.1,1.1-0.2c0.7-0.2,1.3-0.4,1.9-0.6c0.6-0.1,1.2-0.4,1.8-0.5
			c0.5-0.1,1-0.2,1.6-0.3c0.6-0.2,1.2-0.4,1.8-0.6c0.4-0.1,0.7-0.1,1.1-0.2c1-0.5,2.2-0.4,3.3-0.9c0,0,0.1,0,0.1,0
			c0.5,0.1,0.9-0.1,1.3-0.2c0.5-0.1,0.9-0.2,1.4-0.2c0.5,0,0.9,0,1.4-0.1c1.3-0.3,2.5-0.4,3.8-0.5c0.3,0,0.6,0,0.9,0
			c0.5,0,1-0.2,1.5-0.1c1.1,0.1,2.2,0.4,3.2,0.9c0.3,0.2,0.7,0.4,1,0.6c0.3,0.3,0.7,0.6,1,0.9c0.4,0.4,0.8,0.8,1,1.3
			c0.2,0.4,0.4,0.8,0.6,1.1c0.3,0.5,0.6,0.9,1.4,0.8c0.7-0.1,1.4-0.3,2.1-0.6c0.6-0.2,1-0.7,1.6-0.8c1.4-0.4,2.6-1.3,4-1.8
			c0.9-0.4,1.9-0.7,2.8-1c0.3-0.1,0.7-0.2,1.1-0.1c0.1,0,0.3,0,0.4,0c0.3-0.2,0.6-0.2,1-0.1c0.3,0.1,0.5,0.2,0.8,0.2
			c0.4,0,0.6,0.2,1,0.3c0.3,0,0.6,0.2,0.9,0.3c0.2,0.1,0.2,0.3,0.4,0.3c0.3,0,0.4,0.1,0.5,0.3c0.1,0.1,0.1,0.3,0.3,0.3
			c0.3,0.1,0.5,0.3,0.7,0.5c0.7,0.7,1.1,1.5,1.6,2.4c0.4,0.6,0.5,1.3,0.9,1.9c0.2,0.3,0.3,0.5,0.3,0.8c0,0.9,0.4,1.6,0.5,2.4
			c0.1,0.5,0.3,1,0.2,1.4c-0.1,0.5,0,1,0.1,1.5c0,0.1,0.2,0.4,0.1,0.4c-0.3,0.4,0,0.7,0,1.1c0,0.3,0.1,0.6,0.1,0.9
			c-0.1,0.3,0,0.5,0,0.7c0.2,0.5,0.1,1.1,0.3,1.6c0.2,0.5,0.1,1.1,0.4,1.6c0,0.1,0.1,0.1,0,0.2c-0.1,0.6,0.2,1.2,0.1,1.8
			c0,0.4,0.2,0.8,0.2,1.2c0,0.7,0.3,1.4,0.4,2.1c0.1,0.5,0.2,1.1,0.3,1.6c0.1,0.5,0.2,0.9,0.2,1.4c0.1,1.2,0.2,2.3,0.4,3.5
			c0.1,0.5,0.2,0.9,0,1.5c-0.1,0.5-0.1,1-0.1,1.4c0,0.3,0.1,0.5,0.1,0.8c-0.1,0.7-0.4,1.4-0.7,2c-0.2,0.4-0.4,0.7-0.5,1
			c-0.1,0.4-0.4,0.8-0.7,1.2c-0.3,0.4-0.6,0.7-1,1c-0.4,0.3-0.8,0.6-1.2,0.9c-0.5,0.2-0.8,0.7-1.2,0.8c-0.4,0.2-0.8,0.5-1.2,0.7
			c-0.5,0.2-0.9,0.5-1.3,0.8c-0.3,0.3-0.7,0.5-1.1,0.6c-0.4,0.1-0.7,0.2-1,0.5c-0.7,0.6-1.6,1-2.4,1.3c-0.7,0.2-1.1,0.6-1.6,1.1
			c-0.6,0.7-0.9,1.4-0.9,2.3c0,0.6,0,1.2,0,1.8c0,0.4,0,0.9,0.1,1.3c0.1,0.3,0.2,0.6,0.1,0.8c-0.1,0.3,0,0.5-0.1,0.8
			c-0.1,0.5,0,1-0.1,1.5c-0.1,0.6,0,1.2-0.3,1.8c-0.1,0.2-0.1,0.4-0.1,0.6c0.1,0.3,0,0.6-0.1,0.9c-0.2,0.5-0.3,1.1-0.5,1.6
			c-0.3,0.8-0.4,1.7-0.8,2.4c-0.2,0.3-0.3,0.5-0.6,0.7c-0.2,0.2-0.2,0.7-0.7,0.5c-0.2,0.4-0.7,0.5-0.9,0.8c-0.2,0.3-0.6,0.4-0.9,0.6
			c-0.2,0.1-0.4,0.2-0.5,0.5c-0.1,0.2-0.3,0.5-0.5,0.6c-0.2,0.1-0.3,0.2-0.3,0.4c0,0.4-0.4,0.5-0.6,0.5c-0.2,0.1-0.4,0.1-0.5,0.3
			c-0.1,0.1-0.2,0.4-0.5,0.2c-0.3-0.1-0.9-0.1-1.1,0.1c-0.2,0.3-0.6,0.3-0.7,0.7c0,0-0.1,0.1-0.1,0.1c-0.3,0.1-0.5,0.2-0.7,0.4
			c-0.4,0.4-1,0.7-1.4,1.1c-0.2,0.2-0.3,0.4-0.6,0.4c0,0,0,0,0,0c-0.3,0.4-0.9,0.6-1.4,0.8c-0.5,0.2-0.7,0.9-1.4,0.7c0,0,0,0,0,0
			c-0.2,0.2-0.3,0.5-0.7,0.4c-0.1,0-0.1,0-0.1,0.1c-0.7,0.5-1.5,0.5-2.3,0.7c-0.5,0.1-1,0.4-1.5,0.6c-0.3,0.1-0.5,0.4-0.9,0.3
			c-0.1,0-0.1,0-0.2,0c-0.4,0.2-0.7,0.6-1.2,0.5c0,0,0,0,0,0c-0.9,0.1-1.8,0.6-2.8,0.7c-0.1,0-0.2,0-0.3,0.1
			c-0.4,0.3-0.9,0.3-1.3,0.4c-0.6,0.2-1.3,0.2-1.9,0.3c-0.3,0-0.5,0.2-0.8,0.3c-0.5,0.1-1.1,0.2-1.6,0.4c-0.2,0.1-0.4,0.1-0.6,0.1
			c-0.5-0.2-1.1,0.1-1.6,0c-0.7-0.2-1.3,0.4-2,0.2c-0.3-0.1-0.6,0.2-1,0.2c-0.3-0.1-0.5,0-0.8,0.1c-0.3,0.1-0.8,0.1-1,0
			c-0.4-0.3-0.8-0.3-1.2-0.4c-0.7-0.1-1.2-0.4-1.9-0.6c-0.2-0.1-0.3-0.3-0.4-0.3c-0.5-0.1-0.7-0.4-1.1-0.6c-0.1,0-0.2-0.1-0.3-0.2
			c-0.5-0.7-1.2-1.3-1.8-2c-0.3-0.4-0.7-0.7-1-1.1c-0.1-0.2-0.4-0.2-0.4-0.2c0-0.5-0.5-0.7-0.8-1c-0.3-0.4-0.7-0.9-1.1-1.2
			c-0.5-0.4-0.8-1-1.1-1.5c-0.4-0.5-0.8-1.1-1.1-1.6C34,77,34,76.7,33.8,76.5c-0.3-0.3-0.5-0.7-0.6-1c-0.2-0.4-0.4-0.9-0.7-1.3
			c-0.3-0.3-0.6-0.7-0.8-1c-0.2-0.4-0.4-0.7-0.7-1.1c-0.5-0.8-1-1.5-1.5-2.3c-0.3-0.4-0.5-0.9-0.7-1.3c-0.3-0.4-0.5-0.9-0.8-1.4
			c-0.4-0.6-0.7-1.2-1.1-1.9c-0.3-0.5-0.5-0.9-0.8-1.4c-0.1-0.2-0.3-0.4-0.4-0.6c-0.1-0.3-0.6-0.4-0.5-0.9c0,0,0-0.1,0-0.1
			c-0.3-0.1-0.3-0.4-0.3-0.7c-0.1-0.4-0.2-0.8-0.4-1.2c-0.4-0.8-0.8-1.6-1.2-2.4c-0.1-0.2-0.2-0.5-0.3-0.7c-0.2-0.3-0.4-0.7-0.6-0.9
			c-0.1-0.1,0.1-0.1,0-0.2c-0.5-0.4-0.6-1-1-1.5c-0.3-0.5-0.6-1-0.9-1.6c-0.1-0.3-0.4-0.6-0.5-0.9c-0.1-0.3-0.3-0.6-0.4-0.9
			c-0.1-0.2-0.1-0.5-0.3-0.6c-0.3-0.1-0.2-0.4-0.3-0.6c-0.2-0.5-0.3-1-0.6-1.4c-0.3-0.4-0.5-0.9-0.8-1.3c-0.5-0.6-0.9-1.3-1.5-1.8
			c-0.6-0.5-1.2-0.9-2-0.9c-0.3,0-0.7,0.1-1,0.1c-0.3,0-0.6,0.1-0.9,0.2c-1.2,0.3-2.4,0.8-3.6,1C8,46.2,7.5,46.2,7,45.8
			c0-0.1-0.1-0.2-0.1-0.4c0.1-0.4,0-0.8,0-1.2c0.1-1,0.3-2.1,0.6-3.1c0.2-0.7,0.6-1.3,0.9-2c0.5-1.2,1.1-2.3,1.7-3.5
			c0.5-1,1.2-2,1.6-3c0.5-1.1,1.4-2,2.2-2.9c0.3-0.4,0.7-0.7,1.1-1c1-1,2.2-1.9,3.4-2.7c1.1-0.8,2.2-1.6,3.4-2.1
			c0.7-0.3,1.3-0.9,2-1.1c0.6-0.2,1.2-0.5,1.7-0.8c1.2-0.7,2.6-1.2,3.9-1.9c0.6-0.3,1.3-0.6,1.9-0.9c0.4-0.3,0.9-0.5,1.3-0.6
			c0.3-0.1,0.7-0.3,1-0.4c0.6-0.3,1.2-0.6,1.8-0.8c0.6-0.2,1.3-0.5,1.9-0.7c0.9-0.4,1.7-0.8,2.6-1.1C40.3,15.4,40.8,15.3,41.1,15z
			 M41.4,29.6L41.4,29.6C41.4,29.6,41.4,29.6,41.4,29.6c-1.2,0.5-2.4,0.8-3.5,1.2c-1,0.3-1.9,0.8-2.9,1c-1.3,0.3-2.5,0.9-3.7,1.2
			c-1.2,0.3-2.4,0.6-3.6,1c-1.3,0.4-2.6,0.7-4,0.9c-1.1,0.1-2.1,0.4-3.1,0.7c-0.8,0.3-1.6,0.4-2.5,0.4c-1,0-1.5-0.6-1.6-1.6
			c-0.1-1,0.3-2,0.7-2.9c0.1-0.1,0.2-0.3,0.3-0.4c0.5-0.3,0.8-0.8,1.1-1.2c0.2-0.4-0.2-1.2-0.6-1.2c-0.6,0-1.2,0.1-1.7,0.5
			c-0.7,0.8-1.6,1.4-2.3,2.2c-0.5,0.6-1,1.1-1.4,1.7c-0.4,0.5-0.6,1-0.9,1.5c-0.1,0.2,0,0.4-0.1,0.5c-0.5,0.6-0.9,1.3-1.1,2.1
			c-0.2,0.5-0.5,0.9-0.6,1.4c-0.1,0.3-0.1,0.8-0.3,1c-0.2,0.2-0.3,0.5-0.3,0.8c0,0.3-0.1,0.7-0.2,1c-0.1,0.6-0.3,1.1-0.2,1.7
			c0.1,0.6,0.6,1.2,1.4,0.9c0.5-0.1,0.8-0.5,1.1-0.8c0.7-0.7,1.4-1.4,2.3-1.9c0.3-0.2,0.6-0.3,0.9-0.5c0.7-0.4,1.4-0.7,2.1-1
			c0.5-0.2,0.9-0.3,1.4-0.5c0.5-0.2,0.9-0.5,1.4-0.6c0.9-0.3,1.8-0.4,2.7-0.4c0.4,0,0.8,0,1.2-0.1c0.9-0.3,1.9-0.4,2.8-0.6
			c0.6-0.2,1.3-0.3,1.9-0.4c1.3-0.3,2.6-0.7,4-1.1c0.6-0.2,1.2-0.3,1.8-0.5c0.7-0.2,1.3-0.5,2-0.7c0.6-0.2,1.2-0.4,1.8-0.6
			c0.7-0.2,1.3-0.4,2-0.6c0.6-0.2,1.3-0.4,1.9-0.6c0.8-0.3,1.6-0.6,2.5-0.9c0.6-0.2,1.3-0.5,1.9-0.8c0.8-0.4,1.7-0.7,2.5-1.1
			c1-0.4,2.1-0.8,3.1-1.3c0.5-0.3,1-0.5,1.6-0.7c1-0.4,1.9-0.7,2.8-1.2c0.9-0.5,1.8-0.9,2.6-1.4c1.1-0.6,2.2-1.1,3.2-1.7
			c0.5-0.3,1-0.6,1.5-0.9c0.2-0.1,0.3-0.2,0.1-0.4c-0.6-0.7-1.1-1.5-1.7-2.2c-0.1-0.1-0.2-0.2-0.4-0.1c-0.2,0.1-0.4,0.2-0.6,0.3
			c-0.8,0.4-1.5,0.8-2.3,1.2c-0.4,0.3-0.9,0.5-1.3,0.7c-0.8,0.5-1.6,0.9-2.4,1.3c-0.7,0.4-1.5,0.8-2.2,1.1c-0.8,0.4-1.5,0.8-2.4,1.2
			c-1.2,0.5-2.4,0.9-3.6,1.3c-1,0.4-2,0.8-3,1.2C42.9,29.1,42.1,29.3,41.4,29.6z M76.4,35.7c0.1-0.3,0.2-0.6,0-0.9
			c-0.1-0.1-0.1-0.3-0.2-0.4c-0.3-0.8-0.7-1.5-1.7-1.5c-0.5,0-1.1-0.1-1.6-0.2c-0.7-0.1-1.4-0.1-2.1,0c-0.4,0.1-0.8,0-1.2,0.1
			c-0.6,0.1-1.3,0-1.9,0c-0.5,0-1,0.2-1.5,0.2c-1.4,0-2.7,0.4-4.1,0.5c-0.9,0.1-1.8,0.4-2.7,0.7c-0.5,0.2-1,0.3-1.5,0.3
			c-0.7,0-1.4,0.3-2,0.5c-1,0.3-2,0.6-3,1c-0.8,0.3-1.6,0.5-2.4,0.8c-1.1,0.3-2.2,0.8-3.4,1.2c-0.3,0.1-0.6,0.3-0.9,0.4
			c-0.7,0.2-1.4,0.5-2.1,0.7c-0.4,0.1-0.9,0.3-1.3,0.4c-0.6,0.1-1.3,0.3-1.9,0.5c-0.7,0.3-1.3,0.7-2,0.9c-0.7,0.2-1.4,0.6-2.1,0.9
			c-0.7,0.3-1.3,0.8-2,1.1c-0.7,0.3-1.2,0.8-1.8,1.2c-1,0.6-1.9,1.3-2.8,1.9c-0.2,0.2-0.5,0.3-0.8,0.3c-0.5,0-1,0.3-1.3,0.6
			c-0.6,0.6-1.3,1.2-1.9,1.8c-0.3,0.3-0.5,0.7-0.7,1c-0.3,0.5-0.6,0.9-1.1,1.2c-0.2,0.1-0.4,0.3-0.5,0.5c-0.3,0.5-0.6,0.9-0.9,1.4
			c-0.1,0.2-0.3,0.4-0.3,0.7c0,0.4,0,0.8,0.1,1.1c0.2,0.5,0.4,1.1,0.9,1.5c0.3,0.2,0.7,0.3,1,0.6c0.1,0.1,0.3,0.2,0.3,0.4
			c0.4,0.9,1,1.6,1.4,2.5c0.2,0.4,0.5,0.9,0.7,1.3c0.2,0.3,0.2,0.6,0.5,0.8c0.3,0.4,0.5,0.9,0.8,1.2c0.3,0.3,0.4,0.6,0.6,1
			c0.4,0.7,0.9,1.3,1.3,1.9c0.3,0.5,0.6,1,0.9,1.5c0.1,0.1,0.1,0.3,0.3,0.3c-0.2,0.3,0.1,0.4,0.2,0.6c0.2,0.4,0.5,0.7,0.7,1.1
			c0.1,0.3,0.4,0.7,0.6,1c0.3,0.5,0.7,1,1,1.5c0.3,0.3,0.5,0.7,0.7,1.1c0.2,0.4,0.6,0.6,0.7,1c0.1,0.3,0.4,0.6,0.6,0.7
			c0.3,0.2,0.4,0.5,0.6,0.7c0.3,0.4,0.3,0.8,0.6,1.2c0.2,0.3,0.5,0.7,0.7,1.1c0.3,0.4,0.6,0.8,0.9,1.2c0.4,0.4,0.6,1,1.2,1.2
			c0.2,0.1,0.4,0.1,0.6,0.3c0.6,0.5,1.2,1,1.9,1.3c0.1,0.1,0.2-0.1,0.3,0c0.2,0.3,0.6,0.3,0.8,0.3c0.4,0,0.8,0,1.1,0.1
			c0.7,0.2,1.3,0.3,2,0.1c0.5-0.1,1-0.2,1.5-0.1c0.5,0.1,1,0,1.5,0c0.4,0,0.8-0.1,1.3,0c0.3,0.1,0.7,0.1,1,0
			c0.4-0.1,0.8-0.1,1.2-0.2c0.2-0.1,0.5-0.2,0.7-0.2c0.5,0.1,0.9-0.3,1.4-0.2c0.1-0.4,0.5-0.1,0.7-0.2c0.2-0.1,0.3-0.2,0.5-0.2
			c0.1,0,0.2,0,0.3-0.1c0.3-0.2,0.7-0.3,1-0.4c0.6-0.2,1.3-0.4,1.9-0.6c0.5-0.1,1.1-0.4,1.6-0.6c0.5-0.2,0.9-0.4,1.4-0.7
			c0.3-0.2,0.8-0.3,1.1-0.4c0.1-0.1,0-0.3,0.2-0.2c0.2,0,0.4-0.1,0.5-0.2c0.6-0.4,1.2-0.9,1.9-1.1c0.4-0.1,0.8-0.3,1.1-0.6
			c0.3-0.2,0.7-0.3,1-0.4c0.4-0.1,0.8-0.3,1.2-0.5c0.1-0.1,0.2-0.3,0.3-0.3c0.5-0.2,0.9-0.5,1.3-0.8c0.6-0.4,1.2-0.8,1.8-1.2
			c0.5-0.3,1.1-0.7,1.6-1.1c0.4-0.3,0.7-0.8,1.2-1.1c0.1,0,0.1-0.1,0.1-0.2c0.1-0.2,0.2-0.3,0.4-0.5c0.3,0.3,0.5-0.3,0.8-0.1
			c0.4-0.3,0.8-0.6,1.2-0.8c0.3-0.1,0.5-0.4,0.7-0.6c0.7-0.5,1.1-1.3,1.4-2.2c0.1-0.3,0-0.7,0.1-1c0-0.4,0-0.9,0-1.3
			c-0.1-0.6-0.2-1.3-0.2-1.9c0-0.6-0.3-1.1-0.3-1.7c0-0.5-0.2-1.1-0.4-1.6c-0.1-0.2,0-0.4-0.1-0.6c-0.3-0.6-0.2-1.3-0.3-1.9
			c-0.1-0.5-0.1-1-0.1-1.5c0-0.6-0.4-1.2-0.4-1.8c0-0.5-0.2-1.1-0.2-1.6c0-0.4,0-0.8,0-1.2c0-0.4-0.1-0.9-0.1-1.3
			c0-0.5,0.1-0.9-0.1-1.4c-0.2-0.4-0.2-0.9-0.4-1.4c-0.2-0.4-0.2-1-0.3-1.5c0-0.1,0.1-0.2,0.1-0.3c-0.2-0.2-0.1-0.5-0.2-0.8
			c-0.1-0.6,0.1-1.1-0.1-1.7c0-0.2,0-0.3-0.1-0.5c-0.2-0.4-0.1-0.9-0.2-1.3c-0.1-0.4-0.1-0.8-0.2-1.3c-0.1-0.4-0.2-0.7-0.3-1
			C76.8,36.9,76.6,36.3,76.4,35.7z M89.6,21c0-0.1-0.1-0.2-0.1-0.3c-0.2-1-0.8-1.7-1.9-2c-0.4-0.1-0.8-0.2-1.3-0.2
			c-0.5,0-0.8,0.4-1.3,0.4c-0.2,0-0.5,0-0.7,0.1c-0.5,0.4-1.2,0.4-1.8,0.8c-0.4,0.2-0.8,0.2-1.2,0.5c-0.4,0.3-0.9,0.5-1.3,0.7
			c-0.5,0.3-1.2,0.3-1.7,0.8c-0.2,0.2-0.3,0.4-0.5,0.5c-0.9,0.7-1.1,1.7-1,2.8c0,0.7,0.3,1.4,0.5,2c0.1,0.2-0.1,0.4,0,0.6
			c0.3,0.6,0.4,1.2,0.5,1.8c0.1,0.7,0.3,1.3,0.4,2c0,0.6,0.4,1.2,0.5,1.9c0.1,0.6,0.3,1.1,0.4,1.6c0.1,0.5,0.2,1.1,0.3,1.6
			c0,0.2,0,0.4,0.1,0.6c0.1,0.3,0.3,0.7,0.2,1c-0.1,0.4,0.1,0.7,0.2,1.1c0,0.2,0,0.4,0,0.6c0.1,0.5,0.2,1,0.3,1.4
			c0,0.6,0.2,1.2,0.3,1.8c0.1,0.9,0.6,1.8,0.7,2.7c0.1,0.5,0.3,1,0.5,1.5c0.3,0.6,0.6,1,1.1,1.4c0.2,0.2,0.4,0.2,0.6,0.2
			c0.6-0.1,1.1-0.4,1.7-0.6c0.6-0.2,1.1-0.7,1.8-0.9c0.4-0.1,0.8-0.4,1.1-0.7c0.6-0.7,1.5-1,2.3-1.4c0.7-0.3,1.4-0.9,2.1-1.2
			c0.1,0,0.1-0.1,0.2-0.2c0.4-0.8,0.3-1.7,0.1-2.5c-0.1-0.2-0.1-0.4-0.2-0.6c-0.1-0.4,0-0.7-0.1-1.1c0-0.2-0.1-0.3-0.1-0.5
			c0-0.3,0-0.7-0.1-1c-0.1-0.4,0-0.8-0.1-1.2c0-0.5,0.1-1,0-1.5c-0.2-0.7-0.5-1.4-0.5-2.2c0-0.8-0.3-1.5-0.3-2.3
			c0-0.4-0.1-0.8-0.2-1.2c-0.1-0.5-0.1-1.1-0.3-1.6c0-0.1,0.2-0.3-0.1-0.3c0.3-0.5-0.1-1-0.1-1.5c-0.1-0.6-0.3-1.3-0.4-1.9
			c-0.1-0.6-0.2-1.1-0.2-1.7C90.1,22.2,89.9,21.6,89.6,21z M64.5,81.3c0.2,0.6,0.6,0.8,1.1,0.6c0.2-0.1,0.5-0.2,0.7-0.3
			c0.8-0.2,1.6-0.3,2.2-0.9c0.2-0.2,0.5-0.1,0.8-0.2c0.8-0.2,1.4-0.8,2.1-1c0.6-0.3,1.3-0.6,1.9-0.9c0.5-0.3,1.1-0.5,1.5-0.9
			c0.8-0.8,1.8-1.5,2.7-2.2c0.6-0.5,1.1-1,1.7-1.5c0.3-0.3,0.5-0.6,0.8-0.9c0.9-0.6,1-1.3,0.7-2.3c-0.3-0.9-1-0.9-1.6-0.6
			c-0.2,0.1-0.4,0.2-0.6,0.3c-0.6,0.2-1.2,0.4-1.7,0.8c-0.3,0.2-0.6,0.5-0.9,0.7c-0.9,0.6-1.6,1.3-2.4,2.1c-0.1,0.1-0.2,0.3-0.4,0.4
			c-0.6,0.2-1.1,0.5-1.6,0.8c-1.6,0.9-3.2,1.9-4.7,3c-0.3,0.2-0.7,0.4-1,0.7c-0.1,0.2-0.3,0.3-0.5,0.4
			C64.4,80.1,64.2,80.6,64.5,81.3z M80.8,18.5c0.3-0.1,0.6-0.2,0.9-0.3c1.8-1,3.6-1.9,5.4-2.9c0.3-0.1,0.5-0.3,0.8-0.4
			c0.1,0,0.2-0.1,0.2-0.2c0.4-0.9-0.4-2.2-1.4-2.3c-0.9,0-1.8,0.3-2.6,0.6c-1,0.3-1.9,0.6-2.8,1.1c-0.7,0.4-1.3,0.8-2,1.1
			c-1.2,0.5-2.3,1-3.4,1.5c-0.2,0.1-0.3,0.2-0.3,0.4c-0.2,1.1,0,2,0.5,3c0.1,0.1,0.2,0.2,0.3,0.1C77.7,19.6,79.4,19.2,80.8,18.5z
			 M45.1,85.5c0.2,0.6,0.5,1,0.9,1.1c1,0.2,1.9,0,2.8-0.3c0.2-0.1,0.4-0.1,0.6,0c0.2,0.1,0.3,0.1,0.5,0.1c0.7,0,1.3,0,2-0.2
			c0.9-0.3,1.8-0.3,2.6-0.9c0.5-0.4,0.6-0.7,0.4-1.4c-0.1-0.4-0.6-0.6-1.1-0.4c-0.3,0.1-0.7,0.1-1,0.1c-0.7-0.1-1.5-0.1-2.2-0.1
			c-0.4,0-0.8,0.1-1.3,0c-1-0.1-2-0.2-2.9,0.3c-0.3,0.1-0.5,0.3-0.8,0.4c-0.5,0.1-0.7,0.3-0.7,0.8C44.9,85.2,45,85.4,45.1,85.5z
			 M30.1,22.5c-0.2-0.6-0.5-0.8-0.9-0.7c-0.7,0.1-1.3,0.3-1.9,0.7c-0.3,0.2-0.6,0.3-0.9,0.4c-0.3,0.1-0.6,0.1-0.9,0.3
			c-0.2,0.2-0.5,0.3-0.8,0.4c-1.1,0.4-1.9,1.3-3,1.7c-0.5,0.2-0.8,0.5-1,1c-0.1,0.4-0.1,1.3,0.3,1.6c0.5,0.4,1.3,0.4,1.9-0.1
			c0.4-0.3,0.8-0.7,1.2-0.9c1.1-0.6,2.2-1.3,3.3-2c0.4-0.2,0.7-0.4,1.1-0.6c0.4-0.2,0.8-0.4,1.2-0.7C30.2,23.3,30.3,23.1,30.1,22.5z
			"/>
		<path class="st1" d="M76.4,35.7c0.1,0.6,0.4,1.2,0.4,1.8c0,0.3,0.2,0.7,0.3,1c0.1,0.4,0.1,0.9,0.2,1.3c0.2,0.4,0,0.9,0.2,1.3
			c0.1,0.2,0,0.4,0.1,0.5c0.1,0.5,0,1.1,0.1,1.7c0,0.3,0,0.5,0.2,0.8c0,0-0.1,0.2-0.1,0.3c0.1,0.5,0.1,1.1,0.3,1.5
			c0.2,0.5,0.2,1,0.4,1.4c0.2,0.5,0.1,0.9,0.1,1.4c0,0.5,0.1,0.9,0.1,1.3c0,0.4,0,0.8,0,1.2c0,0.6,0.2,1.1,0.2,1.6
			c0,0.6,0.4,1.2,0.4,1.8c0,0.5,0,1,0.1,1.5c0.1,0.6,0,1.3,0.3,1.9c0.1,0.2,0,0.4,0.1,0.6c0.2,0.5,0.4,1.1,0.4,1.6
			c0,0.6,0.2,1.2,0.3,1.7c0.1,0.6,0.1,1.3,0.2,1.9c0.1,0.4,0.1,0.8,0,1.3c0,0.3,0.1,0.7-0.1,1c-0.3,0.8-0.7,1.6-1.4,2.2
			c-0.2,0.2-0.4,0.5-0.7,0.6c-0.4,0.2-0.8,0.4-1.2,0.8c-0.3-0.2-0.5,0.4-0.8,0.1c-0.1,0.1-0.3,0.3-0.4,0.5c0,0.1,0,0.1-0.1,0.2
			c-0.5,0.3-0.8,0.7-1.2,1.1c-0.5,0.4-1,0.7-1.6,1.1c-0.6,0.4-1.2,0.8-1.8,1.2c-0.4,0.3-0.8,0.6-1.3,0.8c-0.2,0.1-0.2,0.3-0.3,0.3
			c-0.4,0.2-0.7,0.4-1.2,0.5c-0.3,0.1-0.7,0.2-1,0.4c-0.3,0.2-0.7,0.5-1.1,0.6c-0.7,0.2-1.3,0.8-1.9,1.1c-0.2,0.1-0.3,0.2-0.5,0.2
			c-0.2-0.1,0,0.2-0.2,0.2c-0.4,0.1-0.8,0.2-1.1,0.4c-0.4,0.3-0.9,0.5-1.4,0.7c-0.5,0.2-1,0.5-1.6,0.6c-0.7,0.2-1.3,0.4-1.9,0.6
			c-0.3,0.1-0.7,0.2-1,0.4c-0.1,0.1-0.2,0.1-0.3,0.1c-0.2,0-0.4,0.1-0.5,0.2c-0.2,0.1-0.5-0.1-0.7,0.2c-0.5-0.1-0.9,0.3-1.4,0.2
			c-0.2-0.1-0.5,0.1-0.7,0.2c-0.4,0.1-0.8,0.1-1.2,0.2c-0.3,0.1-0.7,0.1-1,0c-0.4-0.1-0.8,0-1.3,0c-0.5,0-1,0.1-1.5,0
			c-0.5-0.1-1,0-1.5,0.1c-0.7,0.2-1.4,0-2-0.1c-0.4-0.1-0.7-0.2-1.1-0.1c-0.2,0-0.6,0.1-0.8-0.3c-0.1-0.1-0.2,0-0.3,0
			C42,81,41.4,80.4,40.8,80c-0.2-0.1-0.4-0.2-0.6-0.3c-0.6-0.2-0.8-0.8-1.2-1.2c-0.4-0.3-0.7-0.8-0.9-1.2c-0.2-0.4-0.4-0.7-0.7-1.1
			c-0.3-0.4-0.3-0.8-0.6-1.2c-0.2-0.2-0.3-0.5-0.6-0.7c-0.2-0.2-0.5-0.4-0.6-0.7c-0.2-0.4-0.5-0.6-0.7-1c-0.2-0.4-0.4-0.7-0.7-1.1
			c-0.4-0.5-0.7-1-1-1.5c-0.2-0.3-0.4-0.6-0.6-1c-0.2-0.4-0.5-0.7-0.7-1.1c-0.1-0.2-0.4-0.3-0.2-0.6c-0.2,0-0.2-0.2-0.3-0.3
			c-0.4-0.4-0.6-1-0.9-1.5c-0.4-0.7-0.9-1.3-1.3-1.9c-0.2-0.3-0.3-0.7-0.6-1c-0.4-0.4-0.5-0.9-0.8-1.2c-0.2-0.2-0.3-0.6-0.5-0.8
			c-0.2-0.4-0.5-0.9-0.7-1.3c-0.4-0.9-1.1-1.6-1.4-2.5c-0.1-0.1-0.2-0.3-0.3-0.4c0.2,0,0.4,0.2,0.6,0.1c0.3-0.1,0.7-0.1,1-0.1
			c0.6,0,1.1,0.1,1.7,0.1c0.2,0,0.4-0.1,0.7,0c0.4,0.1,0.9,0.1,1.4,0.1c0.4,0,0.7,0,1.1,0c0.4,0,0.9,0,1.3,0c0.4,0,0.9-0.1,1.3-0.3
			c0.7-0.2,1.4-0.3,2-0.4c0.6-0.1,1.2,0,1.7-0.1c0.2,0,0.5,0,0.7-0.1c0.3-0.1,0.6-0.2,0.8-0.2c1-0.3,1.9-0.5,2.9-0.6
			c0.4-0.1,0.8-0.2,1.3-0.3c0.4-0.1,0.8-0.3,1.2-0.4c0.8-0.2,1.6-0.3,2.3-0.6c0.4-0.2,0.9-0.4,1.3-0.6c0.5-0.2,1.1-0.4,1.5-0.6
			c0.5-0.2,0.9-0.3,1.4-0.5c0.5-0.2,1-0.3,1.6-0.5c0.5-0.2,1-0.4,1.6-0.7c0.3-0.2,0.7-0.3,1-0.4c0.4-0.1,0.7-0.3,1.1-0.4
			c0.7-0.2,1.5-0.4,2.2-0.7c0.5-0.2,0.9-0.4,1.4-0.7c0.4-0.2,0.7-0.5,1-0.7c0.5-0.2,0.8-0.5,1.2-0.7c0.4-0.2,0.8-0.4,1.1-0.6
			c0.4-0.2,0.8-0.3,1.1-0.5c0.6-0.5,1.3-0.8,1.9-1.3c0.5-0.4,1.1-0.7,1.7-1.1c0.4-0.3,0.9-0.6,1.3-1c0.2-0.2,0.4-0.3,0.6-0.5
			c0.4-0.5,0.9-0.8,1.3-1.3c0.5-0.6,1.2-1,1.8-1.4c0.4-0.2,0.8-0.5,1.2-0.7c0.5-0.3,0.7-0.9,1-1.3c0.2-0.2,0.3-0.4,0.5-0.6
			C76,36.7,76.2,36.1,76.4,35.7z"/>
		<path class="st2" d="M76.4,35.7c-0.3,0.4-0.4,1-0.7,1.4c-0.2,0.2-0.3,0.4-0.5,0.6c-0.3,0.4-0.5,1-1,1.3c-0.4,0.3-0.8,0.5-1.2,0.7
			c-0.6,0.4-1.3,0.8-1.8,1.4c-0.4,0.5-0.9,0.8-1.3,1.3c-0.2,0.2-0.4,0.3-0.6,0.5c-0.4,0.4-0.9,0.6-1.3,1c-0.5,0.4-1.2,0.7-1.7,1.1
			c-0.6,0.5-1.3,0.8-1.9,1.3c-0.3,0.2-0.7,0.4-1.1,0.5c-0.4,0.2-0.7,0.4-1.1,0.6c-0.4,0.2-0.8,0.6-1.2,0.7c-0.3,0.1-0.6,0.5-1,0.7
			c-0.5,0.2-0.9,0.4-1.4,0.7c-0.7,0.3-1.4,0.5-2.2,0.7c-0.4,0.1-0.7,0.3-1.1,0.4c-0.3,0.1-0.7,0.2-1,0.4c-0.5,0.2-1,0.5-1.6,0.7
			c-0.5,0.2-1.1,0.3-1.6,0.5c-0.5,0.2-1,0.3-1.4,0.5c-0.5,0.2-1,0.4-1.5,0.6c-0.4,0.2-0.9,0.4-1.3,0.6c-0.7,0.3-1.5,0.4-2.3,0.6
			c-0.4,0.1-0.8,0.3-1.2,0.4c-0.4,0.1-0.8,0.2-1.3,0.3c-1,0.1-2,0.3-2.9,0.6c-0.3,0.1-0.6,0.2-0.8,0.2c-0.2,0-0.5,0-0.7,0.1
			c-0.6,0.1-1.2,0.1-1.7,0.1c-0.7,0.1-1.4,0.2-2,0.4c-0.4,0.1-0.9,0.2-1.3,0.3c-0.4,0-0.9,0-1.3,0c-0.4,0-0.7,0-1.1,0
			c-0.5,0-0.9,0-1.4-0.1c-0.2,0-0.4,0-0.7,0c-0.6-0.1-1.1-0.1-1.7-0.1c-0.3,0-0.7,0-1,0.1c-0.3,0.1-0.4-0.2-0.6-0.1
			c-0.3-0.2-0.7-0.4-1-0.6c-0.5-0.3-0.6-0.9-0.9-1.5c-0.2-0.4-0.1-0.7-0.1-1.1c0-0.3,0.2-0.5,0.3-0.7c0.3-0.5,0.6-0.9,0.9-1.4
			c0.1-0.2,0.3-0.3,0.5-0.5c0.5-0.3,0.8-0.7,1.1-1.2c0.2-0.4,0.5-0.7,0.7-1c0.6-0.6,1.2-1.2,1.9-1.8c0.4-0.3,0.8-0.6,1.3-0.6
			c0.3,0,0.6-0.2,0.8-0.3c0.9-0.6,1.8-1.3,2.8-1.9c0.6-0.4,1.2-0.9,1.8-1.2c0.7-0.3,1.3-0.8,2-1.1c0.7-0.3,1.3-0.7,2.1-0.9
			c0.7-0.2,1.3-0.6,2-0.9c0.6-0.2,1.2-0.4,1.9-0.5c0.5-0.1,0.9-0.3,1.3-0.4c0.7-0.2,1.4-0.5,2.1-0.7c0.3-0.1,0.6-0.3,0.9-0.4
			c1.1-0.4,2.2-0.8,3.4-1.2c0.8-0.2,1.6-0.5,2.4-0.8c1-0.4,2-0.7,3-1c0.6-0.2,1.3-0.4,2-0.5c0.5,0,1-0.2,1.5-0.3
			c0.9-0.3,1.8-0.6,2.7-0.7c1.4-0.1,2.7-0.5,4.1-0.5c0.5,0,1-0.2,1.5-0.2c0.6,0,1.3,0.1,1.9,0c0.4-0.1,0.8,0,1.2-0.1
			c0.7-0.1,1.4-0.1,2.1,0c0.5,0.1,1.1,0.2,1.6,0.2c1,0.1,1.4,0.7,1.7,1.5c0.1,0.2,0.1,0.3,0.2,0.4C76.6,35,76.5,35.4,76.4,35.7z"/>
		<path class="st2" d="M41.4,29.6c0.7-0.3,1.4-0.5,2.2-0.8c1-0.4,2-0.8,3-1.2c1.2-0.4,2.4-0.8,3.6-1.3c0.8-0.3,1.6-0.8,2.4-1.2
			c0.8-0.4,1.5-0.8,2.2-1.1c0.8-0.4,1.6-0.8,2.4-1.3c0.4-0.3,0.9-0.5,1.3-0.7c0.7-0.4,1.5-0.8,2.3-1.2c0.2-0.1,0.4-0.2,0.6-0.3
			c0.2-0.1,0.3,0,0.4,0.1c0.6,0.7,1.1,1.5,1.7,2.2c0.2,0.2,0.1,0.3-0.1,0.4c-0.5,0.3-1,0.6-1.5,0.9c-1.1,0.6-2.2,1.1-3.2,1.7
			c-0.9,0.5-1.8,0.9-2.6,1.4c-0.9,0.5-1.9,0.9-2.8,1.2c-0.5,0.2-1.1,0.4-1.6,0.7c-1,0.5-2,0.9-3.1,1.3c-0.8,0.3-1.7,0.6-2.5,1.1
			c-0.6,0.3-1.2,0.5-1.9,0.8c-0.8,0.3-1.6,0.6-2.5,0.9c-0.6,0.2-1.3,0.4-1.9,0.6c-0.7,0.2-1.3,0.4-2,0.6c-0.6,0.2-1.2,0.4-1.8,0.6
			c-0.7,0.2-1.3,0.5-2,0.7c-0.6,0.2-1.2,0.4-1.8,0.5c-1.3,0.4-2.6,0.7-4,1.1c-0.6,0.2-1.3,0.2-1.9,0.4c-0.9,0.3-1.9,0.4-2.8,0.6
			c-0.4,0.1-0.8,0.1-1.2,0.1c-0.9,0-1.8,0.1-2.7,0.4c-0.5,0.2-0.9,0.5-1.4,0.6c-0.5,0.2-0.9,0.3-1.4,0.5c-0.7,0.2-1.5,0.6-2.1,1
			c-0.3,0.2-0.6,0.3-0.9,0.5c-0.9,0.5-1.6,1.2-2.3,1.9c-0.3,0.3-0.7,0.7-1.1,0.8c-0.8,0.2-1.3-0.3-1.4-0.9c-0.1-0.6,0.1-1.1,0.2-1.7
			c0-0.3,0.1-0.6,0.2-1c0-0.3,0.1-0.5,0.3-0.8c0.2-0.3,0.2-0.7,0.3-1c0.1-0.5,0.4-0.9,0.6-1.4c0.3-0.7,0.7-1.4,1.1-2.1
			c0.1-0.2,0-0.4,0.1-0.5c0.3-0.5,0.6-1,0.9-1.5c0.5-0.6,0.9-1.2,1.4-1.7c0.7-0.8,1.5-1.4,2.3-2.2c0.5-0.5,1.1-0.6,1.7-0.5
			c0.4,0,0.8,0.8,0.6,1.2c-0.3,0.5-0.7,0.9-1.1,1.2c-0.1,0.1-0.2,0.2-0.3,0.4c-0.5,0.9-0.8,1.9-0.7,2.9c0.1,0.9,0.6,1.5,1.6,1.6
			c0.8,0,1.7-0.1,2.5-0.4c1-0.3,2-0.6,3.1-0.7c1.3-0.2,2.7-0.4,4-0.9c1.2-0.4,2.4-0.7,3.6-1c1.3-0.3,2.5-0.9,3.7-1.2
			c1-0.3,1.9-0.7,2.9-1C39,30.5,40.2,30.1,41.4,29.6C41.4,29.6,41.4,29.6,41.4,29.6C41.4,29.6,41.4,29.6,41.4,29.6
			C41.4,29.6,41.4,29.6,41.4,29.6z"/>
		<path class="st2" d="M64.5,81.3c-0.2-0.7,0-1.2,0.8-1.6c0.2-0.1,0.4-0.2,0.5-0.4c0.2-0.3,0.6-0.5,1-0.7c1.5-1.1,3.1-2.1,4.7-3
			c0.5-0.3,1-0.6,1.6-0.8c0.2,0,0.3-0.2,0.4-0.4c0.7-0.7,1.5-1.5,2.4-2.1c0.3-0.2,0.6-0.5,0.9-0.7c0.5-0.4,1.1-0.6,1.7-0.8
			c0.2-0.1,0.4-0.2,0.6-0.3c0.7-0.3,1.3-0.4,1.6,0.6c0.3,1,0.2,1.7-0.7,2.3c-0.3,0.2-0.5,0.6-0.8,0.9c-0.6,0.5-1.1,1-1.7,1.5
			c-0.9,0.7-1.8,1.4-2.7,2.2c-0.4,0.4-1,0.6-1.5,0.9c-0.6,0.3-1.2,0.6-1.9,0.9c-0.7,0.3-1.3,0.8-2.1,1c-0.3,0.1-0.5-0.1-0.8,0.2
			c-0.6,0.6-1.5,0.7-2.2,0.9c-0.3,0.1-0.5,0.2-0.7,0.3C65,82.1,64.6,81.9,64.5,81.3z"/>
		<path class="st2" d="M80.8,18.5c-1.5,0.7-3.1,1.1-4.6,1.8c-0.2,0.1-0.3,0-0.3-0.1c-0.5-0.9-0.7-1.9-0.5-3c0-0.2,0.2-0.3,0.3-0.4
			c1.1-0.5,2.3-1,3.4-1.5c0.7-0.3,1.4-0.8,2-1.1c0.9-0.5,1.9-0.8,2.8-1.1c0.8-0.3,1.7-0.6,2.6-0.6c1,0,1.9,1.4,1.4,2.3
			c0,0.1-0.1,0.1-0.2,0.2c-0.3,0.1-0.5,0.3-0.8,0.4c-1.8,1-3.6,1.9-5.4,2.9C81.4,18.3,81.1,18.4,80.8,18.5z"/>
		<path class="st2" d="M45.1,85.5c-0.1-0.2-0.1-0.4-0.1-0.6c0-0.5,0.2-0.7,0.7-0.8c0.3-0.1,0.6-0.2,0.8-0.4c0.9-0.5,1.9-0.4,2.9-0.3
			c0.4,0,0.8,0,1.3,0c0.7-0.1,1.5,0,2.2,0.1c0.3,0,0.6,0.1,1-0.1c0.4-0.2,0.9,0.1,1.1,0.4c0.3,0.7,0.1,1-0.4,1.4
			c-0.8,0.6-1.7,0.6-2.6,0.9c-0.6,0.2-1.3,0.3-2,0.2c-0.2,0-0.3,0-0.5-0.1c-0.2-0.1-0.4-0.1-0.6,0c-0.9,0.3-1.9,0.4-2.8,0.3
			C45.6,86.5,45.3,86.2,45.1,85.5z"/>
		<path class="st2" d="M30.1,22.5c0.2,0.6,0.1,0.8-0.3,1.2c-0.4,0.3-0.8,0.5-1.2,0.7c-0.4,0.2-0.8,0.4-1.1,0.6
			c-1.1,0.7-2.2,1.3-3.3,2c-0.5,0.3-0.8,0.6-1.2,0.9c-0.5,0.5-1.4,0.5-1.9,0.1c-0.3-0.3-0.4-1.1-0.3-1.6c0.1-0.6,0.5-0.9,1-1
			c1.1-0.4,1.9-1.3,3-1.7c0.3-0.1,0.5-0.3,0.8-0.4c0.3-0.2,0.6-0.2,0.9-0.3c0.3-0.1,0.6-0.2,0.9-0.4c0.6-0.3,1.2-0.5,1.9-0.7
			C29.6,21.7,29.9,21.9,30.1,22.5z"/>
		<path class="st3" d="M41.4,29.6C41.4,29.6,41.4,29.6,41.4,29.6C41.4,29.6,41.4,29.6,41.4,29.6C41.4,29.6,41.4,29.6,41.4,29.6z"/>
	</g>
</g>
</svg>
