<?xml version="1.0" encoding="utf-8"?>
<!-- Generator: Adobe Illustrator 26.4.1, SVG Export Plug-In . SVG Version: 6.00 Build 0)  -->
<svg version="1.1" id="Layer_1" xmlns="http://www.w3.org/2000/svg" xmlns:xlink="http://www.w3.org/1999/xlink" x="0px" y="0px"
	 viewBox="0 0 750 1328" style="enable-background:new 0 0 750 1328;" xml:space="preserve">
<style type="text/css">
	.st0{fill:#A32C2A;}
	.st1{fill:#082B48;}
	.st2{fill:#E02B27;}
	.st3{fill:#C0C8BC;}
	.st4{fill:#203D37;}
	.st5{fill:#004D82;}
	.st6{fill:#353F3E;}
	.st7{fill:#FDF5E4;}
</style>
<g id="Layer_2_00000176728047264677941910000005641841206081900676_">
	<path class="st0" d="M736.2,152.6c0-0.1,0-0.1-0.1-0.2c-0.3-0.3-1.7-1.5-2.2-1.8c-0.3-0.2-0.5-0.5-0.7-0.7s-0.4-0.5-0.6-0.8
		c-0.7-0.7-1.4-1.4-2.1-2.2c-0.2-0.2-0.4-0.3-0.5-0.5c-0.7-0.5-1.2-1.1-1.8-1.8c-0.7-0.9-1.4-1.9-2.1-2.8c-0.5-0.7-1.1-1.3-1.6-2
		c-0.4-0.5-0.8-1-1.2-1.5c-0.7-1-1.5-1.9-2.2-2.9c-0.6-0.8-1.2-1.6-1.8-2.5c-0.3-0.4-0.5-0.8-0.7-1.3c-0.3-0.6-0.5-1.1-0.8-1.7
		c-0.4-1-0.9-1.9-1.4-2.8c-0.4-0.6-0.8-1.3-1.1-2.1c-0.2-0.5-0.4-0.9-0.7-1.3c-0.4-0.6-0.5-1.2-0.8-1.9c-0.1-0.3-0.2-0.6-0.3-0.9
		c-0.1-0.1-0.1-0.2-0.2-0.3c-0.3,0.4-0.4,0.8-0.4,1.3c0.1,0.6-0.1,1.3-0.2,1.9c-0.1,0.5-0.1,1,0,1.6c0.1,1.1,0.1,2.2-0.1,3.4
		c-0.1,0.6-0.1,1.3-0.1,2c0,0.6,0,1.3-0.1,2c0,0.9-0.1,1.7-0.1,2.5c0,0.1,0,0.2,0,0.3c0.1,1.4,0.1,2.8,0.1,4.2
		c0,0.6,0.1,1.2,0.2,1.7c0.2,1.2,0.3,2.3,0.4,3.5c0.1,1,0.2,2,0.5,2.9c0.3,1.2,0.5,2.3,0.8,3.5c0.2,0.9,0.4,1.7,0.6,2.6
		c0.4,1.6,1,3.2,1.6,4.7c0.3,0.8,0.6,1.6,1,2.4c0.1,0.2,0.2,0.4,0.3,0.5c0.3,0.1,0.5-0.1,0.6-0.2c0.3-0.3,0.6-0.4,1-0.6
		c0.5-0.2,0.9-0.4,1.4-0.7c0.1,0,0.2-0.1,0.3-0.1c0.7-0.1,1.4-0.5,2-0.8c0.6-0.3,1.1-0.3,1.7-0.1c0.1,0,0.2,0.1,0.3,0.2
		c0,0.1,0.2,0.1,0.3,0.1c0.6,0.2,1,0.5,1.4,1c0.1,0.1,0.2,0.2,0.3,0.3c0.3,0.2,0.5,0.3,0.8,0.5c0.2,0.2,0.5,0.4,0.6,0.7
		c0.2,0.5,0.5,0.9,0.9,1.3c0.3,0.3,0.5,0.7,0.6,1.2c0,0.3,0.1,0.5,0.2,0.7c0.3,0.6,0.4,1.2,0.4,1.9c0,0.1,0,0.3,0.1,0.4
		c0.2,0.3,0.2,0.7,0.1,1c-0.1,0.4,0.1,0.7,0.1,1.1c0.1,0.6,0,1.1-0.1,1.7c-0.2,0.6-0.3,1.3-0.3,1.9c0,1.8-0.7,3.5-1.5,5.1
		c-0.2,0.4-0.4,0.7-0.6,1c-0.4,0.7-0.9,1.3-1.5,1.6c-0.2,0.1-0.4,0.2-0.5,0.4c-1.1,1.1-2.5,1.6-4,1.8c-0.7,0.1-1.3,0.2-2,0.3
		c-0.5,0.1-1,0.1-1.5,0.1c-0.3,0-0.7,0-1,0.2c-0.8,0.3-1.7,0.4-2.6,0.6c-0.3,0.1-0.6,0-0.9-0.1s-0.7-0.1-1-0.2
		c-0.5-0.1-1-0.2-1.4-0.6c0,0,0,0-0.1,0c-0.4-0.2-0.8-0.2-1.1-0.5c-0.2-0.3-0.5-0.5-0.8-0.8c-0.5-0.5-1-1-1.5-1.5
		c-0.3-0.3-0.5-0.6-0.7-0.9c-0.7-1-1.4-1.7-2.3-3.9c-0.1-0.4,0-0.7-0.1-0.9c-0.1-0.3-0.8-1.7-0.8-2.8c0-0.9-0.1-1.5,0-1.9
		c0.1-0.2,0-0.4,0-0.6c0.1-0.5,0.4-2.1,0.4-2.2c0.1-0.2,0.2-0.4,0.5-0.5s0.4-0.4,0.5-0.6c0.3-0.4,0.6-0.8,0.8-1.2
		c0-0.1,0.1-0.2,0.2-0.3c0.4-0.3,0.8-0.6,1.3-0.9c0.1-0.1,0.3-0.2,0.5-0.2c0.9-0.4,1.9-0.7,2.8-1c0.7-0.2,1.4-0.4,2.1-0.5
		c0.2,0,0.4,0,0.6,0c0.3,0.1,0.6,0.1,0.8-0.3c0.2-0.3,0.4-0.1,0.6-0.3c0-0.1-0.1-0.2-0.1-0.4c-0.2-0.5-0.4-1-0.6-1.5
		c-0.4-1.1-0.9-2.3-1.3-3.4c-0.1-0.3-0.2-0.6-0.3-0.9c-0.2-1-0.5-2-0.8-3c-0.1-0.3-0.1-0.6-0.2-0.9c-0.2-1.3-0.5-2.6-0.8-3.9
		c-0.4-1.5-0.6-3-0.7-4.5c0-1.1-0.2-2.2-0.3-3.4c-0.1-0.7-0.1-1.5-0.1-2.3c0-0.8,0-1.6,0-2.5c-0.1-1.2,0-2.4,0.1-3.6
		c0-0.7,0-1.5,0-2.2c0-0.7,0.1-1.4,0.3-2.1c0.3-0.9,0.4-1.8,0.3-2.7c-0.1-1,0-1.9,0.2-2.9c0.2-0.9,0.2-1.8,0.3-2.7
		c0-0.2-0.1-0.3-0.1-0.5c0-0.1,0-0.2,0-0.3c0.3-0.2,0.1-0.5,0.2-0.7c0.1-0.1,0.3-0.3,0.4-0.5c0.2-0.2,0.4-0.3,0.7-0.4
		c0.3,0,0.7-0.1,1-0.2c0.4-0.1,0.6,0.1,0.6,0.5c0,0.8,0.1,1.6,0.4,2.4c0.2,0.7,0.5,1.5,0.6,2.2c0,0.1,0.1,0.3,0.1,0.4
		c0.3,0.8,0.6,1.7,0.9,2.5c0,0.1,0,0.1,0.1,0.2c0.4,0.7,0.7,1.5,1.1,2.3c0.1,0.2,0.3,0.4,0.4,0.6c0.1,0.1,0.1,0.2,0.2,0.3
		c0.4,0.3,0.5,0.7,0.6,1.1c0.1,0.4,0.3,0.6,0.5,0.9c0.2,0.2,0.3,0.5,0.4,0.7c0.1,0.2,0.2,0.4,0.3,0.6c0.7,0.9,1.2,2,1.8,3
		c0.1,0.3,0.3,0.6,0.5,0.8c0.2,0.3,0.4,0.7,0.6,1c0.2,0.3,0.4,0.5,0.6,0.8c0.3,0.3,0.5,0.7,0.8,1c0.5,0.8,1.1,1.6,1.8,2.3
		c0.5,0.6,1,1.1,1.5,1.7c0.5,0.6,1.1,1.2,1.5,1.9c0,0,0,0.1,0,0.1c0.7,0.5,1.1,1.2,1.9,1.7c0.4,0.2,0.7,0.5,1,0.9
		c0,0.1,0.1,0.1,0.1,0.1c0.5,0.3,0.8,0.7,1.3,1.1c0.4,0.3,0.7,0.6,1,1c0.1,0.1,0.2,0.2,0.4,0.2c0.2,0,0.4,0.2,0.5,0.3
		c0.2,0.2,0.4,0.5,0.6,0.7c0.1,0.2,0.2,0.3,0.4,0.5c0.4-0.3,0.6-0.8,0.8-1.2c0.2-0.4,0.4-0.8,0.6-1.2c0.1-0.2,0.1-0.3,0.2-0.4
		c0.2-0.3,0.5-1,1.2-1.4c0.3-0.2,0.6-0.3,0.8-0.5c1.3-1,2.9-1.5,4.6-1.6c0.5,0,1.1,0,1.6,0c0.5,0.1,0.9,0.2,1.3,0.4
		c0.5,0.2,1,0.4,1.5,0.6c0.8,0.4,1.5,0.9,2.1,1.6c0.5,0.6,1,1.3,1.5,1.9c0.1,0.1,0.2,0.2,0.2,0.3c0.3,0.7,0.7,1.4,1,2.1
		c0.2,0.4,0.4,0.8,0.7,1.2c0.2,0.2,0.3,0.4,0.2,0.6c-0.1,0.5,0.1,0.9,0.3,1.3c0.2,0.3,0.3,0.5,0.3,0.8c0.1,0.5,0.2,0.9,0.3,1.4
		c0,0.1,0.1,0.2,0,0.3c-0.1,0.4,0,0.8,0,1.1c0,0.4,0,0.7-0.1,1c-0.1,0.2-0.1,0.5-0.1,0.7c0.2,0.6-0.2,1.2-0.4,1.7
		c-0.1,0.3-0.3,0.5-0.4,0.7c-0.1,0.3-0.3,0.7-0.5,1c-0.5,0.7-1.1,1.4-1.8,1.9c-0.2,0.2-0.4,0.3-0.6,0.5c-0.2,0.2-0.3,0.3-0.5,0.5
		c-0.5,0.4-0.9,0.9-1.4,1.3c-0.3,0.3-0.6,0.5-0.9,0.7c-0.7,0.5-1.4,1.1-2.1,1.6c-0.3,0.2-0.6,0.5-1.1,0.6c-0.2,0.1-0.4,0.2-0.7,0.2
		c-0.3,0.1-0.6,0.1-0.8,0.1c-0.8,0-1.6,0-2.5,0.1c-0.3,0-0.7,0-1.1,0c-1.1-0.1-2.2-0.4-3.3-0.9c-0.2-0.1-0.4-0.2-0.7-0.3
		c-0.6-0.2-1.1-0.4-1.6-0.8c-0.4-0.3-0.8-0.5-1.2-0.7c-0.6-0.4-1.1-0.8-1.4-1.4c-0.7-1-1.3-2.1-1.7-3.2c-0.2-0.6-0.4-1.2-0.5-1.7
		c-0.1-0.7,0-1.4,0-2.1c0-0.6,0.1-1.2,0.3-1.8c0.1-0.3,0.2-0.6,0.4-0.9c0.4-0.7,0.8-1.2,1.3-1.9c0.1-0.1,0.1-0.2,0.2-0.3
		c0.5-0.3,1-0.8,1.4-1.2c0.3-0.3,0.6-0.4,1-0.7C735.6,153,735.9,152.8,736.2,152.6z"/>
	<path class="st1" d="M680,165.3c-3.1,0.7-6.1,0.5-9.2-0.2c-1.7-0.4-3.5-0.8-5.2-0.9c-3.5-0.3-6.4-1.8-8.7-4.3
		c-0.5-0.6-1.1-1.3-1.8-1.8c-1.9-1.4-3-3.3-3.7-5.5c-0.8-2.2-1.8-4.4-2.2-6.8c-0.1-1-0.4-1.9-0.4-2.8c0-2.2,0-4.3,0-6.4
		c0-0.8,0.2-1.7,0.5-2.4c1.5-3.1,3.4-6,6.3-8c1.1-0.8,2.2-1.5,3.5-1.7c2.1-0.4,3.6-1.8,5.3-2.8c0.3-0.2,0.6-0.8,0.7-1.2
		c0.2-0.9,0.3-1.9,0.5-2.8c0.1-0.5,0.4-0.9,0.6-1.3c0.4-0.6,1.3-0.9,1.9-0.6c0.6,0.2,1,0.5,1.6,0.8c1,0.5,1.9,0.2,2.7-0.3
		c0.6-0.4,1-0.9,1.6-1.4c0.4-0.3,0.8-0.4,1.3-0.6c0.6-0.2,1.6,0.1,1.9,0.7c0.2,0.3,0.4,0.6,0.5,0.9c0.9,2,0.9,2,2.7,1.2
		c0.3-0.1,0.7-0.3,1-0.3c0.7,0,1.4,0.1,2.1,0.2c0.5,0.1,0.9,0.3,1.1,0.8c0.5,1.1,1,2.2,1.5,3.2c0.5,1,1.3,1.7,2.4,2
		c0.3,0.1,0.7,0.1,1.1,0.2c2.9,0.8,3.3,1,5,3.6c1.5,2.2,2.6,4.5,3,7.2c0.2,1.2,0.6,2.3,1.1,3.4c0.8,1.8,1.4,3.7,1.6,5.8
		c0.1,1.8-0.1,3.6-0.8,5.2c-1.3,2.9-2.7,5.8-4.1,8.7c-0.6,1.1-1.4,2.2-2.2,3.3c-0.8,1.1-1.9,1.8-3.2,2.2
		C686.6,163.4,683.3,164.4,680,165.3z"/>
	<path class="st2" d="M666.1,74.8c0.8-0.7,1-2,1.5-3c0.5-1,1.4-1.9,2.3-2.6c0.9-0.8,1.9-1.3,3.1-1.6c0.4-0.1,0.8-0.2,1.1-0.3
		c1.3-2.2,3.4-3.7,5.6-5c0.5-0.3,1.1-0.4,1.7-0.4c0.7,0,1.4,0.2,2.1,0.4c0.6,0.2,1,0.5,1.5,0.9c0.7,0.7,0.8,0.7,1.6,0.2
		c0.6-0.4,1.3-0.6,2-0.8c1.2-0.4,2.4-0.3,3.6,0.1c0.5,0.2,1,0.4,1.5,0.6c0.5,0.2,0.9,0.6,1.1,1.1c0.4,0.8,0.7,1.7,0.9,2.6
		c0.1,0.5,0,1.1,0,1.6c0,0.4-0.1,0.9-0.1,1.3c0,0.2,0.2,0.3,0.4,0.3c0.4,0,0.8-0.1,1.2-0.2c1.2-0.3,2.2,0.1,3.2,0.6
		c0.2,0.1,0.3,0.2,0.4,0.4c0.8,1.3,1.4,2.7,1.6,4.2c0.1,0.5,0.1,0.9,0,1.4c0,0.1-0.1,0.2-0.1,0.3c0,0.2,0.2,0.5,0.4,0.6
		c0.2,0.1,0.4,0.1,0.6,0.2c3.6,0.8,5.7,4.7,5.8,8.2c0,2.2-0.8,4.4-2.2,6.1c-0.2,0.2-0.5,0.5-0.5,0.8c-0.1,0.3,0.1,0.6,0.2,0.9
		c0.7,1.7,1.3,3.7,0.6,5.4c-0.3,0.7-0.8,1.3-1.3,1.9c-1.8,2.1-3,4.2-5.8,4.9c-1.4,0.4-2.9,0.5-4.3,0.5c-1,0-1.9-0.3-2.9-0.6
		c-0.2-0.1-0.4-0.1-0.5-0.2c-0.6-0.2-1.1-0.2-1.7-0.1c-1,0.2-2,0.2-3,0.2c-2.3-0.2-4.2-1.1-5.8-2.7c-0.1-0.1-0.3-0.3-0.4-0.4
		c-0.3-0.6-0.8-0.6-1.3-0.3c-1.2,0.3-2.5,0.5-3.7,0.5c-1.1,0-2.1-0.1-3.2-0.3c-0.5-0.1-0.9-0.3-1.4-0.4c-0.9-0.3-1.5-0.9-2-1.7
		c-0.6-0.9-1.1-1.7-1.3-2.8c-0.1-0.5-0.2-0.9-0.4-1.4c-0.1-0.2-0.3-0.4-0.5-0.5c-0.1,0-0.2-0.1-0.3-0.1c-1.8-0.4-3.1-1.6-4.1-3.1
		c-0.1-0.2-0.3-0.4-0.3-0.6c-0.2-1-0.5-2.1-0.4-3.2c0.1-1,0.3-1.9,0.9-2.7c-0.2-0.2-0.3-0.4-0.4-0.5c-0.4-0.4-0.9-0.8-1.3-1.2
		c-0.4-0.4-0.6-0.8-0.8-1.4c-0.2-0.6-0.3-1.2-0.2-1.9c0.5-2.2,1.7-5,4-5.8c0.5-0.2,1-0.2,1.5-0.5C665.9,74.9,666,74.9,666.1,74.8z"
		/>
</g>
<path class="st3" d="M104.5,92.3c0.1,0.4,0.1,0.7,0,1.1c-0.1,0.6,0,1.1-0.1,1.7c-0.2,1.1-0.6,2.1-1.3,2.9c-0.3,0.3-0.5,0.7-0.8,0.9
	c-0.3,0.2-0.2,0.6-0.2,0.7c0.1,0.7,0,1.4,0.1,2.1c0.1,0.5,0,0.9,0.1,1.4c0.1,0.5-0.1,1,0,1.5c0,0.3,0,0.7,0,1.1
	c-0.1,0.7,0,1.5,0,2.2c0,0.6-0.1,1.2-0.1,1.7c0.1,0.7,0,1.5,0.1,2.2c0,0.4,0,0.8,0.2,1.2c0.1,0.2,0,0.4,0,0.6c0,0.5,0.2,1,0.3,1.5
	c0,0.4,0,0.8,0,1.2c0,0.8,0.2,1.5,0.2,2.2c0,0.4,0,0.8,0.1,1.2c0.1,0.5,0,0.9,0,1.4c0,0.9-0.2,1.9-0.2,2.8c0,1.2-0.2,2.4-0.1,3.6
	c0,0.3,0,0.6-0.1,0.9c-0.1,0.5-0.1,1.1-0.1,1.6c0,0.5-0.2,1.1-0.1,1.6c0,0.4,0.1,0.9,0,1.3c-0.2,0.7,0.3,1.4-0.1,2
	c-0.2,0.3,0,0.8-0.3,1.1c0,0,0,0.1,0,0.1c0.3,0.6-0.2,0.9-0.4,1.3c-0.2,0.4-0.6,0.8-0.8,1.2c-0.3,0.4-0.1,0.9,0,1.4
	c0.1,0.8-0.1,1.6-0.5,2.4c-0.3,0.7-0.8,1.2-1.2,1.8c-0.2,0.4-0.5,0.6-0.9,0.9c-0.4,0.3-0.7,0.7-1.1,1c-0.5,0.3-0.8,0.8-1.3,1
	c-0.7,0.4-1.2,1-1.9,1.3c-0.4,0.2-0.8,0.5-1.2,0.7c-0.3,0.1-0.7,0.3-1,0.6c-0.3,0.3-0.7,0.4-1.1,0.6c-0.7,0.3-1.3,0.7-2,1
	c-0.5,0.2-1,0.6-1.5,0.8c-0.7,0.3-1.3,0.9-2,1c-0.6,0.1-1.2,0.4-1.8,0.5c-0.4,0-0.8,0.3-1.3,0.4c-0.4,0.1-0.7,0.2-1.1,0.3
	c-0.7,0.3-1.6,0.2-2.2,0.7c-0.6,0.1-1.1,0.3-1.7,0.4c-0.8-0.1-1.6,0.2-2.4,0.2c-0.7,0-1.5,0.3-2.2,0.4c-1,0.2-1.9,0.3-2.9,0.5
	c-0.8,0.2-1.7,0.2-2.5,0.4c-0.2,0.1-0.5,0.2-0.7,0.1c-0.5,0-1,0-1.4,0.1c-0.6,0.2-1.2,0-1.7,0.3c0,0,0,0-0.1,0
	c-0.4-0.3-0.8-0.1-1.2-0.2c-0.6-0.2-1.3-0.1-1.9-0.3c-0.3-0.1-0.7-0.1-0.8,0c-0.3,0.2-0.7,0.1-1,0.1c-0.9,0.1-1.8-0.1-2.6-0.3
	c-0.5-0.1-1.1-0.2-1.6-0.3c-0.5-0.1-0.9-0.2-1.3-0.3c-0.2,0-0.4-0.1-0.6-0.2c-0.6-0.3-1.3-0.5-1.8-1c-0.2-0.2-0.6-0.3-0.8-0.5
	c-0.5-0.4-0.9-1-1.3-1.5c-0.2-0.3-0.4-0.5-0.8-0.6c-0.3-0.1-0.6-0.3-0.9-0.5c-0.1-0.1-0.3-0.3-0.5-0.3c-0.3,0-0.5-0.2-0.8-0.3
	c-0.9-0.6-1.5-1.5-2.2-2.3c-0.4-0.4-0.5-1.1-0.8-1.5c-0.3-0.4-0.5-0.7-0.8-1.1c-0.3-0.5-0.6-0.9-0.7-1.5c-0.1-0.4-0.3-0.7-0.4-1
	c-0.1-0.3-0.3-0.6-0.4-0.8c-0.3-0.6-0.6-1.1-0.9-1.7c-0.2-0.3-0.3-0.7-0.4-1c-0.1-0.5-0.3-1-0.5-1.5c-0.4-1-1.1-1.8-1.4-2.9
	c-0.2-0.7-0.5-1.4-0.8-2c-0.2-0.4-0.3-0.7-0.5-1.1c-0.5-1-0.7-2.1-1.1-3.1c-0.2-0.7-0.4-1.5-0.7-2.1c-0.1-0.3-0.4-0.6-0.5-0.9
	c-0.1-0.6-0.4-1.1-0.6-1.7c-0.2-0.5-0.5-1.1-0.7-1.6c-0.2-0.4-0.4-0.8-0.5-1.2c-0.1-0.4-0.3-0.8-0.4-1.2c-0.2-0.4-0.3-0.8-0.5-1.3
	c-0.2-0.5-0.4-1-0.8-1.4c-0.2-0.3-0.5-0.5-0.5-0.9c-0.1-0.4-0.2-0.6-0.6-0.8c-0.3-0.1-0.5-0.4-0.8-0.7c-0.4-0.4-0.8-0.6-1.2-1
	c-0.2-0.3-0.6-0.4-0.9-0.7c-0.4-0.3-0.5-0.8-0.7-1.2c-0.2-0.4-0.3-0.9-0.6-1.3c-0.2-0.2-0.2-0.4-0.2-0.6c0.3,0,0.6,0.1,0.9,0.1
	c1.2,0,2.4,0.4,3.6,0.5c0.5,0,1.1,0.2,1.6,0.2c0.6,0,1.1-0.1,1.7,0c0.9,0.2,1.9,0.2,2.8,0.1c0.3,0,0.7-0.1,1-0.1c0.5,0,1,0,1.5-0.1
	c0.8-0.2,1.6,0,2.4-0.1c0.3,0,0.6-0.1,0.9,0c0.5,0.1,1,0,1.5-0.1c0.9-0.2,1.8-0.3,2.6-0.4c0.7-0.1,1.3-0.2,2-0.3
	c0.6-0.1,1.2-0.3,1.8-0.3c0.6-0.1,1.1-0.3,1.7-0.4c0.6,0,1.1-0.2,1.7-0.3c0.6-0.1,1.2-0.3,1.8-0.4c1.1-0.2,2.3-0.4,3.4-0.7
	c0.3-0.1,0.7-0.2,1-0.3c0.3-0.1,0.6-0.1,0.9-0.2c0.6-0.1,1.2-0.3,1.9-0.4c0.5-0.1,1-0.2,1.5-0.3c0.6-0.2,1.2-0.3,1.9-0.4
	c0.6-0.1,1.2-0.3,1.8-0.4c0.6-0.1,1.2-0.3,1.7-0.4c0.5-0.1,1.1-0.3,1.6-0.3c0.9-0.1,1.7-0.4,2.6-0.5c0.7-0.1,1.3-0.3,1.9-0.5
	c0.8-0.2,1.6-0.3,2.3-0.5c0.9-0.2,1.8-0.5,2.7-0.7c0.4-0.1,0.8-0.1,1-0.4c0.3,0.2,0.6-0.1,0.8-0.2c0.7-0.1,1.4-0.5,2.1-0.7
	c0.1,0,0.2-0.2,0.3-0.1c0.2,0,0.5,0,0.7,0c0.8-0.1,1.5-0.6,2.3-0.9c0.6-0.2,1.2-0.4,1.8-0.5c0.3-0.1,0.7-0.2,1-0.4
	c0.2-0.1,0.5-0.1,0.8-0.3c0.2-0.2,0.4-0.3,0.6-0.4c0.6-0.2,1.1-0.5,1.7-0.7c0.3-0.1,0.6-0.2,0.9-0.4c0.3-0.2,0.7-0.3,1-0.4
	c0.6-0.1,1.1-0.3,1.7-0.4c0.7-0.2,1.2-0.6,1.8-0.9c0.5-0.3,1.1-0.5,1.5-1c0.2-0.2,0.5-0.3,0.8-0.4c0.1,0,0.1,0,0.2,0
	c0.5-0.4,0.9-0.7,1.4-1.1c0.2-0.1,0.4-0.2,0.5-0.4c0.3-0.5,0.8-0.7,1.2-1.1C103.7,92.8,104.2,92.7,104.5,92.3z M70,121.6
	c-0.1-0.2-0.2-0.3-0.2-0.4c-0.1-0.5-0.3-1-0.4-1.5c-0.2-0.4-0.3-0.5-0.7-0.4c-0.6,0.2-1.1,0.3-1.7,0.5c-0.2,0-0.3,0.1-0.4,0.3
	c0,0.2,0,0.4,0.2,0.5c0.3,0.1,0.3,0.3,0.4,0.5c0,0.2,0.1,0.4,0.1,0.5c0.4,1.1,0.8,2.1,0.9,3.3c0.2,1.1,0.8,2.2,0.9,3.3
	c0,0.2,0.2,0.3,0.5,0.2c0.4-0.2,0.9-0.2,1.3-0.6c0.1-0.1,0.2,0,0.3,0c0.6,0.2,1.2,0.3,1.9,0c0.3-0.1,0.6-0.2,0.9-0.4
	c0.3-0.2,0.8,0,1.1-0.5c0.1-0.2,0.3-0.5,0.4-0.7c0.3-1.1,0.3-2.3-0.1-3.4c-0.1-0.5-0.4-1-0.6-1.4c-0.2-0.4-0.5-0.6-0.8-0.6
	c-0.2,0-0.4-0.1-0.6-0.1c-0.6-0.1-1.2-0.3-1.8,0C70.9,120.9,70.4,121.2,70,121.6z M59.6,130c0.1,0,0.2-0.1,0.3-0.1
	c0.9-0.2,0.9-0.2,0.6-1.1c0,0,0,0,0,0c-0.5-1-0.7-2-1.1-3c-0.5-1.3-1.4-2-2.8-1.9c-0.7,0.1-1.4,0.2-1.8,0.9c0,0.1,0,0.2-0.2,0.2
	c-0.1,0-0.1-0.1-0.1-0.2c-0.2-0.7-0.5-1.3-0.7-2c-0.1-0.5-0.4-0.6-0.9-0.7c-0.5,0-0.9,0.2-1.3,0.3c-0.5,0.2-0.5,0.4-0.2,0.8
	c0.3,0.4,0.6,0.9,0.7,1.4c0.3,0.9,0.7,1.8,1,2.7c0.2,0.6,0.6,1.1,0.6,1.7c0,0.3,0.1,0.6,0.3,0.8c0.1,0.1,0,0.1,0,0.2
	c-0.1,0.2-0.1,0.4,0.1,0.6c0.1,0.2,0.3,0.2,0.6,0.1c0.5-0.2,1-0.2,1.5-0.3c0.2,0,0.4-0.1,0.6-0.2c0.1-0.1,0.1-0.1,0-0.3
	c-0.2-0.2-0.4-0.5-0.4-0.8c-0.2-0.5-0.2-1.1-0.5-1.5c-0.4-0.7-0.2-1.4,0.2-2.1c0.2-0.4,0.5-0.4,0.8,0c0.1,0.1,0.1,0.2,0.2,0.3
	c0.3,0.5,0.4,1.1,0.6,1.6c0.3,0.7,0.5,1.4,0.5,2.2c0,0.5,0.3,0.7,0.7,0.5C59.1,130.2,59.4,130.1,59.6,130z M81.8,121.1
	C81.8,121.1,81.7,121.2,81.8,121.1c-0.1-0.2-0.2-0.5-0.3-0.8c-0.2-0.8-0.6-1.4-1.5-1.6c-0.1,0-0.1,0-0.2-0.1
	c-0.5-0.3-1.2-0.4-1.7-0.2c-1,0.3-2,0.8-2.5,1.8c-0.4,0.8-0.1,1.7,0.8,1.9c0.5,0.1,0.9-0.1,1.3-0.4c0.3-0.3,0.2-0.6,0.1-0.9
	c-0.2-0.6-0.2-0.5,0.4-0.9c0.2-0.1,0.4,0,0.6-0.1c0.4-0.1,0.5,0.3,0.5,0.5c0.1,0.2,0.2,0.5-0.1,0.7c-0.7,0.4-1.3,0.9-1.9,1.4
	c-0.6,0.4-1.1,1.7-0.9,2.4c0.1,0.3,0.3,0.4,0.4,0.7c0.2,0.4,1,0.8,1.5,0.6c0.7-0.4,1.5-0.6,2-1.4c0.1-0.1,0.2-0.1,0.3,0
	c0.4,0.5,1.3,0.5,1.8,0.1c0.5-0.4,0.5-0.4,0.2-1c0-0.1-0.1-0.1-0.1-0.2C82.2,122.9,82,122,81.8,121.1z M85.4,121.7
	c-0.1-0.4-0.2-0.8-0.2-1.1c-0.1-0.6,0-1.3-0.2-1.9c0-0.1-0.1-0.4,0-0.4c0.2-0.1,0.4-0.5,0.7-0.4c0.1,0,0.2,0,0.3,0.2
	c0.2,0.4,0.4,0.8,0.4,1.3c0,0.8,0.2,1.7,0.4,2.5c0.1,0.2,0.1,0.5,0,0.7c-0.1,0.2,0,0.4,0.2,0.6c0.2,0.1,0.4,0.1,0.6,0
	c0.3-0.2,0.6-0.3,1-0.4c0.4-0.1,0.6-0.4,0.4-0.8c-0.1-0.1-0.1-0.3-0.1-0.4c-0.1-0.6-0.1-1.2-0.2-1.8c-0.2-0.8-0.5-1.6-0.7-2.4
	c-0.2-0.6-0.8-1-1.4-0.9c-0.8,0.2-1.5,0.4-1.9,1.2c-0.1,0.1-0.2,0.2-0.3,0c-0.2-0.4-0.6-0.4-1-0.3c-0.3,0.1-0.4,0.2-0.7,0.3
	c-0.8,0.3-1,0.8-0.5,1.5c0.1,0.2,0.2,0.4,0.2,0.6c0.4,1.4,0.4,2.8,0.6,4.2c0.1,0.4,0.2,0.5,0.6,0.5c0.7-0.1,1.3-0.4,1.9-0.5
	c0.2-0.1,0.4-0.2,0.4-0.4c0-0.2-0.1-0.5-0.3-0.5c-0.1,0-0.2-0.1-0.2-0.2C85.5,122.3,85.4,122,85.4,121.7z M47,126.4
	c-0.1-0.4-0.2-0.7-0.2-1c-0.1-0.7,0.2-1.2,0.8-1.2c0.4,0,0.7,0.3,1.1,0.4c0.1,0.1,0.1,0.3,0.1,0.5c0.2,1,1.4,1.5,2.3,1
	c0.1,0,0.1-0.1,0.1-0.2c0.4-0.8,0.2-1.5-0.3-2.2c-0.5-0.7-1.3-0.9-2.1-1.1c-0.4-0.1-0.7-0.3-1.1-0.2c-0.5,0.1-1,0.2-1.5,0.6
	c-0.8,0.6-1.3,1.4-1.3,2.5c0,1.1,0.3,2,0.8,3c0.2,0.5,0.4,1,0.9,1.3c0.6,0.3,1,0.9,1.7,1c0.4,0.1,1.3,0.3,1.8,0.4
	c0.7,0,1.3-0.3,1.9-0.6c0.7-0.3,1.1-1.5,0.9-2.3c0-0.2-0.1-0.5-0.3-0.5c-0.3,0-0.5,0.2-0.5,0.4c-0.2,1-1.5,1.4-2.3,1.2
	c-0.7-0.2-1.3-0.6-1.7-1.1C47.6,127.8,47.1,127.2,47,126.4z M67.4,125.1c0-0.6-0.5-1.2-1-1.7c-0.5-0.5-1.1-0.8-1.8-0.7
	c-0.8,0-1.6,0.2-2.4,0.4c-1.4,0.5-2,1.8-1.9,3c0.1,1,0.5,1.8,1.3,2.4c0.6,0.5,1.1,0.9,1.9,0.9c0.5,0.1,1.1-0.1,1.6,0.1
	c0.1,0,0.2,0,0.3-0.1c0.5-0.2,0.9-0.6,1.2-1C67.5,127.4,67.7,126.4,67.4,125.1z M90.1,122.1c0.6-0.2,1.1-0.6,1.7-0.9
	c0.2-0.1,0.2-0.3,0.1-0.5c-0.3-0.7-0.4-1.5-0.5-2.3c-0.2-1-0.4-2-0.4-3c0-0.3-0.2-0.4-0.4-0.4c-0.2,0-0.3,0.1-0.5,0.2
	c-0.3,0.2-0.6,0.5-1,0.5c-0.3,0-0.5,0.1-0.6,0.4c-0.1,0.2,0,0.4,0.2,0.6c0.1,0.1,0.2,0.2,0.2,0.4c0.1,0.8,0.2,1.5,0.4,2.3
	c0.2,0.7,0.4,1.4,0.2,2.1C89.3,121.9,89.6,122.2,90.1,122.1z M90.8,113.2c0-0.1,0-0.1,0-0.2c-0.3-0.8-1.1-1.4-2-0.6
	c-0.5,0.4-0.5,1.1-0.5,1.7c0,0.4,0.2,0.8,0.7,0.9C89.8,115.2,91.2,114.1,90.8,113.2z M93.1,120.7c0.6-0.2,0.9-0.6,0.7-1.2
	c-0.1-0.5-0.4-0.7-0.8-0.6c-0.6,0.2-0.9,0.7-0.7,1.4C92.5,120.8,92.7,120.9,93.1,120.7z"/>
<path class="st4" d="M24.4,110.9c-0.2-0.2-0.5-0.2-0.8-0.3c-0.7-0.2-1.4-0.5-2-0.8c-0.7-0.4-1.5-0.8-2-1.6c-0.2-0.3-0.2-0.6-0.3-0.9
	c0-0.1-0.1-0.1-0.1-0.1c0,0,0-0.1,0-0.1c0.3-0.2,0.1-0.5,0.1-0.6c-0.1-0.4,0.1-0.7,0.3-1c0.3-0.5,0.6-0.9,1-1.4
	c0.5-0.7,1.1-1.2,1.6-1.8c0.4-0.5,1-0.9,1.6-1.4c0.6-0.4,1.2-0.8,1.8-1.1c0.8-0.4,1.5-0.8,2.3-1.1c0.8-0.4,1.6-0.8,2.3-1.3
	c0.7-0.4,1.4-0.7,2.1-1.1c0.3-0.2,0.6-0.4,0.9-0.5c0.7-0.4,1.4-0.7,2.1-1c0.7-0.3,1.4-0.5,2.1-0.8c1.4-0.5,2.9-1.1,4.3-1.5
	c0.7-0.2,1.4-0.4,2.1-0.6c0.5-0.2,1-0.4,1.4-0.6c0.4-0.1,0.9-0.2,1.3-0.4c0.8-0.2,1.6-0.5,2.3-0.8c1-0.4,2.1-0.7,3.1-1
	c0.7-0.2,1.4-0.3,2.1-0.5c0.7-0.2,1.4-0.6,2.1-0.8c0.9-0.3,1.8-0.6,2.8-0.8c0.6-0.1,1.3-0.4,1.9-0.5c0.7-0.1,1.4-0.4,2.1-0.5
	c0.9-0.1,1.8-0.4,2.7-0.6c0.8-0.1,1.5-0.3,2.3-0.4c0.6-0.1,1.3-0.2,1.9-0.4c0.9-0.2,1.8-0.4,2.7-0.6c1.4-0.2,2.8-0.3,4.1-0.5
	c0.7-0.1,1.5-0.2,2.2-0.3c1-0.1,2-0.2,3-0.3c0.5-0.1,1.1-0.1,1.6-0.2c0.6-0.1,1.2-0.1,1.8-0.2c-0.5,1-1.1,2-1.4,3.1
	c-0.5,0.1-1.1,0.1-1.6,0.2c-1,0.2-2,0.2-3,0.5c-0.8,0.2-1.7,0.3-2.5,0.4c-0.8,0.1-1.6,0.3-2.3,0.5c-0.8,0.2-1.7,0.4-2.6,0.5
	c-1.1,0.1-2.1,0.5-3.1,0.6c-0.9,0.1-1.8,0.2-2.7,0.4c-0.7,0.2-1.5,0.3-2.2,0.5c-1.2,0.3-2.5,0.6-3.7,0.9c-1.8,0.4-3.6,0.8-5.4,1.3
	c-1.2,0.3-2.5,0.6-3.7,1c-0.6,0.2-1.2,0.3-1.8,0.5c-0.4,0.2-0.8,0.3-1.2,0.4c-0.7,0.2-1.4,0.4-2.1,0.6c-0.5,0.1-1,0.4-1.5,0.6
	c-0.6,0.2-1.2,0.4-1.7,0.6c-0.8,0.4-1.6,0.6-2.4,1c-0.6,0.3-1.3,0.5-2,0.8c-0.6,0.2-1.1,0.5-1.7,0.8c-0.6,0.3-1.3,0.6-1.9,0.9
	c-1.1,0.5-2.2,1.1-3.4,1.6c-1.1,0.5-2.2,1.2-3.2,1.9c-0.5,0.4-1,0.8-1.5,1.1c-0.5,0.4-1,0.8-1.2,1.5c-0.2,0.6,0,1.7,0.8,1.9
	c0.8,0.2,1.5,0.5,2.3,0.5c0.3,0,0.6,0,0.9,0c0.6,0.1,1.1,0.1,1.7-0.1c0.2,0,0.3,0,0.4,0.1c0.2,0.3,0.5,0.4,0.9,0.3
	c-0.3-0.3-0.4-0.7-0.2-1.1c0.2,0.1,0,0.5,0.3,0.5c0,0,0.2,0.3,0.2,0.3c0,0.1-0.2,0.1-0.2,0.2c0.1,0,0.2,0,0.3,0
	c0.8,0.3,1.6,0.2,2.4,0.1c0.7,0,1.4-0.2,2.1-0.2c1.2-0.1,2.5,0,3.7-0.3c0,0,0.1,0,0.1,0c0.6,0,1.2,0.1,1.9,0
	c0.4-0.1,0.7-0.2,1.1-0.2c0.8-0.1,1.7-0.2,2.5-0.3c0.9-0.2,1.8-0.4,2.7-0.5c0.2,0,0.4-0.1,0.7-0.1c0.6-0.1,1.1-0.3,1.7-0.4
	c0.8-0.1,1.5-0.3,2.2-0.4c0.5-0.1,0.9-0.2,1.4-0.3c1-0.2,2.1-0.2,3.1-0.4c0.8-0.2,1.6-0.4,2.4-0.5c1.1-0.2,2.2-0.5,3.3-0.7
	c0.5-0.1,1-0.3,1.5-0.4c0.4,0,0.8-0.1,1.1-0.2c0.1-0.1,0.3-0.2,0.4-0.2c0.9,0,1.7-0.3,2.5-0.6c1.2-0.4,2.5-0.7,3.7-1
	c0.7-0.2,1.5-0.4,2.2-0.7c1.2-0.5,2.6-0.8,3.8-1.1c1-0.3,2-0.5,2.9-0.8c0.5-0.2,1.1-0.3,1.6-0.5c0.8-0.4,1.7-0.9,2.6-1.1
	c0.7-0.1,1.4-0.4,2.1-0.5c0.9-0.1,1.8-0.6,2.6-0.8c1-0.3,2.1-0.7,3-1.2c0.6-0.3,1.3-0.5,1.8-0.9c0.3-0.3,0.6-0.4,0.9-0.5
	c0.4-0.2,0.9-0.3,0.9-0.8c0,0,0.1,0,0.1,0c0,0,0.1,0,0.1,0c0.9-0.4,1.7-1,2.4-1.6c0.7-0.6,0.9-1.4,1.5-2c0.1-0.1,0.1-0.2,0.1-0.3
	c0.1-0.9-0.6-1.4-1.1-1.9c-0.7-0.6-1.6-0.6-2.5-0.7c-0.3,0-0.6,0-0.9-0.1c-0.7-0.2-1.4-0.3-2.2-0.3c-1.3,0-2.6-0.1-4,0
	c0.5-0.9,1.1-1.8,1.7-2.7c0.8,0,1.5,0.1,2.3,0.1c0.9,0,1.8,0,2.7,0c0.3,0,0.6,0.1,0.9,0c0.8-0.1,1.4,0.2,2.1,0.4
	c0.5,0.1,1.1,0.1,1.5,0.4c0.5,0.3,1.1,0.4,1.6,0.5c0.7,0.1,1.3,0.5,1.9,0.9c0.3,0.2,0.6,0.6,0.8,1c0.2,0.6,0.5,1.2,0.5,1.8
	c0,0.8-0.2,1.6-0.9,2.3c-0.7,0.8-1.3,1.6-2,2.5c0,0.1-0.1,0.1-0.1,0.1c-0.3,0.4-0.8,0.5-1.2,0.8c-0.4,0.4-0.9,0.6-1.2,1.1
	c-0.1,0.2-0.4,0.2-0.5,0.4c-0.5,0.4-0.9,0.7-1.4,1.1c0,0-0.1,0-0.2,0c-0.3,0.1-0.6,0.2-0.8,0.4c-0.4,0.5-1,0.7-1.5,1
	c-0.6,0.3-1.2,0.8-1.8,0.9c-0.6,0.1-1.1,0.3-1.7,0.4c-0.3,0.1-0.7,0.2-1,0.4c-0.3,0.2-0.6,0.3-0.9,0.4c-0.6,0.2-1.1,0.5-1.7,0.7
	c-0.3,0.1-0.4,0.2-0.6,0.4c-0.2,0.2-0.5,0.2-0.8,0.3c-0.3,0.2-0.7,0.3-1,0.4c-0.6,0.2-1.2,0.3-1.8,0.5c-0.8,0.3-1.5,0.7-2.3,0.9
	c-0.2,0-0.4,0.1-0.7,0c-0.1,0-0.2,0.1-0.3,0.1c-0.7,0.2-1.4,0.6-2.1,0.7c-0.3,0-0.5,0.4-0.8,0.2c-0.3,0.3-0.7,0.3-1,0.4
	c-0.9,0.2-1.8,0.5-2.7,0.7c-0.8,0.2-1.5,0.4-2.3,0.5c-0.7,0.1-1.3,0.4-1.9,0.5c-0.9,0.1-1.7,0.4-2.6,0.5c-0.6,0.1-1.1,0.2-1.6,0.3
	c-0.6,0.2-1.2,0.3-1.7,0.4c-0.6,0.1-1.2,0.3-1.8,0.4c-0.6,0.1-1.2,0.3-1.9,0.4c-0.5,0.1-1,0.2-1.5,0.3c-0.6,0.1-1.3,0.3-1.9,0.4
	c-0.3,0-0.6,0.1-0.9,0.2c-0.3,0.1-0.7,0.2-1,0.3c-1.1,0.2-2.3,0.4-3.4,0.7c-0.6,0.1-1.2,0.3-1.8,0.4c-0.5,0.1-1.1,0.2-1.7,0.3
	c-0.6,0.1-1.1,0.3-1.7,0.4c-0.6,0.1-1.2,0.3-1.8,0.3c-0.7,0.1-1.3,0.2-2,0.3c-0.9,0.2-1.8,0.3-2.6,0.4c-0.5,0.1-1,0.3-1.5,0.1
	c-0.3-0.1-0.6,0-0.9,0c-0.8,0.1-1.6-0.1-2.4,0.1c-0.5,0.1-1,0.1-1.5,0.1c-0.3,0-0.7,0-1,0.1c-0.9,0.1-1.9,0-2.8-0.1
	c-0.5-0.1-1.1,0-1.7,0c-0.5,0-1.1-0.1-1.6-0.2c-1.2-0.1-2.4-0.5-3.6-0.5C24.9,111,24.6,111,24.4,110.9z"/>
<path class="st5" d="M83.9,86c0.4-1.1,1-2,1.4-3.1c0.3-0.5,0.5-1.1,0.7-1.6c0.3-0.6,0.6-1.3,0.8-1.9c0.3-0.7,0.6-1.3,0.9-2
	c0.2-0.5,0.5-0.9,0.7-1.4c0.5-1.2,1.2-2.3,1.9-3.4c0.9-1.4,1.6-2.9,2.4-4.4c0.5-1,1-2.1,1.4-3.2c0.5-1.4,1-2.7,1.5-4.1
	c0.1-0.3,0.2-0.5,0.4-0.7c0.6-0.8,0.8-1.8,1.4-2.6c0.3-0.5,0.7-0.9,1-1.4c0.3-0.5,0.5-1,0.8-1.5c0.4-0.5,0.8-1.1,1-1.7
	c0.3-0.8,0.8-1.4,1.2-2.2c0.2-0.4,0.3-0.8,0.7-1.1c0.9-0.8,2-1.2,3.2-1c1,0.2,1.9,0.3,2.7,0.9c0.3,0.2,0.5,0.5,0.5,0.7
	c0.2,0.8,0.5,1.7,0.4,2.6c-0.1,0.6-0.2,1.2-0.5,1.8c-0.2,0.3-0.4,0.8-0.3,1.1c0.2,0.9-0.3,1.4-0.6,2.1c-0.3,1-0.8,1.9-1.5,2.7
	c-0.8,1-1.1,2.2-1.7,3.2c-0.5,0.8-1,1.5-1.5,2.2c-0.7,1.1-1.5,2.2-2.1,3.3c-0.4,0.7-0.8,1.3-1.1,2c-0.5,0.8-0.9,1.7-1.3,2.6
	c-0.2,0.5-0.5,1-0.7,1.4c-0.1,0.3-0.2,0.5-0.3,0.8c-0.4,0.6-0.8,1.2-1.3,1.8c-0.4,0.5-0.7,1-1,1.5c-0.3,0.5-0.6,0.9-0.9,1.3
	c-0.4,0.6-0.8,1.2-1.1,1.8c-0.6,0.9-1.2,1.8-1.7,2.7c-0.3,0.4-0.5,0.8-0.7,1.3c-0.2,0.5-0.5,1-0.8,1.5c-0.5,0.8-1.1,1.6-1.5,2.4
	c-0.2,0.5-0.4,1.1-0.7,1.6c-0.8,1-1.6,2-2.1,3.2c-0.1,0.2-0.2,0.3-0.4,0.4c-0.4,0.1-0.7,0.2-1.1,0.2c-0.2,0-0.4,0-0.5-0.2
	c-0.2-0.2-0.5-0.3-0.7-0.5c0-0.1-0.1,0-0.2,0c-0.8,0.3-1.6,0.4-2.4,0.7c-0.2,0.1-0.4,0.1-0.6-0.1c-0.1-0.2-0.1-0.4,0-0.7
	c0.2-0.2,0.4-0.5,0.5-0.8c0.6-1.3,1.1-2.7,1.8-4C82.9,88.9,83.5,87.5,83.9,86z"/>
<path class="st6" d="M70,121.6c0.4-0.5,0.9-0.8,1.5-1c0.6-0.3,1.2-0.1,1.8,0c0.2,0,0.4,0.1,0.6,0.1c0.4,0,0.7,0.3,0.8,0.6
	c0.2,0.5,0.4,0.9,0.6,1.4c0.3,1.1,0.4,2.3,0.1,3.4c-0.1,0.3-0.2,0.5-0.4,0.7c-0.2,0.5-0.7,0.3-1.1,0.5c-0.3,0.1-0.6,0.2-0.9,0.4
	c-0.6,0.2-1.2,0.2-1.9,0c-0.1,0-0.2-0.1-0.3,0c-0.4,0.3-0.9,0.4-1.3,0.6c-0.2,0.1-0.4,0-0.5-0.2c-0.2-1.2-0.8-2.2-0.9-3.3
	c-0.2-1.1-0.5-2.2-0.9-3.3c-0.1-0.2-0.1-0.4-0.1-0.5c0-0.2-0.1-0.4-0.4-0.5c-0.2,0-0.3-0.3-0.2-0.5c0-0.2,0.2-0.3,0.4-0.3
	c0.6-0.1,1.2-0.2,1.7-0.5c0.4-0.2,0.6,0,0.7,0.4c0.2,0.5,0.3,1,0.4,1.5C69.8,121.4,69.9,121.5,70,121.6z M73.1,124.1
	c-0.2-0.8-0.7-1.2-1.3-1.5c-0.2-0.1-0.4-0.3-0.6-0.2c-0.4,0.1-0.9,0.8-0.9,1.2c0,0.3,0.1,0.6,0.2,0.8c0.1,0.5,0.4,1,0.5,1.6
	c0,0.2,0,0.5,0.3,0.7c0.7,0.4,1.5,0.2,1.9-0.4c0-0.1,0.1-0.2,0.1-0.2C73.2,125.3,73.2,124.6,73.1,124.1z"/>
<path class="st6" d="M59.6,130c-0.3,0.1-0.6,0.1-0.9,0.3c-0.4,0.2-0.7,0-0.7-0.5c0-0.8-0.2-1.5-0.5-2.2c-0.2-0.5-0.3-1.1-0.6-1.6
	c-0.1-0.1-0.1-0.2-0.2-0.3c-0.3-0.4-0.5-0.3-0.8,0c-0.4,0.7-0.6,1.3-0.2,2.1c0.3,0.5,0.3,1,0.5,1.5c0.1,0.3,0.3,0.6,0.4,0.8
	c0.1,0.2,0.1,0.2,0,0.3c-0.2,0.2-0.4,0.2-0.6,0.2c-0.5,0-1,0.1-1.5,0.3c-0.2,0.1-0.4,0-0.6-0.1c-0.1-0.2-0.2-0.4-0.1-0.6
	c0-0.1,0.1-0.1,0-0.2c-0.2-0.2-0.3-0.5-0.3-0.8c-0.1-0.6-0.5-1.1-0.6-1.7c-0.3-0.9-0.7-1.8-1-2.7c-0.1-0.5-0.4-1-0.7-1.4
	c-0.3-0.4-0.3-0.6,0.2-0.8c0.4-0.1,0.8-0.3,1.3-0.3c0.5,0,0.8,0.2,0.9,0.7c0.2,0.7,0.5,1.3,0.7,2c0,0.1,0,0.2,0.1,0.2
	c0.1,0,0.1-0.1,0.2-0.2c0.4-0.7,1.1-0.9,1.8-0.9c1.3-0.1,2.3,0.6,2.8,1.9c0.4,1,0.6,2,1.1,3c0,0,0,0,0,0c0.4,0.9,0.4,0.9-0.6,1.1
	C59.9,130,59.8,130,59.6,130z"/>
<path class="st6" d="M81.8,121.1c0.2,0.9,0.4,1.7,0.6,2.6c0,0.1,0,0.1,0.1,0.2c0.3,0.6,0.3,0.6-0.2,1c-0.5,0.4-1.4,0.4-1.8-0.1
	c-0.1-0.1-0.2-0.1-0.3,0c-0.4,0.8-1.3,1-2,1.4c-0.4,0.2-1.3-0.1-1.5-0.6c-0.1-0.2-0.3-0.4-0.4-0.7c-0.2-0.7,0.2-2,0.9-2.4
	c0.7-0.4,1.3-1,1.9-1.4c0.3-0.2,0.2-0.5,0.1-0.7c-0.1-0.2-0.1-0.6-0.5-0.5c-0.2,0-0.4-0.1-0.6,0.1c-0.5,0.3-0.5,0.3-0.4,0.9
	c0.1,0.3,0.2,0.7-0.1,0.9c-0.4,0.3-0.8,0.5-1.3,0.4c-0.9-0.2-1.2-1.1-0.8-1.9c0.6-1,1.5-1.5,2.5-1.8c0.5-0.2,1.2-0.1,1.7,0.2
	c0.1,0,0.1,0.1,0.2,0.1c0.9,0.1,1.3,0.8,1.5,1.6C81.6,120.6,81.7,120.9,81.8,121.1C81.7,121.2,81.8,121.1,81.8,121.1z M79.1,124.6
	c0.1,0,0.2-0.1,0.3-0.2c0.3-0.3,0.3-0.7,0.6-1.1c0.1-0.1-0.3-0.8-0.3-0.9c-0.1-0.1-0.2,0-0.3,0.1c-0.4,0.2-0.6,0.6-0.9,0.8
	c-0.4,0.3-0.1,0.6,0,0.9C78.5,124.5,78.8,124.6,79.1,124.6z"/>
<path class="st6" d="M85.4,121.7c0,0.2,0.2,0.6,0.2,0.9c0,0.2,0.1,0.2,0.2,0.2c0.3,0.1,0.3,0.3,0.3,0.5c0,0.2-0.2,0.4-0.4,0.4
	c-0.6,0.1-1.2,0.5-1.9,0.5c-0.4,0-0.6-0.1-0.6-0.5c-0.3-1.4-0.3-2.8-0.6-4.2c-0.1-0.2-0.1-0.4-0.2-0.6c-0.5-0.7-0.3-1.2,0.5-1.5
	c0.2-0.1,0.4-0.3,0.7-0.3c0.4-0.1,0.7-0.1,1,0.3c0.1,0.2,0.2,0.1,0.3,0c0.4-0.8,1.2-1,1.9-1.2c0.6-0.2,1.2,0.3,1.4,0.9
	c0.2,0.8,0.5,1.6,0.7,2.4c0.1,0.6,0.1,1.2,0.2,1.8c0,0.2,0,0.3,0.1,0.4c0.2,0.4,0.1,0.7-0.4,0.8c-0.4,0.1-0.7,0.2-1,0.4
	c-0.2,0.1-0.4,0.1-0.6,0c-0.2-0.1-0.2-0.4-0.2-0.6c0.1-0.3,0.1-0.5,0-0.7c-0.2-0.8-0.4-1.6-0.4-2.5c0-0.5-0.3-0.9-0.4-1.3
	c-0.1-0.1-0.2-0.1-0.3-0.2c-0.3,0-0.5,0.3-0.7,0.4c-0.1,0,0,0.3,0,0.4c0.2,0.6,0.1,1.3,0.2,1.9C85.2,120.9,85.3,121.3,85.4,121.7z"
	/>
<path class="st6" d="M47,126.4c0,0.7,0.5,1.3,1.1,1.9c0.5,0.5,1.1,0.9,1.7,1.1c0.8,0.3,2.1-0.1,2.3-1.2c0.1-0.3,0.3-0.5,0.5-0.4
	c0.3,0,0.3,0.3,0.3,0.5c0.2,0.8-0.2,2-0.9,2.3c-0.6,0.3-1.2,0.6-1.9,0.6c-0.4,0-1.3-0.3-1.8-0.4c-0.7-0.1-1.1-0.7-1.7-1
	c-0.5-0.3-0.7-0.8-0.9-1.3c-0.5-0.9-0.8-1.9-0.8-3c0-1.1,0.5-1.8,1.3-2.5c0.4-0.3,0.9-0.5,1.5-0.6c0.4-0.1,0.8,0.1,1.1,0.2
	c0.8,0.2,1.6,0.4,2.1,1.1c0.4,0.7,0.7,1.4,0.3,2.2c0,0.1-0.1,0.1-0.1,0.2c-0.9,0.5-2.1,0-2.3-1c0-0.2,0-0.5-0.1-0.5
	c-0.4-0.1-0.7-0.4-1.1-0.4c-0.6,0-0.9,0.4-0.8,1.2C46.9,125.7,46.9,126,47,126.4z"/>
<path class="st6" d="M67.4,125.1c0.3,1.3,0.1,2.4-0.7,3.3c-0.4,0.4-0.8,0.8-1.2,1c-0.1,0-0.2,0.1-0.3,0.1c-0.5-0.2-1.1,0-1.6-0.1
	c-0.8-0.1-1.3-0.5-1.9-0.9c-0.8-0.6-1.2-1.4-1.3-2.4c-0.1-1.2,0.5-2.5,1.9-3c0.8-0.3,1.6-0.4,2.4-0.4c0.7,0,1.3,0.3,1.8,0.7
	C66.9,123.9,67.4,124.4,67.4,125.1z M65.2,126.5c-0.1-0.8-0.5-1.5-0.8-2.2c-0.2-0.4-0.6-0.5-0.9-0.5c-0.4,0-0.8,0.1-1.1,0.5
	c-0.2,0.4-0.1,0.7,0,1.1c0.2,0.8,0.4,1.7,0.9,2.4c0.2,0.3,1,0.7,1.4,0.6c0.3-0.1,0.7-0.6,0.6-1C65.4,127.2,65.3,126.8,65.2,126.5z"
	/>
<path class="st6" d="M90.1,122.1c-0.5,0.1-0.9-0.1-0.7-0.6c0.3-0.8,0.1-1.4-0.2-2.1c-0.2-0.7-0.4-1.5-0.4-2.3c0-0.2,0-0.3-0.2-0.4
	c-0.2-0.1-0.3-0.4-0.2-0.6c0.1-0.2,0.3-0.3,0.6-0.4c0.4,0,0.7-0.3,1-0.5c0.1-0.1,0.3-0.2,0.5-0.2c0.3,0,0.4,0.1,0.4,0.4
	c0,1,0.2,2,0.4,3c0.1,0.8,0.2,1.6,0.5,2.3c0.1,0.2,0,0.4-0.1,0.5C91.3,121.4,90.7,121.8,90.1,122.1z"/>
<path class="st6" d="M90.8,113.2c0.4,1-0.9,2-1.8,1.8c-0.5-0.1-0.7-0.5-0.7-0.9c0-0.6-0.1-1.2,0.5-1.7c0.9-0.8,1.7-0.2,2,0.6
	C90.7,113.1,90.7,113.1,90.8,113.2z"/>
<path class="st6" d="M93.1,120.7c-0.4,0.1-0.6,0-0.7-0.4c-0.2-0.7,0-1.2,0.7-1.4c0.3-0.1,0.7,0.1,0.8,0.6
	C94,120.1,93.7,120.6,93.1,120.7z"/>
<path class="st3" d="M82.1,90.3c-1.1-0.2-2.2-0.1-3.3,0.1c-0.8,0.1-1.5,0.4-2.2,0.6c-0.5,0.1-1,0.3-1.6,0.4
	c-0.8,0.2-1.7,0.4-2.5,0.6c-1,0.2-1.9,0.4-2.9,0.5c-0.9,0.1-1.7,0.4-2.6,0.3c-1.7-0.1-3.4,0.2-5.1,0.2c-0.5,0-0.9,0.2-1.4,0.3
	c-0.5,0.1-1,0.2-1.5,0.4c-0.6,0.2-1.2,0.3-1.7,0.7c-0.3,0.2-0.5,0.5-0.9,0.7c-0.7,0.4-1.4,0.8-2.1,1.1c-0.7,0.3-1.4,0.7-1.9,1.2
	c-0.7,0.7-1.5,1.1-2.3,1.4c-0.4,0.2-0.7,0.4-1.1,0.5c-0.5,0.2-1.1,0.3-1.6,0.4c-0.6,0.2-1.2,0.3-1.8,0.5c-0.7,0.2-1.4,0.4-2.1,0.6
	c-0.9,0.4-1.7,0.6-2.6,0.9c-0.6,0.2-1.1,0.4-1.6,0.7c-0.5,0.2-0.9,0.5-1.4,0.8c-0.9,0.5-1.9,0.9-2.7,1.5c-0.4,0.3-0.8,0.7-1.3,1
	c-0.5,0.2-0.9,0.6-1.4,0.8c-0.1,0.1-0.2,0.2-0.3,0.2c-0.2,0-0.2,0.1-0.2,0.2c0,0,0,0,0,0c-0.2,0.4-0.1,0.7,0.2,1.1
	c-0.4,0.1-0.7,0-0.9-0.3c-0.1-0.1-0.2-0.2-0.4-0.1c-0.5,0.2-1.1,0.2-1.7,0.1c-0.3-0.1-0.6,0-0.9,0c-0.8,0-1.5-0.3-2.3-0.5
	c-0.8-0.2-1-1.3-0.8-1.9c0.2-0.7,0.7-1.1,1.2-1.5c0.5-0.4,1-0.8,1.5-1.1c1-0.7,2.1-1.4,3.2-1.9c1.1-0.5,2.2-1.1,3.4-1.6
	c0.7-0.3,1.3-0.6,1.9-0.9c0.6-0.3,1.1-0.6,1.7-0.8c0.7-0.3,1.3-0.5,2-0.8c0.8-0.4,1.6-0.6,2.4-1c0.6-0.2,1.2-0.4,1.7-0.6
	c0.5-0.2,1-0.4,1.5-0.6c0.7-0.2,1.4-0.4,2.1-0.6c0.4-0.1,0.8-0.3,1.2-0.4c0.6-0.2,1.2-0.3,1.8-0.5c1.2-0.4,2.5-0.6,3.7-1
	c1.8-0.5,3.6-0.9,5.4-1.3c1.2-0.3,2.5-0.5,3.7-0.9c0.7-0.2,1.5-0.3,2.2-0.5c0.9-0.2,1.8-0.3,2.7-0.4c1.1-0.1,2.1-0.5,3.1-0.6
	c0.9-0.1,1.7-0.3,2.6-0.5c0.8-0.2,1.5-0.4,2.3-0.5c0.8-0.2,1.7-0.2,2.5-0.4c1-0.3,2-0.3,3-0.5c0.5-0.1,1.1-0.2,1.6-0.2
	C83.5,87.5,82.9,88.9,82.1,90.3z"/>
<path class="st3" d="M98,92.1c0.2-0.2,0.4-0.4,0.5-0.7c0.2-0.4-0.2-1.1-0.7-1.3c-0.6-0.2-1.3-0.2-2-0.2c-0.3,0-0.5,0-0.8,0
	c-1.2-0.1-2.3-0.2-3.5,0.1c-1,0.2-2.1,0.2-3.1,0.4c0.5-0.8,1-1.6,1.5-2.4c0.3-0.5,0.6-1,0.8-1.5c0.2-0.5,0.4-0.9,0.7-1.3
	c1.3-0.1,2.6,0,4,0c0.7,0,1.5,0.1,2.2,0.3c0.3,0.1,0.6,0.1,0.9,0.1c0.9,0.1,1.8,0.1,2.5,0.7c0.5,0.5,1.2,1,1.1,1.9
	c0,0.1,0,0.2-0.1,0.3c-0.6,0.6-0.9,1.5-1.5,2c-0.7,0.7-1.5,1.2-2.4,1.6C98.1,92.2,98,92.1,98,92.1z"/>
<path class="st3" d="M73.1,124.1c0.1,0.5,0.1,1.2,0.2,1.8c0,0.1,0,0.2-0.1,0.2c-0.4,0.6-1.2,0.8-1.9,0.4c-0.3-0.2-0.3-0.4-0.3-0.7
	c-0.1-0.6-0.4-1-0.5-1.6c-0.1-0.3-0.1-0.6-0.2-0.8c-0.1-0.4,0.5-1.1,0.9-1.2c0.2,0,0.4,0.1,0.6,0.2
	C72.3,122.9,72.9,123.2,73.1,124.1z"/>
<path class="st3" d="M79.1,124.6c-0.3,0-0.6,0-0.7-0.3c-0.1-0.3-0.3-0.6,0-0.9c0.3-0.3,0.6-0.6,0.9-0.8c0.1-0.1,0.2-0.1,0.3-0.1
	c0.1,0.1,0.4,0.8,0.3,0.9c-0.3,0.3-0.3,0.8-0.6,1.1C79.3,124.5,79.2,124.6,79.1,124.6z"/>
<path class="st3" d="M65.2,126.5c0.1,0.3,0.2,0.6,0.2,1c0,0.4-0.4,0.9-0.6,1c-0.4,0.1-1.1-0.3-1.4-0.6c-0.6-0.7-0.7-1.5-0.9-2.4
	c-0.1-0.4-0.2-0.7,0-1.1c0.2-0.5,0.7-0.5,1.1-0.5c0.4,0,0.7,0,0.9,0.5C64.7,125,65.1,125.7,65.2,126.5z"/>
<g>
	<path class="st7" d="M82.1,90.3c-0.7,1.3-1.2,2.6-1.8,4c-0.1,0.3-0.3,0.5-0.5,0.8c-0.2,0.2-0.2,0.4,0,0.7c0.1,0.2,0.4,0.2,0.6,0.1
		c0.8-0.3,1.6-0.4,2.4-0.7c0.1,0,0.1,0,0.2,0c0.2,0.2,0.5,0.3,0.7,0.5c0.2,0.2,0.4,0.2,0.5,0.2c0.4,0,0.7-0.1,1.1-0.2
		c0.2,0,0.3-0.2,0.4-0.4c0.5-1.2,1.3-2.2,2.1-3.2c0.4-0.5,0.5-1,0.7-1.6c1-0.3,2.1-0.2,3.1-0.4c1.1-0.3,2.3-0.1,3.5-0.1
		c0.3,0,0.5,0,0.8,0c0.7-0.1,1.3-0.1,2,0.2c0.5,0.2,0.9,0.9,0.7,1.3c-0.1,0.3-0.3,0.5-0.5,0.7c0,0-0.1,0-0.1,0
		c0,0.6-0.6,0.7-0.9,0.8c-0.3,0.1-0.7,0.3-0.9,0.5c-0.5,0.5-1.2,0.6-1.8,0.9c-1,0.5-2,0.9-3,1.2c-0.9,0.3-1.7,0.7-2.6,0.8
		c-0.7,0.1-1.4,0.3-2.1,0.5c-0.9,0.2-1.7,0.7-2.6,1.1c-0.5,0.2-1.1,0.3-1.6,0.5c-1,0.3-2,0.5-2.9,0.8c-1.3,0.4-2.6,0.6-3.8,1.1
		c-0.7,0.3-1.4,0.5-2.2,0.7c-1.2,0.4-2.5,0.7-3.7,1c-0.8,0.2-1.7,0.5-2.5,0.6c-0.1,0-0.3,0.1-0.4,0.2c-0.4,0.1-0.8,0.2-1.1,0.2
		c-0.5,0.1-1,0.3-1.5,0.4c-1.1,0.3-2.2,0.5-3.3,0.7c-0.8,0.2-1.6,0.3-2.4,0.5c-1,0.3-2.1,0.3-3.1,0.4c-0.5,0.1-0.9,0.2-1.4,0.3
		c-0.7,0.1-1.5,0.3-2.2,0.4c-0.6,0.1-1.1,0.3-1.7,0.4c-0.2,0-0.4,0.1-0.7,0.1c-0.9,0.2-1.8,0.4-2.7,0.5c-0.8,0.1-1.7,0.2-2.5,0.3
		c-0.4,0-0.7,0.1-1.1,0.2c-0.6,0.1-1.3,0-1.9,0c0,0-0.1,0-0.1,0c-1.2,0.3-2.5,0.3-3.7,0.3c-0.7,0-1.4,0.2-2.1,0.2
		c-0.8,0-1.6,0.1-2.4-0.1c-0.1,0-0.2,0-0.3,0c0-0.1,0.1-0.1,0.2-0.2c0,0-0.2-0.3-0.2-0.3c-0.4,0-0.1-0.4-0.3-0.5c0,0,0,0,0,0
		c0.2,0,0.1-0.1,0.2-0.2c0.2,0,0.2-0.2,0.3-0.2c0.5-0.2,0.9-0.5,1.4-0.8c0.5-0.2,0.9-0.6,1.3-1c0.8-0.6,1.8-1,2.7-1.5
		c0.5-0.3,0.9-0.6,1.4-0.8c0.5-0.2,1.1-0.5,1.6-0.7c0.9-0.3,1.8-0.5,2.6-0.9c0.7-0.3,1.4-0.4,2.1-0.6c0.6-0.2,1.2-0.3,1.8-0.5
		c0.5-0.2,1.1-0.2,1.6-0.4c0.4-0.2,0.7-0.4,1.1-0.5c0.9-0.4,1.7-0.8,2.3-1.4c0.5-0.5,1.2-0.9,1.9-1.2c0.7-0.3,1.4-0.7,2.1-1.1
		c0.3-0.2,0.6-0.5,0.9-0.7c0.5-0.4,1.1-0.5,1.7-0.7c0.5-0.2,1-0.3,1.5-0.4c0.5-0.1,0.9-0.3,1.4-0.3c1.7,0,3.4-0.3,5.1-0.2
		c0.9,0,1.7-0.3,2.6-0.3c1-0.1,2-0.3,2.9-0.5c0.9-0.2,1.7-0.4,2.5-0.6c0.5-0.1,1-0.2,1.6-0.4c0.7-0.2,1.5-0.5,2.2-0.6
		C79.9,90.2,81,90.1,82.1,90.3z"/>
	<path class="st7" d="M31.9,106.9c0-0.1,0-0.2,0.2-0.2C32,106.7,32.1,106.9,31.9,106.9z"/>
</g>
</svg>
