<?xml version="1.0" encoding="utf-8"?>
<!-- Generator: Adobe Illustrator 26.4.1, SVG Export Plug-In . SVG Version: 6.00 Build 0)  -->
<svg version="1.1" id="Layer_1" xmlns="http://www.w3.org/2000/svg" xmlns:xlink="http://www.w3.org/1999/xlink" x="0px" y="0px"
	 viewBox="0 0 2560 1440" style="enable-background:new 0 0 2560 1440;" xml:space="preserve">
<style type="text/css">
	.st0{fill:#A32C2A;}
	.st1{fill:#F04D25;}
	.st2{fill:#FFFFFF;}
	.st3{fill:#6D7130;}
	.st4{fill:#082B48;}
	.st5{fill:#E02B27;}
	.st6{fill:#C0C8BC;}
	.st7{fill:#203D37;}
	.st8{fill:#004D82;}
	.st9{fill:#353F3E;}
	.st10{fill:#FDF5E4;}
</style>
<g id="Layer_1_00000157295404647369480130000004645779443785618575_">
</g>
<g id="Layer_2_00000176728047264677941910000005641841206081900676_">
	<path class="st0" d="M2326.5,473.2c0-0.2,0-0.4-0.1-0.5c-0.7-1.1-4.1-5.2-5.1-6.2c-0.7-0.7-1.2-1.7-1.7-2.5
		c-0.5-0.8-0.8-1.7-1.3-2.5c-1.6-2.5-3.2-4.9-4.8-7.3c-0.4-0.6-0.8-1.1-1.2-1.6c-1.7-1.8-2.9-3.9-4-6.1c-1.5-3.1-2.9-6.1-4.5-9.2
		c-1.1-2.2-2.3-4.3-3.5-6.5c-0.8-1.7-1.7-3.2-2.6-4.9c-1.6-3.2-3.2-6.3-4.7-9.5c-1.2-2.7-2.6-5.3-3.7-8c-0.6-1.3-1-2.7-1.3-4.1
		c-0.5-1.7-0.9-3.6-1.2-5.4c-0.6-3-1.4-5.8-2.6-8.6c-0.8-2.1-1.5-4.2-2-6.5c-0.3-1.4-0.7-2.7-1.2-4.1c-0.7-1.9-0.8-3.8-1.1-5.8
		c-0.1-0.9-0.2-1.9-0.4-2.8c-0.1-0.3-0.2-0.6-0.4-1c-1.1,1-1.7,2-1.8,3.4c-0.2,1.8-1,3.6-1.7,5.2c-0.6,1.4-0.8,2.9-0.9,4.4
		c-0.2,3.3-1,6.4-2.2,9.5c-0.7,1.7-1,3.6-1.5,5.6c-0.4,1.8-0.8,3.7-1.2,5.6c-0.6,2.4-1.2,4.7-1.8,7.1c-0.1,0.3-0.2,0.7-0.2,1
		c-0.4,4-1.2,8-2.1,11.9c-0.3,1.7-0.5,3.4-0.4,5.1c0,3.4-0.3,6.8-0.7,10.2c-0.3,2.8-0.4,5.7-0.2,8.5c0.2,3.5,0.2,7,0.3,10.4
		c0.1,2.6,0.1,5.1,0.2,7.8c0.2,4.8,1,9.6,1.9,14.3c0.5,2.4,0.9,4.8,1.4,7.2c0.1,0.6,0.3,1.2,0.5,1.7c0.7,0.3,1.3,0.1,1.8-0.3
		c1-0.7,2.1-0.9,3.2-1.2c1.5-0.2,2.9-0.7,4.3-1.1c0.2-0.1,0.5-0.2,0.8-0.2c2.2,0,4.1-0.7,6.2-1.2c1.7-0.4,3.4-0.3,4.9,0.6
		c0.3,0.2,0.7,0.3,0.8,0.8c0.1,0.2,0.5,0.5,0.7,0.6c1.6,0.8,2.7,2,3.4,3.6c0.2,0.3,0.5,0.7,0.7,0.9c0.7,0.6,1.3,1.2,1.9,1.8
		c0.6,0.7,1.1,1.4,1.2,2.3c0.2,1.6,1,3,1.8,4.2c0.7,1.1,1.2,2.2,0.9,3.6c-0.1,0.7,0,1.5,0.2,2.2c0.4,1.9,0.5,3.7,0.2,5.6
		c-0.1,0.4-0.1,0.8,0,1.2c0.3,1.1,0.2,2.1-0.2,3c-0.4,1.1-0.2,2.2-0.3,3.2c-0.1,1.7-0.5,3.2-1.2,4.7c-0.8,1.7-1.5,3.4-1.8,5.2
		c-1,5.2-3.8,9.5-7,13.7c-0.7,0.9-1.5,1.8-2.2,2.7c-1.4,1.7-3.2,3.1-5.2,3.8c-0.6,0.2-1.2,0.4-1.7,0.7c-3.8,2.4-8,3.1-12.4,2.8
		c-1.9-0.1-3.8-0.1-5.7-0.2c-1.4-0.1-2.8-0.2-4.2-0.5c-1-0.2-2-0.2-3.1-0.1c-2.5,0.4-5.1,0.2-7.5,0.2c-0.8,0-1.7-0.2-2.5-0.7
		c-0.8-0.5-1.9-0.7-2.8-1.1c-1.3-0.5-2.7-1.1-3.6-2.3c0-0.1-0.1-0.1-0.2-0.2c-0.9-0.7-2.2-1-2.7-2.1c-0.5-1-1.1-1.8-1.7-2.7
		c-1.2-1.7-2.4-3.5-3.5-5.2c-0.6-0.9-1.1-1.9-1.5-2.9c-1.4-3.2-3.2-5.6-4.3-12.3c-0.1-1.3,0.2-1.9,0.2-2.7c-0.1-1-1.4-5.4-0.6-8.5
		c0.5-2.5,0.5-4.4,0.9-5.4c0.2-0.5,0.2-1.1,0.4-1.6c0.5-1.5,2.2-5.8,2.3-5.9c0.5-0.5,0.8-1,1.6-1.2c0.7-0.2,1.3-0.8,1.9-1.5
		c1-1.1,2.2-1.8,3.1-3c0.2-0.2,0.5-0.5,0.8-0.6c1.3-0.7,2.7-1.2,4.1-1.9c0.4-0.2,0.9-0.3,1.4-0.4c2.8-0.5,5.6-0.9,8.5-1.4
		c2-0.3,4.1-0.2,6.1-0.2c0.6,0,1.2,0.2,1.7,0.4c0.9,0.3,1.7,0.5,2.4-0.3c0.6-0.7,1.3-0.1,2-0.5c0-0.3-0.1-0.7-0.2-1.1
		c-0.3-1.6-0.7-3.1-0.9-4.6c-0.6-3.4-1.2-6.9-1.7-10.3c-0.2-0.9-0.2-1.9-0.2-2.8c-0.2-2.9-0.3-5.9-0.5-8.8c-0.1-0.9-0.1-1.7,0-2.7
		c0.2-3.8,0.1-7.6-0.2-11.4c-0.3-4.4-0.2-8.8,0.5-13.3c0.5-3.2,0.7-6.5,1-9.8c0.2-2.2,0.5-4.3,1-6.5c0.5-2.3,1-4.6,1.3-7
		c0.5-3.5,1.4-6.8,2.2-10.2c0.5-2.1,0.9-4.1,1.3-6.2c0.4-2,1-4,1.9-5.8c1.2-2.4,2-4.9,2.3-7.5c0.3-2.8,1.2-5.5,2.2-8
		c0.9-2.4,1.5-5,2.2-7.5c0.2-0.4,0-0.9,0.1-1.4c0-0.2,0.1-0.7,0.2-0.7c0.8-0.4,0.6-1.3,0.9-2c0.5-0.3,1-0.7,1.4-1.1
		c0.7-0.6,1.4-0.7,2.2-0.7c0.9,0.1,1.9,0.1,2.8,0.1c1.2,0,1.7,0.7,1.5,1.8c-0.6,2.3-0.6,4.7-0.3,7c0.2,2.2,0.6,4.5,0.6,6.7
		c0,0.4,0.1,0.8,0.2,1.2c0.4,2.6,0.8,5.1,1.2,7.7c0,0.2,0,0.4,0.1,0.6c0.8,2.3,1.1,4.7,2,7c0.2,0.7,0.5,1.2,0.7,1.9
		c0.1,0.3,0.2,0.7,0.3,0.9c0.9,1,1.1,2.2,1.2,3.4c0.1,1.1,0.6,2,1,2.9c0.3,0.7,0.7,1.5,0.8,2.3c0.1,0.7,0.3,1.3,0.6,1.9
		c1.4,3.1,2.3,6.4,3.4,9.6c0.2,0.9,0.7,1.8,1,2.7c0.4,1.1,0.8,2.2,1.2,3.2c0.4,0.8,0.7,1.7,1.3,2.6c0.7,1.1,1.2,2.2,1.6,3.3
		c0.9,2.7,2.2,5.1,3.7,7.5c1.2,1.9,2.3,3.8,3.4,5.8c1.2,2.1,2.5,4.1,3.3,6.3c0,0.1,0.1,0.2,0.1,0.2c1.7,1.7,2.6,4.1,4.3,5.9
		c0.9,0.9,1.8,1.9,2.3,3.1c0.1,0.2,0.2,0.4,0.3,0.5c1.2,1.1,2,2.6,3,3.8c0.8,1.1,1.7,2.2,2.2,3.4c0.2,0.4,0.5,0.8,1,0.9
		c0.7,0.1,1,0.7,1.3,1.2c0.4,0.7,0.8,1.6,1.2,2.3c0.2,0.5,0.5,0.9,0.8,1.5c1.2-0.7,2.1-1.8,3-2.8c0.8-1,1.5-2.2,2.2-3.2
		c0.2-0.4,0.6-0.7,0.9-1.1c0.7-0.7,2.1-2.6,4.1-3.2c0.8-0.3,1.7-0.5,2.5-0.9c4.4-2.2,9.1-2.7,13.9-2.1c1.6,0.2,3.1,0.6,4.6,1
		c1.3,0.4,2.4,1,3.6,1.7c1.2,0.9,2.7,1.7,3.9,2.6c2,1.6,3.7,3.3,5,5.6c1.1,2.1,2.1,4.1,3.1,6.2c0.2,0.3,0.3,0.6,0.4,0.9
		c0.3,2.2,1.2,4.3,1.7,6.5c0.3,1.2,0.7,2.5,1.3,3.6c0.3,0.7,0.5,1.3,0.2,1.9c-0.5,1.4-0.2,2.7,0.2,4c0.3,0.8,0.4,1.7,0.4,2.6
		c0,1.3,0,2.7,0,4.1c0,0.3,0.1,0.7-0.1,1c-0.5,1-0.4,2.2-0.5,3.2c-0.1,1.1-0.2,2-0.8,2.9c-0.3,0.6-0.7,1.2-0.6,1.9
		c0.1,1.9-1.1,3.2-2.2,4.5c-0.5,0.7-1,1.2-1.5,1.9c-0.6,0.9-1.3,1.7-2.1,2.5c-1.8,1.7-3.9,3.2-6.1,4.3c-0.7,0.3-1.2,0.7-1.9,1.2
		c-0.6,0.3-1.2,0.7-1.7,1.1c-1.6,1-3.2,1.9-4.7,2.9c-0.9,0.6-1.9,1.1-2.9,1.6c-2.3,1.2-4.6,2.3-6.9,3.5c-1.1,0.5-2.1,1-3.3,1.1
		c-0.7,0.1-1.3,0.2-2,0.2c-0.8,0-1.7,0-2.4-0.2c-2.3-0.5-4.6-0.8-7-1.1c-1-0.1-2-0.2-3-0.6c-3.2-0.8-6.1-2.2-8.8-4.2
		c-0.6-0.4-1.2-0.7-1.7-1.1c-1.5-0.9-2.9-1.8-4.1-3.1c-0.9-1-2-1.8-3-2.7c-1.4-1.3-2.6-2.8-3.3-4.6c-1.4-3.2-2.5-6.6-3.1-10.1
		c-0.3-1.7-0.4-3.5-0.4-5.2c0-2.1,0.7-4.1,1.2-6c0.4-1.7,1-3.4,1.8-5c0.5-0.8,1-1.7,1.6-2.3c1.4-1.7,3.1-3.1,4.6-4.6
		c0.2-0.2,0.5-0.4,0.8-0.6c1.7-0.6,3.2-1.7,4.6-2.5c1-0.6,2.1-0.9,3.2-1.3C2324.6,473.8,2325.5,473.5,2326.5,473.2z"/>
	<path class="st1" d="M2568.3,361.3c-1-0.8-2.2-1.7-3.2-2.4c-0.4-0.3-1-0.6-1.4-1c-0.8-1-1.9-1.5-2.9-2.2c-2.8-2.1-6-3.5-9.3-4.6
		c-0.8-0.2-1.7-0.7-2.4-1.1c-0.6-0.2-1.2-0.6-1.8-0.9c-3.6-1.7-7-3.4-10.4-5.5c-1.2-0.7-2.3-1.4-3.5-2c-2.8-1.4-5.5-3-8.2-4.6
		c-6.6-3.7-13.4-6.6-20.8-8.3c-2.2-0.5-4.2-1.3-6.2-2.5c-3-1.8-6-3.6-9-5.1c-3.9-2.1-7.9-3.8-11.9-5.4c-2.2-0.8-4.3-1.8-6.4-3
		c-2.3-1.3-4.6-2.7-7-4.1c-3.3-2.1-6.8-3.9-10.4-5.6c-2.7-1.2-5.2-2.5-7.9-3.7c-2.3-1.1-4.6-2.4-6.7-3.8c-3.7-2.5-7.5-5-11.2-7.5
		c-1.6-1.1-3.2-2.1-4.8-3.2c-3.6-2.3-7.6-3.7-11.5-5.4c-3.5-1.5-7-3-10.5-4.4c-2.2-0.9-4.3-1.8-6.6-2.5c-2.8-0.8-5.6-1.4-8.5-2.2
		c-4.9-1.3-49.8-17.3-50.6-17.6c-0.3-0.1-0.7-0.2-1-0.2c-0.4-0.1-0.9,0.2-1.1,0.7c-0.1,0.2-0.2,0.4-0.2,0.7
		c-0.5,2.7-1.5,5.1-2.6,7.6c-0.5,1.2-1,2.2-1.4,3.4c-0.2,0.7-0.6,1.5-0.7,2.2c-0.5,3.5-1.3,6.8-2.5,10c-0.8,2.2-1.7,4.4-3.1,6.4
		c-1.2,1.9-2.2,3.9-2.7,6.1c-0.2,1.2-0.7,2.3-1.2,3.5c-1.5,3.6-2.4,7.5-2.5,11.4c0,1.2,0,2.2-0.2,3.3c-0.5,2.7-0.6,5.3-0.5,8
		c0,2.8,0,5.6-0.3,8.4c-0.2,1-0.2,2-0.2,3c-0.1,3.7-0.2,7.4-0.2,11.1c-0.1,3.1,0.2,6.1,1.2,9c0.7,2.2,1.4,4.5,2,6.8
		c0.8,3.2,1.9,6.2,3.2,9.2c1.3,3.2,2.5,6.5,3.6,9.8c0.4,1.2,0.8,2.6,1.3,3.8c0.7,1.6,1.5,3,2.2,4.5c0.3,0.6,0.6,1.2,1,1.7
		c1.6,2.3,3.2,4.6,4.8,6.9c0.9,1.2,1.8,2.6,3,3.6c1.4,1.3,2.7,2.7,3.8,4.2c1.2,1.6,2.7,2.9,4.2,4.3s3,2.7,4.3,4.2
		c1.5,1.5,3.5,2.5,4.7,4.2c3.2,2.5,6.1,5.3,9.5,7.6c0.6,0.4,1.1,0.7,1.7,1.2c2.2,1.4,4.5,2.6,6.5,4.2c0.3,0.2,0.7,0.5,1.2,0.7
		c2.1,1.3,4.3,2.3,6.6,3.3c1.6,0.7,3.2,1.2,4.8,1.3c1.8,0.2,3.5,0.7,5.1,1.4c1,0.5,2.1,0.9,3.1,1.3c3.3,1.3,6.6,2.7,10,3.8
		c2.7,0.9,5.3,1.7,8,2.7c2.3,0.8,4.7,1.4,7.1,1.7c2.9,0.4,5.8,0.5,8.7,0.6c2.7,0.1,5.4,0.1,8,0.2v0.1c0.1,0,0.2,0,0.3,0
		c2.7,0.1,5.4,0.2,8,0.2c4.5,0,9-0.7,13.4-1c1.1-0.1,2.2-0.6,3.2-0.8c0.4-0.1,0.9-0.2,1.3-0.2c5.8-0.6,11.4-2.2,16.8-4.5
		c5-2,10-4.1,14.9-6.1c3.4-1.5,6.8-3,10-5c1.9-1.2,3.8-2.4,5.8-3.5c1.1-0.6,2.1-1.2,3.2-2c4.5-3.2,9-6.4,13.4-9.5
		c2.2-1.6,4.3-3.2,6.3-5c1.8-1.7,3.6-3.3,4.9-5.5c1-1.6,2.2-3.1,4-4c0.4-0.2,0.7-0.5,1.1-0.8c2.8-2.5,5.6-5.2,8.6-7.5
		c0.4-0.3,0.8-0.7,1.2-1.2c1.7-2.1,3.9-3.7,5.1-6.3c0.2-0.3,0.4-0.6,0.7-0.8c1.1-1.2,2.1-2.4,3.2-3.4c1.9-1.7,3.4-3.6,4.7-5.6
		c0.8-1.3,1.8-2.6,2.9-3.6c0.2-0.2,0.5-0.5,0.7-0.7C2569.2,363.1,2569.2,362.1,2568.3,361.3z"/>
	<path class="st2" d="M2352.1,311.8l-0.4,0.9c-0.4,1-0.8,2.1-1.4,3c-0.3,0.6-0.7,1.1-1.2,1.5c-0.2,0.2-0.3,0.4-0.5,0.6
		c-1.2,1.5-2.8,2.3-4.4,3.2l-0.4,0.2c-0.6,0.3-1.1,0.4-1.7,0.4c-0.7,0-1.6-0.3-2.3-0.9c-0.7-0.5-1-1.2-0.9-1.9
		c0.1-0.6,0.1-1.2,0.1-1.8v-0.8c0.1-1,0.4-1.9,1.1-2.6l0.2-0.2c0.5-0.5,1-1.1,1.6-1.6c0.8-0.7,1.7-1.4,2.4-2
		c0.2-0.2,0.4-0.3,0.7-0.4c0.1-0.1,0.2-0.2,0.3-0.2c1.2-0.7,2.5-0.9,4.1-0.6c1,0.2,1.9,0.9,2.6,1.9
		C2352.2,311,2352.2,311.4,2352.1,311.8z"/>
	<path class="st2" d="M2371.4,336.6c-0.5,1.5-1,2.7-1.9,3.8c-0.3,0.3-0.6,0.7-0.8,1.1c-0.1,0.2-0.2,0.3-0.3,0.5l-0.1,0.1
		c-0.2,0.2-0.2,0.2-0.3,0.3c-0.2,0.2-0.5,0.6-0.8,0.7c-0.7,0.4-1.2,1-1.7,1.4c-0.9,0.9-2.1,1.3-3,1.6c-0.4,0.2-0.9,0.2-1.4,0.2
		c-0.7,0-1.4-0.2-2.2-0.4c-0.5-0.2-0.9-0.6-1.2-0.8c-0.5-0.5-0.7-1.1-0.6-1.7c0.3-1.6,0.7-3.4,1.9-4.9c0.3-0.4,0.7-0.8,1-1.2
		c0.6-0.7,1.2-1.3,1.6-2.1l0.1-0.2c1.4-1.4,3.1-2.7,5.3-3.2c0.4-0.1,0.9-0.1,1.3,0.1c0.6,0.2,1.1,0.3,1.6,0.7
		C2371.2,333.6,2372.1,334.2,2371.4,336.6z"/>
	<path class="st2" d="M2379.4,306.4L2379.4,306.4c-2.2-1.5-2.7-2.9-2-5.1c0.3-0.9,0.7-1.7,1.4-2.2c0.4-0.4,0.9-0.8,1.3-1.2
		c0.6-0.6,1.2-1.1,1.7-1.7c1-1,2.3-1.3,3.6-1.7h0.2c0.6-0.2,1.3,0,1.9,0.4c0.8,0.5,1.7,1.2,2.1,2.5c0.1,0.2,0.1,0.4,0.2,0.6l0.2,0.6
		l-0.2,0.6c-0.1,0.2-0.1,0.2-0.2,0.4c-0.4,1.4-1.2,2.6-2.2,3.6c-0.7,0.6-1.2,1.2-1.9,1.8c-0.4,0.4-0.9,0.8-1.3,1.2
		c-0.7,0.6-1.5,0.9-2.3,0.9S2380,306.9,2379.4,306.4z"/>
	<path class="st2" d="M2393.9,359.4c-0.2,1.2-0.7,2.5-1.7,3.5c-0.1,0.1-0.1,0.1-0.2,0.2l0,0l-1.2,1.4c-0.9,1-2.2,1.6-3.7,1.6l0,0
		c-0.8,0-1.6-0.2-2.2-0.6c-0.4-0.2-0.7-0.4-1.2-0.7c-1.2-0.8-2-2.1-2.1-3.5c-0.1-1.6,0.2-3.1,0.6-4.7c0.1-0.3,0.2-0.7,0.5-1.1
		c0.8-1.1,1.7-2.1,3-2.9c0.6-0.4,1.2-0.5,2-0.3c0.7,0.2,1.3,0.3,1.9,0.8c1,0.8,2.2,1.7,3.2,2.9c0.6,0.6,0.9,1.3,1.1,2.1
		C2393.9,358.4,2394,359,2393.9,359.4z"/>
	<path class="st2" d="M2402.7,330.2c-0.3,0-0.7-0.1-1-0.2c-2-1.1-3.1-2.5-3.3-4.4c-0.1-0.5,0-0.8,0-1.2c0.5-2,1-4.1,2.1-6
		c0.4-0.7,1.1-0.9,1.5-1c0.2,0,0.5,0,0.7,0c2.2,0,4.3,1.6,4.9,3.8c0.3,1.2,0.3,2.2-0.1,3.2c-0.6,1.5-1.3,2.9-2.2,4.1l-0.1,0.1
		c-0.1,0.1-0.2,0.2-0.3,0.3c-0.2,0.2-0.6,0.6-0.9,0.8C2403.6,330.2,2403.1,330.2,2402.7,330.2z"/>
	<path class="st2" d="M2416.5,390.6c0,0.2,0,0.3,0,0.5v0.7l-0.2,0.2c-0.7,0.7-1.2,1.5-1.8,2.8c-0.4,1.1-1.2,2.1-2,2.9
		c-0.7,0.7-1.7,1.2-2.7,1.3l-0.5,0.1c-0.4,0.1-0.8,0.1-1.2,0.2c-0.1,0-0.2,0-0.3,0c-0.9,0-1.7-0.3-2.5-1c-0.6-0.5-1-1.1-1.2-1.8
		c-0.4-1.7-0.2-3.4,0.7-4.9c0.9-1.7,2.2-3.4,3.7-5.1c0.7-0.7,1.3-1.1,2.2-1.2c0.9-0.2,1.7,0,2.4,0.4c0.2,0.1,0.3,0.2,0.5,0.3
		c0.3,0.2,0.7,0.4,1,0.7l0.4,0.3C2416.5,388.3,2416.6,388.5,2416.5,390.6z"/>
	<path class="st2" d="M2420.5,345.8l-0.1,0.6c-0.1,0.3-0.2,0.7-0.2,1.1c-0.1,0.3-0.2,0.7-0.5,1.1c-0.7,0.8-1.2,1.7-1.5,2.9
		c-0.3,1.1-0.9,1.7-1.9,2.2c-0.1,0-0.2,0.1-0.3,0.2c-0.2,0.1-0.2,0.2-0.4,0.2c-0.4,0.2-0.8,0.3-1.3,0.3c-0.7,0-1.3-0.2-2-0.7
		c-0.1-0.1-0.2-0.2-0.3-0.3l-0.4-0.4c-0.2-0.2-0.4-0.4-0.6-0.7c-0.8-1.2-1.1-2.4-0.7-3.6c0.6-1.7,1.3-3.2,2.2-4.4
		c0.7-1.1,1.8-1.7,3-2.2c0.4-0.2,0.9-0.2,1.2,0c1.3,0.4,2.5,1.2,3.5,2.2C2420.5,344.8,2420.6,345.3,2420.5,345.8z"/>
	<path class="st2" d="M2422.5,325.8c0.8-1.8,2.2-3.2,3.5-4.5c0.5-0.5,1-0.8,1.6-1.2c0.2-0.2,0.5-0.4,0.7-0.6l0.2-0.2l0.3,0.1
		c1.7,0.4,3.2,1.3,4.5,2.9c0.5,0.7,0.7,1.4,0.7,2.2c-0.1,0.6-0.3,1.1-0.8,1.4c-0.7,0.6-1.3,1.2-2,2c-0.3,0.4-0.7,0.7-1,1.2
		c-1,1-2.2,1.5-4,1.5c-0.1,0-0.2,0-0.2,0c-1.3,0-2.5-0.7-3.2-2C2422.2,327.7,2422.1,326.7,2422.5,325.8z"/>
	<path class="st2" d="M2435.1,375.2l-0.6,1.1c-0.3,0.7-0.7,1.4-1.1,2.1l-0.2,0.5c-0.5,1-1,2.1-1.9,2.8c-0.1,0.1-0.2,0.2-0.2,0.3
		l0.1,0.1l-0.8,1c-0.3,0.4-0.7,0.7-1,1.1c-0.5,0.5-1.2,0.7-1.9,0.7c-0.6,0-1.2-0.2-1.7-0.5c-0.7-0.5-1.3-1-1.7-1.6
		c-0.2-0.2-0.4-0.7-0.5-1.2c-0.2-1.2-0.2-2.2,0.2-3.1c0.2-0.4,0.4-0.8,0.6-1.3c0.3-0.7,0.7-1.5,1.1-2.2c0.9-1.6,2.4-2.9,4.2-3.9
		c0.4-0.2,0.8-0.2,1.1-0.2c1.7,0.2,3.1,1,4.1,2.3C2435.2,374,2435.3,374.6,2435.1,375.2z"/>
	<path class="st2" d="M2435.8,343.8c0.1-0.2,0.2-0.6,0.4-0.8c1.2-1.7,2.4-3,3.7-4.1c0.5-0.4,1-0.7,1.6-0.7c0.7-0.1,1.4,0,1.9,0.4
		c0.3,0.2,0.7,0.5,1,0.7l0.4,0.3l0.4,0.4c0.2,0.2,0.5,0.6,0.7,0.8c1.2,1.4,0.7,2.5,0.3,3.1c-0.2,0.2-0.2,0.6-0.4,1
		c-0.1,0.2-0.2,0.5-0.2,0.7c-0.4,1.1-1.1,2-2,2.7c-0.9,0.7-1.7,1.3-2.7,2c-0.2,0.2-0.7,0.3-1,0.5c-0.2,0.1-0.4,0.1-0.7,0.1
		c-0.2,0-0.2,0-0.4-0.1c-1.1-0.2-1.9-0.8-2.5-1.6C2435.5,347.6,2435.2,345.8,2435.8,343.8z"/>
	<path class="st2" d="M2448.3,409.8c-0.3,1.5-0.7,2.9-1.9,4c-0.1,0.1-0.1,0.1-0.2,0.2l-0.2,0.2c-0.7,0.8-1.7,1.6-2.6,2.2
		c-0.6,0.3-1.2,0.5-1.7,0.5s-1-0.2-1.5-0.4l-0.4-0.2c-0.2-0.2-0.5-0.2-0.7-0.3c-1.5-0.7-2.8-2.8-2.4-4.7c0.6-2.6,1.5-4.5,2.7-6.1
		c0.7-0.8,1.7-1.4,3-1.7c0.5-0.1,1.1,0,1.5,0.3l0.2,0.2c1.2,0.8,2.4,1.7,3,3.2l0.1,0.2c0.1,0.2,0.2,0.5,0.4,0.7
		C2448,408.2,2448.4,408.9,2448.3,409.8z"/>
	<path class="st2" d="M2458.7,387.5c-0.1,0.2-0.2,0.5-0.2,0.7s-0.2,0.4-0.2,0.7c-0.1,0.2-0.2,0.6-0.2,0.8c-0.2,0.9-0.4,1.9-1.1,2.7
		c-0.1,0.2-0.2,0.5-0.2,0.7c-0.3,2.1-1.9,3.2-3.3,4c-0.6,0.3-1.1,0.5-1.7,0.5c-0.8,0-1.7-0.3-2.5-1c-0.7-0.6-1.2-1.2-1.4-2
		c-0.1-0.2-0.2-0.4-0.2-0.6c-0.7-1.7-0.7-3.3,0-4.8c0.2-0.5,0.4-1,0.7-1.6c0.2-0.4,0.3-0.8,0.5-1.2c0.2-0.5,0.5-0.9,0.7-1.3l0.4-0.7
		c0.4-0.5,1-0.7,1.4-0.7c0.2,0,0.2-0.1,0.4-0.2c1-0.4,2-0.3,3,0.2c1,0.6,2,1.1,2.9,1.4C2458.5,385.4,2459,386.5,2458.7,387.5z"/>
	<path class="st2" d="M2462.9,363.3c-1,1.6-2,3.1-3,4.6c-0.3,0.5-0.8,0.8-1.3,1.1c-0.9,0.5-1.9,0.7-2.9,0.8
		c-0.3,0.1-0.7,0.1-0.9,0.2c-0.1,0-0.2,0-0.3,0c-0.5,0-1.1-0.3-1.5-0.8c-0.2-0.4-0.5-0.8-0.8-1.2l-0.6-0.9l0.1-0.2
		c0.1-0.3,0.2-0.6,0.2-0.9c0.2-0.7,0.2-1.3,0.5-1.9c0.6-1.3,1.2-2.3,2.1-3.2c1.1-1,2.2-1.8,3.2-2.5c0.6-0.4,1.3-0.4,2.1-0.1
		c1.1,0.6,2.1,1.2,2.8,2.2C2463.3,361.2,2463.4,362.4,2462.9,363.3z"/>
	<path class="st2" d="M2467.7,336.4c-0.2,0.4-0.6,0.8-0.8,1.2c-0.7,1.1-1.6,1.9-2.6,2.5c-0.3,0.2-0.7,0.2-1.1,0.2
		c-0.5,0-0.9-0.2-1.3-0.4c-1.6-1.2-2.5-2.7-2.6-4.6c-0.1-1.1,0.2-2,0.8-2.7c0.2-0.2,0.4-0.5,0.7-0.7l0.3-0.3
		c0.2-0.2,0.5-0.4,0.7-0.7c0.5-0.5,1.1-1.1,1.8-1.4c0.5-0.2,1-0.2,1.4-0.1c0.7,0.2,1.2,0.4,1.9,0.7c1,0.3,1.7,1,2,1.9
		c0.2,0.3,0.2,0.6,0.2,0.9c0,0.4,0.1,1-0.2,1.3C2468.7,335,2468.2,335.6,2467.7,336.4z"/>
	<path class="st2" d="M2480.8,409.4c-0.2,1-0.5,1.7-0.8,2.5c-0.2,0.3-0.2,0.6-0.4,0.9c-0.2,0.3-0.4,0.7-0.8,1
		c-0.8,0.6-1.5,1.1-2.2,1.5c-0.7,0.5-1.6,0.7-2.4,0.7c-0.2,0-0.6,0-0.8-0.1c-1.2-0.2-2.2-0.8-3-1.7c-0.2-0.3-0.5-0.7-0.6-1.2
		c-0.1-0.3-0.1-0.7-0.2-1c-0.1-0.3-0.1-0.7-0.2-1c-0.5-2,0.4-3.5,1.2-4.4c0-0.1,0.1-0.1,0.1-0.2l0,0l1.1-1.1l1.2-1.2
		c1-0.8,2.2-1.2,3.1-1.4c0.9-0.2,1.8,0,2.5,0.7c0.4,0.3,0.7,0.7,1,0.9C2481.3,406,2481.3,406.4,2480.8,409.4z"/>
	<path class="st2" d="M2488.1,386.1l-0.2,0.4c-0.2,0.5-0.3,0.9-0.5,1.4c-0.3,0.7-0.7,1.4-1.5,1.7c-0.2,0.1-0.3,0.3-0.5,0.7l-0.3,0.7
		c-0.2,0.6-0.5,1.2-0.8,1.7c-0.7,1.5-2.1,2.3-3.9,2.7c-0.1,0-0.2,0-0.2,0c-0.4,0-0.8-0.1-1-0.2c-0.4-0.2-0.9-0.4-1.5-0.7
		c-0.2-0.2-0.5-0.3-0.8-0.6l-0.3-0.2c-0.9-0.7-1.3-1.8-1.2-3.1c0.1-0.7,0.2-1.3,0.6-1.8c0.3-0.6,0.6-1.1,0.9-1.7
		c0.3-0.6,0.7-1.2,1.1-1.8c0.2-0.3,0.4-0.7,0.7-0.9c1.6-1.2,3.1-1.8,4.7-2c1.4-0.1,2.7,0.3,4.1,1.4
		C2488.3,384.4,2488.6,385.2,2488.1,386.1z"/>
	<path class="st2" d="M2492.5,361.5c-0.5,0.7-0.9,1.2-1.3,1.7c-0.3,0.4-0.7,0.7-1.1,1.1l-0.9,0.9l0,0l-0.2,0.2
		c-0.5,0.5-1,1.1-1.4,1.6c-1.2,1.4-2.9,1.8-4.2,2c-0.2,0-0.3,0-0.5,0c-0.9,0-1.7-0.4-2.4-1.2c-0.3-0.4-0.7-0.9-0.8-1.4
		c-0.3-0.8-0.4-1.7-0.1-2.4c0.8-1.9,2-4.2,4.5-5.6c0.3-0.2,0.6-0.3,0.9-0.5c0.9-0.5,1.7-1.1,2.9-1.3c0.6-0.1,1.5-0.2,2.4,0.6
		c0.7,0.6,1.4,1.2,2.2,2.1C2493,359.8,2493,360.8,2492.5,361.5z"/>
	<path class="st3" d="M2544.5,545.3c-0.3,0.4-0.7,0.9-1.2,1.3c-2.1,2-3.5,4.5-4.3,7.2c-0.4,1.2-0.9,2.3-1.7,3.4
		c-0.5,0.7-0.9,1.5-1.4,2.2c-0.3,0.6-0.7,1.2-1.2,1.7c-1.2,1.3-2.1,2.8-2.6,4.6c-0.2,0.7-0.7,1.4-1.2,2c-0.2,0.2-0.7,0.5-0.8,0.8
		c-0.8,1.5-2.2,2.5-3.3,3.6c-2.4,2.5-5,4.7-7.6,6.9c-0.7,0.6-1.6,1.2-2.4,1.7c-1.9,1.2-3.9,2.2-5.5,3.9c-0.6,0.6-1.4,1-2.2,1.4
		c-1.9,1.1-3.6,2.3-5.1,4c-0.3,0.3-0.7,0.7-1.1,1c-1.9,2.2-4.5,3.5-7.1,4.4c-2,0.7-4.1,1.3-6.2,1.6c-1.6,0.2-3.1,0.6-4.6,1.2
		c-1.4,0.6-2.8,0.8-4.2,1.2c-1.7,0.3-3.5,0.5-5.1,1.4c-0.6,0.3-1.3,0.3-2,0.2c-0.9-0.1-1.7-0.2-2.6-0.4c-1.7-0.4-3.5-0.7-5.2-0.9
		c-3.5-0.5-6.8-1.7-10-3.3c-1.7-0.8-3.4-1.9-5.1-2.8c-1.9-1-3.6-2.3-5-4.1c-0.8-1-1.7-1.8-2.9-2.4c-1.8-1.1-3.7-2.2-5.6-3.2
		c-1-0.6-2-1.2-2.9-1.9c-2.1-1.4-3.6-3.3-4.6-5.6c-0.4-0.9-0.7-1.7-1-2.7c-0.2-1.4-0.7-2.8-1-4.2c-0.2-0.9-0.4-1.9-0.5-2.9
		s-0.4-1.9-0.9-2.7c-0.5-0.9-1-1.9-1.3-2.9c-0.5-1.2-0.9-2.6-0.7-4c0-0.2,0-0.4,0-0.6c-0.2-1.7-0.1-3.2,0.5-4.9
		c0.7-2,1.1-4.1,1.7-6.2c0.1-0.4,0.1-0.8,0.3-1.2c0.6-1,0.7-2,0.8-3.1c0.1-0.6,0.2-1.2,0.3-1.7c0.2-0.8,0.6-1.7,1.2-2.3
		c0.9-1,1.7-2.2,2.6-3.2c0.5-0.6,1-1.2,1.2-2c0.6-1.3,1.2-2.7,1.8-4c0.3-0.6,0.4-1.3,0.6-2c0.3-2.1,1.4-3.6,3.1-4.8
		c2.9-2.1,5.1-4.8,7.4-7.5c0.4-0.5,0.8-1.1,1.2-1.6c0.7-0.9,1.5-1.7,2.6-2.3c1.1-0.6,1.8-1.4,2.5-2.5c0.5-0.8,1-1.7,1.5-2.6
		c0.7-1.4,1.7-2.6,3-3.6c0.7-0.6,1.5-1.2,2.2-1.9c0.9-0.8,2-1.2,3.2-1.6c0.6-0.2,1.2-0.1,1.7,0c0.9,0.2,1.8-0.1,2.5-0.7
		c2-1.8,4.3-2.9,7-3.6c1.5-0.4,2.9-1.1,4.3-1.9c1.4-0.8,2.9-1.6,4.5-2.1c1.5-0.5,2.9-1.2,4.3-1.9c1.3-0.7,2.7-1.1,4.1-1.3
		c0.6-0.1,1.2-0.2,1.7-0.2c0.3-0.1,0.7-0.2,1-0.5c0.7-0.7,1.4-1.3,2-2.1c0.5-0.6,1.2-0.8,2.1-0.8c1.2,0,2.1,0.2,3,1
		c0.4,0.3,0.9,0.7,1.3,1.1c1-0.1,2-0.3,2.8-0.7c0.7-0.2,1.5-0.6,2.2-0.9c0.9-0.4,1.8-0.6,2.8-0.4c1.2,0.2,2.5,0.2,3.8,0.3
		c1,0.1,1.9,0,2.9-0.1c1.4-0.2,2.9-0.1,4.3-0.1c0.8,0.6,1.5,1.1,2.3,1.5c0.2,0.2,0.6,0.2,0.8,0.2c0.2,0.1,0.4-0.1,0.4-0.3
		c0.1-0.4,0.1-0.7,0.1-1.2c-0.1-1.7-0.2-3.3-0.2-5c0-1.1-0.2-2.2-0.5-3.2c-0.2-0.9-0.4-1.9-0.6-2.9c-0.2-1.1,0.1-2.2,0.7-3.1
		c0.2-0.2,0.7-0.5,1.1-0.3c0.3,0.2,0.7,0.2,1,0.6c0.8,0.9,1.9,1.3,3,1.7c1.8,0.7,3.4,1.9,5,3c0.2,0.1,0.3,0.2,0.6,0.3
		c0.2-0.2,0.4-0.5,0.4-0.7c-0.6-2.8-0.4-5.6-0.1-8.5c0.1-0.5,0.1-1,0-1.5c-0.2-2.2,0.2-4.2,0.8-6.4c0.5-1.9,0.9-3.8,1.4-5.7
		c0.8-3.4,1.2-7,1.2-10.4c0-1.1,0.2-2.2,0.3-3.2c0.1-0.3,0.3-0.7,0.6-1c0.1-0.2,0.3-0.2,0.5-0.2c0.2,0,0.4,0.1,0.6,0.2
		c0.3,0.2,0.7,0.4,0.9,0.7c1.7,1.7,3.6,3.2,5.6,4.8c1,0.8,1.8,1.7,2.4,2.9c0.2,0.4,0.5,0.8,0.7,1.2c0.1,0.2,0.7,0.2,0.7,0.1
		c0.1-0.1,0.2-0.2,0.2-0.2c0.9-1.7,1.8-3.5,2.7-5.1c0.3-0.7,0.7-1.4,1-2.2c0.9-2.5,1.8-5,2.7-7.5c0.7-2.2,0.9-4.6,0.3-7
		c-0.3-1.4-0.7-2.8-0.9-4.3c-0.1-0.2,0-0.6,0-0.8s0.3-0.5,0.6-0.5c0.9,0,1.7,0.2,2.5,0.7c0.2,0.2,0.4,0.4,0.5,0.7
		c0.2,1.4,1,2.6,1.6,3.7c0.3,0.7,0.7,1.4,1,2.2c0.6,1.2,1.2,2.4,1.8,3.6c0.4,0.8,0.7,1.6,0.7,2.5c0.2,1.8,0.5,3.6,1.2,5.4
		c0.2,0.7,0.3,1.3,0.3,2c0,0.9,0,1.7,0.1,2.7c0,0.2,0.2,0.3,0.4,0.2c1.8-1.2,3.6-2.7,4.7-4.6c0.8-1.3,2-2.4,3.2-3.3
		c2.4-1.7,5-3.1,7.9-3.8c0.5-0.2,1-0.2,1.4-0.5c1.3-0.8,2.8-1.2,4.4-1.7c1.2-0.3,2.4-0.8,3.5-1.5c1.2-0.8,2.7-1.3,4.1-1.5
		c0.7-0.1,1.3,0.5,1.2,1.3c-0.1,0.5-0.2,1-0.7,1.2c-1.5,0.6-2.2,1.9-2.7,3.3c-0.4,1.2-0.7,2.5-0.6,3.7c0.1,2.7-0.5,5.2-1.7,7.6
		c-0.5,1.1-0.7,2.2-0.7,3.4c0,0.3,0.3,0.7,0.7,0.8c0.5,0.1,1,0.2,1.4,0.1c0.7-0.1,1.3-0.2,2-0.5c1.7-0.5,3.4-0.7,5.2-0.7
		c3.2,0,6.2,0.1,9.4,0.2c2.8,0.2,5.4,1.1,7.8,2.4c0.2,0.2,0.3,0.7,0.1,1c-0.3,0.3-0.7,0.7-1.1,0.9c-3.5,2.1-7,4.2-10.5,6.3
		c-2.3,1.4-4.7,2.7-7,4.1c-0.3,0.2-0.7,0.4-1,0.7c-2.2,2.2-4.6,4.2-6.7,6.6c-0.3,0.3-0.5,0.8-0.7,1.2c-0.1,0.2,0,0.7,0.2,0.7
		c0.5,0.2,0.9,0.3,1.4,0.4c2.2,0.5,4.4,1,6.5,1.7c1.4,0.5,2.7,0.9,4.1,1.5c1.5,0.7,3.1,1.3,4.6,1.8c0.7,0.2,1.4,0.7,2,1.2
		c0.2,0.2,0.2,0.3,0.3,0.5c0.2,0.2,0.1,0.9-0.2,1.1c-0.7,0.3-1.3,0.7-2.1,1c-1.7,0.6-3.4,1-5.1,1.5c-2.2,0.7-4.3,1.3-6.5,2
		c-1.7,0.6-3.5,1.2-5.3,1.7c-1.5,0.3-3.1,0.6-4.6,0.7c-2.4,0.2-4.8,0.6-7.2,1.1c-0.5,0.1-0.9,0.4-1.3,0.7c-0.1,0.1-0.1,0.4,0,0.5
		c0.2,0.3,0.5,0.6,0.8,0.8c1.4,1.1,2.4,2.5,3.1,4.1c0.8,2.1,1.5,4.2,2.6,6.2c0.2,0.2,0.2,0.6,0.2,0.8c0.3,1.6,0.6,3.2,1.7,4.5
		c-0.5,0.7-0.9,0.7-1.4,0.5c-0.4-0.2-0.8-0.5-1.2-0.8c-1.2-1.1-2.3-2.2-3.4-3.2c-1.1-1-2.2-2-3.6-2.6c-0.2-0.1-0.3,0.1-0.5,0.2
		c0,0,0,0.2,0,0.2c0.1,0.2,0.2,0.6,0.3,0.7c0.6,0.8,1,1.7,1.1,2.7c0.1,0.7,0.3,1.3,0.5,2c0.2,0.7-0.6,1.3-1.3,1.1
		c-0.1,0-0.2-0.1-0.2-0.1c-0.9-0.5-1.8-0.7-2.8-0.6c-1,0.1-2-0.1-2.8-0.6c-0.8-0.5-1.8-0.7-2.7-1c-1-0.2-1.8-0.6-2.7-1.2
		c-1.1-0.7-2.2-1.2-3.3-1.9c-0.7-0.3-1.2-0.4-2-0.3c-0.3,0.1-0.7,0.3-0.6,0.5c0.1,0.2,0.1,0.4,0.2,0.5c2,1.5,3.8,3.3,6.1,4.6
		c0.6,0.4,1.1,0.8,1.2,1.6c0.2,1,0.7,1.8,1.2,2.7c0.3,0.6,0.1,1.1-0.6,1.4c-1.6,0.8-3.2,1-4.8,0.5c-0.3-0.1-0.7-0.2-1.1-0.4
		c-1-0.4-2.1-0.6-3.2-0.3c-1.6,0.3-3.1,0.2-4.6,0.2c-1,0-2,0-2.9,0.2c-0.7,0.1-1.5,0-1.8,0.7c-0.5,0.7-0.6,1.7-0.5,2.6
		c0,0.2,0.2,0.6,0.2,0.8c0.4,1.1,0.7,2.2,0.2,3.4c0,0.1-0.1,0.2-0.1,0.2c0.2,1.2,0.2,2.3,0,3.5c0.3,1.6,0,3.1-0.4,4.6
		c-0.3,1.4-0.4,2.9-0.6,4.3c-0.1,1-0.3,1.9-0.6,2.9c-0.7,2.8-1.2,5.7-2.2,8.5C2544.7,543.2,2544.9,544.3,2544.5,545.3z"/>
	<path class="st4" d="M2170.8,455.5c-6.8,0.2-13.2-1.4-19.3-4.2c-3.5-1.6-7-3.1-10.7-4.1c-7.2-2-12.7-6.4-16.6-12.8
		c-0.9-1.5-1.8-3.2-3-4.5c-3.3-3.8-4.9-8.3-5.6-13.2c-0.7-5.1-2.1-10-1.9-15.2c0.1-2.1,0-4.1,0.4-6.1c0.8-4.6,1.7-9,2.7-13.5
		c0.4-1.7,1.1-3.5,2.1-4.9c4.5-6,9.6-11.3,16.6-14.3c2.6-1.2,5.2-2.2,8.1-2.1c4.6,0.1,8.3-2.2,12.3-3.8c0.8-0.3,1.5-1.4,1.9-2.2
		c0.8-1.8,1.3-3.8,2.2-5.7c0.4-0.9,1.2-1.7,1.8-2.4c1.1-1.1,3.1-1.3,4.2-0.5c1.1,0.7,2,1.5,3,2.3c1.8,1.4,3.8,1.2,5.8,0.4
		c1.4-0.6,2.6-1.6,4-2.2c0.9-0.4,1.9-0.6,3-0.7c1.4-0.2,3.2,0.9,3.7,2.2c0.2,0.7,0.5,1.4,0.7,2.2c1,4.5,1,4.5,5.1,3.7
		c0.7-0.2,1.5-0.3,2.2-0.2c1.5,0.3,3,0.7,4.4,1.2c1,0.3,1.8,1,2.1,2.1c0.7,2.5,1.2,5,1.8,7.5c0.6,2.4,2,4.1,4.1,5.2
		c0.7,0.3,1.4,0.5,2.2,0.8c5.9,2.8,6.5,3.5,9,9.6c2.2,5.2,3.7,10.5,3.3,16.3c-0.2,2.6,0.2,5.1,0.9,7.5c1,4.2,1.4,8.5,0.9,12.9
		c-0.5,3.9-1.7,7.5-3.9,10.7c-3.9,5.6-8,11.2-12.3,16.6c-1.7,2.2-3.8,4.1-5.9,6c-2.2,1.9-4.8,3-7.6,3.3
		C2185.6,454.3,2178.2,454.9,2170.8,455.5z"/>
	<path class="st5" d="M2170.7,213.6c2.7-1.5,3.9-5.1,5.9-7.5c2-2.6,5.1-4.6,7.9-6.1c3-1.7,6.2-2.5,9.6-2.7c1.1-0.1,2.2-0.1,3.4-0.1
		c5.1-5.6,11.7-8.6,18.6-11.2c1.7-0.6,3.2-0.6,5-0.2c2.1,0.4,4,1.2,5.9,2.2c1.5,0.8,2.7,2.1,3.6,3.5c1.7,2.3,1.9,2.3,4.6,1.5
		c2-0.7,4.1-0.9,6.2-1.2c3.6-0.4,7,0.5,10.1,2.2c1.3,0.7,2.6,1.7,3.8,2.6c1.3,0.9,2.2,2.2,2.6,3.7c0.7,2.6,1.1,5.2,1,7.9
		c-0.1,1.5-0.6,3-1,4.5c-0.3,1.2-0.7,2.4-1.1,3.6c-0.2,0.4,0.4,1.1,0.9,1.2c1.2,0.1,2.2,0.2,3.4,0.2c3.5-0.1,6.2,1.5,8.8,3.6
		c0.4,0.3,0.7,0.8,0.9,1.3c1.4,4.1,2.5,8.3,2.2,12.8c-0.1,1.4-0.2,2.7-0.9,4.1c-0.2,0.2-0.2,0.5-0.3,0.7c-0.2,0.6,0.2,1.5,0.7,1.8
		c0.5,0.2,1,0.6,1.5,0.7c9.7,4.1,13.7,16.6,11.9,26.4c-1.2,6.2-4.6,12-9.6,16c-0.7,0.6-1.6,1.2-1.9,2.1c-0.3,0.8-0.2,1.8,0,2.7
		c0.9,5.3,1.7,11.3-1.3,15.8c-1.2,1.9-3.1,3.3-4.9,4.7c-6.1,4.9-10.9,10.2-19.1,10.7c-4.2,0.2-8.5-0.1-12.5-1.1
		c-2.7-0.7-5.3-1.9-7.8-3.2c-0.5-0.2-1-0.6-1.4-0.9c-1.5-0.9-3.1-1.3-4.8-1.3c-3,0-5.9-0.4-8.7-1.2c-6.4-1.8-11.3-5.5-15-10.9
		c-0.3-0.5-0.7-0.9-0.8-1.4c-0.7-1.8-1.9-2.2-3.6-1.7c-3.6,0.2-7.3,0.2-10.9-0.6c-3.1-0.7-6-1.5-8.9-2.7c-1.3-0.5-2.5-1.2-3.7-2
		c-2.2-1.4-3.7-3.4-4.7-5.8c-1.2-2.7-2.2-5.5-2.1-8.5c0.1-1.4-0.2-2.8-0.3-4.2c-0.1-0.7-0.5-1.3-1.2-1.7c-0.2-0.2-0.5-0.2-0.7-0.4
		c-5-2.1-7.8-6.2-10-10.9c-0.2-0.7-0.5-1.3-0.5-2c-0.1-3.1-0.3-6.1,0.7-9.2c0.9-2.7,1.8-5.3,4-7.3c-0.4-0.7-0.7-1.2-1-1.6
		c-1-1.3-2-2.7-3-4.1c-0.9-1.3-1.3-2.7-1.7-4.3c-0.3-1.8-0.2-3.6,0.6-5.4c2.7-6.1,7.5-13.3,14.7-14.3c1.5-0.2,3.1-0.1,4.5-0.6
		C2170.2,213.7,2170.5,213.7,2170.7,213.6z"/>
</g>
<path class="st6" d="M180.9,377c0.3,0.9,0.2,1.8,0.1,2.7c-0.2,1.4,0,2.9-0.2,4.4c-0.4,2.8-1.5,5.2-3.2,7.4c-0.7,0.8-1.3,1.7-2.1,2.3
	c-0.8,0.6-0.5,1.4-0.4,1.9c0.1,1.8,0,3.5,0.2,5.3c0.1,1.2,0,2.4,0.1,3.6c0.2,1.3-0.3,2.6-0.1,3.9c0.1,0.9,0,1.9-0.1,2.8
	c-0.1,1.9,0,3.8,0,5.7c0,1.5-0.3,2.9-0.2,4.4c0.1,1.9,0,3.8,0.2,5.7c0.1,1-0.1,2.1,0.6,3c0.3,0.5,0.1,1.1,0.1,1.5
	c0,1.4,0.6,2.5,0.7,3.8c0.1,1,0,2,0.1,2.9c0,1.9,0.4,3.8,0.4,5.7c0,1,0.1,2.1,0.3,3.1c0.2,1.2,0,2.4,0.1,3.5c0.1,2.4-0.5,4.7-0.5,7
	c0,3.1-0.6,6.1-0.3,9.2c0.1,0.6,0,1.5-0.2,2.2c-0.2,1.3-0.2,2.7-0.3,4.1c0,1.4-0.4,2.7-0.3,4.1c0.1,1.1,0.3,2.3,0.1,3.2
	c-0.4,1.7,0.7,3.4-0.3,5.1c-0.5,0.8,0,2-0.8,2.9c0,0,0,0.1,0,0.2c0.6,1.4-0.5,2.2-1.1,3.2c-0.6,1.1-1.5,1.9-2.1,3
	c-0.6,1.1-0.2,2.3-0.1,3.5c0.2,2.1-0.2,4-1.2,6c-0.8,1.7-2,3.1-3,4.7c-0.6,0.9-1.3,1.6-2.2,2.3c-1,0.7-1.9,1.8-2.9,2.5
	c-1.1,0.8-1.9,1.9-3.2,2.6c-1.7,0.9-3,2.4-4.7,3.3c-1,0.5-2,1.2-3.1,1.7c-0.8,0.4-1.7,0.8-2.5,1.5c-0.8,0.7-1.9,1.1-2.9,1.6
	c-1.7,0.9-3.4,1.8-5.1,2.5c-1.3,0.6-2.4,1.6-3.7,2c-1.9,0.6-3.2,2.2-5.2,2.6c-1.6,0.3-3,1-4.7,1.2c-1.1,0.1-2.2,0.7-3.2,1
	c-0.9,0.3-1.8,0.5-2.7,0.8c-1.8,0.7-4,0.4-5.6,1.8c-1.4,0.3-2.9,0.7-4.3,1c-2.1-0.2-4.1,0.5-6.2,0.4c-1.9,0-3.7,0.7-5.5,1.1
	c-2.4,0.5-4.9,0.8-7.3,1.3c-2.1,0.4-4.3,0.5-6.4,1c-0.6,0.1-1.2,0.4-1.9,0.4c-1.2-0.1-2.5-0.1-3.5,0.3c-1.4,0.5-3,0-4.3,0.7
	c0,0-0.1,0-0.2,0c-0.9-0.6-2-0.3-3-0.6c-1.6-0.4-3.3-0.3-4.9-0.7c-0.7-0.2-1.7-0.3-2.1-0.1c-0.9,0.5-1.7,0.2-2.5,0.3
	c-2.2,0.3-4.5-0.2-6.7-0.8c-1.3-0.3-2.7-0.5-4-0.7c-1.1-0.1-2.2-0.6-3.3-0.9c-0.5-0.1-1-0.3-1.5-0.6c-1.5-0.8-3.3-1.4-4.6-2.6
	c-0.6-0.6-1.5-0.7-2-1.2c-1.2-1.1-2.2-2.4-3.2-3.7c-0.5-0.7-1.1-1.3-2-1.5c-0.8-0.2-1.6-0.7-2.2-1.3c-0.3-0.3-0.8-0.7-1.2-0.7
	c-0.8,0-1.4-0.5-1.9-0.8c-2.3-1.5-3.8-3.9-5.7-5.9c-1-1.1-1.3-2.7-2.2-3.9c-0.7-0.9-1.3-1.8-1.9-2.8c-0.8-1.2-1.6-2.4-1.9-3.9
	c-0.2-0.9-0.7-1.7-1-2.6c-0.3-0.8-0.8-1.4-1.1-2.1c-0.7-1.5-1.5-2.9-2.2-4.4c-0.4-0.9-0.8-1.8-1-2.7c-0.4-1.3-0.7-2.6-1.3-3.9
	c-1.1-2.5-2.9-4.5-3.5-7.2c-0.4-1.8-1.4-3.5-2.1-5.2c-0.4-0.9-0.8-1.8-1.3-2.8c-1.2-2.5-1.8-5.3-2.7-7.9c-0.6-1.8-1-3.7-1.8-5.4
	c-0.4-0.8-1.1-1.5-1.2-2.4c-0.2-1.5-1-2.8-1.6-4.2c-0.5-1.4-1.2-2.7-1.8-4c-0.4-1-0.9-2-1.3-3.1c-0.3-1-0.7-2.1-1.1-3.1
	c-0.4-1.1-0.9-2.2-1.2-3.3c-0.4-1.4-1.1-2.6-2.1-3.6c-0.6-0.6-1.2-1.3-1.4-2.3c-0.1-0.9-0.6-1.6-1.4-2c-0.8-0.4-1.4-1.1-2-1.7
	c-1-0.9-2.1-1.6-3-2.6c-0.6-0.7-1.5-1-2.2-1.7c-1-0.9-1.2-2-1.7-3c-0.6-1.1-0.7-2.4-1.6-3.2c-0.5-0.4-0.6-0.9-0.5-1.5
	c0.7,0.1,1.5,0.3,2.2,0.3c3.1-0.1,6,1,9.1,1.2c1.4,0.1,2.7,0.5,4.1,0.5c1.4,0,2.9-0.2,4.2,0c2.4,0.4,4.7,0.5,7.1,0.4
	c0.9-0.1,1.8-0.2,2.6-0.2c1.3,0.1,2.6,0.1,3.8-0.2c2-0.4,4.1,0,6.1-0.2c0.7-0.1,1.5-0.2,2.2-0.1c1.4,0.4,2.6-0.1,3.9-0.3
	c2.2-0.4,4.5-0.7,6.7-1.1c1.7-0.3,3.4-0.5,5.1-0.7c1.5-0.2,3-0.6,4.5-0.9c1.5-0.2,2.8-0.8,4.3-0.9c1.4-0.1,2.8-0.5,4.2-0.7
	c1.5-0.2,3-0.7,4.5-1c2.9-0.6,5.8-1.1,8.7-1.8c0.9-0.2,1.7-0.4,2.5-0.7c0.7-0.2,1.5-0.3,2.2-0.4c1.6-0.3,3.2-0.8,4.8-1
	c1.2-0.2,2.5-0.4,3.8-0.7c1.6-0.4,3.2-0.8,4.7-1.1c1.5-0.3,3.1-0.7,4.6-1c1.5-0.3,3-0.7,4.4-1.1c1.4-0.4,2.8-0.7,4.2-0.8
	c2.2-0.3,4.4-0.9,6.6-1.3c1.7-0.3,3.3-0.8,4.9-1.2c2-0.4,3.9-0.8,5.9-1.4c2.3-0.6,4.5-1.4,6.8-1.9c0.9-0.2,1.9-0.1,2.7-0.9
	c0.8,0.6,1.4-0.3,2.1-0.4c1.9-0.3,3.5-1.3,5.4-1.8c0.2-0.1,0.4-0.4,0.8-0.3c0.6,0.1,1.2,0,1.7-0.1c2.1-0.4,3.9-1.5,5.8-2.2
	c1.5-0.6,3.1-1,4.7-1.4c0.9-0.2,1.8-0.5,2.5-0.9c0.6-0.4,1.4-0.4,1.9-0.9c0.5-0.4,0.9-0.8,1.5-1c1.4-0.5,2.7-1.3,4.2-1.7
	c0.8-0.2,1.6-0.5,2.3-0.9c0.8-0.6,1.8-0.8,2.6-1c1.5-0.3,2.9-0.8,4.3-1.1c1.7-0.4,3.1-1.5,4.7-2.4c1.3-0.7,2.8-1.3,3.9-2.5
	c0.5-0.6,1.2-0.7,1.9-0.9c0.2,0,0.3,0,0.5-0.1c1.2-0.9,2.4-1.8,3.5-2.7c0.4-0.4,1.1-0.5,1.4-1c0.8-1.2,2.1-1.7,3.1-2.7
	C178.7,378.3,180,378,180.9,377z M93.4,451.3c-0.3-0.4-0.4-0.7-0.5-1.1c-0.3-1.3-0.6-2.5-1.1-3.8c-0.4-1.1-0.9-1.4-1.9-1
	c-1.4,0.6-2.9,0.8-4.3,1.2c-0.4,0.1-0.9,0.3-0.9,0.8c0,0.5,0,1,0.6,1.2c0.7,0.2,0.8,0.7,0.9,1.2c0.1,0.5,0.2,0.9,0.4,1.4
	c0.9,2.7,1.9,5.4,2.3,8.3c0.4,2.9,1.9,5.6,2.3,8.5c0.1,0.6,0.6,0.8,1.2,0.5c1.1-0.6,2.3-0.6,3.3-1.5c0.3-0.2,0.5,0,0.8,0.1
	c1.6,0.6,3.1,0.6,4.7,0c0.8-0.3,1.6-0.6,2.3-0.9c0.9-0.4,2.1,0,2.7-1.1c0.3-0.6,0.7-1.2,0.9-1.9c0.9-2.9,0.6-5.8-0.2-8.6
	c-0.4-1.2-0.9-2.4-1.5-3.6c-0.4-0.9-1.2-1.6-2.1-1.6c-0.6,0-1.1-0.2-1.6-0.3c-1.5-0.3-3.1-0.8-4.6-0.1
	C95.7,449.4,94.4,450.1,93.4,451.3z M67.1,472.6c0.4-0.1,0.6-0.1,0.8-0.2c2.4-0.5,2.4-0.5,1.5-2.8c0,0,0-0.1,0-0.1
	c-1.1-2.5-1.8-5.1-2.8-7.6c-1.2-3.3-3.6-5.2-7-4.9c-1.7,0.2-3.5,0.6-4.5,2.4c-0.1,0.2-0.1,0.4-0.4,0.4c-0.3,0-0.3-0.3-0.4-0.4
	c-0.4-1.7-1.4-3.3-1.7-5c-0.3-1.2-0.9-1.6-2.3-1.7c-1.2,0-2.2,0.4-3.3,0.8c-1.3,0.4-1.3,0.9-0.6,2c0.7,1.1,1.4,2.3,1.8,3.5
	c0.7,2.3,1.8,4.5,2.4,6.8c0.4,1.5,1.4,2.8,1.6,4.4c0.1,0.7,0.3,1.5,0.8,2c0.2,0.3,0,0.3-0.1,0.5c-0.3,0.6-0.2,1.1,0.2,1.6
	c0.3,0.5,0.8,0.6,1.4,0.4c1.2-0.4,2.5-0.6,3.7-0.7c0.5,0,1.1-0.1,1.5-0.6c0.2-0.2,0.4-0.4,0-0.8c-0.5-0.5-0.9-1.2-1.1-1.9
	c-0.4-1.3-0.6-2.7-1.3-3.9c-1-1.9-0.6-3.6,0.5-5.3c0.6-1,1.3-1,1.9-0.1c0.2,0.2,0.3,0.5,0.5,0.8c0.7,1.3,0.9,2.7,1.4,4.1
	c0.7,1.8,1.3,3.6,1.3,5.5c0,1.2,0.8,1.7,1.9,1.2C65.6,472.9,66.4,472.8,67.1,472.6z M123.2,450.1c-0.1,0-0.1,0-0.2,0
	c-0.2-0.7-0.3-1.3-0.5-2c-0.6-2-1.5-3.6-3.8-4c-0.2,0-0.3-0.1-0.5-0.2c-1.4-0.8-3-0.9-4.3-0.5c-2.6,0.8-5,2.1-6.4,4.7
	c-1.1,2-0.3,4.2,1.9,4.7c1.2,0.3,2.3-0.2,3.3-1c0.8-0.6,0.5-1.6,0.2-2.4c-0.4-1.4-0.4-1.4,0.9-2.3c0.5-0.4,1-0.1,1.5-0.2
	c1.1-0.2,1.2,0.7,1.4,1.2c0.2,0.6,0.4,1.3-0.3,1.8c-1.7,1.1-3.3,2.4-4.9,3.5c-1.6,1.1-2.8,4.3-2.2,6.1c0.2,0.7,0.7,1.1,1,1.7
	c0.5,1.1,2.6,2,3.7,1.4c1.8-1,3.9-1.5,5-3.5c0.2-0.4,0.4-0.3,0.7,0c1.1,1.3,3.3,1.2,4.7,0.2c1.4-1,1.4-1,0.6-2.5
	c-0.1-0.1-0.1-0.3-0.2-0.5C124.2,454.4,123.7,452.3,123.2,450.1z M132.3,451.6c-0.2-1.1-0.4-2-0.6-2.9c-0.2-1.6,0-3.3-0.4-4.9
	c-0.1-0.3-0.2-0.9-0.1-1c0.6-0.4,1-1.2,1.8-1.1c0.3,0,0.6,0.1,0.8,0.4c0.4,1.1,1.1,2.1,1.1,3.3c0.1,2.1,0.6,4.2,1,6.2
	c0.1,0.6,0.3,1.2,0,1.9c-0.2,0.5-0.1,1.1,0.4,1.4c0.5,0.3,1,0.3,1.5,0c0.8-0.5,1.6-0.8,2.5-1.1c1.1-0.3,1.5-1.1,1-2.1
	c-0.2-0.4-0.3-0.7-0.3-1.1c-0.2-1.5-0.2-3.1-0.5-4.6c-0.4-2.1-1.2-4.1-1.8-6.2c-0.4-1.5-2.1-2.6-3.6-2.2c-2,0.5-3.9,1.1-4.9,3.1
	c-0.1,0.3-0.4,0.6-0.7,0.1c-0.6-1-1.4-1-2.4-0.8c-0.6,0.2-1.1,0.6-1.7,0.9c-2.1,0.8-2.4,1.9-1.2,3.8c0.3,0.5,0.5,1,0.6,1.6
	c0.9,3.5,1,7.1,1.6,10.6c0.2,1.1,0.6,1.3,1.6,1.2c1.7-0.2,3.2-1,4.8-1.3c0.6-0.1,1-0.5,1-1.1c0-0.6-0.1-1.2-0.8-1.3
	c-0.3-0.1-0.5-0.2-0.5-0.6C132.7,453,132.4,452.2,132.3,451.6z M35.2,463.5c-0.2-1-0.5-1.8-0.6-2.5c-0.3-1.9,0.4-3,2-2.9
	c1,0,1.9,0.7,2.8,1.1c0.4,0.1,0.2,0.9,0.3,1.3c0.5,2.5,3.5,3.9,5.7,2.6c0.2-0.1,0.3-0.3,0.4-0.5c1-2,0.4-3.8-0.7-5.5
	c-1.2-1.8-3.3-2.4-5.3-2.8c-0.9-0.2-1.8-0.6-2.8-0.5c-1.3,0.2-2.6,0.6-3.7,1.4c-2.1,1.6-3.3,3.6-3.3,6.3c0.1,2.7,0.9,5.2,2.1,7.6
	c0.6,1.2,1.1,2.6,2.3,3.2c1.5,0.8,2.5,2.2,4.3,2.6c1.1,0.2,3.4,0.8,4.4,0.9c1.8,0.1,3.3-0.7,4.9-1.4c1.7-0.8,2.7-3.8,2.3-5.9
	c-0.1-0.5-0.1-1.2-0.8-1.2c-0.7,0-1.2,0.4-1.3,1.1c-0.5,2.6-3.8,3.6-5.8,2.9c-1.7-0.6-3.2-1.5-4.4-2.9
	C36.5,466.9,35.2,465.4,35.2,463.5z M86.8,460c-0.1-1.6-1.3-3-2.6-4.3c-1.2-1.2-2.8-1.9-4.5-1.9c-2,0.1-4,0.4-6,1.1
	c-3.6,1.2-5,4.6-4.8,7.6c0.1,2.5,1.3,4.6,3.3,6.2c1.4,1.1,2.9,2.2,4.8,2.4c1.4,0.1,2.8-0.2,4.2,0.2c0.2,0.1,0.5-0.1,0.8-0.2
	c1.2-0.6,2.2-1.4,3.1-2.5C87.1,466,87.6,463.3,86.8,460z M144.4,452.4c1.6-0.6,2.9-1.5,4.3-2.3c0.4-0.2,0.5-0.8,0.3-1.3
	c-0.8-1.9-1-3.9-1.3-5.9c-0.4-2.5-1.1-5-1-7.6c0-0.7-0.4-1-1.1-0.9c-0.4,0.1-0.8,0.2-1.2,0.5c-0.8,0.6-1.6,1.3-2.6,1.3
	c-0.7,0-1.2,0.4-1.4,0.9c-0.2,0.5,0.1,1.1,0.5,1.4c0.3,0.3,0.4,0.6,0.4,1c0.1,1.9,0.4,3.9,1,5.7c0.6,1.8,1.1,3.5,0.4,5.4
	C142.2,452.1,143,452.7,144.4,452.4z M146,429.9c0-0.1-0.1-0.3-0.1-0.5c-0.7-2-2.8-3.5-5-1.6c-1.3,1.1-1.3,2.7-1.2,4.2
	c0.1,1.1,0.6,2,1.8,2.3C143.6,435.1,147,432.3,146,429.9z M152,449c1.5-0.4,2.2-1.5,1.8-2.9c-0.3-1.2-1.1-1.9-2-1.6
	c-1.6,0.5-2.2,1.8-1.7,3.6C150.4,449.1,150.9,449.4,152,449z"/>
<path class="st7" d="M-22.4,424.2c-0.5-0.5-1.3-0.5-1.9-0.6c-1.8-0.5-3.5-1.2-5-2.1c-1.9-1.1-3.9-2.1-5.2-4
	c-0.5-0.7-0.6-1.5-0.7-2.3c-0.1-0.3-0.2-0.2-0.3-0.2c0-0.1,0-0.1,0-0.2c0.7-0.4,0.3-1.1,0.2-1.5c-0.2-1,0.2-1.8,0.6-2.5
	c0.7-1.2,1.6-2.3,2.4-3.5c1.2-1.7,2.8-3.1,4.1-4.6c1.1-1.3,2.6-2.3,4.1-3.4c1.4-1.1,3-2.1,4.5-2.9c1.9-1,3.8-2,5.8-2.9
	c2-1,4-2.1,5.9-3.2c1.7-1,3.5-1.9,5.3-2.7c0.8-0.4,1.6-0.9,2.4-1.4c1.7-1,3.5-1.9,5.3-2.6c1.8-0.7,3.6-1.3,5.4-1.9
	c3.7-1.2,7.2-2.7,10.9-3.9c1.7-0.5,3.5-0.9,5.2-1.5c1.2-0.4,2.4-1,3.6-1.4c1-0.3,2.2-0.6,3.2-0.9c2-0.6,4-1.2,5.9-2
	c2.6-1.1,5.3-1.8,8-2.4c1.8-0.4,3.6-0.9,5.4-1.3c1.8-0.4,3.5-1.4,5.3-2c2.3-0.8,4.7-1.6,7.1-1.9c1.6-0.2,3.2-0.9,4.9-1.1
	c1.8-0.2,3.5-0.9,5.4-1.2c2.3-0.3,4.5-1.1,6.8-1.4c2-0.3,3.9-0.8,5.9-1c1.6-0.1,3.2-0.6,4.8-1c2.3-0.6,4.6-1,6.9-1.5
	c3.5-0.6,7-0.8,10.5-1.2c1.9-0.2,3.7-0.5,5.6-0.7c2.5-0.3,5.1-0.5,7.6-0.8c1.4-0.2,2.8-0.3,4.1-0.5c1.6-0.3,3.1-0.3,4.7-0.6
	c-1.2,2.6-2.7,5.1-3.7,7.8c-1.4,0.2-2.7,0.3-4.1,0.6c-2.5,0.5-5.1,0.5-7.7,1.3c-2.1,0.6-4.3,0.7-6.5,1.1c-2,0.4-3.9,0.8-5.9,1.3
	c-2.1,0.5-4.3,1.1-6.5,1.2c-2.7,0.2-5.3,1.2-7.9,1.4c-2.4,0.2-4.7,0.5-7,1.1c-1.9,0.4-3.8,0.7-5.7,1.2c-3.1,0.9-6.2,1.5-9.3,2.2
	c-4.6,1.1-9.2,2.1-13.8,3.4c-3.1,0.9-6.4,1.4-9.5,2.5c-1.5,0.5-3.1,0.8-4.6,1.3c-1,0.4-2,0.9-3,1.1c-1.8,0.4-3.6,1.1-5.4,1.5
	c-1.3,0.3-2.6,1-3.9,1.4c-1.5,0.4-3,1-4.4,1.6c-2,0.9-4.1,1.5-6.1,2.4c-1.6,0.8-3.4,1.3-5,1.9c-1.5,0.6-2.9,1.4-4.3,2.1
	c-1.6,0.8-3.3,1.5-4.9,2.3c-2.9,1.3-5.7,2.8-8.6,4.1c-2.9,1.3-5.6,3-8.1,4.8c-1.3,0.9-2.5,1.9-3.8,2.9c-1.3,1-2.6,2.1-3,3.7
	c-0.4,1.6,0,4.4,2.1,4.9c1.9,0.5,3.8,1.3,5.8,1.3c0.8,0,1.5,0,2.3,0.1c1.4,0.2,2.8,0.2,4.2-0.2c0.4-0.1,0.6,0,0.9,0.3
	c0.6,0.6,1.3,1,2.3,0.8c-0.7-0.9-1.1-1.7-0.5-2.7c0.5,0.2-0.1,1.2,0.8,1.2c0.1,0,0.5,0.7,0.6,0.7c0,0.2-0.5,0.2-0.4,0.5
	c0.3,0,0.5,0,0.8,0c2,0.7,4,0.5,6,0.4c1.8-0.1,3.5-0.5,5.3-0.6c3.2-0.2,6.4-0.1,9.5-0.9c0.1,0,0.2,0,0.3,0c1.6,0,3.2,0.3,4.8,0.1
	c0.9-0.1,1.8-0.4,2.7-0.5c2.1-0.2,4.3-0.5,6.4-0.9c2.3-0.4,4.6-0.9,6.8-1.3c0.6-0.1,1.1-0.2,1.7-0.3c1.5-0.2,2.9-0.9,4.3-1
	c1.9-0.2,3.8-0.7,5.7-1c1.2-0.2,2.4-0.6,3.6-0.8c2.6-0.4,5.2-0.4,7.9-1.1c2-0.5,4.1-0.9,6.1-1.3c2.8-0.5,5.6-1.2,8.3-1.9
	c1.2-0.3,2.4-0.8,3.7-1c1-0.1,2-0.2,2.9-0.5c0.4-0.1,0.7-0.4,1.1-0.4c2.2-0.1,4.4-0.8,6.4-1.4c3.1-0.9,6.3-1.7,9.4-2.6
	c1.8-0.5,3.7-1,5.5-1.7c3.1-1.3,6.5-1.9,9.7-2.9c2.5-0.7,5-1.2,7.5-1.9c1.4-0.4,2.8-0.6,4.1-1.2c2.1-1,4.2-2.2,6.6-2.7
	c1.8-0.4,3.6-1,5.4-1.2c2.3-0.3,4.5-1.4,6.7-2.1c2.6-0.8,5.2-1.8,7.7-3c1.6-0.8,3.3-1.2,4.6-2.4c0.7-0.7,1.5-1,2.4-1.4
	c1-0.4,2.3-0.7,2.4-2.1c0,0,0.2-0.1,0.3-0.1c0.1,0.1,0.2,0.1,0.4,0.1c2.3-1.1,4.3-2.5,6.2-4.2c1.7-1.5,2.4-3.6,3.9-5.1
	c0.2-0.2,0.1-0.5,0.2-0.8c0.2-2.3-1.5-3.6-2.9-4.8c-1.7-1.5-4.1-1.5-6.3-1.7c-0.8-0.1-1.6,0-2.4-0.3c-1.8-0.6-3.6-0.9-5.5-0.8
	c-3.4,0.1-6.7-0.2-10,0c1.3-2.3,2.8-4.5,4.3-6.8c1.9,0.1,3.8,0.2,5.8,0.2c2.2,0,4.5,0,6.7,0c0.7,0,1.5,0.2,2.2,0.1
	c2-0.4,3.6,0.6,5.4,0.9c1.3,0.2,2.7,0.2,3.9,0.9c1.3,0.8,2.7,0.9,4.1,1.2c1.8,0.3,3.4,1.2,4.8,2.2c0.8,0.6,1.6,1.5,2,2.6
	c0.5,1.5,1.3,3,1.3,4.6c0,2.2-0.6,4-2.2,5.7c-1.8,1.9-3.4,4.1-5,6.2c-0.1,0.1-0.2,0.3-0.4,0.3c-0.8,0.9-2.1,1.2-2.9,2.1
	c-1,1-2.3,1.5-3.1,2.7c-0.3,0.4-0.9,0.6-1.4,1c-1.1,0.9-2.4,1.8-3.5,2.7c-0.1,0.1-0.3,0.1-0.5,0.1c-0.7,0.2-1.4,0.4-1.9,0.9
	c-1.1,1.2-2.6,1.8-3.9,2.5c-1.5,0.8-2.9,2-4.7,2.4c-1.5,0.3-2.9,0.8-4.3,1.1c-0.8,0.2-1.8,0.4-2.6,1c-0.6,0.5-1.5,0.7-2.3,0.9
	c-1.5,0.4-2.8,1.3-4.2,1.7c-0.6,0.2-1.1,0.6-1.5,1c-0.6,0.5-1.3,0.5-1.9,0.9c-0.7,0.4-1.7,0.7-2.5,0.9c-1.6,0.4-3.1,0.8-4.7,1.4
	c-1.9,0.8-3.7,1.9-5.8,2.2c-0.6,0.1-1.1,0.2-1.7,0.1c-0.3-0.1-0.5,0.3-0.8,0.3c-1.9,0.4-3.5,1.4-5.4,1.8c-0.7,0.1-1.3,1-2.1,0.4
	c-0.7,0.8-1.8,0.7-2.7,0.9c-2.3,0.5-4.6,1.2-6.8,1.9c-1.9,0.5-3.9,0.9-5.9,1.4c-1.7,0.4-3.3,1-4.9,1.2c-2.2,0.3-4.4,1-6.6,1.3
	c-1.4,0.2-2.8,0.5-4.2,0.8c-1.5,0.4-3,0.8-4.4,1.1c-1.6,0.3-3.1,0.7-4.6,1c-1.6,0.3-3.2,0.7-4.7,1.1c-1.2,0.3-2.5,0.5-3.8,0.7
	c-1.6,0.3-3.2,0.8-4.8,1c-0.7,0.1-1.5,0.2-2.2,0.4c-0.8,0.2-1.7,0.5-2.5,0.7c-2.9,0.6-5.8,1.1-8.7,1.8c-1.5,0.3-3,0.7-4.5,1
	c-1.4,0.2-2.8,0.6-4.2,0.7c-1.5,0.1-2.9,0.7-4.3,0.9c-1.5,0.2-3,0.7-4.5,0.9c-1.7,0.2-3.4,0.4-5.1,0.7c-2.2,0.4-4.5,0.7-6.7,1.1
	c-1.2,0.2-2.5,0.7-3.9,0.3c-0.7-0.2-1.5,0-2.2,0.1c-2,0.2-4.1-0.2-6.1,0.2c-1.2,0.3-2.5,0.3-3.8,0.2c-0.8-0.1-1.8,0.1-2.6,0.2
	c-2.4,0.1-4.7,0-7.1-0.4c-1.4-0.2-2.8,0-4.2,0c-1.4,0-2.7-0.3-4.1-0.5c-3-0.3-6-1.3-9.1-1.2C-20.9,424.5-21.6,424.3-22.4,424.2z"/>
<path class="st8" d="M128.6,361c0.9-2.7,2.5-5.2,3.7-7.8c0.7-1.3,1.2-2.7,1.8-4.1c0.7-1.6,1.4-3.2,2.1-4.8c0.8-1.7,1.4-3.4,2.2-5
	c0.6-1.2,1.2-2.4,1.8-3.6c1.4-3,2.9-5.9,4.8-8.6c2.4-3.5,4.1-7.4,6-11.1c1.3-2.6,2.6-5.3,3.6-8c1.2-3.5,2.6-7,3.7-10.5
	c0.2-0.7,0.6-1.4,1-1.8c1.6-2,2-4.6,3.5-6.6c0.9-1.2,1.8-2.3,2.4-3.6c0.6-1.3,1.3-2.6,2.1-3.8c1-1.4,2-2.7,2.6-4.4
	c0.7-2,2.1-3.6,3.1-5.5c0.5-1,0.8-2.1,1.8-2.9c2.4-2,5-3.1,8.2-2.6c2.4,0.4,4.8,0.8,7,2.3c0.7,0.5,1.2,1.1,1.4,1.9
	c0.5,2.1,1.4,4.2,1.1,6.5c-0.2,1.6-0.5,3.1-1.2,4.5c-0.4,0.9-1,2-0.8,2.8c0.6,2.2-0.9,3.6-1.4,5.4c-0.8,2.5-2.1,4.8-3.8,6.8
	c-2.1,2.4-2.7,5.5-4.4,8.1c-1.2,1.9-2.5,3.8-3.8,5.7c-1.8,2.8-3.7,5.5-5.2,8.4c-0.9,1.7-1.9,3.4-2.9,5.1c-1.2,2.1-2.3,4.4-3.2,6.6
	c-0.5,1.3-1.2,2.4-1.8,3.6c-0.3,0.6-0.5,1.4-0.8,1.9c-1,1.6-2.1,3.1-3.2,4.5c-1,1.2-1.7,2.6-2.4,3.9c-0.7,1.2-1.6,2.2-2.3,3.3
	c-1,1.5-2,2.9-2.7,4.5c-1.5,2.2-3,4.4-4.3,6.8c-0.7,1-1.3,2.2-1.8,3.3c-0.6,1.4-1.3,2.6-2.1,3.9c-1.3,2-2.7,4.1-3.8,6.2
	c-0.5,1.4-1,2.8-1.9,4c-2,2.6-4.1,5.1-5.3,8.2c-0.2,0.5-0.4,0.8-0.9,0.9c-0.9,0.2-1.9,0.5-2.8,0.6c-0.4,0-0.9,0-1.3-0.4
	c-0.5-0.5-1.3-0.7-1.8-1.3c-0.1-0.1-0.3-0.1-0.4,0c-2,0.8-4.2,0.9-6.2,1.8c-0.5,0.2-1.1,0.3-1.4-0.3c-0.3-0.6-0.3-1.1,0.1-1.7
	c0.5-0.6,0.9-1.3,1.2-2c1.4-3.4,2.9-6.8,4.6-10.1C126,368.4,127.5,364.7,128.6,361z"/>
<path class="st9" d="M93.4,451.3c1-1.2,2.3-1.9,3.7-2.6c1.5-0.7,3.1-0.2,4.6,0.1c0.5,0.1,1,0.3,1.6,0.3c1,0.1,1.7,0.7,2.1,1.6
	c0.5,1.2,1.1,2.4,1.5,3.6c0.8,2.8,1,5.7,0.2,8.6c-0.2,0.7-0.6,1.2-0.9,1.9c-0.6,1.2-1.8,0.8-2.7,1.1c-0.8,0.3-1.6,0.6-2.3,0.9
	c-1.6,0.6-3.1,0.6-4.7,0c-0.3-0.1-0.6-0.3-0.8-0.1c-0.9,0.9-2.2,0.9-3.3,1.5c-0.6,0.3-1.1,0.1-1.2-0.5c-0.4-2.9-1.9-5.6-2.3-8.5
	c-0.4-2.9-1.4-5.6-2.3-8.3c-0.2-0.4-0.3-0.9-0.4-1.4c-0.1-0.6-0.2-1.1-0.9-1.2c-0.6-0.1-0.6-0.7-0.6-1.2c0-0.5,0.5-0.7,0.9-0.8
	c1.4-0.4,2.9-0.6,4.3-1.2c1-0.4,1.5-0.1,1.9,1c0.5,1.2,0.8,2.5,1.1,3.8C92.9,450.6,93.1,451,93.4,451.3z M101.1,457.5
	c-0.4-2.1-1.8-2.9-3.2-3.8c-0.5-0.3-0.9-0.7-1.6-0.6c-1,0.2-2.3,2-2.2,3c0.1,0.7,0.2,1.4,0.4,2.1c0.4,1.3,1.1,2.6,1.3,4
	c0.1,0.5,0.1,1.3,0.8,1.6c1.7,0.9,3.8,0.5,4.7-1.1c0.1-0.2,0.2-0.4,0.1-0.6C101.4,460.5,101.4,458.8,101.1,457.5z"/>
<path class="st9" d="M67.1,472.6c-0.6,0.2-1.5,0.3-2.2,0.7c-1.1,0.5-1.9,0-1.9-1.2c0-1.9-0.6-3.7-1.3-5.5c-0.5-1.3-0.7-2.8-1.4-4.1
	c-0.1-0.3-0.3-0.5-0.5-0.8c-0.6-0.9-1.3-0.9-1.9,0.1c-1.1,1.7-1.5,3.4-0.5,5.3c0.7,1.2,0.9,2.6,1.3,3.9c0.2,0.8,0.6,1.4,1.1,1.9
	c0.4,0.4,0.2,0.5,0,0.8c-0.4,0.4-0.9,0.5-1.5,0.6c-1.3,0.1-2.5,0.3-3.7,0.7c-0.6,0.2-1.1,0.1-1.4-0.4c-0.3-0.5-0.4-1.1-0.2-1.6
	c0.1-0.2,0.3-0.2,0.1-0.5c-0.5-0.6-0.7-1.3-0.8-2c-0.2-1.6-1.2-2.9-1.6-4.4c-0.7-2.3-1.7-4.5-2.4-6.8c-0.4-1.3-1.1-2.4-1.8-3.5
	c-0.7-1.1-0.6-1.6,0.6-2c1.1-0.3,2.1-0.8,3.3-0.8c1.3,0,2,0.4,2.3,1.7c0.4,1.7,1.3,3.3,1.7,5c0,0.2,0.1,0.4,0.4,0.4
	c0.3,0,0.3-0.2,0.4-0.4c0.9-1.8,2.8-2.2,4.5-2.4c3.4-0.3,5.8,1.6,7,4.9c0.9,2.5,1.6,5.2,2.8,7.6c0,0,0,0.1,0,0.1
	c0.9,2.2,0.9,2.2-1.5,2.8C67.6,472.5,67.4,472.5,67.1,472.6z"/>
<path class="st9" d="M123.2,450.1c0.5,2.2,1,4.4,1.5,6.6c0,0.2,0.1,0.3,0.2,0.5c0.8,1.6,0.8,1.5-0.6,2.5c-1.4,1-3.5,1.1-4.7-0.2
	c-0.3-0.3-0.5-0.3-0.7,0c-1.1,2-3.2,2.5-5,3.5c-1,0.6-3.2-0.3-3.7-1.4c-0.3-0.6-0.8-1.1-1-1.7c-0.6-1.9,0.5-5,2.2-6.1
	c1.7-1.1,3.2-2.5,4.9-3.5c0.7-0.5,0.5-1.2,0.3-1.8c-0.2-0.5-0.3-1.5-1.4-1.2c-0.5,0.1-1-0.2-1.5,0.2c-1.3,0.9-1.3,0.8-0.9,2.3
	c0.2,0.8,0.5,1.7-0.2,2.4c-0.9,0.8-2.1,1.2-3.3,1c-2.2-0.5-3-2.8-1.9-4.7c1.4-2.5,3.8-3.8,6.4-4.7c1.3-0.4,3-0.3,4.3,0.5
	c0.1,0.1,0.3,0.2,0.5,0.2c2.3,0.4,3.2,2.1,3.8,4c0.2,0.6,0.3,1.3,0.5,2C123.1,450.1,123.2,450.1,123.2,450.1z M116.5,458.8
	c0.3,0,0.5-0.2,0.7-0.4c0.7-0.8,0.8-1.9,1.5-2.7c0.2-0.2-0.6-2.1-0.9-2.3c-0.3-0.2-0.5,0-0.7,0.1c-0.9,0.6-1.6,1.4-2.4,2.1
	c-0.9,0.8-0.3,1.6,0,2.3C114.9,458.7,115.7,458.9,116.5,458.8z"/>
<path class="st9" d="M132.3,451.6c0.1,0.6,0.4,1.4,0.4,2.2c0,0.4,0.2,0.5,0.5,0.6c0.7,0.2,0.9,0.8,0.8,1.3c0,0.6-0.4,0.9-1,1.1
	c-1.6,0.4-3.1,1.2-4.8,1.3c-1.1,0.1-1.4-0.2-1.6-1.2c-0.7-3.5-0.8-7.1-1.6-10.6c-0.1-0.6-0.3-1.1-0.6-1.6c-1.2-1.8-0.8-3,1.2-3.8
	c0.6-0.2,1.1-0.7,1.7-0.9c1-0.3,1.9-0.2,2.4,0.8c0.3,0.5,0.6,0.2,0.7-0.1c1-2,2.9-2.6,4.9-3.1c1.5-0.4,3.1,0.7,3.6,2.2
	c0.6,2.1,1.3,4.1,1.8,6.2c0.3,1.5,0.3,3.1,0.5,4.6c0.1,0.4,0.1,0.8,0.3,1.1c0.5,1,0.2,1.8-1,2.1c-0.9,0.2-1.7,0.6-2.5,1.1
	c-0.5,0.3-1,0.3-1.5,0c-0.5-0.3-0.6-0.9-0.4-1.4c0.3-0.6,0.1-1.2,0-1.9c-0.5-2.1-0.9-4.1-1-6.2c-0.1-1.2-0.7-2.2-1.1-3.3
	c-0.1-0.3-0.4-0.4-0.8-0.4c-0.9-0.1-1.2,0.7-1.8,1.1c-0.1,0.1,0,0.7,0.1,1c0.4,1.6,0.2,3.3,0.4,4.9
	C131.9,449.6,132.1,450.4,132.3,451.6z"/>
<path class="st9" d="M35.2,463.5c0,1.9,1.3,3.4,2.7,4.9c1.2,1.4,2.7,2.3,4.4,2.9c2,0.6,5.3-0.3,5.8-2.9c0.1-0.7,0.7-1.2,1.3-1.1
	c0.7,0,0.7,0.7,0.8,1.2c0.5,2.1-0.5,5.1-2.3,5.9c-1.5,0.7-3.1,1.5-4.9,1.4c-1.1-0.1-3.3-0.7-4.4-0.9c-1.8-0.3-2.8-1.8-4.3-2.6
	c-1.2-0.7-1.7-2-2.3-3.2c-1.2-2.4-2-4.9-2.1-7.6c-0.1-2.7,1.2-4.7,3.3-6.3c1.1-0.9,2.4-1.2,3.7-1.4c1-0.2,1.9,0.3,2.8,0.5
	c2,0.4,4,1,5.3,2.8c1.1,1.7,1.7,3.5,0.7,5.5c-0.1,0.2-0.2,0.3-0.4,0.5c-2.2,1.3-5.3-0.1-5.7-2.6c-0.1-0.4,0.1-1.2-0.3-1.3
	c-0.9-0.4-1.7-1.1-2.8-1.1c-1.6,0-2.3,1.1-2,2.9C34.7,461.7,34.9,462.5,35.2,463.5z"/>
<path class="st9" d="M86.8,460c0.8,3.3,0.3,6-1.7,8.5c-0.9,1.1-1.9,1.9-3.1,2.5c-0.2,0.1-0.5,0.3-0.8,0.2c-1.4-0.4-2.8-0.1-4.2-0.2
	c-2-0.2-3.4-1.2-4.8-2.4c-2-1.6-3.2-3.7-3.3-6.2c-0.2-3,1.2-6.4,4.8-7.6c2-0.6,4-1,6-1.1c1.7-0.1,3.3,0.7,4.5,1.9
	C85.5,456.9,86.7,458.4,86.8,460z M81.2,463.7c-0.3-2.1-1.1-3.8-2-5.5c-0.6-1.1-1.4-1.3-2.4-1.2c-1.1,0-2.1,0.2-2.7,1.4
	c-0.5,1-0.2,1.9,0.1,2.9c0.6,2.1,1,4.2,2.4,6c0.6,0.8,2.6,1.8,3.5,1.6c0.7-0.2,1.7-1.5,1.6-2.6C81.6,465.3,81.3,464.4,81.2,463.7z"
	/>
<path class="st9" d="M144.4,452.4c-1.4,0.4-2.2-0.3-1.7-1.6c0.7-1.9,0.2-3.6-0.4-5.4c-0.6-1.8-0.9-3.8-1-5.7c0-0.4-0.1-0.8-0.4-1
	c-0.4-0.4-0.7-0.9-0.5-1.4c0.2-0.5,0.7-0.9,1.4-0.9c1-0.1,1.8-0.8,2.6-1.3c0.4-0.3,0.8-0.4,1.2-0.5c0.7-0.1,1.1,0.2,1.1,0.9
	c-0.1,2.6,0.6,5,1,7.6c0.3,2,0.6,4,1.3,5.9c0.2,0.5,0.1,1-0.3,1.3C147.3,450.8,145.9,451.8,144.4,452.4z"/>
<path class="st9" d="M146,429.9c1,2.4-2.3,5.2-4.6,4.5c-1.1-0.3-1.7-1.2-1.8-2.3c-0.1-1.5-0.1-3.1,1.2-4.2c2.3-1.9,4.3-0.4,5,1.6
	C145.9,429.6,145.9,429.8,146,429.9z"/>
<path class="st9" d="M152,449c-1.1,0.3-1.6,0.1-1.9-0.9c-0.5-1.8,0.1-3.1,1.7-3.6c0.9-0.3,1.7,0.4,2,1.6
	C154.2,447.5,153.6,448.6,152,449z"/>
<path class="st6" d="M124.1,371.8c-2.8-0.4-5.6-0.2-8.4,0.2c-1.9,0.3-3.8,1-5.6,1.4c-1.3,0.3-2.6,0.7-4,1c-2.1,0.5-4.3,1-6.4,1.5
	c-2.5,0.5-4.9,1.1-7.4,1.3c-2.2,0.2-4.4,0.9-6.6,0.8c-4.3-0.2-8.5,0.6-12.8,0.6c-1.2,0-2.4,0.4-3.6,0.7c-1.3,0.3-2.6,0.6-3.8,1.1
	c-1.5,0.6-3.1,0.8-4.4,1.8c-0.8,0.6-1.4,1.3-2.2,1.8c-1.8,1-3.5,2.1-5.4,2.8c-1.8,0.7-3.4,1.7-4.8,3c-1.7,1.7-3.7,2.7-5.9,3.6
	c-1,0.4-1.9,0.9-2.8,1.3c-1.3,0.6-2.7,0.7-4.1,1.1c-1.5,0.5-3,0.8-4.5,1.2c-1.8,0.5-3.6,0.9-5.3,1.6c-2.2,0.9-4.4,1.4-6.6,2.2
	c-1.4,0.5-2.8,1.1-4.1,1.7c-1.2,0.6-2.3,1.3-3.5,2c-2.3,1.3-4.7,2.3-6.8,3.9c-1.1,0.8-2,1.9-3.3,2.5c-1.2,0.6-2.3,1.5-3.6,2
	c-0.3,0.1-0.4,0.5-0.8,0.5c-0.5-0.1-0.5,0.2-0.5,0.5c0,0,0,0,0,0c-0.6,1-0.1,1.9,0.5,2.7c-1,0.2-1.7-0.1-2.3-0.8
	c-0.3-0.3-0.5-0.4-0.9-0.3c-1.4,0.4-2.8,0.5-4.2,0.2c-0.8-0.1-1.5-0.1-2.3-0.1c-2,0-3.9-0.8-5.8-1.3c-2.1-0.6-2.5-3.3-2.1-4.9
	c0.5-1.7,1.7-2.7,3-3.7c1.3-0.9,2.5-1.9,3.8-2.9c2.6-1.9,5.2-3.5,8.1-4.8c2.9-1.3,5.7-2.9,8.6-4.1c1.7-0.7,3.3-1.4,4.9-2.3
	c1.4-0.7,2.8-1.5,4.3-2.1c1.7-0.7,3.4-1.2,5-1.9c2-0.9,4.1-1.6,6.1-2.4c1.4-0.6,2.9-1.1,4.4-1.6c1.3-0.4,2.6-1.1,3.9-1.4
	c1.8-0.4,3.6-1.1,5.4-1.5c1-0.2,2-0.7,3-1.1c1.5-0.6,3.1-0.8,4.6-1.3c3.1-1,6.3-1.6,9.5-2.5c4.6-1.3,9.2-2.3,13.8-3.4
	c3.1-0.8,6.2-1.3,9.3-2.2c1.8-0.5,3.8-0.8,5.7-1.2c2.3-0.5,4.6-0.9,7-1.1c2.7-0.2,5.3-1.2,7.9-1.4c2.2-0.2,4.4-0.7,6.5-1.2
	c2-0.5,3.9-0.9,5.9-1.3c2.2-0.4,4.4-0.5,6.5-1.1c2.5-0.8,5.1-0.7,7.7-1.3c1.3-0.3,2.7-0.4,4.1-0.6
	C127.5,364.7,126,368.4,124.1,371.8z"/>
<path class="st6" d="M164.3,376.5c0.4-0.6,1-1.1,1.2-1.7c0.4-1.1-0.6-2.8-1.7-3.2c-1.6-0.6-3.3-0.6-5-0.4c-0.7,0.1-1.3,0-2,0
	c-2.9-0.2-5.9-0.5-8.8,0.1c-2.6,0.6-5.3,0.5-7.9,1.1c1.1-2.1,2.5-4.2,3.8-6.2c0.8-1.2,1.5-2.5,2.1-3.9c0.5-1.2,1.1-2.3,1.8-3.3
	c3.3-0.1,6.7,0.1,10,0c1.8-0.1,3.7,0.3,5.5,0.8c0.8,0.2,1.6,0.2,2.4,0.3c2.2,0.2,4.6,0.2,6.3,1.7c1.4,1.2,3,2.5,2.9,4.8
	c0,0.3,0,0.6-0.2,0.8c-1.5,1.5-2.2,3.7-3.9,5.1c-1.9,1.7-3.9,3.1-6.2,4.2C164.6,376.6,164.4,376.6,164.3,376.5z"/>
<path class="st6" d="M101.1,457.5c0.3,1.3,0.3,3,0.4,4.7c0,0.2,0,0.4-0.1,0.6c-1,1.6-3.1,2-4.7,1.1c-0.7-0.4-0.7-1.1-0.8-1.6
	c-0.2-1.4-1-2.6-1.3-4c-0.2-0.7-0.3-1.4-0.4-2.1c-0.1-1,1.2-2.8,2.2-3c0.6-0.1,1.1,0.3,1.6,0.6C99.3,454.6,100.7,455.4,101.1,457.5z
	"/>
<path class="st6" d="M116.5,458.8c-0.8,0.1-1.6-0.1-1.8-0.7c-0.3-0.7-0.9-1.5,0-2.3c0.8-0.7,1.5-1.5,2.4-2.1
	c0.2-0.2,0.4-0.3,0.7-0.1c0.2,0.1,1.1,2.1,0.9,2.3c-0.7,0.8-0.8,1.9-1.5,2.7C116.9,458.6,116.7,458.7,116.5,458.8z"/>
<path class="st6" d="M81.2,463.7c0.2,0.7,0.5,1.6,0.5,2.5c0.1,1.1-0.9,2.4-1.6,2.6c-0.9,0.2-2.9-0.8-3.5-1.6c-1.4-1.8-1.8-3.9-2.4-6
	c-0.3-1-0.6-1.9-0.1-2.9c0.6-1.2,1.7-1.3,2.7-1.4c1,0,1.8,0.1,2.4,1.2C80,459.9,80.9,461.6,81.2,463.7z"/>
<g>
	<path class="st10" d="M124.1,371.8c-1.7,3.3-3.2,6.7-4.6,10.1c-0.3,0.7-0.8,1.4-1.2,2c-0.4,0.6-0.5,1.1-0.1,1.7
		c0.3,0.6,0.9,0.5,1.4,0.3c2-0.8,4.2-1,6.2-1.8c0.2-0.1,0.3-0.1,0.4,0c0.5,0.6,1.3,0.8,1.8,1.3c0.4,0.5,0.9,0.5,1.3,0.4
		c0.9-0.1,1.9-0.4,2.8-0.6c0.5-0.1,0.7-0.4,0.9-0.9c1.2-3.1,3.3-5.6,5.3-8.2c0.9-1.2,1.4-2.6,1.9-4c2.6-0.6,5.2-0.5,7.9-1.1
		c2.9-0.6,5.8-0.3,8.8-0.1c0.7,0,1.3,0.1,2,0c1.7-0.2,3.4-0.2,5,0.4c1.1,0.4,2.2,2.2,1.7,3.2c-0.2,0.6-0.8,1.2-1.2,1.7
		c-0.1,0-0.3,0-0.3,0.1c-0.1,1.5-1.4,1.7-2.4,2.1c-0.9,0.4-1.7,0.7-2.4,1.4c-1.3,1.3-3.1,1.6-4.6,2.4c-2.5,1.2-5.1,2.2-7.7,3
		c-2.2,0.7-4.3,1.8-6.7,2.1c-1.8,0.2-3.6,0.8-5.4,1.2c-2.4,0.5-4.4,1.7-6.6,2.7c-1.3,0.6-2.7,0.9-4.1,1.2c-2.5,0.7-5,1.2-7.5,1.9
		c-3.3,0.9-6.6,1.6-9.7,2.9c-1.8,0.7-3.6,1.2-5.5,1.7c-3.1,0.9-6.3,1.7-9.4,2.6c-2.1,0.6-4.2,1.4-6.4,1.4c-0.4,0-0.7,0.3-1.1,0.4
		c-0.9,0.4-1.9,0.4-2.9,0.5c-1.2,0.1-2.4,0.7-3.7,1c-2.8,0.7-5.5,1.4-8.3,1.9c-2.1,0.4-4.1,0.8-6.1,1.3c-2.6,0.7-5.2,0.7-7.9,1.1
		c-1.2,0.2-2.4,0.6-3.6,0.8c-1.9,0.3-3.8,0.7-5.7,1c-1.5,0.2-2.8,0.9-4.3,1c-0.6,0.1-1.1,0.1-1.7,0.3c-2.3,0.4-4.5,1-6.8,1.3
		c-2.1,0.4-4.3,0.6-6.4,0.9c-0.9,0.1-1.8,0.4-2.7,0.5c-1.6,0.2-3.2,0-4.8-0.1c-0.1,0-0.2,0-0.3,0c-3.1,0.8-6.3,0.6-9.5,0.9
		c-1.8,0.1-3.5,0.5-5.3,0.6c-2,0.1-4,0.3-6-0.4c-0.2-0.1-0.5,0-0.8,0c-0.1-0.4,0.3-0.3,0.4-0.5c-0.1,0-0.5-0.7-0.6-0.7
		c-0.9,0-0.3-1-0.8-1.2c0,0,0,0,0,0c0.4,0,0.3-0.4,0.5-0.5c0.4,0,0.5-0.4,0.8-0.5c1.3-0.5,2.3-1.4,3.6-2c1.3-0.6,2.2-1.6,3.3-2.5
		c2.1-1.6,4.5-2.6,6.8-3.9c1.2-0.7,2.3-1.4,3.5-2c1.4-0.6,2.7-1.2,4.1-1.7c2.2-0.8,4.5-1.3,6.6-2.2c1.7-0.7,3.5-1.1,5.3-1.6
		c1.5-0.4,3-0.7,4.5-1.2c1.4-0.4,2.8-0.5,4.1-1.1c0.9-0.4,1.8-0.9,2.8-1.3c2.2-0.9,4.2-2,5.9-3.6c1.4-1.4,3-2.3,4.8-3
		c1.9-0.7,3.6-1.8,5.4-2.8c0.9-0.5,1.5-1.2,2.2-1.8c1.3-1,2.9-1.2,4.4-1.8c1.2-0.5,2.6-0.8,3.8-1.1c1.2-0.3,2.4-0.7,3.6-0.7
		c4.3,0,8.5-0.8,12.8-0.6c2.2,0.1,4.4-0.7,6.6-0.8c2.5-0.2,4.9-0.8,7.4-1.3c2.2-0.4,4.3-1,6.4-1.5c1.3-0.3,2.7-0.6,4-1
		c1.9-0.5,3.7-1.1,5.6-1.4C118.5,371.6,121.3,371.4,124.1,371.8z"/>
	<path class="st10" d="M-3.2,413.9c-0.1-0.4,0-0.6,0.5-0.5C-2.8,413.6-2.8,413.9-3.2,413.9z"/>
</g>
</svg>
