<svg
    version="1.1"
    xmlns="http://www.w3.org/2000/svg"
    width="19px"
    height="19px"
    viewBox="0 0 19 19"
>
    <path
        d="M19,18.4c0,0.2-0.1,0.4-0.3,0.5S18.4,19,18.2,19c-0.2,0-0.4-0.1-0.5-0.2l-6.4-6.3C10,13.6,8.2,14.1,6.4,14 S3,13,1.8,11.7C0.6,10.3,0,8.6,0,6.8C0.1,5,0.8,3.3,2,2s3-2,4.8-2s3.5,0.6,4.9,1.8C13,3,13.8,4.6,14,6.4c0.1,1.8-0.4,3.6-1.5,4.9 l6.4,6.4l0,0C19,18,19,18.2,19,18.4z M12.1,4.9c-0.3-0.7-0.7-1.3-1.2-1.8C10,2.2,8.8,1.7,7.5,1.5C6.3,1.4,5,1.7,3.9,2.4 s-1.8,1.8-2.2,3C1.4,6.6,1.4,7.9,1.9,9.1s1.4,2.1,2.5,2.7c1.1,0.6,2.4,0.8,3.7,0.5c1.2-0.2,2.4-0.9,3.2-1.9s1.2-2.2,1.2-3.5 C12.5,6.3,12.4,5.6,12.1,4.9z"
        fill="#1A3C34"
    ></path>
</svg>