<?xml version="1.0" encoding="utf-8"?>
<!-- Generator: Adobe Illustrator 27.0.0, SVG Export Plug-In . SVG Version: 6.00 Build 0)  -->
<svg version="1.1" id="Layer_1" xmlns="http://www.w3.org/2000/svg" xmlns:xlink="http://www.w3.org/1999/xlink" x="0px" y="0px"
	 viewBox="0 0 500 500" style="enable-background:new 0 0 500 500;" xml:space="preserve">
<style type="text/css">
	.st0{fill:#002B4A;}
	.st1{fill:#EAE7E0;}
	.st2{fill:#0070CF;}
</style>
<path class="st0" d="M466.3,154.1c18.6,47,19.7,89.4,13.9,135.1c-9.5,74.3-46.4,126.6-105.4,168.6c-25.5,18.2-53.2,18.2-81,20
	c-60.6,4-113.4-23.7-163.4-51.2c-23.7-13-38.9-44.4-53.5-70c-13.9-24.4-23.8-51.5-32.5-78.3c-9.9-30.8,2.6-60.2,9.4-90.1
	c10-44,39.9-75.1,68.1-106.3c13.6-15,36.9-22,56.8-30.3c16.8-7,35.5-9.6,52.7-15.8c57.3-20.6,107.2-0.9,155.4,27.9
	C424.5,86.3,457.3,113.2,466.3,154.1z"/>
<path class="st1" d="M166.9,298.8c-0.2-3.3-0.5-6-0.6-8.7c0-1.9,3-4.4,5.5-4.8c0.5-0.1,1.1-0.2,1.3-0.5c2.6-3.6,6.7-4.6,10.5-6
	c9.2-3.5,18.5-6.9,27.7-10.3c5.3-2,10.4-4.1,15.7-6.3c3.9-1.6,7.8-3.2,11.8-4.8c2-0.8,4-1.8,6-2.6c2.3-0.9,4.7-1.6,7.1-2.3
	c0.9-0.3,1.7-0.7,2.6-1c2.7-0.8,5.5-1.6,8.2-2.2c1.7-0.4,3.4,1,3.9,2.8c0.2,0.5,0.3,1.2,0.7,1.6c0.8,1,2.2,1.8,1.3,3.3
	c-0.7,1.1-1.5,2.2-2.6,2.7c-4.5,2.1-9.1,4-13.7,6c-3,1.3-5.9,2.5-8.9,3.7c-9.4,3.8-18.8,7.6-28.2,11.4c-7.6,3-15.2,6-22.8,9
	c-6.8,2.7-13.7,5.4-20.5,8C170.3,298.4,168.8,298.4,166.9,298.8z"/>
<path class="st1" d="M274.4,271.3c-0.9,2.8-0.9,2.8,0,3.9c-2.7,5.3-7.5,8.2-12.5,10.9c-0.2,0.1-0.5,0.2-0.7,0.4
	c-7,6-13,12.8-16.8,21.4c-1.4,3.1-3.3,6-4.9,9c-4.1,7.9-6.6,16.2-7.3,25.2c-0.2,3-0.9,6-1.5,9c-0.3,1.8-0.3,3.8-1.3,5.5
	c-0.3,0.4-0.6,1.1-1,1.1c-2.8,0.3-5.4,1.5-8.3,0.7c-1.9-0.5-2.7-1.6-2.6-3.3c0.2-10.4,0.7-20.7,3.9-30.7c0.9-2.8,2.5-5.5,3.8-8.2
	c1.9-3.9,3.8-7.9,6-11.6c4.4-7.5,10.1-14,16.5-19.9c2.4-2.2,4.4-4.8,7-6.8c4.2-3.2,8.8-6.1,13.2-9.1c1-0.7,3.3,0,4.1,1
	C272.7,270.1,273.5,270.5,274.4,271.3z"/>
<path class="st1" d="M260.8,234.7c-2.5-1.6-2.5-1.6-2.5-2.9c-5.5-2.2-11-1.2-16.5,0c-0.2,0.1-0.5,0.2-0.7,0.2
	c-9.2,0-18.2-1.1-26.7-5.1c-3.1-1.5-6.4-2.4-9.6-3.6c-8.3-3.3-15.6-7.9-22-14.2c-2.1-2.1-4.6-3.9-7-5.8c-1.5-1.2-2.7-2.7-4.6-3.3
	c-0.5-0.2-1.2-0.4-1.5-0.2c-2.3,1.6-5.1,2.4-6.7,5c-1.1,1.6-1,3,0.2,4.2c7,7.7,14.1,15.2,23.1,20.6c2.5,1.6,5.5,2.5,8.3,3.6
	c4,1.7,8,3.5,12.1,4.8c8.3,2.8,16.8,3.9,25.5,4.3c3.3,0.1,6.5,0.7,9.8,0.5c5.3-0.3,10.6-1.1,15.9-1.8c1.2-0.2,2.5-2.2,2.5-3.4
	C260.3,236.8,260.6,235.9,260.8,234.7z"/>
<path class="st1" d="M330.3,308.9c-4.8,2.9-9.7,6-14.7,8.9c-5.3,3.1-12.4,0.8-14.9-4.8c-1.1-2.5-1.4-5.4-2.6-7.9
	c-1.6-3.5-3.8-6.7-5.4-10.2c-0.9-2-1-4.4-1.8-6.5c-1.8-4.6-3.8-9.1-5.6-13.7c-1-2.4-1.6-5-2.5-7.5c-5.5-14.1-10.7-28.3-16.5-42.2
	c-4.2-9.8-9.2-19.3-13.9-28.9c-3.2-6.4-1.2-12.4,5.4-15c3.1-1.2,6.5-1.5,9.8-2c4.1-0.6,6,2.4,8.1,5.2c1.8,2.3,3.5,4.7,7.4,3.7
	c10.9-2.7,21.8-5.1,32.8-7.5c8.9-2,17.8-3.9,26.8-5.9c0.9-0.2,1.8-0.5,3-0.8c-3.7-9.9-7.5-19.6-11-29.5c-1.8-5.1-3.1-10.3-4.7-15.4
	c-0.4-1.1-1.2-2.1-1.7-3.1c-2.8-5.6-5.6-11.2-8.4-16.7c-2.5-4.8-5.2-9.5-7.5-14.3c-2.1-4.4-1.1-5.2,2.8-8.1
	c6.3-4.6,13.5-6.8,20.5-9.9c1.6-0.7,5.5,1.6,6.7,4.1c0.7,1.5,1.2,3.1,1.7,4.6c3.5,9.9,6.8,19.8,10.5,29.6c1.5,4,4.2,7.5,5.3,11.5
	c1.7,6.3,4.9,11.7,8.5,17.1c2.7,4.1,3.7,9.3,5.4,14c1,2.7,2,5.5,3.1,8.4c6.2-1.3,12.1-2.6,18.1-3.7c8.2-1.4,16.5-2.8,24.8-3.8
	c3.3-0.4,6.7,0.1,10,0.6c1.1,0.2,2.6,1.4,3.1,2.5c4.3,9.7,8.4,19.4,12.5,29.2c1.2,2.8,2,5.8,3.6,8.4c1.9,3.1,0.1,4.6-1.9,6.1
	c-4,2.7-8.2,5.3-12.2,7.9c-0.7,0.5-1.5,0.9-2,1.6c-4.9,5.9-11.8,8.3-18.5,11.2c-1.7,0.7-3.3,2-4.8,3.1
	c-10.6,7.1-21.1,14.1-31.6,21.2c-1.8,1.3-3.5,2.9-5,4.5c-13,14.3-27.1,27.6-42.9,38.8c-2.5,1.8-2.4,3.8-1.8,6.2
	c0.8,2.9,1.6,5.9,2.4,8.9C330.5,308.6,330.4,308.7,330.3,308.9z"/>
<path class="st2" d="M244.1,383.6c2.4,6.2,2.6,11.8,1.8,17.8c-1.2,9.8-6.1,16.7-13.9,22.2c-3.4,2.4-7,2.4-10.7,2.6
	c-8,0.5-15-3.1-21.6-6.8c-3.1-1.7-5.1-5.9-7.1-9.2c-1.8-3.2-3.1-6.8-4.3-10.3c-1.3-4.1,0.3-7.9,1.2-11.9c1.3-5.8,5.3-9.9,9-14
	c1.8-2,4.9-2.9,7.5-4c2.2-0.9,4.7-1.3,7-2.1c7.6-2.7,14.1-0.1,20.5,3.7C238.6,374.6,242.9,378.2,244.1,383.6z"/>
<path class="st2" d="M157,291.3c2.4,6.2,2.6,11.8,1.8,17.8c-1.2,9.8-6.1,16.7-13.9,22.2c-3.4,2.4-7,2.4-10.7,2.6
	c-8,0.5-15-3.1-21.6-6.8c-3.1-1.7-5.1-5.9-7.1-9.2c-1.8-3.2-3.1-6.8-4.3-10.3c-1.3-4.1,0.3-7.9,1.2-11.9c1.3-5.8,5.3-9.9,9-14
	c1.8-2,4.9-2.9,7.5-4c2.2-0.9,4.7-1.3,7-2.1c7.6-2.7,14.1-0.1,20.5,3.7C151.5,282.3,155.8,285.9,157,291.3z"/>
<path class="st2" d="M162.2,164.5c2.4,6.2,2.6,11.8,1.8,17.8c-1.2,9.8-6.1,16.7-13.9,22.2c-3.4,2.4-7,2.4-10.7,2.6
	c-8,0.5-15-3.1-21.6-6.8c-3.1-1.7-5.1-5.9-7.1-9.2c-1.8-3.2-3.1-6.8-4.3-10.3c-1.3-4.1,0.3-7.9,1.2-11.9c1.3-5.8,5.3-9.9,9-14
	c1.8-2,4.9-2.9,7.5-4c2.2-0.9,4.7-1.3,7-2.1c7.6-2.7,14.1-0.1,20.5,3.7C156.7,155.5,161,159.1,162.2,164.5z"/>
</svg>
