<svg width="17" height="20" viewBox="0 0 17 20" fill="none" xmlns="http://www.w3.org/2000/svg">
    <path
        d="M6.4079 7.86936V10.86L6.19779 10.8381C5.88736 10.8078 5.57403 10.8366 5.27418 10.9229C4.26775 11.2017 3.55425 11.8263 3.16658 12.8028C2.61509 14.1912 3.16007 15.8698 4.56104 16.6428C5.08756 16.9411 5.69286 17.0683 6.29398 17.0068C7.43457 16.8903 8.3137 16.3429 8.88725 15.3326C9.1404 14.8882 9.23912 14.4012 9.23948 13.8906C9.24117 11.8665 9.2443 9.8426 9.24889 7.81877C9.25419 5.25071 9.2601 2.68278 9.26661 0.11496C9.26661 0.0822038 9.26661 0.0498117 9.26661 0.0192396C9.34255 -0.00114186 11.9658 -0.00769197 12.1159 0.0112336C12.2653 1.28507 12.7835 2.38312 13.7024 3.27808C14.6213 4.17304 15.7225 4.65856 16.9976 4.76775V8.09647C16.045 8.19087 15.085 8.0195 14.2228 7.60113C13.3465 7.18003 12.6388 6.55876 12.0779 5.75115C12.0779 5.78755 12.0754 5.82394 12.0754 5.86252C12.0754 8.17654 12.0754 10.4906 12.0754 12.8046C12.0754 13.1773 12.0776 13.5496 12.0754 13.9223C12.066 15.2846 11.6639 16.5176 10.8397 17.5982C9.93563 18.7862 8.74947 19.5421 7.2939 19.8635C6.81708 19.9702 6.3286 20.0147 5.8405 19.9959C4.41602 19.9388 3.15609 19.45 2.07951 18.5088C1.09732 17.651 0.46012 16.5799 0.158157 15.306C0.0670639 14.9078 0.0154611 14.5015 0.00410276 14.093C-0.0315179 13.1377 0.165246 12.1882 0.57729 11.3269C1.0714 10.2698 1.86017 9.37997 2.84762 8.76578C3.49813 8.35511 4.22142 8.07494 4.97764 7.9407C5.41966 7.86077 5.8695 7.83352 6.31785 7.85953C6.34425 7.85844 6.37282 7.86427 6.4079 7.86936Z"
        fill="#8D9D99"></path>
    <path
        d="M6.4079 7.86936V10.86L6.19779 10.8381C5.88736 10.8078 5.57403 10.8366 5.27418 10.9229C4.26775 11.2017 3.55425 11.8263 3.16658 12.8028C2.61509 14.1912 3.16007 15.8698 4.56104 16.6428C5.08756 16.9411 5.69286 17.0683 6.29398 17.0068C7.43457 16.8903 8.3137 16.3429 8.88725 15.3326C9.1404 14.8882 9.23912 14.4012 9.23948 13.8906C9.24117 11.8665 9.2443 9.8426 9.24889 7.81877C9.25419 5.25071 9.2601 2.68278 9.26661 0.11496C9.26661 0.0822038 9.26661 0.0498117 9.26661 0.0192396C9.34255 -0.00114186 11.9658 -0.00769197 12.1159 0.0112336C12.2653 1.28507 12.7835 2.38312 13.7024 3.27808C14.6213 4.17304 15.7225 4.65856 16.9976 4.76775V8.09647C16.045 8.19087 15.085 8.0195 14.2228 7.60113C13.3465 7.18003 12.6388 6.55876 12.0779 5.75115C12.0779 5.78755 12.0754 5.82394 12.0754 5.86252C12.0754 8.17654 12.0754 10.4906 12.0754 12.8046C12.0754 13.1773 12.0776 13.5496 12.0754 13.9223C12.066 15.2846 11.6639 16.5176 10.8397 17.5982C9.93563 18.7862 8.74947 19.5421 7.2939 19.8635C6.81708 19.9702 6.3286 20.0147 5.8405 19.9959C4.41602 19.9388 3.15609 19.45 2.07951 18.5088C1.09732 17.651 0.46012 16.5799 0.158157 15.306C0.0670639 14.9078 0.0154611 14.5015 0.00410276 14.093C-0.0315179 13.1377 0.165246 12.1882 0.57729 11.3269C1.0714 10.2698 1.86017 9.37997 2.84762 8.76578C3.49813 8.35511 4.22142 8.07494 4.97764 7.9407C5.41966 7.86077 5.8695 7.83352 6.31785 7.85953C6.34425 7.85844 6.37282 7.86427 6.4079 7.86936Z"
        fill="#EAE8E1"></path>
</svg>