<svg width="28" height="20" viewBox="0 0 28 20" fill="none" xmlns="http://www.w3.org/2000/svg">
    <g clip-path="url(#clip0_15557_122208)">
        <path fill-rule="evenodd" clip-rule="evenodd"
            d="M11.109 13.6882L11.1081 5.69867L18.6734 9.7072L11.109 13.6882ZM27.72 4.31421C27.72 4.31421 27.4461 2.35482 26.607 1.49198C25.5421 0.359 24.3486 0.353668 23.8017 0.287911C19.8835 3.61067e-07 14.0061 0 14.0061 0H13.9939C13.9939 0 8.1165 3.61067e-07 4.19825 0.287911C3.6505 0.353668 2.45787 0.359 1.39212 1.49198C0.553 2.35482 0.28 4.31421 0.28 4.31421C0.28 4.31421 0 6.61572 0 8.91634V11.0739C0 13.3754 0.28 15.676 0.28 15.676C0.28 15.676 0.553 17.6354 1.39212 18.4982C2.45787 19.6312 3.857 19.5957 4.48 19.7139C6.72 19.9325 14 20 14 20C14 20 19.8835 19.9911 23.8017 19.7032C24.3486 19.6366 25.5421 19.6312 26.607 18.4982C27.4461 17.6354 27.72 15.676 27.72 15.676C27.72 15.676 28 13.3754 28 11.0739V8.91634C28 6.61572 27.72 4.31421 27.72 4.31421Z"
            fill="#EAE8E1"></path>
    </g>
    <defs>
        <clipPath id="clip0_15557_122208">
            <rect width="28" height="20" fill="white"></rect>
        </clipPath>
    </defs>
</svg>